0
SECTION
2
HEADER
9
$INSUNITS
70
4
0
ENDSEC
0
SECTION
2
TABLES
0
TABLE
2
LTYPE
0
LTYPE
72
65
70
64
2
CONTINUOUS
3
______
73
0
40
0
0
ENDTAB
0
TABLE
2
LAYER
0
ENDTAB
0
ENDSEC
0
SECTION
2
ENTITIES
0
LINE
8
0
10
2.525
20
-2.525
11
16.525
21
-2.525
0
LINE
8
0
10
2.525
20
-16.525
11
16.525
21
-16.525
0
LINE
8
0
10
2.525
20
-2.525
11
2.525
21
-16.525
0
LINE
8
0
10
16.525
20
-2.525
11
16.525
21
-16.525
0
LINE
8
0
10
288.275
20
-2.525
11
302.275
21
-2.525
0
LINE
8
0
10
288.275
20
-16.525
11
302.275
21
-16.525
0
LINE
8
0
10
288.275
20
-2.525
11
288.275
21
-16.525
0
LINE
8
0
10
302.275
20
-2.525
11
302.275
21
-16.525
0
LINE
8
0
10
307.325
20
-2.525
11
321.325
21
-2.525
0
LINE
8
0
10
307.325
20
-16.525
11
321.325
21
-16.525
0
LINE
8
0
10
307.325
20
-2.525
11
307.325
21
-16.525
0
LINE
8
0
10
321.325
20
-2.525
11
321.325
21
-16.525
0
LINE
8
0
10
326.375
20
-2.525
11
340.375
21
-2.525
0
LINE
8
0
10
326.375
20
-16.525
11
340.375
21
-16.525
0
LINE
8
0
10
326.375
20
-2.525
11
326.375
21
-16.525
0
LINE
8
0
10
340.375
20
-2.525
11
340.375
21
-16.525
0
LINE
8
0
10
345.425
20
-2.525
11
359.425
21
-2.525
0
LINE
8
0
10
345.425
20
-16.525
11
359.425
21
-16.525
0
LINE
8
0
10
345.425
20
-2.525
11
345.425
21
-16.525
0
LINE
8
0
10
359.425
20
-2.525
11
359.425
21
-16.525
0
LINE
8
0
10
40.625
20
-12.05
11
54.625
21
-12.05
0
LINE
8
0
10
40.625
20
-26.05
11
54.625
21
-26.05
0
LINE
8
0
10
40.625
20
-12.05
11
40.625
21
-26.05
0
LINE
8
0
10
54.625
20
-12.05
11
54.625
21
-26.05
0
LINE
8
0
10
59.675
20
-12.05
11
73.675
21
-12.05
0
LINE
8
0
10
59.675
20
-26.05
11
73.675
21
-26.05
0
LINE
8
0
10
59.675
20
-12.05
11
59.675
21
-26.05
0
LINE
8
0
10
73.675
20
-12.05
11
73.675
21
-26.05
0
LINE
8
0
10
78.725
20
-12.05
11
92.725
21
-12.05
0
LINE
8
0
10
78.725
20
-26.05
11
92.725
21
-26.05
0
LINE
8
0
10
78.725
20
-12.05
11
78.725
21
-26.05
0
LINE
8
0
10
92.725
20
-12.05
11
92.725
21
-26.05
0
LINE
8
0
10
97.775
20
-12.05
11
111.775
21
-12.05
0
LINE
8
0
10
97.775
20
-26.05
11
111.775
21
-26.05
0
LINE
8
0
10
97.775
20
-12.05
11
97.775
21
-26.05
0
LINE
8
0
10
111.775
20
-12.05
11
111.775
21
-26.05
0
LINE
8
0
10
116.825
20
-12.05
11
130.825
21
-12.05
0
LINE
8
0
10
116.825
20
-26.05
11
130.825
21
-26.05
0
LINE
8
0
10
116.825
20
-12.05
11
116.825
21
-26.05
0
LINE
8
0
10
130.825
20
-12.05
11
130.825
21
-26.05
0
LINE
8
0
10
135.875
20
-12.05
11
149.875
21
-12.05
0
LINE
8
0
10
135.875
20
-26.05
11
149.875
21
-26.05
0
LINE
8
0
10
135.875
20
-12.05
11
135.875
21
-26.05
0
LINE
8
0
10
149.875
20
-12.05
11
149.875
21
-26.05
0
LINE
8
0
10
154.925
20
-12.05
11
168.925
21
-12.05
0
LINE
8
0
10
154.925
20
-26.05
11
168.925
21
-26.05
0
LINE
8
0
10
154.925
20
-12.05
11
154.925
21
-26.05
0
LINE
8
0
10
168.925
20
-12.05
11
168.925
21
-26.05
0
LINE
8
0
10
173.975
20
-12.05
11
187.975
21
-12.05
0
LINE
8
0
10
173.975
20
-26.05
11
187.975
21
-26.05
0
LINE
8
0
10
173.975
20
-12.05
11
173.975
21
-26.05
0
LINE
8
0
10
187.975
20
-12.05
11
187.975
21
-26.05
0
LINE
8
0
10
193.025
20
-12.05
11
207.025
21
-12.05
0
LINE
8
0
10
193.025
20
-26.05
11
207.025
21
-26.05
0
LINE
8
0
10
193.025
20
-12.05
11
193.025
21
-26.05
0
LINE
8
0
10
207.025
20
-12.05
11
207.025
21
-26.05
0
LINE
8
0
10
212.075
20
-12.05
11
226.075
21
-12.05
0
LINE
8
0
10
212.075
20
-26.05
11
226.075
21
-26.05
0
LINE
8
0
10
212.075
20
-12.05
11
212.075
21
-26.05
0
LINE
8
0
10
226.075
20
-12.05
11
226.075
21
-26.05
0
LINE
8
0
10
231.125
20
-12.05
11
245.125
21
-12.05
0
LINE
8
0
10
231.125
20
-26.05
11
245.125
21
-26.05
0
LINE
8
0
10
231.125
20
-12.05
11
231.125
21
-26.05
0
LINE
8
0
10
245.125
20
-12.05
11
245.125
21
-26.05
0
LINE
8
0
10
250.175
20
-12.05
11
264.175
21
-12.05
0
LINE
8
0
10
250.175
20
-26.05
11
264.175
21
-26.05
0
LINE
8
0
10
250.175
20
-12.05
11
250.175
21
-26.05
0
LINE
8
0
10
264.175
20
-12.05
11
264.175
21
-26.05
0
LINE
8
0
10
2.525
20
-21.575
11
16.525
21
-21.575
0
LINE
8
0
10
2.525
20
-35.575
11
16.525
21
-35.575
0
LINE
8
0
10
2.525
20
-21.575
11
2.525
21
-35.575
0
LINE
8
0
10
16.525
20
-21.575
11
16.525
21
-35.575
0
LINE
8
0
10
288.275
20
-21.575
11
302.275
21
-21.575
0
LINE
8
0
10
288.275
20
-35.575
11
302.275
21
-35.575
0
LINE
8
0
10
288.275
20
-21.575
11
288.275
21
-35.575
0
LINE
8
0
10
302.275
20
-21.575
11
302.275
21
-35.575
0
LINE
8
0
10
307.325
20
-21.575
11
321.325
21
-21.575
0
LINE
8
0
10
307.325
20
-35.575
11
321.325
21
-35.575
0
LINE
8
0
10
307.325
20
-21.575
11
307.325
21
-35.575
0
LINE
8
0
10
321.325
20
-21.575
11
321.325
21
-35.575
0
LINE
8
0
10
326.375
20
-21.575
11
340.375
21
-21.575
0
LINE
8
0
10
326.375
20
-35.575
11
340.375
21
-35.575
0
LINE
8
0
10
326.375
20
-21.575
11
326.375
21
-35.575
0
LINE
8
0
10
340.375
20
-21.575
11
340.375
21
-35.575
0
LINE
8
0
10
359.425
20
-31.1
11
359.425
21
-45.1
0
LINE
8
0
10
345.425
20
-31.1
11
345.425
21
-45.1
0
LINE
8
0
10
359.425
20
-31.1
11
345.425
21
-31.1
0
LINE
8
0
10
359.425
20
-45.1
11
345.425
21
-45.1
0
LINE
8
0
10
358.1146
20
-22.8346
11
358.1146
21
-29.4894
0
LINE
8
0
10
358.1146
20
-29.4894
11
357.3018
21
-29.4894
0
LINE
8
0
10
357.3018
20
-29.4894
11
357.3018
21
-38.1
0
LINE
8
0
10
346.6084
20
-38.1
11
346.6084
21
-29.4894
0
LINE
8
0
10
346.6084
20
-29.4894
11
345.821
21
-29.4894
0
LINE
8
0
10
345.821
20
-29.4894
11
345.821
21
-27.686
0
LINE
8
0
10
345.821
20
-27.686
11
344.6526
21
-27.686
0
LINE
8
0
10
344.6526
20
-27.686
11
344.6526
21
-24.638
0
LINE
8
0
10
344.6526
20
-24.638
11
345.821
21
-24.638
0
LINE
8
0
10
345.821
20
-24.638
11
345.821
21
-22.8346
0
LINE
8
0
10
345.821
20
-22.8346
11
351.917
21
-22.8346
0
LINE
8
0
10
351.917
20
-22.8346
11
351.917
21
-21.971
0
LINE
8
0
10
351.917
20
-21.971
11
354.711
21
-21.971
0
LINE
8
0
10
354.711
20
-21.971
11
354.711
21
-22.8346
0
LINE
8
0
10
354.711
20
-22.8346
11
358.1146
21
-22.8346
0
LINE
8
0
10
358.1146
20
-53.3654
11
358.1146
21
-46.7106
0
LINE
8
0
10
358.1146
20
-46.7106
11
357.3018
21
-46.7106
0
LINE
8
0
10
357.3018
20
-46.7106
11
357.3018
21
-38.1
0
LINE
8
0
10
346.6084
20
-38.1
11
346.6084
21
-46.7106
0
LINE
8
0
10
346.6084
20
-46.7106
11
345.821
21
-46.7106
0
LINE
8
0
10
345.821
20
-46.7106
11
345.821
21
-48.514
0
LINE
8
0
10
345.821
20
-48.514
11
344.6526
21
-48.514
0
LINE
8
0
10
344.6526
20
-48.514
11
344.6526
21
-51.562
0
LINE
8
0
10
344.6526
20
-51.562
11
345.821
21
-51.562
0
LINE
8
0
10
345.821
20
-51.562
11
345.821
21
-53.3654
0
LINE
8
0
10
345.821
20
-53.3654
11
351.917
21
-53.3654
0
LINE
8
0
10
351.917
20
-53.3654
11
351.917
21
-54.229
0
LINE
8
0
10
351.917
20
-54.229
11
354.711
21
-54.229
0
LINE
8
0
10
354.711
20
-54.229
11
354.711
21
-53.3654
0
LINE
8
0
10
354.711
20
-53.3654
11
358.1146
21
-53.3654
0
LINE
8
0
10
40.625
20
-31.1
11
54.625
21
-31.1
0
LINE
8
0
10
40.625
20
-45.1
11
54.625
21
-45.1
0
LINE
8
0
10
40.625
20
-31.1
11
40.625
21
-45.1
0
LINE
8
0
10
54.625
20
-31.1
11
54.625
21
-45.1
0
LINE
8
0
10
59.675
20
-31.1
11
73.675
21
-31.1
0
LINE
8
0
10
59.675
20
-45.1
11
73.675
21
-45.1
0
LINE
8
0
10
59.675
20
-31.1
11
59.675
21
-45.1
0
LINE
8
0
10
73.675
20
-31.1
11
73.675
21
-45.1
0
LINE
8
0
10
78.725
20
-31.1
11
92.725
21
-31.1
0
LINE
8
0
10
78.725
20
-45.1
11
92.725
21
-45.1
0
LINE
8
0
10
78.725
20
-31.1
11
78.725
21
-45.1
0
LINE
8
0
10
92.725
20
-31.1
11
92.725
21
-45.1
0
LINE
8
0
10
97.775
20
-31.1
11
111.775
21
-31.1
0
LINE
8
0
10
97.775
20
-45.1
11
111.775
21
-45.1
0
LINE
8
0
10
97.775
20
-31.1
11
97.775
21
-45.1
0
LINE
8
0
10
111.775
20
-31.1
11
111.775
21
-45.1
0
LINE
8
0
10
116.825
20
-31.1
11
130.825
21
-31.1
0
LINE
8
0
10
116.825
20
-45.1
11
130.825
21
-45.1
0
LINE
8
0
10
116.825
20
-31.1
11
116.825
21
-45.1
0
LINE
8
0
10
130.825
20
-31.1
11
130.825
21
-45.1
0
LINE
8
0
10
135.875
20
-31.1
11
149.875
21
-31.1
0
LINE
8
0
10
135.875
20
-45.1
11
149.875
21
-45.1
0
LINE
8
0
10
135.875
20
-31.1
11
135.875
21
-45.1
0
LINE
8
0
10
149.875
20
-31.1
11
149.875
21
-45.1
0
LINE
8
0
10
154.925
20
-31.1
11
168.925
21
-31.1
0
LINE
8
0
10
154.925
20
-45.1
11
168.925
21
-45.1
0
LINE
8
0
10
154.925
20
-31.1
11
154.925
21
-45.1
0
LINE
8
0
10
168.925
20
-31.1
11
168.925
21
-45.1
0
LINE
8
0
10
173.975
20
-31.1
11
187.975
21
-31.1
0
LINE
8
0
10
173.975
20
-45.1
11
187.975
21
-45.1
0
LINE
8
0
10
173.975
20
-31.1
11
173.975
21
-45.1
0
LINE
8
0
10
187.975
20
-31.1
11
187.975
21
-45.1
0
LINE
8
0
10
193.025
20
-31.1
11
207.025
21
-31.1
0
LINE
8
0
10
193.025
20
-45.1
11
207.025
21
-45.1
0
LINE
8
0
10
193.025
20
-31.1
11
193.025
21
-45.1
0
LINE
8
0
10
207.025
20
-31.1
11
207.025
21
-45.1
0
LINE
8
0
10
212.075
20
-31.1
11
226.075
21
-31.1
0
LINE
8
0
10
212.075
20
-45.1
11
226.075
21
-45.1
0
LINE
8
0
10
212.075
20
-31.1
11
212.075
21
-45.1
0
LINE
8
0
10
226.075
20
-31.1
11
226.075
21
-45.1
0
LINE
8
0
10
231.125
20
-31.1
11
245.125
21
-31.1
0
LINE
8
0
10
231.125
20
-45.1
11
245.125
21
-45.1
0
LINE
8
0
10
231.125
20
-31.1
11
231.125
21
-45.1
0
LINE
8
0
10
245.125
20
-31.1
11
245.125
21
-45.1
0
LINE
8
0
10
250.175
20
-31.1
11
264.175
21
-31.1
0
LINE
8
0
10
250.175
20
-45.1
11
264.175
21
-45.1
0
LINE
8
0
10
250.175
20
-31.1
11
250.175
21
-45.1
0
LINE
8
0
10
264.175
20
-31.1
11
264.175
21
-45.1
0
LINE
8
0
10
2.525
20
-40.625
11
16.525
21
-40.625
0
LINE
8
0
10
2.525
20
-54.625
11
16.525
21
-54.625
0
LINE
8
0
10
2.525
20
-40.625
11
2.525
21
-54.625
0
LINE
8
0
10
16.525
20
-40.625
11
16.525
21
-54.625
0
LINE
8
0
10
288.275
20
-40.625
11
302.275
21
-40.625
0
LINE
8
0
10
288.275
20
-54.625
11
302.275
21
-54.625
0
LINE
8
0
10
288.275
20
-40.625
11
288.275
21
-54.625
0
LINE
8
0
10
302.275
20
-40.625
11
302.275
21
-54.625
0
LINE
8
0
10
307.325
20
-40.625
11
321.325
21
-40.625
0
LINE
8
0
10
307.325
20
-54.625
11
321.325
21
-54.625
0
LINE
8
0
10
307.325
20
-40.625
11
307.325
21
-54.625
0
LINE
8
0
10
321.325
20
-40.625
11
321.325
21
-54.625
0
LINE
8
0
10
326.375
20
-40.625
11
340.375
21
-40.625
0
LINE
8
0
10
326.375
20
-54.625
11
340.375
21
-54.625
0
LINE
8
0
10
326.375
20
-40.625
11
326.375
21
-54.625
0
LINE
8
0
10
340.375
20
-40.625
11
340.375
21
-54.625
0
LINE
8
0
10
40.625
20
-50.15
11
54.625
21
-50.15
0
LINE
8
0
10
40.625
20
-64.15
11
54.625
21
-64.15
0
LINE
8
0
10
40.625
20
-50.15
11
40.625
21
-64.15
0
LINE
8
0
10
54.625
20
-50.15
11
54.625
21
-64.15
0
LINE
8
0
10
59.675
20
-50.15
11
73.675
21
-50.15
0
LINE
8
0
10
59.675
20
-64.15
11
73.675
21
-64.15
0
LINE
8
0
10
59.675
20
-50.15
11
59.675
21
-64.15
0
LINE
8
0
10
73.675
20
-50.15
11
73.675
21
-64.15
0
LINE
8
0
10
78.725
20
-50.15
11
92.725
21
-50.15
0
LINE
8
0
10
78.725
20
-64.15
11
92.725
21
-64.15
0
LINE
8
0
10
78.725
20
-50.15
11
78.725
21
-64.15
0
LINE
8
0
10
92.725
20
-50.15
11
92.725
21
-64.15
0
LINE
8
0
10
97.775
20
-50.15
11
111.775
21
-50.15
0
LINE
8
0
10
97.775
20
-64.15
11
111.775
21
-64.15
0
LINE
8
0
10
97.775
20
-50.15
11
97.775
21
-64.15
0
LINE
8
0
10
111.775
20
-50.15
11
111.775
21
-64.15
0
LINE
8
0
10
116.825
20
-50.15
11
130.825
21
-50.15
0
LINE
8
0
10
116.825
20
-64.15
11
130.825
21
-64.15
0
LINE
8
0
10
116.825
20
-50.15
11
116.825
21
-64.15
0
LINE
8
0
10
130.825
20
-50.15
11
130.825
21
-64.15
0
LINE
8
0
10
135.875
20
-50.15
11
149.875
21
-50.15
0
LINE
8
0
10
135.875
20
-64.15
11
149.875
21
-64.15
0
LINE
8
0
10
135.875
20
-50.15
11
135.875
21
-64.15
0
LINE
8
0
10
149.875
20
-50.15
11
149.875
21
-64.15
0
LINE
8
0
10
154.925
20
-50.15
11
168.925
21
-50.15
0
LINE
8
0
10
154.925
20
-64.15
11
168.925
21
-64.15
0
LINE
8
0
10
154.925
20
-50.15
11
154.925
21
-64.15
0
LINE
8
0
10
168.925
20
-50.15
11
168.925
21
-64.15
0
LINE
8
0
10
173.975
20
-50.15
11
187.975
21
-50.15
0
LINE
8
0
10
173.975
20
-64.15
11
187.975
21
-64.15
0
LINE
8
0
10
173.975
20
-50.15
11
173.975
21
-64.15
0
LINE
8
0
10
187.975
20
-50.15
11
187.975
21
-64.15
0
LINE
8
0
10
193.025
20
-50.15
11
207.025
21
-50.15
0
LINE
8
0
10
193.025
20
-64.15
11
207.025
21
-64.15
0
LINE
8
0
10
193.025
20
-50.15
11
193.025
21
-64.15
0
LINE
8
0
10
207.025
20
-50.15
11
207.025
21
-64.15
0
LINE
8
0
10
212.075
20
-50.15
11
226.075
21
-50.15
0
LINE
8
0
10
212.075
20
-64.15
11
226.075
21
-64.15
0
LINE
8
0
10
212.075
20
-50.15
11
212.075
21
-64.15
0
LINE
8
0
10
226.075
20
-50.15
11
226.075
21
-64.15
0
LINE
8
0
10
231.125
20
-50.15
11
245.125
21
-50.15
0
LINE
8
0
10
231.125
20
-64.15
11
245.125
21
-64.15
0
LINE
8
0
10
231.125
20
-50.15
11
231.125
21
-64.15
0
LINE
8
0
10
245.125
20
-50.15
11
245.125
21
-64.15
0
LINE
8
0
10
250.175
20
-50.15
11
264.175
21
-50.15
0
LINE
8
0
10
250.175
20
-64.15
11
264.175
21
-64.15
0
LINE
8
0
10
250.175
20
-50.15
11
250.175
21
-64.15
0
LINE
8
0
10
264.175
20
-50.15
11
264.175
21
-64.15
0
LINE
8
0
10
2.525
20
-59.675
11
16.525
21
-59.675
0
LINE
8
0
10
2.525
20
-73.675
11
16.525
21
-73.675
0
LINE
8
0
10
2.525
20
-59.675
11
2.525
21
-73.675
0
LINE
8
0
10
16.525
20
-59.675
11
16.525
21
-73.675
0
LINE
8
0
10
288.275
20
-59.675
11
302.275
21
-59.675
0
LINE
8
0
10
288.275
20
-73.675
11
302.275
21
-73.675
0
LINE
8
0
10
288.275
20
-59.675
11
288.275
21
-73.675
0
LINE
8
0
10
302.275
20
-59.675
11
302.275
21
-73.675
0
LINE
8
0
10
307.325
20
-59.675
11
321.325
21
-59.675
0
LINE
8
0
10
307.325
20
-73.675
11
321.325
21
-73.675
0
LINE
8
0
10
307.325
20
-59.675
11
307.325
21
-73.675
0
LINE
8
0
10
321.325
20
-59.675
11
321.325
21
-73.675
0
LINE
8
0
10
326.375
20
-59.675
11
340.375
21
-59.675
0
LINE
8
0
10
326.375
20
-73.675
11
340.375
21
-73.675
0
LINE
8
0
10
326.375
20
-59.675
11
326.375
21
-73.675
0
LINE
8
0
10
340.375
20
-59.675
11
340.375
21
-73.675
0
LINE
8
0
10
359.425
20
-69.2
11
359.425
21
-83.2
0
LINE
8
0
10
345.425
20
-69.2
11
345.425
21
-83.2
0
LINE
8
0
10
359.425
20
-69.2
11
345.425
21
-69.2
0
LINE
8
0
10
359.425
20
-83.2
11
345.425
21
-83.2
0
LINE
8
0
10
358.1146
20
-60.9346
11
358.1146
21
-67.5894
0
LINE
8
0
10
358.1146
20
-67.5894
11
357.3018
21
-67.5894
0
LINE
8
0
10
357.3018
20
-67.5894
11
357.3018
21
-76.2
0
LINE
8
0
10
346.6084
20
-76.2
11
346.6084
21
-67.5894
0
LINE
8
0
10
346.6084
20
-67.5894
11
345.821
21
-67.5894
0
LINE
8
0
10
345.821
20
-67.5894
11
345.821
21
-65.786
0
LINE
8
0
10
345.821
20
-65.786
11
344.6526
21
-65.786
0
LINE
8
0
10
344.6526
20
-65.786
11
344.6526
21
-62.738
0
LINE
8
0
10
344.6526
20
-62.738
11
345.821
21
-62.738
0
LINE
8
0
10
345.821
20
-62.738
11
345.821
21
-60.9346
0
LINE
8
0
10
345.821
20
-60.9346
11
351.917
21
-60.9346
0
LINE
8
0
10
351.917
20
-60.9346
11
351.917
21
-60.071
0
LINE
8
0
10
351.917
20
-60.071
11
354.711
21
-60.071
0
LINE
8
0
10
354.711
20
-60.071
11
354.711
21
-60.9346
0
LINE
8
0
10
354.711
20
-60.9346
11
358.1146
21
-60.9346
0
LINE
8
0
10
358.1146
20
-91.4654
11
358.1146
21
-84.8106
0
LINE
8
0
10
358.1146
20
-84.8106
11
357.3018
21
-84.8106
0
LINE
8
0
10
357.3018
20
-84.8106
11
357.3018
21
-76.2
0
LINE
8
0
10
346.6084
20
-76.2
11
346.6084
21
-84.8106
0
LINE
8
0
10
346.6084
20
-84.8106
11
345.821
21
-84.8106
0
LINE
8
0
10
345.821
20
-84.8106
11
345.821
21
-86.614
0
LINE
8
0
10
345.821
20
-86.614
11
344.6526
21
-86.614
0
LINE
8
0
10
344.6526
20
-86.614
11
344.6526
21
-89.662
0
LINE
8
0
10
344.6526
20
-89.662
11
345.821
21
-89.662
0
LINE
8
0
10
345.821
20
-89.662
11
345.821
21
-91.4654
0
LINE
8
0
10
345.821
20
-91.4654
11
351.917
21
-91.4654
0
LINE
8
0
10
351.917
20
-91.4654
11
351.917
21
-92.329
0
LINE
8
0
10
351.917
20
-92.329
11
354.711
21
-92.329
0
LINE
8
0
10
354.711
20
-92.329
11
354.711
21
-91.4654
0
LINE
8
0
10
354.711
20
-91.4654
11
358.1146
21
-91.4654
0
LINE
8
0
10
40.625
20
-69.2
11
54.625
21
-69.2
0
LINE
8
0
10
40.625
20
-83.2
11
54.625
21
-83.2
0
LINE
8
0
10
40.625
20
-69.2
11
40.625
21
-83.2
0
LINE
8
0
10
54.625
20
-69.2
11
54.625
21
-83.2
0
LINE
8
0
10
59.675
20
-69.2
11
73.675
21
-69.2
0
LINE
8
0
10
59.675
20
-83.2
11
73.675
21
-83.2
0
LINE
8
0
10
59.675
20
-69.2
11
59.675
21
-83.2
0
LINE
8
0
10
73.675
20
-69.2
11
73.675
21
-83.2
0
LINE
8
0
10
78.725
20
-69.2
11
92.725
21
-69.2
0
LINE
8
0
10
78.725
20
-83.2
11
92.725
21
-83.2
0
LINE
8
0
10
78.725
20
-69.2
11
78.725
21
-83.2
0
LINE
8
0
10
92.725
20
-69.2
11
92.725
21
-83.2
0
LINE
8
0
10
97.775
20
-69.2
11
111.775
21
-69.2
0
LINE
8
0
10
97.775
20
-83.2
11
111.775
21
-83.2
0
LINE
8
0
10
97.775
20
-69.2
11
97.775
21
-83.2
0
LINE
8
0
10
111.775
20
-69.2
11
111.775
21
-83.2
0
LINE
8
0
10
116.825
20
-69.2
11
130.825
21
-69.2
0
LINE
8
0
10
116.825
20
-83.2
11
130.825
21
-83.2
0
LINE
8
0
10
116.825
20
-69.2
11
116.825
21
-83.2
0
LINE
8
0
10
130.825
20
-69.2
11
130.825
21
-83.2
0
LINE
8
0
10
145.4
20
-69.2
11
159.4
21
-69.2
0
LINE
8
0
10
145.4
20
-83.2
11
159.4
21
-83.2
0
LINE
8
0
10
145.4
20
-69.2
11
145.4
21
-83.2
0
LINE
8
0
10
159.4
20
-69.2
11
159.4
21
-83.2
0
LINE
8
0
10
137.1346
20
-70.5104
11
143.7894
21
-70.5104
0
LINE
8
0
10
143.7894
20
-70.5104
11
143.7894
21
-71.3232
0
LINE
8
0
10
143.7894
20
-71.3232
11
152.4
21
-71.3232
0
LINE
8
0
10
152.4
20
-82.0166
11
143.7894
21
-82.0166
0
LINE
8
0
10
143.7894
20
-82.0166
11
143.7894
21
-82.804
0
LINE
8
0
10
143.7894
20
-82.804
11
141.986
21
-82.804
0
LINE
8
0
10
141.986
20
-82.804
11
141.986
21
-83.9724
0
LINE
8
0
10
141.986
20
-83.9724
11
138.938
21
-83.9724
0
LINE
8
0
10
138.938
20
-83.9724
11
138.938
21
-82.804
0
LINE
8
0
10
138.938
20
-82.804
11
137.1346
21
-82.804
0
LINE
8
0
10
137.1346
20
-82.804
11
137.1346
21
-76.708
0
LINE
8
0
10
137.1346
20
-76.708
11
136.271
21
-76.708
0
LINE
8
0
10
136.271
20
-76.708
11
136.271
21
-73.914
0
LINE
8
0
10
136.271
20
-73.914
11
137.1346
21
-73.914
0
LINE
8
0
10
137.1346
20
-73.914
11
137.1346
21
-70.5104
0
LINE
8
0
10
167.6654
20
-70.5104
11
161.0106
21
-70.5104
0
LINE
8
0
10
161.0106
20
-70.5104
11
161.0106
21
-71.3232
0
LINE
8
0
10
161.0106
20
-71.3232
11
152.4
21
-71.3232
0
LINE
8
0
10
152.4
20
-82.0166
11
161.0106
21
-82.0166
0
LINE
8
0
10
161.0106
20
-82.0166
11
161.0106
21
-82.804
0
LINE
8
0
10
161.0106
20
-82.804
11
162.814
21
-82.804
0
LINE
8
0
10
162.814
20
-82.804
11
162.814
21
-83.9724
0
LINE
8
0
10
162.814
20
-83.9724
11
165.862
21
-83.9724
0
LINE
8
0
10
165.862
20
-83.9724
11
165.862
21
-82.804
0
LINE
8
0
10
165.862
20
-82.804
11
167.6654
21
-82.804
0
LINE
8
0
10
167.6654
20
-82.804
11
167.6654
21
-76.708
0
LINE
8
0
10
167.6654
20
-76.708
11
168.529
21
-76.708
0
LINE
8
0
10
168.529
20
-76.708
11
168.529
21
-73.914
0
LINE
8
0
10
168.529
20
-73.914
11
167.6654
21
-73.914
0
LINE
8
0
10
167.6654
20
-73.914
11
167.6654
21
-70.5104
0
LINE
8
0
10
173.975
20
-69.2
11
187.975
21
-69.2
0
LINE
8
0
10
173.975
20
-83.2
11
187.975
21
-83.2
0
LINE
8
0
10
173.975
20
-69.2
11
173.975
21
-83.2
0
LINE
8
0
10
187.975
20
-69.2
11
187.975
21
-83.2
0
LINE
8
0
10
193.025
20
-69.2
11
207.025
21
-69.2
0
LINE
8
0
10
193.025
20
-83.2
11
207.025
21
-83.2
0
LINE
8
0
10
193.025
20
-69.2
11
193.025
21
-83.2
0
LINE
8
0
10
207.025
20
-69.2
11
207.025
21
-83.2
0
LINE
8
0
10
212.075
20
-69.2
11
226.075
21
-69.2
0
LINE
8
0
10
212.075
20
-83.2
11
226.075
21
-83.2
0
LINE
8
0
10
212.075
20
-69.2
11
212.075
21
-83.2
0
LINE
8
0
10
226.075
20
-69.2
11
226.075
21
-83.2
0
LINE
8
0
10
231.125
20
-69.2
11
245.125
21
-69.2
0
LINE
8
0
10
231.125
20
-83.2
11
245.125
21
-83.2
0
LINE
8
0
10
231.125
20
-69.2
11
231.125
21
-83.2
0
LINE
8
0
10
245.125
20
-69.2
11
245.125
21
-83.2
0
LINE
8
0
10
250.175
20
-69.2
11
264.175
21
-69.2
0
LINE
8
0
10
250.175
20
-83.2
11
264.175
21
-83.2
0
LINE
8
0
10
250.175
20
-69.2
11
250.175
21
-83.2
0
LINE
8
0
10
264.175
20
-69.2
11
264.175
21
-83.2
0
LINE
8
0
10
2.525
20
-78.725
11
16.525
21
-78.725
0
LINE
8
0
10
2.525
20
-92.725
11
16.525
21
-92.725
0
LINE
8
0
10
2.525
20
-78.725
11
2.525
21
-92.725
0
LINE
8
0
10
16.525
20
-78.725
11
16.525
21
-92.725
0
LINE
8
0
10
297.8
20
-78.725
11
311.8
21
-78.725
0
LINE
8
0
10
297.8
20
-92.725
11
311.8
21
-92.725
0
LINE
8
0
10
297.8
20
-78.725
11
297.8
21
-92.725
0
LINE
8
0
10
311.8
20
-78.725
11
311.8
21
-92.725
0
LINE
8
0
10
289.5346
20
-80.0354
11
296.1894
21
-80.0354
0
LINE
8
0
10
296.1894
20
-80.0354
11
296.1894
21
-80.8482
0
LINE
8
0
10
296.1894
20
-80.8482
11
304.8
21
-80.8482
0
LINE
8
0
10
304.8
20
-91.5416
11
296.1894
21
-91.5416
0
LINE
8
0
10
296.1894
20
-91.5416
11
296.1894
21
-92.329
0
LINE
8
0
10
296.1894
20
-92.329
11
294.386
21
-92.329
0
LINE
8
0
10
294.386
20
-92.329
11
294.386
21
-93.4974
0
LINE
8
0
10
294.386
20
-93.4974
11
291.338
21
-93.4974
0
LINE
8
0
10
291.338
20
-93.4974
11
291.338
21
-92.329
0
LINE
8
0
10
291.338
20
-92.329
11
289.5346
21
-92.329
0
LINE
8
0
10
289.5346
20
-92.329
11
289.5346
21
-86.233
0
LINE
8
0
10
289.5346
20
-86.233
11
288.671
21
-86.233
0
LINE
8
0
10
288.671
20
-86.233
11
288.671
21
-83.439
0
LINE
8
0
10
288.671
20
-83.439
11
289.5346
21
-83.439
0
LINE
8
0
10
289.5346
20
-83.439
11
289.5346
21
-80.0354
0
LINE
8
0
10
320.0654
20
-80.0354
11
313.4106
21
-80.0354
0
LINE
8
0
10
313.4106
20
-80.0354
11
313.4106
21
-80.8482
0
LINE
8
0
10
313.4106
20
-80.8482
11
304.8
21
-80.8482
0
LINE
8
0
10
304.8
20
-91.5416
11
313.4106
21
-91.5416
0
LINE
8
0
10
313.4106
20
-91.5416
11
313.4106
21
-92.329
0
LINE
8
0
10
313.4106
20
-92.329
11
315.214
21
-92.329
0
LINE
8
0
10
315.214
20
-92.329
11
315.214
21
-93.4974
0
LINE
8
0
10
315.214
20
-93.4974
11
318.262
21
-93.4974
0
LINE
8
0
10
318.262
20
-93.4974
11
318.262
21
-92.329
0
LINE
8
0
10
318.262
20
-92.329
11
320.0654
21
-92.329
0
LINE
8
0
10
320.0654
20
-92.329
11
320.0654
21
-86.233
0
LINE
8
0
10
320.0654
20
-86.233
11
320.929
21
-86.233
0
LINE
8
0
10
320.929
20
-86.233
11
320.929
21
-83.439
0
LINE
8
0
10
320.929
20
-83.439
11
320.0654
21
-83.439
0
LINE
8
0
10
320.0654
20
-83.439
11
320.0654
21
-80.0354
0
LINE
8
0
10
326.375
20
-78.725
11
340.375
21
-78.725
0
LINE
8
0
10
326.375
20
-92.725
11
340.375
21
-92.725
0
LINE
8
0
10
326.375
20
-78.725
11
326.375
21
-92.725
0
LINE
8
0
10
340.375
20
-78.725
11
340.375
21
-92.725
0
LINE
8
0
10
0
20
-95.25
11
361.95
21
-95.25
0
LINE
8
0
10
0
20
0
11
361.95
21
0
0
LINE
8
0
10
0
20
-95.25
11
0
21
0
0
LINE
8
0
10
361.95
20
-95.25
11
361.95
21
0
0
ENDSEC
0
EOF