0
SECTION
2
HEADER
9
$INSUNITS
70
4
0
ENDSEC
0
SECTION
2
TABLES
0
TABLE
2
LTYPE
0
LTYPE
72
65
70
64
2
CONTINUOUS
3
______
73
0
40
0
0
ENDTAB
0
TABLE
2
LAYER
0
ENDTAB
0
ENDSEC
0
SECTION
2
ENTITIES
0
LINE
8
0
10
3.025
20
-2.525
11
16.025
21
-2.525
0
LINE
8
0
10
3.025
20
-16.525
11
16.025
21
-16.525
0
LINE
8
0
10
2.525
20
-3.025
11
2.525
21
-16.025
0
LINE
8
0
10
16.525
20
-3.025
11
16.525
21
-16.025
0
ARC
8
0
10
3.025
20
-3.025
40
0.5
50
90
51
180
0
ARC
8
0
10
16.025
20
-3.025
40
0.5
50
0
51
90
0
ARC
8
0
10
3.025
20
-16.025
40
0.5
50
180
51
270
0
ARC
8
0
10
16.025
20
-16.025
40
0.5
50
270
51
0
0
LINE
8
0
10
288.775
20
-2.525
11
301.775
21
-2.525
0
LINE
8
0
10
288.775
20
-16.525
11
301.775
21
-16.525
0
LINE
8
0
10
288.275
20
-3.025
11
288.275
21
-16.025
0
LINE
8
0
10
302.275
20
-3.025
11
302.275
21
-16.025
0
ARC
8
0
10
288.775
20
-3.025
40
0.5
50
90
51
180
0
ARC
8
0
10
301.775
20
-3.025
40
0.5
50
0
51
90
0
ARC
8
0
10
288.775
20
-16.025
40
0.5
50
180
51
270
0
ARC
8
0
10
301.775
20
-16.025
40
0.5
50
270
51
0
0
LINE
8
0
10
307.825
20
-2.525
11
320.825
21
-2.525
0
LINE
8
0
10
307.825
20
-16.525
11
320.825
21
-16.525
0
LINE
8
0
10
307.325
20
-3.025
11
307.325
21
-16.025
0
LINE
8
0
10
321.325
20
-3.025
11
321.325
21
-16.025
0
ARC
8
0
10
307.825
20
-3.025
40
0.5
50
90
51
180
0
ARC
8
0
10
320.825
20
-3.025
40
0.5
50
0
51
90
0
ARC
8
0
10
307.825
20
-16.025
40
0.5
50
180
51
270
0
ARC
8
0
10
320.825
20
-16.025
40
0.5
50
270
51
0
0
LINE
8
0
10
326.875
20
-2.525
11
339.875
21
-2.525
0
LINE
8
0
10
326.875
20
-16.525
11
339.875
21
-16.525
0
LINE
8
0
10
326.375
20
-3.025
11
326.375
21
-16.025
0
LINE
8
0
10
340.375
20
-3.025
11
340.375
21
-16.025
0
ARC
8
0
10
326.875
20
-3.025
40
0.5
50
90
51
180
0
ARC
8
0
10
339.875
20
-3.025
40
0.5
50
0
51
90
0
ARC
8
0
10
326.875
20
-16.025
40
0.5
50
180
51
270
0
ARC
8
0
10
339.875
20
-16.025
40
0.5
50
270
51
0
0
LINE
8
0
10
345.925
20
-2.525
11
358.925
21
-2.525
0
LINE
8
0
10
345.925
20
-16.525
11
358.925
21
-16.525
0
LINE
8
0
10
345.425
20
-3.025
11
345.425
21
-16.025
0
LINE
8
0
10
359.425
20
-3.025
11
359.425
21
-16.025
0
ARC
8
0
10
345.925
20
-3.025
40
0.5
50
90
51
180
0
ARC
8
0
10
358.925
20
-3.025
40
0.5
50
0
51
90
0
ARC
8
0
10
345.925
20
-16.025
40
0.5
50
180
51
270
0
ARC
8
0
10
358.925
20
-16.025
40
0.5
50
270
51
0
0
LINE
8
0
10
41.125
20
-12.05
11
54.125
21
-12.05
0
LINE
8
0
10
41.125
20
-26.05
11
54.125
21
-26.05
0
LINE
8
0
10
40.625
20
-12.55
11
40.625
21
-25.55
0
LINE
8
0
10
54.625
20
-12.55
11
54.625
21
-25.55
0
ARC
8
0
10
41.125
20
-12.55
40
0.5
50
90
51
180
0
ARC
8
0
10
54.125
20
-12.55
40
0.5
50
0
51
90
0
ARC
8
0
10
41.125
20
-25.55
40
0.5
50
180
51
270
0
ARC
8
0
10
54.125
20
-25.55
40
0.5
50
270
51
0
0
LINE
8
0
10
60.175
20
-12.05
11
73.175
21
-12.05
0
LINE
8
0
10
60.175
20
-26.05
11
73.175
21
-26.05
0
LINE
8
0
10
59.675
20
-12.55
11
59.675
21
-25.55
0
LINE
8
0
10
73.675
20
-12.55
11
73.675
21
-25.55
0
ARC
8
0
10
60.175
20
-12.55
40
0.5
50
90
51
180
0
ARC
8
0
10
73.175
20
-12.55
40
0.5
50
0
51
90
0
ARC
8
0
10
60.175
20
-25.55
40
0.5
50
180
51
270
0
ARC
8
0
10
73.175
20
-25.55
40
0.5
50
270
51
0
0
LINE
8
0
10
79.225
20
-12.05
11
92.225
21
-12.05
0
LINE
8
0
10
79.225
20
-26.05
11
92.225
21
-26.05
0
LINE
8
0
10
78.725
20
-12.55
11
78.725
21
-25.55
0
LINE
8
0
10
92.725
20
-12.55
11
92.725
21
-25.55
0
ARC
8
0
10
79.225
20
-12.55
40
0.5
50
90
51
180
0
ARC
8
0
10
92.225
20
-12.55
40
0.5
50
0
51
90
0
ARC
8
0
10
79.225
20
-25.55
40
0.5
50
180
51
270
0
ARC
8
0
10
92.225
20
-25.55
40
0.5
50
270
51
0
0
LINE
8
0
10
98.275
20
-12.05
11
111.275
21
-12.05
0
LINE
8
0
10
98.275
20
-26.05
11
111.275
21
-26.05
0
LINE
8
0
10
97.775
20
-12.55
11
97.775
21
-25.55
0
LINE
8
0
10
111.775
20
-12.55
11
111.775
21
-25.55
0
ARC
8
0
10
98.275
20
-12.55
40
0.5
50
90
51
180
0
ARC
8
0
10
111.275
20
-12.55
40
0.5
50
0
51
90
0
ARC
8
0
10
98.275
20
-25.55
40
0.5
50
180
51
270
0
ARC
8
0
10
111.275
20
-25.55
40
0.5
50
270
51
0
0
LINE
8
0
10
117.325
20
-12.05
11
130.325
21
-12.05
0
LINE
8
0
10
117.325
20
-26.05
11
130.325
21
-26.05
0
LINE
8
0
10
116.825
20
-12.55
11
116.825
21
-25.55
0
LINE
8
0
10
130.825
20
-12.55
11
130.825
21
-25.55
0
ARC
8
0
10
117.325
20
-12.55
40
0.5
50
90
51
180
0
ARC
8
0
10
130.325
20
-12.55
40
0.5
50
0
51
90
0
ARC
8
0
10
117.325
20
-25.55
40
0.5
50
180
51
270
0
ARC
8
0
10
130.325
20
-25.55
40
0.5
50
270
51
0
0
LINE
8
0
10
136.375
20
-12.05
11
149.375
21
-12.05
0
LINE
8
0
10
136.375
20
-26.05
11
149.375
21
-26.05
0
LINE
8
0
10
135.875
20
-12.55
11
135.875
21
-25.55
0
LINE
8
0
10
149.875
20
-12.55
11
149.875
21
-25.55
0
ARC
8
0
10
136.375
20
-12.55
40
0.5
50
90
51
180
0
ARC
8
0
10
149.375
20
-12.55
40
0.5
50
0
51
90
0
ARC
8
0
10
136.375
20
-25.55
40
0.5
50
180
51
270
0
ARC
8
0
10
149.375
20
-25.55
40
0.5
50
270
51
0
0
LINE
8
0
10
155.425
20
-12.05
11
168.425
21
-12.05
0
LINE
8
0
10
155.425
20
-26.05
11
168.425
21
-26.05
0
LINE
8
0
10
154.925
20
-12.55
11
154.925
21
-25.55
0
LINE
8
0
10
168.925
20
-12.55
11
168.925
21
-25.55
0
ARC
8
0
10
155.425
20
-12.55
40
0.5
50
90
51
180
0
ARC
8
0
10
168.425
20
-12.55
40
0.5
50
0
51
90
0
ARC
8
0
10
155.425
20
-25.55
40
0.5
50
180
51
270
0
ARC
8
0
10
168.425
20
-25.55
40
0.5
50
270
51
0
0
LINE
8
0
10
174.475
20
-12.05
11
187.475
21
-12.05
0
LINE
8
0
10
174.475
20
-26.05
11
187.475
21
-26.05
0
LINE
8
0
10
173.975
20
-12.55
11
173.975
21
-25.55
0
LINE
8
0
10
187.975
20
-12.55
11
187.975
21
-25.55
0
ARC
8
0
10
174.475
20
-12.55
40
0.5
50
90
51
180
0
ARC
8
0
10
187.475
20
-12.55
40
0.5
50
0
51
90
0
ARC
8
0
10
174.475
20
-25.55
40
0.5
50
180
51
270
0
ARC
8
0
10
187.475
20
-25.55
40
0.5
50
270
51
0
0
LINE
8
0
10
193.525
20
-12.05
11
206.525
21
-12.05
0
LINE
8
0
10
193.525
20
-26.05
11
206.525
21
-26.05
0
LINE
8
0
10
193.025
20
-12.55
11
193.025
21
-25.55
0
LINE
8
0
10
207.025
20
-12.55
11
207.025
21
-25.55
0
ARC
8
0
10
193.525
20
-12.55
40
0.5
50
90
51
180
0
ARC
8
0
10
206.525
20
-12.55
40
0.5
50
0
51
90
0
ARC
8
0
10
193.525
20
-25.55
40
0.5
50
180
51
270
0
ARC
8
0
10
206.525
20
-25.55
40
0.5
50
270
51
0
0
LINE
8
0
10
212.575
20
-12.05
11
225.575
21
-12.05
0
LINE
8
0
10
212.575
20
-26.05
11
225.575
21
-26.05
0
LINE
8
0
10
212.075
20
-12.55
11
212.075
21
-25.55
0
LINE
8
0
10
226.075
20
-12.55
11
226.075
21
-25.55
0
ARC
8
0
10
212.575
20
-12.55
40
0.5
50
90
51
180
0
ARC
8
0
10
225.575
20
-12.55
40
0.5
50
0
51
90
0
ARC
8
0
10
212.575
20
-25.55
40
0.5
50
180
51
270
0
ARC
8
0
10
225.575
20
-25.55
40
0.5
50
270
51
0
0
LINE
8
0
10
231.625
20
-12.05
11
244.625
21
-12.05
0
LINE
8
0
10
231.625
20
-26.05
11
244.625
21
-26.05
0
LINE
8
0
10
231.125
20
-12.55
11
231.125
21
-25.55
0
LINE
8
0
10
245.125
20
-12.55
11
245.125
21
-25.55
0
ARC
8
0
10
231.625
20
-12.55
40
0.5
50
90
51
180
0
ARC
8
0
10
244.625
20
-12.55
40
0.5
50
0
51
90
0
ARC
8
0
10
231.625
20
-25.55
40
0.5
50
180
51
270
0
ARC
8
0
10
244.625
20
-25.55
40
0.5
50
270
51
0
0
LINE
8
0
10
250.675
20
-12.05
11
263.675
21
-12.05
0
LINE
8
0
10
250.675
20
-26.05
11
263.675
21
-26.05
0
LINE
8
0
10
250.175
20
-12.55
11
250.175
21
-25.55
0
LINE
8
0
10
264.175
20
-12.55
11
264.175
21
-25.55
0
ARC
8
0
10
250.675
20
-12.55
40
0.5
50
90
51
180
0
ARC
8
0
10
263.675
20
-12.55
40
0.5
50
0
51
90
0
ARC
8
0
10
250.675
20
-25.55
40
0.5
50
180
51
270
0
ARC
8
0
10
263.675
20
-25.55
40
0.5
50
270
51
0
0
LINE
8
0
10
3.025
20
-21.575
11
16.025
21
-21.575
0
LINE
8
0
10
3.025
20
-35.575
11
16.025
21
-35.575
0
LINE
8
0
10
2.525
20
-22.075
11
2.525
21
-35.075
0
LINE
8
0
10
16.525
20
-22.075
11
16.525
21
-35.075
0
ARC
8
0
10
3.025
20
-22.075
40
0.5
50
90
51
180
0
ARC
8
0
10
16.025
20
-22.075
40
0.5
50
0
51
90
0
ARC
8
0
10
3.025
20
-35.075
40
0.5
50
180
51
270
0
ARC
8
0
10
16.025
20
-35.075
40
0.5
50
270
51
0
0
LINE
8
0
10
288.775
20
-21.575
11
301.775
21
-21.575
0
LINE
8
0
10
288.775
20
-35.575
11
301.775
21
-35.575
0
LINE
8
0
10
288.275
20
-22.075
11
288.275
21
-35.075
0
LINE
8
0
10
302.275
20
-22.075
11
302.275
21
-35.075
0
ARC
8
0
10
288.775
20
-22.075
40
0.5
50
90
51
180
0
ARC
8
0
10
301.775
20
-22.075
40
0.5
50
0
51
90
0
ARC
8
0
10
288.775
20
-35.075
40
0.5
50
180
51
270
0
ARC
8
0
10
301.775
20
-35.075
40
0.5
50
270
51
0
0
LINE
8
0
10
307.825
20
-21.575
11
320.825
21
-21.575
0
LINE
8
0
10
307.825
20
-35.575
11
320.825
21
-35.575
0
LINE
8
0
10
307.325
20
-22.075
11
307.325
21
-35.075
0
LINE
8
0
10
321.325
20
-22.075
11
321.325
21
-35.075
0
ARC
8
0
10
307.825
20
-22.075
40
0.5
50
90
51
180
0
ARC
8
0
10
320.825
20
-22.075
40
0.5
50
0
51
90
0
ARC
8
0
10
307.825
20
-35.075
40
0.5
50
180
51
270
0
ARC
8
0
10
320.825
20
-35.075
40
0.5
50
270
51
0
0
LINE
8
0
10
326.875
20
-21.575
11
339.875
21
-21.575
0
LINE
8
0
10
326.875
20
-35.575
11
339.875
21
-35.575
0
LINE
8
0
10
326.375
20
-22.075
11
326.375
21
-35.075
0
LINE
8
0
10
340.375
20
-22.075
11
340.375
21
-35.075
0
ARC
8
0
10
326.875
20
-22.075
40
0.5
50
90
51
180
0
ARC
8
0
10
339.875
20
-22.075
40
0.5
50
0
51
90
0
ARC
8
0
10
326.875
20
-35.075
40
0.5
50
180
51
270
0
ARC
8
0
10
339.875
20
-35.075
40
0.5
50
270
51
0
0
LINE
8
0
10
359.425
20
-31.6
11
359.425
21
-44.6
0
LINE
8
0
10
345.425
20
-31.6
11
345.425
21
-44.6
0
LINE
8
0
10
358.925
20
-31.1
11
345.925
21
-31.1
0
LINE
8
0
10
358.925
20
-45.1
11
345.925
21
-45.1
0
ARC
8
0
10
358.925
20
-31.6
40
0.5
50
0
51
90
0
ARC
8
0
10
358.925
20
-44.6
40
0.5
50
270
51
0
0
ARC
8
0
10
345.925
20
-31.6
40
0.5
50
90
51
180
0
ARC
8
0
10
345.925
20
-44.6
40
0.5
50
180
51
270
0
LINE
8
0
10
358.1146
20
-23.3346
11
358.1146
21
-28.9894
0
LINE
8
0
10
357.6146
20
-29.4894
11
357.3018
21
-29.4894
0
LINE
8
0
10
357.3018
20
-29.4894
11
357.3018
21
-38.1
0
LINE
8
0
10
346.6084
20
-38.1
11
346.6084
21
-29.9894
0
LINE
8
0
10
346.1084
20
-29.4894
11
345.821
21
-29.4894
0
LINE
8
0
10
345.821
20
-29.4894
11
345.821
21
-28.186
0
LINE
8
0
10
345.321
20
-27.686
11
345.1526
21
-27.686
0
LINE
8
0
10
344.6526
20
-27.186
11
344.6526
21
-25.138
0
LINE
8
0
10
345.1526
20
-24.638
11
345.321
21
-24.638
0
LINE
8
0
10
345.821
20
-24.138
11
345.821
21
-23.3346
0
LINE
8
0
10
346.321
20
-22.8346
11
351.417
21
-22.8346
0
LINE
8
0
10
351.917
20
-22.3346
11
351.917
21
-21.971
0
LINE
8
0
10
351.917
20
-21.971
11
354.211
21
-21.971
0
LINE
8
0
10
354.711
20
-22.471
11
354.711
21
-22.8346
0
LINE
8
0
10
354.711
20
-22.8346
11
357.6146
21
-22.8346
0
ARC
8
0
10
357.6146
20
-28.9894
40
0.5
50
270
51
0
0
ARC
8
0
10
346.1084
20
-29.9894
40
0.5
50
0
51
90
0
ARC
8
0
10
345.321
20
-28.186
40
0.5
50
0
51
90
0
ARC
8
0
10
345.1526
20
-27.186
40
0.5
50
180
51
270
0
ARC
8
0
10
345.1526
20
-25.138
40
0.5
50
90
51
180
0
ARC
8
0
10
345.321
20
-24.138
40
0.5
50
270
51
0
0
ARC
8
0
10
346.321
20
-23.3346
40
0.5
50
90
51
180
0
ARC
8
0
10
351.417
20
-22.3346
40
0.5
50
270
51
0
0
ARC
8
0
10
354.211
20
-22.471
40
0.5
50
0
51
90
0
ARC
8
0
10
357.6146
20
-23.3346
40
0.5
50
0
51
90
0
LINE
8
0
10
358.1146
20
-52.8654
11
358.1146
21
-47.2106
0
LINE
8
0
10
357.6146
20
-46.7106
11
357.3018
21
-46.7106
0
LINE
8
0
10
357.3018
20
-46.7106
11
357.3018
21
-38.1
0
LINE
8
0
10
346.6084
20
-38.1
11
346.6084
21
-46.2106
0
LINE
8
0
10
346.1084
20
-46.7106
11
345.821
21
-46.7106
0
LINE
8
0
10
345.821
20
-46.7106
11
345.821
21
-48.014
0
LINE
8
0
10
345.321
20
-48.514
11
345.1526
21
-48.514
0
LINE
8
0
10
344.6526
20
-49.014
11
344.6526
21
-51.062
0
LINE
8
0
10
345.1526
20
-51.562
11
345.321
21
-51.562
0
LINE
8
0
10
345.821
20
-52.062
11
345.821
21
-52.8654
0
LINE
8
0
10
346.321
20
-53.3654
11
351.417
21
-53.3654
0
LINE
8
0
10
351.917
20
-53.8654
11
351.917
21
-54.229
0
LINE
8
0
10
351.917
20
-54.229
11
354.211
21
-54.229
0
LINE
8
0
10
354.711
20
-53.729
11
354.711
21
-53.3654
0
LINE
8
0
10
354.711
20
-53.3654
11
357.6146
21
-53.3654
0
ARC
8
0
10
357.6146
20
-47.2106
40
0.5
50
0
51
90
0
ARC
8
0
10
346.1084
20
-46.2106
40
0.5
50
270
51
0
0
ARC
8
0
10
345.321
20
-48.014
40
0.5
50
270
51
0
0
ARC
8
0
10
345.1526
20
-49.014
40
0.5
50
90
51
180
0
ARC
8
0
10
345.1526
20
-51.062
40
0.5
50
180
51
270
0
ARC
8
0
10
345.321
20
-52.062
40
0.5
50
0
51
90
0
ARC
8
0
10
346.321
20
-52.8654
40
0.5
50
180
51
270
0
ARC
8
0
10
351.417
20
-53.8654
40
0.5
50
0
51
90
0
ARC
8
0
10
354.211
20
-53.729
40
0.5
50
270
51
0
0
ARC
8
0
10
357.6146
20
-52.8654
40
0.5
50
270
51
0
0
LINE
8
0
10
41.125
20
-31.1
11
54.125
21
-31.1
0
LINE
8
0
10
41.125
20
-45.1
11
54.125
21
-45.1
0
LINE
8
0
10
40.625
20
-31.6
11
40.625
21
-44.6
0
LINE
8
0
10
54.625
20
-31.6
11
54.625
21
-44.6
0
ARC
8
0
10
41.125
20
-31.6
40
0.5
50
90
51
180
0
ARC
8
0
10
54.125
20
-31.6
40
0.5
50
0
51
90
0
ARC
8
0
10
41.125
20
-44.6
40
0.5
50
180
51
270
0
ARC
8
0
10
54.125
20
-44.6
40
0.5
50
270
51
0
0
LINE
8
0
10
60.175
20
-31.1
11
73.175
21
-31.1
0
LINE
8
0
10
60.175
20
-45.1
11
73.175
21
-45.1
0
LINE
8
0
10
59.675
20
-31.6
11
59.675
21
-44.6
0
LINE
8
0
10
73.675
20
-31.6
11
73.675
21
-44.6
0
ARC
8
0
10
60.175
20
-31.6
40
0.5
50
90
51
180
0
ARC
8
0
10
73.175
20
-31.6
40
0.5
50
0
51
90
0
ARC
8
0
10
60.175
20
-44.6
40
0.5
50
180
51
270
0
ARC
8
0
10
73.175
20
-44.6
40
0.5
50
270
51
0
0
LINE
8
0
10
79.225
20
-31.1
11
92.225
21
-31.1
0
LINE
8
0
10
79.225
20
-45.1
11
92.225
21
-45.1
0
LINE
8
0
10
78.725
20
-31.6
11
78.725
21
-44.6
0
LINE
8
0
10
92.725
20
-31.6
11
92.725
21
-44.6
0
ARC
8
0
10
79.225
20
-31.6
40
0.5
50
90
51
180
0
ARC
8
0
10
92.225
20
-31.6
40
0.5
50
0
51
90
0
ARC
8
0
10
79.225
20
-44.6
40
0.5
50
180
51
270
0
ARC
8
0
10
92.225
20
-44.6
40
0.5
50
270
51
0
0
LINE
8
0
10
98.275
20
-31.1
11
111.275
21
-31.1
0
LINE
8
0
10
98.275
20
-45.1
11
111.275
21
-45.1
0
LINE
8
0
10
97.775
20
-31.6
11
97.775
21
-44.6
0
LINE
8
0
10
111.775
20
-31.6
11
111.775
21
-44.6
0
ARC
8
0
10
98.275
20
-31.6
40
0.5
50
90
51
180
0
ARC
8
0
10
111.275
20
-31.6
40
0.5
50
0
51
90
0
ARC
8
0
10
98.275
20
-44.6
40
0.5
50
180
51
270
0
ARC
8
0
10
111.275
20
-44.6
40
0.5
50
270
51
0
0
LINE
8
0
10
117.325
20
-31.1
11
130.325
21
-31.1
0
LINE
8
0
10
117.325
20
-45.1
11
130.325
21
-45.1
0
LINE
8
0
10
116.825
20
-31.6
11
116.825
21
-44.6
0
LINE
8
0
10
130.825
20
-31.6
11
130.825
21
-44.6
0
ARC
8
0
10
117.325
20
-31.6
40
0.5
50
90
51
180
0
ARC
8
0
10
130.325
20
-31.6
40
0.5
50
0
51
90
0
ARC
8
0
10
117.325
20
-44.6
40
0.5
50
180
51
270
0
ARC
8
0
10
130.325
20
-44.6
40
0.5
50
270
51
0
0
LINE
8
0
10
136.375
20
-31.1
11
149.375
21
-31.1
0
LINE
8
0
10
136.375
20
-45.1
11
149.375
21
-45.1
0
LINE
8
0
10
135.875
20
-31.6
11
135.875
21
-44.6
0
LINE
8
0
10
149.875
20
-31.6
11
149.875
21
-44.6
0
ARC
8
0
10
136.375
20
-31.6
40
0.5
50
90
51
180
0
ARC
8
0
10
149.375
20
-31.6
40
0.5
50
0
51
90
0
ARC
8
0
10
136.375
20
-44.6
40
0.5
50
180
51
270
0
ARC
8
0
10
149.375
20
-44.6
40
0.5
50
270
51
0
0
LINE
8
0
10
155.425
20
-31.1
11
168.425
21
-31.1
0
LINE
8
0
10
155.425
20
-45.1
11
168.425
21
-45.1
0
LINE
8
0
10
154.925
20
-31.6
11
154.925
21
-44.6
0
LINE
8
0
10
168.925
20
-31.6
11
168.925
21
-44.6
0
ARC
8
0
10
155.425
20
-31.6
40
0.5
50
90
51
180
0
ARC
8
0
10
168.425
20
-31.6
40
0.5
50
0
51
90
0
ARC
8
0
10
155.425
20
-44.6
40
0.5
50
180
51
270
0
ARC
8
0
10
168.425
20
-44.6
40
0.5
50
270
51
0
0
LINE
8
0
10
174.475
20
-31.1
11
187.475
21
-31.1
0
LINE
8
0
10
174.475
20
-45.1
11
187.475
21
-45.1
0
LINE
8
0
10
173.975
20
-31.6
11
173.975
21
-44.6
0
LINE
8
0
10
187.975
20
-31.6
11
187.975
21
-44.6
0
ARC
8
0
10
174.475
20
-31.6
40
0.5
50
90
51
180
0
ARC
8
0
10
187.475
20
-31.6
40
0.5
50
0
51
90
0
ARC
8
0
10
174.475
20
-44.6
40
0.5
50
180
51
270
0
ARC
8
0
10
187.475
20
-44.6
40
0.5
50
270
51
0
0
LINE
8
0
10
193.525
20
-31.1
11
206.525
21
-31.1
0
LINE
8
0
10
193.525
20
-45.1
11
206.525
21
-45.1
0
LINE
8
0
10
193.025
20
-31.6
11
193.025
21
-44.6
0
LINE
8
0
10
207.025
20
-31.6
11
207.025
21
-44.6
0
ARC
8
0
10
193.525
20
-31.6
40
0.5
50
90
51
180
0
ARC
8
0
10
206.525
20
-31.6
40
0.5
50
0
51
90
0
ARC
8
0
10
193.525
20
-44.6
40
0.5
50
180
51
270
0
ARC
8
0
10
206.525
20
-44.6
40
0.5
50
270
51
0
0
LINE
8
0
10
212.575
20
-31.1
11
225.575
21
-31.1
0
LINE
8
0
10
212.575
20
-45.1
11
225.575
21
-45.1
0
LINE
8
0
10
212.075
20
-31.6
11
212.075
21
-44.6
0
LINE
8
0
10
226.075
20
-31.6
11
226.075
21
-44.6
0
ARC
8
0
10
212.575
20
-31.6
40
0.5
50
90
51
180
0
ARC
8
0
10
225.575
20
-31.6
40
0.5
50
0
51
90
0
ARC
8
0
10
212.575
20
-44.6
40
0.5
50
180
51
270
0
ARC
8
0
10
225.575
20
-44.6
40
0.5
50
270
51
0
0
LINE
8
0
10
231.625
20
-31.1
11
244.625
21
-31.1
0
LINE
8
0
10
231.625
20
-45.1
11
244.625
21
-45.1
0
LINE
8
0
10
231.125
20
-31.6
11
231.125
21
-44.6
0
LINE
8
0
10
245.125
20
-31.6
11
245.125
21
-44.6
0
ARC
8
0
10
231.625
20
-31.6
40
0.5
50
90
51
180
0
ARC
8
0
10
244.625
20
-31.6
40
0.5
50
0
51
90
0
ARC
8
0
10
231.625
20
-44.6
40
0.5
50
180
51
270
0
ARC
8
0
10
244.625
20
-44.6
40
0.5
50
270
51
0
0
LINE
8
0
10
250.675
20
-31.1
11
263.675
21
-31.1
0
LINE
8
0
10
250.675
20
-45.1
11
263.675
21
-45.1
0
LINE
8
0
10
250.175
20
-31.6
11
250.175
21
-44.6
0
LINE
8
0
10
264.175
20
-31.6
11
264.175
21
-44.6
0
ARC
8
0
10
250.675
20
-31.6
40
0.5
50
90
51
180
0
ARC
8
0
10
263.675
20
-31.6
40
0.5
50
0
51
90
0
ARC
8
0
10
250.675
20
-44.6
40
0.5
50
180
51
270
0
ARC
8
0
10
263.675
20
-44.6
40
0.5
50
270
51
0
0
LINE
8
0
10
3.025
20
-40.625
11
16.025
21
-40.625
0
LINE
8
0
10
3.025
20
-54.625
11
16.025
21
-54.625
0
LINE
8
0
10
2.525
20
-41.125
11
2.525
21
-54.125
0
LINE
8
0
10
16.525
20
-41.125
11
16.525
21
-54.125
0
ARC
8
0
10
3.025
20
-41.125
40
0.5
50
90
51
180
0
ARC
8
0
10
16.025
20
-41.125
40
0.5
50
0
51
90
0
ARC
8
0
10
3.025
20
-54.125
40
0.5
50
180
51
270
0
ARC
8
0
10
16.025
20
-54.125
40
0.5
50
270
51
0
0
LINE
8
0
10
288.775
20
-40.625
11
301.775
21
-40.625
0
LINE
8
0
10
288.775
20
-54.625
11
301.775
21
-54.625
0
LINE
8
0
10
288.275
20
-41.125
11
288.275
21
-54.125
0
LINE
8
0
10
302.275
20
-41.125
11
302.275
21
-54.125
0
ARC
8
0
10
288.775
20
-41.125
40
0.5
50
90
51
180
0
ARC
8
0
10
301.775
20
-41.125
40
0.5
50
0
51
90
0
ARC
8
0
10
288.775
20
-54.125
40
0.5
50
180
51
270
0
ARC
8
0
10
301.775
20
-54.125
40
0.5
50
270
51
0
0
LINE
8
0
10
307.825
20
-40.625
11
320.825
21
-40.625
0
LINE
8
0
10
307.825
20
-54.625
11
320.825
21
-54.625
0
LINE
8
0
10
307.325
20
-41.125
11
307.325
21
-54.125
0
LINE
8
0
10
321.325
20
-41.125
11
321.325
21
-54.125
0
ARC
8
0
10
307.825
20
-41.125
40
0.5
50
90
51
180
0
ARC
8
0
10
320.825
20
-41.125
40
0.5
50
0
51
90
0
ARC
8
0
10
307.825
20
-54.125
40
0.5
50
180
51
270
0
ARC
8
0
10
320.825
20
-54.125
40
0.5
50
270
51
0
0
LINE
8
0
10
326.875
20
-40.625
11
339.875
21
-40.625
0
LINE
8
0
10
326.875
20
-54.625
11
339.875
21
-54.625
0
LINE
8
0
10
326.375
20
-41.125
11
326.375
21
-54.125
0
LINE
8
0
10
340.375
20
-41.125
11
340.375
21
-54.125
0
ARC
8
0
10
326.875
20
-41.125
40
0.5
50
90
51
180
0
ARC
8
0
10
339.875
20
-41.125
40
0.5
50
0
51
90
0
ARC
8
0
10
326.875
20
-54.125
40
0.5
50
180
51
270
0
ARC
8
0
10
339.875
20
-54.125
40
0.5
50
270
51
0
0
LINE
8
0
10
41.125
20
-50.15
11
54.125
21
-50.15
0
LINE
8
0
10
41.125
20
-64.15
11
54.125
21
-64.15
0
LINE
8
0
10
40.625
20
-50.65
11
40.625
21
-63.65
0
LINE
8
0
10
54.625
20
-50.65
11
54.625
21
-63.65
0
ARC
8
0
10
41.125
20
-50.65
40
0.5
50
90
51
180
0
ARC
8
0
10
54.125
20
-50.65
40
0.5
50
0
51
90
0
ARC
8
0
10
41.125
20
-63.65
40
0.5
50
180
51
270
0
ARC
8
0
10
54.125
20
-63.65
40
0.5
50
270
51
0
0
LINE
8
0
10
60.175
20
-50.15
11
73.175
21
-50.15
0
LINE
8
0
10
60.175
20
-64.15
11
73.175
21
-64.15
0
LINE
8
0
10
59.675
20
-50.65
11
59.675
21
-63.65
0
LINE
8
0
10
73.675
20
-50.65
11
73.675
21
-63.65
0
ARC
8
0
10
60.175
20
-50.65
40
0.5
50
90
51
180
0
ARC
8
0
10
73.175
20
-50.65
40
0.5
50
0
51
90
0
ARC
8
0
10
60.175
20
-63.65
40
0.5
50
180
51
270
0
ARC
8
0
10
73.175
20
-63.65
40
0.5
50
270
51
0
0
LINE
8
0
10
79.225
20
-50.15
11
92.225
21
-50.15
0
LINE
8
0
10
79.225
20
-64.15
11
92.225
21
-64.15
0
LINE
8
0
10
78.725
20
-50.65
11
78.725
21
-63.65
0
LINE
8
0
10
92.725
20
-50.65
11
92.725
21
-63.65
0
ARC
8
0
10
79.225
20
-50.65
40
0.5
50
90
51
180
0
ARC
8
0
10
92.225
20
-50.65
40
0.5
50
0
51
90
0
ARC
8
0
10
79.225
20
-63.65
40
0.5
50
180
51
270
0
ARC
8
0
10
92.225
20
-63.65
40
0.5
50
270
51
0
0
LINE
8
0
10
98.275
20
-50.15
11
111.275
21
-50.15
0
LINE
8
0
10
98.275
20
-64.15
11
111.275
21
-64.15
0
LINE
8
0
10
97.775
20
-50.65
11
97.775
21
-63.65
0
LINE
8
0
10
111.775
20
-50.65
11
111.775
21
-63.65
0
ARC
8
0
10
98.275
20
-50.65
40
0.5
50
90
51
180
0
ARC
8
0
10
111.275
20
-50.65
40
0.5
50
0
51
90
0
ARC
8
0
10
98.275
20
-63.65
40
0.5
50
180
51
270
0
ARC
8
0
10
111.275
20
-63.65
40
0.5
50
270
51
0
0
LINE
8
0
10
117.325
20
-50.15
11
130.325
21
-50.15
0
LINE
8
0
10
117.325
20
-64.15
11
130.325
21
-64.15
0
LINE
8
0
10
116.825
20
-50.65
11
116.825
21
-63.65
0
LINE
8
0
10
130.825
20
-50.65
11
130.825
21
-63.65
0
ARC
8
0
10
117.325
20
-50.65
40
0.5
50
90
51
180
0
ARC
8
0
10
130.325
20
-50.65
40
0.5
50
0
51
90
0
ARC
8
0
10
117.325
20
-63.65
40
0.5
50
180
51
270
0
ARC
8
0
10
130.325
20
-63.65
40
0.5
50
270
51
0
0
LINE
8
0
10
136.375
20
-50.15
11
149.375
21
-50.15
0
LINE
8
0
10
136.375
20
-64.15
11
149.375
21
-64.15
0
LINE
8
0
10
135.875
20
-50.65
11
135.875
21
-63.65
0
LINE
8
0
10
149.875
20
-50.65
11
149.875
21
-63.65
0
ARC
8
0
10
136.375
20
-50.65
40
0.5
50
90
51
180
0
ARC
8
0
10
149.375
20
-50.65
40
0.5
50
0
51
90
0
ARC
8
0
10
136.375
20
-63.65
40
0.5
50
180
51
270
0
ARC
8
0
10
149.375
20
-63.65
40
0.5
50
270
51
0
0
LINE
8
0
10
155.425
20
-50.15
11
168.425
21
-50.15
0
LINE
8
0
10
155.425
20
-64.15
11
168.425
21
-64.15
0
LINE
8
0
10
154.925
20
-50.65
11
154.925
21
-63.65
0
LINE
8
0
10
168.925
20
-50.65
11
168.925
21
-63.65
0
ARC
8
0
10
155.425
20
-50.65
40
0.5
50
90
51
180
0
ARC
8
0
10
168.425
20
-50.65
40
0.5
50
0
51
90
0
ARC
8
0
10
155.425
20
-63.65
40
0.5
50
180
51
270
0
ARC
8
0
10
168.425
20
-63.65
40
0.5
50
270
51
0
0
LINE
8
0
10
174.475
20
-50.15
11
187.475
21
-50.15
0
LINE
8
0
10
174.475
20
-64.15
11
187.475
21
-64.15
0
LINE
8
0
10
173.975
20
-50.65
11
173.975
21
-63.65
0
LINE
8
0
10
187.975
20
-50.65
11
187.975
21
-63.65
0
ARC
8
0
10
174.475
20
-50.65
40
0.5
50
90
51
180
0
ARC
8
0
10
187.475
20
-50.65
40
0.5
50
0
51
90
0
ARC
8
0
10
174.475
20
-63.65
40
0.5
50
180
51
270
0
ARC
8
0
10
187.475
20
-63.65
40
0.5
50
270
51
0
0
LINE
8
0
10
193.525
20
-50.15
11
206.525
21
-50.15
0
LINE
8
0
10
193.525
20
-64.15
11
206.525
21
-64.15
0
LINE
8
0
10
193.025
20
-50.65
11
193.025
21
-63.65
0
LINE
8
0
10
207.025
20
-50.65
11
207.025
21
-63.65
0
ARC
8
0
10
193.525
20
-50.65
40
0.5
50
90
51
180
0
ARC
8
0
10
206.525
20
-50.65
40
0.5
50
0
51
90
0
ARC
8
0
10
193.525
20
-63.65
40
0.5
50
180
51
270
0
ARC
8
0
10
206.525
20
-63.65
40
0.5
50
270
51
0
0
LINE
8
0
10
212.575
20
-50.15
11
225.575
21
-50.15
0
LINE
8
0
10
212.575
20
-64.15
11
225.575
21
-64.15
0
LINE
8
0
10
212.075
20
-50.65
11
212.075
21
-63.65
0
LINE
8
0
10
226.075
20
-50.65
11
226.075
21
-63.65
0
ARC
8
0
10
212.575
20
-50.65
40
0.5
50
90
51
180
0
ARC
8
0
10
225.575
20
-50.65
40
0.5
50
0
51
90
0
ARC
8
0
10
212.575
20
-63.65
40
0.5
50
180
51
270
0
ARC
8
0
10
225.575
20
-63.65
40
0.5
50
270
51
0
0
LINE
8
0
10
231.625
20
-50.15
11
244.625
21
-50.15
0
LINE
8
0
10
231.625
20
-64.15
11
244.625
21
-64.15
0
LINE
8
0
10
231.125
20
-50.65
11
231.125
21
-63.65
0
LINE
8
0
10
245.125
20
-50.65
11
245.125
21
-63.65
0
ARC
8
0
10
231.625
20
-50.65
40
0.5
50
90
51
180
0
ARC
8
0
10
244.625
20
-50.65
40
0.5
50
0
51
90
0
ARC
8
0
10
231.625
20
-63.65
40
0.5
50
180
51
270
0
ARC
8
0
10
244.625
20
-63.65
40
0.5
50
270
51
0
0
LINE
8
0
10
250.675
20
-50.15
11
263.675
21
-50.15
0
LINE
8
0
10
250.675
20
-64.15
11
263.675
21
-64.15
0
LINE
8
0
10
250.175
20
-50.65
11
250.175
21
-63.65
0
LINE
8
0
10
264.175
20
-50.65
11
264.175
21
-63.65
0
ARC
8
0
10
250.675
20
-50.65
40
0.5
50
90
51
180
0
ARC
8
0
10
263.675
20
-50.65
40
0.5
50
0
51
90
0
ARC
8
0
10
250.675
20
-63.65
40
0.5
50
180
51
270
0
ARC
8
0
10
263.675
20
-63.65
40
0.5
50
270
51
0
0
LINE
8
0
10
3.025
20
-59.675
11
16.025
21
-59.675
0
LINE
8
0
10
3.025
20
-73.675
11
16.025
21
-73.675
0
LINE
8
0
10
2.525
20
-60.175
11
2.525
21
-73.175
0
LINE
8
0
10
16.525
20
-60.175
11
16.525
21
-73.175
0
ARC
8
0
10
3.025
20
-60.175
40
0.5
50
90
51
180
0
ARC
8
0
10
16.025
20
-60.175
40
0.5
50
0
51
90
0
ARC
8
0
10
3.025
20
-73.175
40
0.5
50
180
51
270
0
ARC
8
0
10
16.025
20
-73.175
40
0.5
50
270
51
0
0
LINE
8
0
10
288.775
20
-59.675
11
301.775
21
-59.675
0
LINE
8
0
10
288.775
20
-73.675
11
301.775
21
-73.675
0
LINE
8
0
10
288.275
20
-60.175
11
288.275
21
-73.175
0
LINE
8
0
10
302.275
20
-60.175
11
302.275
21
-73.175
0
ARC
8
0
10
288.775
20
-60.175
40
0.5
50
90
51
180
0
ARC
8
0
10
301.775
20
-60.175
40
0.5
50
0
51
90
0
ARC
8
0
10
288.775
20
-73.175
40
0.5
50
180
51
270
0
ARC
8
0
10
301.775
20
-73.175
40
0.5
50
270
51
0
0
LINE
8
0
10
307.825
20
-59.675
11
320.825
21
-59.675
0
LINE
8
0
10
307.825
20
-73.675
11
320.825
21
-73.675
0
LINE
8
0
10
307.325
20
-60.175
11
307.325
21
-73.175
0
LINE
8
0
10
321.325
20
-60.175
11
321.325
21
-73.175
0
ARC
8
0
10
307.825
20
-60.175
40
0.5
50
90
51
180
0
ARC
8
0
10
320.825
20
-60.175
40
0.5
50
0
51
90
0
ARC
8
0
10
307.825
20
-73.175
40
0.5
50
180
51
270
0
ARC
8
0
10
320.825
20
-73.175
40
0.5
50
270
51
0
0
LINE
8
0
10
326.875
20
-59.675
11
339.875
21
-59.675
0
LINE
8
0
10
326.875
20
-73.675
11
339.875
21
-73.675
0
LINE
8
0
10
326.375
20
-60.175
11
326.375
21
-73.175
0
LINE
8
0
10
340.375
20
-60.175
11
340.375
21
-73.175
0
ARC
8
0
10
326.875
20
-60.175
40
0.5
50
90
51
180
0
ARC
8
0
10
339.875
20
-60.175
40
0.5
50
0
51
90
0
ARC
8
0
10
326.875
20
-73.175
40
0.5
50
180
51
270
0
ARC
8
0
10
339.875
20
-73.175
40
0.5
50
270
51
0
0
LINE
8
0
10
359.425
20
-69.7
11
359.425
21
-82.7
0
LINE
8
0
10
345.425
20
-69.7
11
345.425
21
-82.7
0
LINE
8
0
10
358.925
20
-69.2
11
345.925
21
-69.2
0
LINE
8
0
10
358.925
20
-83.2
11
345.925
21
-83.2
0
ARC
8
0
10
358.925
20
-69.7
40
0.5
50
0
51
90
0
ARC
8
0
10
358.925
20
-82.7
40
0.5
50
270
51
0
0
ARC
8
0
10
345.925
20
-69.7
40
0.5
50
90
51
180
0
ARC
8
0
10
345.925
20
-82.7
40
0.5
50
180
51
270
0
LINE
8
0
10
358.1146
20
-61.4346
11
358.1146
21
-67.0894
0
LINE
8
0
10
357.6146
20
-67.5894
11
357.3018
21
-67.5894
0
LINE
8
0
10
357.3018
20
-67.5894
11
357.3018
21
-76.2
0
LINE
8
0
10
346.6084
20
-76.2
11
346.6084
21
-68.0894
0
LINE
8
0
10
346.1084
20
-67.5894
11
345.821
21
-67.5894
0
LINE
8
0
10
345.821
20
-67.5894
11
345.821
21
-66.286
0
LINE
8
0
10
345.321
20
-65.786
11
345.1526
21
-65.786
0
LINE
8
0
10
344.6526
20
-65.286
11
344.6526
21
-63.238
0
LINE
8
0
10
345.1526
20
-62.738
11
345.321
21
-62.738
0
LINE
8
0
10
345.821
20
-62.238
11
345.821
21
-61.4346
0
LINE
8
0
10
346.321
20
-60.9346
11
351.417
21
-60.9346
0
LINE
8
0
10
351.917
20
-60.4346
11
351.917
21
-60.071
0
LINE
8
0
10
351.917
20
-60.071
11
354.211
21
-60.071
0
LINE
8
0
10
354.711
20
-60.571
11
354.711
21
-60.9346
0
LINE
8
0
10
354.711
20
-60.9346
11
357.6146
21
-60.9346
0
ARC
8
0
10
357.6146
20
-67.0894
40
0.5
50
270
51
0
0
ARC
8
0
10
346.1084
20
-68.0894
40
0.5
50
0
51
90
0
ARC
8
0
10
345.321
20
-66.286
40
0.5
50
0
51
90
0
ARC
8
0
10
345.1526
20
-65.286
40
0.5
50
180
51
270
0
ARC
8
0
10
345.1526
20
-63.238
40
0.5
50
90
51
180
0
ARC
8
0
10
345.321
20
-62.238
40
0.5
50
270
51
0
0
ARC
8
0
10
346.321
20
-61.4346
40
0.5
50
90
51
180
0
ARC
8
0
10
351.417
20
-60.4346
40
0.5
50
270
51
0
0
ARC
8
0
10
354.211
20
-60.571
40
0.5
50
0
51
90
0
ARC
8
0
10
357.6146
20
-61.4346
40
0.5
50
0
51
90
0
LINE
8
0
10
358.1146
20
-90.9654
11
358.1146
21
-85.3106
0
LINE
8
0
10
357.6146
20
-84.8106
11
357.3018
21
-84.8106
0
LINE
8
0
10
357.3018
20
-84.8106
11
357.3018
21
-76.2
0
LINE
8
0
10
346.6084
20
-76.2
11
346.6084
21
-84.3106
0
LINE
8
0
10
346.1084
20
-84.8106
11
345.821
21
-84.8106
0
LINE
8
0
10
345.821
20
-84.8106
11
345.821
21
-86.114
0
LINE
8
0
10
345.321
20
-86.614
11
345.1526
21
-86.614
0
LINE
8
0
10
344.6526
20
-87.114
11
344.6526
21
-89.162
0
LINE
8
0
10
345.1526
20
-89.662
11
345.321
21
-89.662
0
LINE
8
0
10
345.821
20
-90.162
11
345.821
21
-90.9654
0
LINE
8
0
10
346.321
20
-91.4654
11
351.417
21
-91.4654
0
LINE
8
0
10
351.917
20
-91.9654
11
351.917
21
-92.329
0
LINE
8
0
10
351.917
20
-92.329
11
354.211
21
-92.329
0
LINE
8
0
10
354.711
20
-91.829
11
354.711
21
-91.4654
0
LINE
8
0
10
354.711
20
-91.4654
11
357.6146
21
-91.4654
0
ARC
8
0
10
357.6146
20
-85.3106
40
0.5
50
0
51
90
0
ARC
8
0
10
346.1084
20
-84.3106
40
0.5
50
270
51
0
0
ARC
8
0
10
345.321
20
-86.114
40
0.5
50
270
51
0
0
ARC
8
0
10
345.1526
20
-87.114
40
0.5
50
90
51
180
0
ARC
8
0
10
345.1526
20
-89.162
40
0.5
50
180
51
270
0
ARC
8
0
10
345.321
20
-90.162
40
0.5
50
0
51
90
0
ARC
8
0
10
346.321
20
-90.9654
40
0.5
50
180
51
270
0
ARC
8
0
10
351.417
20
-91.9654
40
0.5
50
0
51
90
0
ARC
8
0
10
354.211
20
-91.829
40
0.5
50
270
51
0
0
ARC
8
0
10
357.6146
20
-90.9654
40
0.5
50
270
51
0
0
LINE
8
0
10
41.125
20
-69.2
11
54.125
21
-69.2
0
LINE
8
0
10
41.125
20
-83.2
11
54.125
21
-83.2
0
LINE
8
0
10
40.625
20
-69.7
11
40.625
21
-82.7
0
LINE
8
0
10
54.625
20
-69.7
11
54.625
21
-82.7
0
ARC
8
0
10
41.125
20
-69.7
40
0.5
50
90
51
180
0
ARC
8
0
10
54.125
20
-69.7
40
0.5
50
0
51
90
0
ARC
8
0
10
41.125
20
-82.7
40
0.5
50
180
51
270
0
ARC
8
0
10
54.125
20
-82.7
40
0.5
50
270
51
0
0
LINE
8
0
10
60.175
20
-69.2
11
73.175
21
-69.2
0
LINE
8
0
10
60.175
20
-83.2
11
73.175
21
-83.2
0
LINE
8
0
10
59.675
20
-69.7
11
59.675
21
-82.7
0
LINE
8
0
10
73.675
20
-69.7
11
73.675
21
-82.7
0
ARC
8
0
10
60.175
20
-69.7
40
0.5
50
90
51
180
0
ARC
8
0
10
73.175
20
-69.7
40
0.5
50
0
51
90
0
ARC
8
0
10
60.175
20
-82.7
40
0.5
50
180
51
270
0
ARC
8
0
10
73.175
20
-82.7
40
0.5
50
270
51
0
0
LINE
8
0
10
79.225
20
-69.2
11
92.225
21
-69.2
0
LINE
8
0
10
79.225
20
-83.2
11
92.225
21
-83.2
0
LINE
8
0
10
78.725
20
-69.7
11
78.725
21
-82.7
0
LINE
8
0
10
92.725
20
-69.7
11
92.725
21
-82.7
0
ARC
8
0
10
79.225
20
-69.7
40
0.5
50
90
51
180
0
ARC
8
0
10
92.225
20
-69.7
40
0.5
50
0
51
90
0
ARC
8
0
10
79.225
20
-82.7
40
0.5
50
180
51
270
0
ARC
8
0
10
92.225
20
-82.7
40
0.5
50
270
51
0
0
LINE
8
0
10
98.275
20
-69.2
11
111.275
21
-69.2
0
LINE
8
0
10
98.275
20
-83.2
11
111.275
21
-83.2
0
LINE
8
0
10
97.775
20
-69.7
11
97.775
21
-82.7
0
LINE
8
0
10
111.775
20
-69.7
11
111.775
21
-82.7
0
ARC
8
0
10
98.275
20
-69.7
40
0.5
50
90
51
180
0
ARC
8
0
10
111.275
20
-69.7
40
0.5
50
0
51
90
0
ARC
8
0
10
98.275
20
-82.7
40
0.5
50
180
51
270
0
ARC
8
0
10
111.275
20
-82.7
40
0.5
50
270
51
0
0
LINE
8
0
10
117.325
20
-69.2
11
130.325
21
-69.2
0
LINE
8
0
10
117.325
20
-83.2
11
130.325
21
-83.2
0
LINE
8
0
10
116.825
20
-69.7
11
116.825
21
-82.7
0
LINE
8
0
10
130.825
20
-69.7
11
130.825
21
-82.7
0
ARC
8
0
10
117.325
20
-69.7
40
0.5
50
90
51
180
0
ARC
8
0
10
130.325
20
-69.7
40
0.5
50
0
51
90
0
ARC
8
0
10
117.325
20
-82.7
40
0.5
50
180
51
270
0
ARC
8
0
10
130.325
20
-82.7
40
0.5
50
270
51
0
0
LINE
8
0
10
145.9
20
-69.2
11
158.9
21
-69.2
0
LINE
8
0
10
145.9
20
-83.2
11
158.9
21
-83.2
0
LINE
8
0
10
145.4
20
-69.7
11
145.4
21
-82.7
0
LINE
8
0
10
159.4
20
-69.7
11
159.4
21
-82.7
0
ARC
8
0
10
145.9
20
-69.7
40
0.5
50
90
51
180
0
ARC
8
0
10
158.9
20
-69.7
40
0.5
50
0
51
90
0
ARC
8
0
10
145.9
20
-82.7
40
0.5
50
180
51
270
0
ARC
8
0
10
158.9
20
-82.7
40
0.5
50
270
51
0
0
LINE
8
0
10
137.6346
20
-70.5104
11
143.2894
21
-70.5104
0
LINE
8
0
10
143.7894
20
-71.0104
11
143.7894
21
-71.3232
0
LINE
8
0
10
143.7894
20
-71.3232
11
152.4
21
-71.3232
0
LINE
8
0
10
152.4
20
-82.0166
11
144.2894
21
-82.0166
0
LINE
8
0
10
143.7894
20
-82.5166
11
143.7894
21
-82.804
0
LINE
8
0
10
143.7894
20
-82.804
11
142.486
21
-82.804
0
LINE
8
0
10
141.986
20
-83.304
11
141.986
21
-83.4724
0
LINE
8
0
10
141.486
20
-83.9724
11
139.438
21
-83.9724
0
LINE
8
0
10
138.938
20
-83.4724
11
138.938
21
-83.304
0
LINE
8
0
10
138.438
20
-82.804
11
137.6346
21
-82.804
0
LINE
8
0
10
137.1346
20
-82.304
11
137.1346
21
-77.208
0
LINE
8
0
10
136.6346
20
-76.708
11
136.271
21
-76.708
0
LINE
8
0
10
136.271
20
-76.708
11
136.271
21
-74.414
0
LINE
8
0
10
136.771
20
-73.914
11
137.1346
21
-73.914
0
LINE
8
0
10
137.1346
20
-73.914
11
137.1346
21
-71.0104
0
ARC
8
0
10
143.2894
20
-71.0104
40
0.5
50
0
51
90
0
ARC
8
0
10
144.2894
20
-82.5166
40
0.5
50
90
51
180
0
ARC
8
0
10
142.486
20
-83.304
40
0.5
50
90
51
180
0
ARC
8
0
10
141.486
20
-83.4724
40
0.5
50
270
51
0
0
ARC
8
0
10
139.438
20
-83.4724
40
0.5
50
180
51
270
0
ARC
8
0
10
138.438
20
-83.304
40
0.5
50
0
51
90
0
ARC
8
0
10
137.6346
20
-82.304
40
0.5
50
180
51
270
0
ARC
8
0
10
136.6346
20
-77.208
40
0.5
50
0
51
90
0
ARC
8
0
10
136.771
20
-74.414
40
0.5
50
90
51
180
0
ARC
8
0
10
137.6346
20
-71.0104
40
0.5
50
90
51
180
0
LINE
8
0
10
167.1654
20
-70.5104
11
161.5106
21
-70.5104
0
LINE
8
0
10
161.0106
20
-71.0104
11
161.0106
21
-71.3232
0
LINE
8
0
10
161.0106
20
-71.3232
11
152.4
21
-71.3232
0
LINE
8
0
10
152.4
20
-82.0166
11
160.5106
21
-82.0166
0
LINE
8
0
10
161.0106
20
-82.5166
11
161.0106
21
-82.804
0
LINE
8
0
10
161.0106
20
-82.804
11
162.314
21
-82.804
0
LINE
8
0
10
162.814
20
-83.304
11
162.814
21
-83.4724
0
LINE
8
0
10
163.314
20
-83.9724
11
165.362
21
-83.9724
0
LINE
8
0
10
165.862
20
-83.4724
11
165.862
21
-83.304
0
LINE
8
0
10
166.362
20
-82.804
11
167.1654
21
-82.804
0
LINE
8
0
10
167.6654
20
-82.304
11
167.6654
21
-77.208
0
LINE
8
0
10
168.1654
20
-76.708
11
168.529
21
-76.708
0
LINE
8
0
10
168.529
20
-76.708
11
168.529
21
-74.414
0
LINE
8
0
10
168.029
20
-73.914
11
167.6654
21
-73.914
0
LINE
8
0
10
167.6654
20
-73.914
11
167.6654
21
-71.0104
0
ARC
8
0
10
161.5106
20
-71.0104
40
0.5
50
90
51
180
0
ARC
8
0
10
160.5106
20
-82.5166
40
0.5
50
0
51
90
0
ARC
8
0
10
162.314
20
-83.304
40
0.5
50
0
51
90
0
ARC
8
0
10
163.314
20
-83.4724
40
0.5
50
180
51
270
0
ARC
8
0
10
165.362
20
-83.4724
40
0.5
50
270
51
0
0
ARC
8
0
10
166.362
20
-83.304
40
0.5
50
90
51
180
0
ARC
8
0
10
167.1654
20
-82.304
40
0.5
50
270
51
0
0
ARC
8
0
10
168.1654
20
-77.208
40
0.5
50
90
51
180
0
ARC
8
0
10
168.029
20
-74.414
40
0.5
50
0
51
90
0
ARC
8
0
10
167.1654
20
-71.0104
40
0.5
50
0
51
90
0
LINE
8
0
10
174.475
20
-69.2
11
187.475
21
-69.2
0
LINE
8
0
10
174.475
20
-83.2
11
187.475
21
-83.2
0
LINE
8
0
10
173.975
20
-69.7
11
173.975
21
-82.7
0
LINE
8
0
10
187.975
20
-69.7
11
187.975
21
-82.7
0
ARC
8
0
10
174.475
20
-69.7
40
0.5
50
90
51
180
0
ARC
8
0
10
187.475
20
-69.7
40
0.5
50
0
51
90
0
ARC
8
0
10
174.475
20
-82.7
40
0.5
50
180
51
270
0
ARC
8
0
10
187.475
20
-82.7
40
0.5
50
270
51
0
0
LINE
8
0
10
193.525
20
-69.2
11
206.525
21
-69.2
0
LINE
8
0
10
193.525
20
-83.2
11
206.525
21
-83.2
0
LINE
8
0
10
193.025
20
-69.7
11
193.025
21
-82.7
0
LINE
8
0
10
207.025
20
-69.7
11
207.025
21
-82.7
0
ARC
8
0
10
193.525
20
-69.7
40
0.5
50
90
51
180
0
ARC
8
0
10
206.525
20
-69.7
40
0.5
50
0
51
90
0
ARC
8
0
10
193.525
20
-82.7
40
0.5
50
180
51
270
0
ARC
8
0
10
206.525
20
-82.7
40
0.5
50
270
51
0
0
LINE
8
0
10
212.575
20
-69.2
11
225.575
21
-69.2
0
LINE
8
0
10
212.575
20
-83.2
11
225.575
21
-83.2
0
LINE
8
0
10
212.075
20
-69.7
11
212.075
21
-82.7
0
LINE
8
0
10
226.075
20
-69.7
11
226.075
21
-82.7
0
ARC
8
0
10
212.575
20
-69.7
40
0.5
50
90
51
180
0
ARC
8
0
10
225.575
20
-69.7
40
0.5
50
0
51
90
0
ARC
8
0
10
212.575
20
-82.7
40
0.5
50
180
51
270
0
ARC
8
0
10
225.575
20
-82.7
40
0.5
50
270
51
0
0
LINE
8
0
10
231.625
20
-69.2
11
244.625
21
-69.2
0
LINE
8
0
10
231.625
20
-83.2
11
244.625
21
-83.2
0
LINE
8
0
10
231.125
20
-69.7
11
231.125
21
-82.7
0
LINE
8
0
10
245.125
20
-69.7
11
245.125
21
-82.7
0
ARC
8
0
10
231.625
20
-69.7
40
0.5
50
90
51
180
0
ARC
8
0
10
244.625
20
-69.7
40
0.5
50
0
51
90
0
ARC
8
0
10
231.625
20
-82.7
40
0.5
50
180
51
270
0
ARC
8
0
10
244.625
20
-82.7
40
0.5
50
270
51
0
0
LINE
8
0
10
250.675
20
-69.2
11
263.675
21
-69.2
0
LINE
8
0
10
250.675
20
-83.2
11
263.675
21
-83.2
0
LINE
8
0
10
250.175
20
-69.7
11
250.175
21
-82.7
0
LINE
8
0
10
264.175
20
-69.7
11
264.175
21
-82.7
0
ARC
8
0
10
250.675
20
-69.7
40
0.5
50
90
51
180
0
ARC
8
0
10
263.675
20
-69.7
40
0.5
50
0
51
90
0
ARC
8
0
10
250.675
20
-82.7
40
0.5
50
180
51
270
0
ARC
8
0
10
263.675
20
-82.7
40
0.5
50
270
51
0
0
LINE
8
0
10
3.025
20
-78.725
11
16.025
21
-78.725
0
LINE
8
0
10
3.025
20
-92.725
11
16.025
21
-92.725
0
LINE
8
0
10
2.525
20
-79.225
11
2.525
21
-92.225
0
LINE
8
0
10
16.525
20
-79.225
11
16.525
21
-92.225
0
ARC
8
0
10
3.025
20
-79.225
40
0.5
50
90
51
180
0
ARC
8
0
10
16.025
20
-79.225
40
0.5
50
0
51
90
0
ARC
8
0
10
3.025
20
-92.225
40
0.5
50
180
51
270
0
ARC
8
0
10
16.025
20
-92.225
40
0.5
50
270
51
0
0
LINE
8
0
10
298.3
20
-78.725
11
311.3
21
-78.725
0
LINE
8
0
10
298.3
20
-92.725
11
311.3
21
-92.725
0
LINE
8
0
10
297.8
20
-79.225
11
297.8
21
-92.225
0
LINE
8
0
10
311.8
20
-79.225
11
311.8
21
-92.225
0
ARC
8
0
10
298.3
20
-79.225
40
0.5
50
90
51
180
0
ARC
8
0
10
311.3
20
-79.225
40
0.5
50
0
51
90
0
ARC
8
0
10
298.3
20
-92.225
40
0.5
50
180
51
270
0
ARC
8
0
10
311.3
20
-92.225
40
0.5
50
270
51
0
0
LINE
8
0
10
290.0346
20
-80.0354
11
295.6894
21
-80.0354
0
LINE
8
0
10
296.1894
20
-80.5354
11
296.1894
21
-80.8482
0
LINE
8
0
10
296.1894
20
-80.8482
11
304.8
21
-80.8482
0
LINE
8
0
10
304.8
20
-91.5416
11
296.6894
21
-91.5416
0
LINE
8
0
10
296.1894
20
-92.0416
11
296.1894
21
-92.329
0
LINE
8
0
10
296.1894
20
-92.329
11
294.886
21
-92.329
0
LINE
8
0
10
294.386
20
-92.829
11
294.386
21
-92.9974
0
LINE
8
0
10
293.886
20
-93.4974
11
291.838
21
-93.4974
0
LINE
8
0
10
291.338
20
-92.9974
11
291.338
21
-92.829
0
LINE
8
0
10
290.838
20
-92.329
11
290.0346
21
-92.329
0
LINE
8
0
10
289.5346
20
-91.829
11
289.5346
21
-86.733
0
LINE
8
0
10
289.0346
20
-86.233
11
288.671
21
-86.233
0
LINE
8
0
10
288.671
20
-86.233
11
288.671
21
-83.939
0
LINE
8
0
10
289.171
20
-83.439
11
289.5346
21
-83.439
0
LINE
8
0
10
289.5346
20
-83.439
11
289.5346
21
-80.5354
0
ARC
8
0
10
295.6894
20
-80.5354
40
0.5
50
0
51
90
0
ARC
8
0
10
296.6894
20
-92.0416
40
0.5
50
90
51
180
0
ARC
8
0
10
294.886
20
-92.829
40
0.5
50
90
51
180
0
ARC
8
0
10
293.886
20
-92.9974
40
0.5
50
270
51
0
0
ARC
8
0
10
291.838
20
-92.9974
40
0.5
50
180
51
270
0
ARC
8
0
10
290.838
20
-92.829
40
0.5
50
0
51
90
0
ARC
8
0
10
290.0346
20
-91.829
40
0.5
50
180
51
270
0
ARC
8
0
10
289.0346
20
-86.733
40
0.5
50
0
51
90
0
ARC
8
0
10
289.171
20
-83.939
40
0.5
50
90
51
180
0
ARC
8
0
10
290.0346
20
-80.5354
40
0.5
50
90
51
180
0
LINE
8
0
10
319.5654
20
-80.0354
11
313.9106
21
-80.0354
0
LINE
8
0
10
313.4106
20
-80.5354
11
313.4106
21
-80.8482
0
LINE
8
0
10
313.4106
20
-80.8482
11
304.8
21
-80.8482
0
LINE
8
0
10
304.8
20
-91.5416
11
312.9106
21
-91.5416
0
LINE
8
0
10
313.4106
20
-92.0416
11
313.4106
21
-92.329
0
LINE
8
0
10
313.4106
20
-92.329
11
314.714
21
-92.329
0
LINE
8
0
10
315.214
20
-92.829
11
315.214
21
-92.9974
0
LINE
8
0
10
315.714
20
-93.4974
11
317.762
21
-93.4974
0
LINE
8
0
10
318.262
20
-92.9974
11
318.262
21
-92.829
0
LINE
8
0
10
318.762
20
-92.329
11
319.5654
21
-92.329
0
LINE
8
0
10
320.0654
20
-91.829
11
320.0654
21
-86.733
0
LINE
8
0
10
320.5654
20
-86.233
11
320.929
21
-86.233
0
LINE
8
0
10
320.929
20
-86.233
11
320.929
21
-83.939
0
LINE
8
0
10
320.429
20
-83.439
11
320.0654
21
-83.439
0
LINE
8
0
10
320.0654
20
-83.439
11
320.0654
21
-80.5354
0
ARC
8
0
10
313.9106
20
-80.5354
40
0.5
50
90
51
180
0
ARC
8
0
10
312.9106
20
-92.0416
40
0.5
50
0
51
90
0
ARC
8
0
10
314.714
20
-92.829
40
0.5
50
0
51
90
0
ARC
8
0
10
315.714
20
-92.9974
40
0.5
50
180
51
270
0
ARC
8
0
10
317.762
20
-92.9974
40
0.5
50
270
51
0
0
ARC
8
0
10
318.762
20
-92.829
40
0.5
50
90
51
180
0
ARC
8
0
10
319.5654
20
-91.829
40
0.5
50
270
51
0
0
ARC
8
0
10
320.5654
20
-86.733
40
0.5
50
90
51
180
0
ARC
8
0
10
320.429
20
-83.939
40
0.5
50
0
51
90
0
ARC
8
0
10
319.5654
20
-80.5354
40
0.5
50
0
51
90
0
LINE
8
0
10
326.875
20
-78.725
11
339.875
21
-78.725
0
LINE
8
0
10
326.875
20
-92.725
11
339.875
21
-92.725
0
LINE
8
0
10
326.375
20
-79.225
11
326.375
21
-92.225
0
LINE
8
0
10
340.375
20
-79.225
11
340.375
21
-92.225
0
ARC
8
0
10
326.875
20
-79.225
40
0.5
50
90
51
180
0
ARC
8
0
10
339.875
20
-79.225
40
0.5
50
0
51
90
0
ARC
8
0
10
326.875
20
-92.225
40
0.5
50
180
51
270
0
ARC
8
0
10
339.875
20
-92.225
40
0.5
50
270
51
0
0
LINE
8
0
10
0
20
-95.25
11
361.95
21
-95.25
0
LINE
8
0
10
0
20
0
11
361.95
21
0
0
LINE
8
0
10
0
20
-95.25
11
0
21
0
0
LINE
8
0
10
361.95
20
-95.25
11
361.95
21
0
0
ENDSEC
0
EOF