  0
SECTION
  2
HEADER
  9
$ACADVER
  1
AC1009
  9
$FILLMODE
 70
 0
  9
$SPLFRAME
 70
 1
  9
$EXTMIN
 10
0
 20
0
 30
0.0
  9
$EXTMAX
 10
1058.33
 20
1058.33
 30
0.0
  0
ENDSEC
  0
SECTION
  2
TABLES
  0
TABLE
  2
LAYER
 70
1
  0
LAYER
  2
0
 70
     0
 62
     7
  6
CONTINUOUS
  0
ENDTAB
  0
ENDSEC
  0
SECTION
  2
ENTITIES
  0
LINE
  8
0
 62
     0
 10
0.0950846
 20
95.5075
 30
0.0
 11
76.2953
 21
95.5075
 31
0.0
  0
LINE
  8
0
 62
     0
 10
76.2953
 20
95.5075
 30
0.0
 11
76.2953
 21
0.257693
 31
0.0
  0
LINE
  8
0
 62
     0
 10
76.2953
 20
0.257693
 30
0.0
 11
0.0950846
 21
0.257693
 31
0.0
  0
LINE
  8
0
 62
     0
 10
0.0950846
 20
0.257693
 30
0.0
 11
0.0950846
 21
95.5075
 31
0.0
  0
LINE
  8
0
 62
     0
 10
12.1447
 20
16.7831
 30
0.0
 11
12.1447
 21
12.0826
 31
0.0
  0
LINE
  8
0
 62
     0
 10
12.1447
 20
12.0826
 30
0.0
 11
10.6192
 21
12.0826
 31
0.0
  0
LINE
  8
0
 62
     0
 10
10.6192
 20
12.0826
 30
0.0
 11
10.6192
 21
15.3128
 31
0.0
  0
LINE
  8
0
 62
     0
 10
10.6192
 20
15.3128
 30
0.0
 11
3.86955
 21
15.3128
 31
0.0
  0
LINE
  8
0
 62
     0
 10
3.86955
 20
15.3128
 30
0.0
 11
3.86955
 21
12.0826
 31
0.0
  0
LINE
  8
0
 62
     0
 10
3.86955
 20
12.0826
 30
0.0
 11
3.04409
 21
12.0826
 31
0.0
  0
LINE
  8
0
 62
     0
 10
3.04409
 20
12.0826
 30
0.0
 11
3.04409
 21
9.28384
 31
0.0
  0
LINE
  8
0
 62
     0
 10
3.04409
 20
9.28384
 30
0.0
 11
3.86955
 21
9.28384
 31
0.0
  0
LINE
  8
0
 62
     0
 10
3.86955
 20
9.28384
 30
0.0
 11
3.86955
 21
3.01377
 31
0.0
  0
LINE
  8
0
 62
     0
 10
3.86955
 20
3.01377
 30
0.0
 11
5.59484
 21
3.01377
 31
0.0
  0
LINE
  8
0
 62
     0
 10
5.59484
 20
3.01377
 30
0.0
 11
5.59484
 21
1.8135
 31
0.0
  0
LINE
  8
0
 62
     0
 10
5.59484
 20
1.8135
 30
0.0
 11
8.89385
 21
1.8135
 31
0.0
  0
LINE
  8
0
 62
     0
 10
8.89385
 20
1.8135
 30
0.0
 11
8.89385
 21
3.01377
 31
0.0
  0
LINE
  8
0
 62
     0
 10
8.89385
 20
3.01377
 30
0.0
 11
10.6192
 21
3.01377
 31
0.0
  0
LINE
  8
0
 62
     0
 10
10.6192
 20
3.01377
 30
0.0
 11
10.6192
 21
7.48273
 31
0.0
  0
LINE
  8
0
 62
     0
 10
10.6192
 20
7.48273
 30
0.0
 11
12.1447
 21
7.48273
 31
0.0
  0
LINE
  8
0
 62
     0
 10
12.1447
 20
7.48273
 30
0.0
 11
12.1447
 21
2.78364
 31
0.0
  0
LINE
  8
0
 62
     0
 10
12.1447
 20
2.78364
 30
0.0
 11
26.1441
 21
2.78364
 31
0.0
  0
LINE
  8
0
 62
     0
 10
26.1441
 20
2.78364
 30
0.0
 11
26.1441
 21
7.48273
 31
0.0
  0
LINE
  8
0
 62
     0
 10
26.1441
 20
7.48273
 30
0.0
 11
27.6696
 21
7.48273
 31
0.0
  0
LINE
  8
0
 62
     0
 10
27.6696
 20
7.48273
 30
0.0
 11
27.6696
 21
3.01377
 31
0.0
  0
LINE
  8
0
 62
     0
 10
27.6696
 20
3.01377
 30
0.0
 11
29.3949
 21
3.01377
 31
0.0
  0
LINE
  8
0
 62
     0
 10
29.3949
 20
3.01377
 30
0.0
 11
29.3949
 21
1.8135
 31
0.0
  0
LINE
  8
0
 62
     0
 10
29.3949
 20
1.8135
 30
0.0
 11
32.694
 21
1.8135
 31
0.0
  0
LINE
  8
0
 62
     0
 10
32.694
 20
1.8135
 30
0.0
 11
32.694
 21
3.01377
 31
0.0
  0
LINE
  8
0
 62
     0
 10
32.694
 20
3.01377
 30
0.0
 11
34.4193
 21
3.01377
 31
0.0
  0
LINE
  8
0
 62
     0
 10
34.4193
 20
3.01377
 30
0.0
 11
34.4193
 21
9.28384
 31
0.0
  0
LINE
  8
0
 62
     0
 10
34.4193
 20
9.28384
 30
0.0
 11
35.2447
 21
9.28384
 31
0.0
  0
LINE
  8
0
 62
     0
 10
35.2447
 20
9.28384
 30
0.0
 11
35.2447
 21
12.0826
 31
0.0
  0
LINE
  8
0
 62
     0
 10
35.2447
 20
12.0826
 30
0.0
 11
34.4193
 21
12.0826
 31
0.0
  0
LINE
  8
0
 62
     0
 10
34.4193
 20
12.0826
 30
0.0
 11
34.4193
 21
15.3128
 31
0.0
  0
LINE
  8
0
 62
     0
 10
34.4193
 20
15.3128
 30
0.0
 11
27.6696
 21
15.3128
 31
0.0
  0
LINE
  8
0
 62
     0
 10
27.6696
 20
15.3128
 30
0.0
 11
27.6696
 21
12.0826
 31
0.0
  0
LINE
  8
0
 62
     0
 10
27.6696
 20
12.0826
 30
0.0
 11
26.1441
 21
12.0826
 31
0.0
  0
LINE
  8
0
 62
     0
 10
26.1441
 20
12.0826
 30
0.0
 11
26.1441
 21
16.7831
 31
0.0
  0
LINE
  8
0
 62
     0
 10
26.1441
 20
16.7831
 30
0.0
 11
12.1447
 21
16.7831
 31
0.0
  0
LINE
  8
0
 62
     0
 10
40.7197
 20
16.7831
 30
0.0
 11
54.719
 21
16.7831
 31
0.0
  0
LINE
  8
0
 62
     0
 10
54.719
 20
16.7831
 30
0.0
 11
54.719
 21
2.78364
 31
0.0
  0
LINE
  8
0
 62
     0
 10
54.719
 20
2.78364
 30
0.0
 11
40.7197
 21
2.78364
 31
0.0
  0
LINE
  8
0
 62
     0
 10
40.7197
 20
2.78364
 30
0.0
 11
40.7197
 21
16.7831
 31
0.0
  0
LINE
  8
0
 62
     0
 10
66.27
 20
35.4087
 30
0.0
 11
66.27
 21
34.5833
 31
0.0
  0
LINE
  8
0
 62
     0
 10
66.27
 20
34.5833
 30
0.0
 11
59.9997
 21
34.5833
 31
0.0
  0
LINE
  8
0
 62
     0
 10
59.9997
 20
34.5833
 30
0.0
 11
59.9997
 21
32.8579
 31
0.0
  0
LINE
  8
0
 62
     0
 10
59.9997
 20
32.8579
 30
0.0
 11
58.7996
 21
32.8579
 31
0.0
  0
LINE
  8
0
 62
     0
 10
58.7996
 20
32.8579
 30
0.0
 11
58.7996
 21
29.5589
 31
0.0
  0
LINE
  8
0
 62
     0
 10
58.7996
 20
29.5589
 30
0.0
 11
59.9997
 21
29.5589
 31
0.0
  0
LINE
  8
0
 62
     0
 10
59.9997
 20
29.5589
 30
0.0
 11
59.9997
 21
27.8336
 31
0.0
  0
LINE
  8
0
 62
     0
 10
59.9997
 20
27.8336
 30
0.0
 11
64.4701
 21
27.8336
 31
0.0
  0
LINE
  8
0
 62
     0
 10
64.4701
 20
27.8336
 30
0.0
 11
64.4701
 21
26.3081
 31
0.0
  0
LINE
  8
0
 62
     0
 10
64.4701
 20
26.3081
 30
0.0
 11
59.7697
 21
26.3081
 31
0.0
  0
LINE
  8
0
 62
     0
 10
59.7697
 20
26.3081
 30
0.0
 11
59.7697
 21
12.3086
 31
0.0
  0
LINE
  8
0
 62
     0
 10
59.7697
 20
12.3086
 30
0.0
 11
64.4701
 21
12.3086
 31
0.0
  0
LINE
  8
0
 62
     0
 10
64.4701
 20
12.3086
 30
0.0
 11
64.4701
 21
10.7831
 31
0.0
  0
LINE
  8
0
 62
     0
 10
64.4701
 20
10.7831
 30
0.0
 11
59.9997
 21
10.7831
 31
0.0
  0
LINE
  8
0
 62
     0
 10
59.9997
 20
10.7831
 30
0.0
 11
59.9997
 21
9.05785
 31
0.0
  0
LINE
  8
0
 62
     0
 10
59.9997
 20
9.05785
 30
0.0
 11
58.7996
 21
9.05785
 31
0.0
  0
LINE
  8
0
 62
     0
 10
58.7996
 20
9.05785
 30
0.0
 11
58.7996
 21
5.75881
 31
0.0
  0
LINE
  8
0
 62
     0
 10
58.7996
 20
5.75881
 30
0.0
 11
59.9997
 21
5.75881
 31
0.0
  0
LINE
  8
0
 62
     0
 10
59.9997
 20
5.75881
 30
0.0
 11
59.9997
 21
4.03352
 31
0.0
  0
LINE
  8
0
 62
     0
 10
59.9997
 20
4.03352
 30
0.0
 11
66.27
 21
4.03352
 31
0.0
  0
LINE
  8
0
 62
     0
 10
66.27
 20
4.03352
 30
0.0
 11
66.27
 21
3.20807
 31
0.0
  0
LINE
  8
0
 62
     0
 10
66.27
 20
3.20807
 30
0.0
 11
69.07
 21
3.20807
 31
0.0
  0
LINE
  8
0
 62
     0
 10
69.07
 20
3.20807
 30
0.0
 11
69.07
 21
4.03352
 31
0.0
  0
LINE
  8
0
 62
     0
 10
69.07
 20
4.03352
 30
0.0
 11
72.3
 21
4.03352
 31
0.0
  0
LINE
  8
0
 62
     0
 10
72.3
 20
4.03352
 30
0.0
 11
72.3
 21
10.7831
 31
0.0
  0
LINE
  8
0
 62
     0
 10
72.3
 20
10.7831
 30
0.0
 11
69.07
 21
10.7831
 31
0.0
  0
LINE
  8
0
 62
     0
 10
69.07
 20
10.7831
 30
0.0
 11
69.07
 21
12.3086
 31
0.0
  0
LINE
  8
0
 62
     0
 10
69.07
 20
12.3086
 30
0.0
 11
73.769
 21
12.3086
 31
0.0
  0
LINE
  8
0
 62
     0
 10
73.769
 20
12.3086
 30
0.0
 11
73.769
 21
26.3081
 31
0.0
  0
LINE
  8
0
 62
     0
 10
73.769
 20
26.3081
 30
0.0
 11
69.07
 21
26.3081
 31
0.0
  0
LINE
  8
0
 62
     0
 10
69.07
 20
26.3081
 30
0.0
 11
69.07
 21
27.8336
 31
0.0
  0
LINE
  8
0
 62
     0
 10
69.07
 20
27.8336
 30
0.0
 11
72.3
 21
27.8336
 31
0.0
  0
LINE
  8
0
 62
     0
 10
72.3
 20
27.8336
 30
0.0
 11
72.3
 21
34.5833
 31
0.0
  0
LINE
  8
0
 62
     0
 10
72.3
 20
34.5833
 30
0.0
 11
69.07
 21
34.5833
 31
0.0
  0
LINE
  8
0
 62
     0
 10
69.07
 20
34.5833
 30
0.0
 11
69.07
 21
35.4087
 31
0.0
  0
LINE
  8
0
 62
     0
 10
69.07
 20
35.4087
 30
0.0
 11
66.27
 21
35.4087
 31
0.0
  0
LINE
  8
0
 62
     0
 10
2.61965
 20
35.833
 30
0.0
 11
16.6192
 21
35.833
 31
0.0
  0
LINE
  8
0
 62
     0
 10
16.6192
 20
35.833
 30
0.0
 11
16.6192
 21
21.8336
 31
0.0
  0
LINE
  8
0
 62
     0
 10
16.6192
 20
21.8336
 30
0.0
 11
2.61965
 21
21.8336
 31
0.0
  0
LINE
  8
0
 62
     0
 10
2.61965
 20
21.8336
 30
0.0
 11
2.61965
 21
35.833
 31
0.0
  0
LINE
  8
0
 62
     0
 10
21.6697
 20
35.833
 30
0.0
 11
35.669
 21
35.833
 31
0.0
  0
LINE
  8
0
 62
     0
 10
35.669
 20
35.833
 30
0.0
 11
35.669
 21
21.8336
 31
0.0
  0
LINE
  8
0
 62
     0
 10
35.669
 20
21.8336
 30
0.0
 11
21.6697
 21
21.8336
 31
0.0
  0
LINE
  8
0
 62
     0
 10
21.6697
 20
21.8336
 30
0.0
 11
21.6697
 21
35.833
 31
0.0
  0
LINE
  8
0
 62
     0
 10
40.7197
 20
35.833
 30
0.0
 11
54.719
 21
35.833
 31
0.0
  0
LINE
  8
0
 62
     0
 10
54.719
 20
35.833
 30
0.0
 11
54.719
 21
21.8336
 31
0.0
  0
LINE
  8
0
 62
     0
 10
54.719
 20
21.8336
 30
0.0
 11
40.7197
 21
21.8336
 31
0.0
  0
LINE
  8
0
 62
     0
 10
40.7197
 20
21.8336
 30
0.0
 11
40.7197
 21
35.833
 31
0.0
  0
LINE
  8
0
 62
     0
 10
2.61965
 20
54.8831
 30
0.0
 11
16.6192
 21
54.8831
 31
0.0
  0
LINE
  8
0
 62
     0
 10
16.6192
 20
54.8831
 30
0.0
 11
16.6192
 21
40.8838
 31
0.0
  0
LINE
  8
0
 62
     0
 10
16.6192
 20
40.8838
 30
0.0
 11
2.61965
 21
40.8838
 31
0.0
  0
LINE
  8
0
 62
     0
 10
2.61965
 20
40.8838
 30
0.0
 11
2.61965
 21
54.8831
 31
0.0
  0
LINE
  8
0
 62
     0
 10
21.6697
 20
54.8831
 30
0.0
 11
35.669
 21
54.8831
 31
0.0
  0
LINE
  8
0
 62
     0
 10
35.669
 20
54.8831
 30
0.0
 11
35.669
 21
40.8838
 31
0.0
  0
LINE
  8
0
 62
     0
 10
35.669
 20
40.8838
 30
0.0
 11
21.6697
 21
40.8838
 31
0.0
  0
LINE
  8
0
 62
     0
 10
21.6697
 20
40.8838
 30
0.0
 11
21.6697
 21
54.8831
 31
0.0
  0
LINE
  8
0
 62
     0
 10
40.7197
 20
54.8831
 30
0.0
 11
54.719
 21
54.8831
 31
0.0
  0
LINE
  8
0
 62
     0
 10
54.719
 20
54.8831
 30
0.0
 11
54.719
 21
40.8838
 31
0.0
  0
LINE
  8
0
 62
     0
 10
54.719
 20
40.8838
 30
0.0
 11
40.7197
 21
40.8838
 31
0.0
  0
LINE
  8
0
 62
     0
 10
40.7197
 20
40.8838
 30
0.0
 11
40.7197
 21
54.8831
 31
0.0
  0
LINE
  8
0
 62
     0
 10
66.27
 20
73.5087
 30
0.0
 11
66.27
 21
72.6832
 31
0.0
  0
LINE
  8
0
 62
     0
 10
66.27
 20
72.6832
 30
0.0
 11
59.9997
 21
72.6832
 31
0.0
  0
LINE
  8
0
 62
     0
 10
59.9997
 20
72.6832
 30
0.0
 11
59.9997
 21
70.9581
 31
0.0
  0
LINE
  8
0
 62
     0
 10
59.9997
 20
70.9581
 30
0.0
 11
58.7996
 21
70.9581
 31
0.0
  0
LINE
  8
0
 62
     0
 10
58.7996
 20
70.9581
 30
0.0
 11
58.7996
 21
67.6589
 31
0.0
  0
LINE
  8
0
 62
     0
 10
58.7996
 20
67.6589
 30
0.0
 11
59.9997
 21
67.6589
 31
0.0
  0
LINE
  8
0
 62
     0
 10
59.9997
 20
67.6589
 30
0.0
 11
59.9997
 21
65.9335
 31
0.0
  0
LINE
  8
0
 62
     0
 10
59.9997
 20
65.9335
 30
0.0
 11
64.4701
 21
65.9335
 31
0.0
  0
LINE
  8
0
 62
     0
 10
64.4701
 20
65.9335
 30
0.0
 11
64.4701
 21
64.4081
 31
0.0
  0
LINE
  8
0
 62
     0
 10
64.4701
 20
64.4081
 30
0.0
 11
59.7697
 21
64.4081
 31
0.0
  0
LINE
  8
0
 62
     0
 10
59.7697
 20
64.4081
 30
0.0
 11
59.7697
 21
50.4088
 31
0.0
  0
LINE
  8
0
 62
     0
 10
59.7697
 20
50.4088
 30
0.0
 11
64.4701
 21
50.4088
 31
0.0
  0
LINE
  8
0
 62
     0
 10
64.4701
 20
50.4088
 30
0.0
 11
64.4701
 21
48.883
 31
0.0
  0
LINE
  8
0
 62
     0
 10
64.4701
 20
48.883
 30
0.0
 11
59.9997
 21
48.883
 31
0.0
  0
LINE
  8
0
 62
     0
 10
59.9997
 20
48.883
 30
0.0
 11
59.9997
 21
47.1579
 31
0.0
  0
LINE
  8
0
 62
     0
 10
59.9997
 20
47.1579
 30
0.0
 11
58.7996
 21
47.1579
 31
0.0
  0
LINE
  8
0
 62
     0
 10
58.7996
 20
47.1579
 30
0.0
 11
58.7996
 21
43.8587
 31
0.0
  0
LINE
  8
0
 62
     0
 10
58.7996
 20
43.8587
 30
0.0
 11
59.9997
 21
43.8587
 31
0.0
  0
LINE
  8
0
 62
     0
 10
59.9997
 20
43.8587
 30
0.0
 11
59.9997
 21
42.1337
 31
0.0
  0
LINE
  8
0
 62
     0
 10
59.9997
 20
42.1337
 30
0.0
 11
66.27
 21
42.1337
 31
0.0
  0
LINE
  8
0
 62
     0
 10
66.27
 20
42.1337
 30
0.0
 11
66.27
 21
41.3082
 31
0.0
  0
LINE
  8
0
 62
     0
 10
66.27
 20
41.3082
 30
0.0
 11
69.07
 21
41.3082
 31
0.0
  0
LINE
  8
0
 62
     0
 10
69.07
 20
41.3082
 30
0.0
 11
69.07
 21
42.1337
 31
0.0
  0
LINE
  8
0
 62
     0
 10
69.07
 20
42.1337
 30
0.0
 11
72.3
 21
42.1337
 31
0.0
  0
LINE
  8
0
 62
     0
 10
72.3
 20
42.1337
 30
0.0
 11
72.3
 21
48.883
 31
0.0
  0
LINE
  8
0
 62
     0
 10
72.3
 20
48.883
 30
0.0
 11
69.07
 21
48.883
 31
0.0
  0
LINE
  8
0
 62
     0
 10
69.07
 20
48.883
 30
0.0
 11
69.07
 21
50.4088
 31
0.0
  0
LINE
  8
0
 62
     0
 10
69.07
 20
50.4088
 30
0.0
 11
73.769
 21
50.4088
 31
0.0
  0
LINE
  8
0
 62
     0
 10
73.769
 20
50.4088
 30
0.0
 11
73.769
 21
64.4081
 31
0.0
  0
LINE
  8
0
 62
     0
 10
73.769
 20
64.4081
 30
0.0
 11
69.07
 21
64.4081
 31
0.0
  0
LINE
  8
0
 62
     0
 10
69.07
 20
64.4081
 30
0.0
 11
69.07
 21
65.9335
 31
0.0
  0
LINE
  8
0
 62
     0
 10
69.07
 20
65.9335
 30
0.0
 11
72.3
 21
65.9335
 31
0.0
  0
LINE
  8
0
 62
     0
 10
72.3
 20
65.9335
 30
0.0
 11
72.3
 21
72.6832
 31
0.0
  0
LINE
  8
0
 62
     0
 10
72.3
 20
72.6832
 30
0.0
 11
69.07
 21
72.6832
 31
0.0
  0
LINE
  8
0
 62
     0
 10
69.07
 20
72.6832
 30
0.0
 11
69.07
 21
73.5087
 31
0.0
  0
LINE
  8
0
 62
     0
 10
69.07
 20
73.5087
 30
0.0
 11
66.27
 21
73.5087
 31
0.0
  0
LINE
  8
0
 62
     0
 10
2.61965
 20
73.9331
 30
0.0
 11
16.6192
 21
73.9331
 31
0.0
  0
LINE
  8
0
 62
     0
 10
16.6192
 20
73.9331
 30
0.0
 11
16.6192
 21
59.9338
 31
0.0
  0
LINE
  8
0
 62
     0
 10
16.6192
 20
59.9338
 30
0.0
 11
2.61965
 21
59.9338
 31
0.0
  0
LINE
  8
0
 62
     0
 10
2.61965
 20
59.9338
 30
0.0
 11
2.61965
 21
73.9331
 31
0.0
  0
LINE
  8
0
 62
     0
 10
21.6697
 20
73.9331
 30
0.0
 11
35.669
 21
73.9331
 31
0.0
  0
LINE
  8
0
 62
     0
 10
35.669
 20
73.9331
 30
0.0
 11
35.669
 21
59.9338
 31
0.0
  0
LINE
  8
0
 62
     0
 10
35.669
 20
59.9338
 30
0.0
 11
21.6697
 21
59.9338
 31
0.0
  0
LINE
  8
0
 62
     0
 10
21.6697
 20
59.9338
 30
0.0
 11
21.6697
 21
73.9331
 31
0.0
  0
LINE
  8
0
 62
     0
 10
40.7197
 20
73.9331
 30
0.0
 11
54.719
 21
73.9331
 31
0.0
  0
LINE
  8
0
 62
     0
 10
54.719
 20
73.9331
 30
0.0
 11
54.719
 21
59.9338
 31
0.0
  0
LINE
  8
0
 62
     0
 10
54.719
 20
59.9338
 30
0.0
 11
40.7197
 21
59.9338
 31
0.0
  0
LINE
  8
0
 62
     0
 10
40.7197
 20
59.9338
 30
0.0
 11
40.7197
 21
73.9331
 31
0.0
  0
LINE
  8
0
 62
     0
 10
2.61965
 20
92.9831
 30
0.0
 11
16.6192
 21
92.9831
 31
0.0
  0
LINE
  8
0
 62
     0
 10
16.6192
 20
92.9831
 30
0.0
 11
16.6192
 21
78.9838
 31
0.0
  0
LINE
  8
0
 62
     0
 10
16.6192
 20
78.9838
 30
0.0
 11
2.61965
 21
78.9838
 31
0.0
  0
LINE
  8
0
 62
     0
 10
2.61965
 20
78.9838
 30
0.0
 11
2.61965
 21
92.9831
 31
0.0
  0
LINE
  8
0
 62
     0
 10
21.6697
 20
92.9831
 30
0.0
 11
35.669
 21
92.9831
 31
0.0
  0
LINE
  8
0
 62
     0
 10
35.669
 20
92.9831
 30
0.0
 11
35.669
 21
78.9838
 31
0.0
  0
LINE
  8
0
 62
     0
 10
35.669
 20
78.9838
 30
0.0
 11
21.6697
 21
78.9838
 31
0.0
  0
LINE
  8
0
 62
     0
 10
21.6697
 20
78.9838
 30
0.0
 11
21.6697
 21
92.9831
 31
0.0
  0
LINE
  8
0
 62
     0
 10
40.7197
 20
92.9831
 30
0.0
 11
54.719
 21
92.9831
 31
0.0
  0
LINE
  8
0
 62
     0
 10
54.719
 20
92.9831
 30
0.0
 11
54.719
 21
78.9838
 31
0.0
  0
LINE
  8
0
 62
     0
 10
54.719
 20
78.9838
 30
0.0
 11
40.7197
 21
78.9838
 31
0.0
  0
LINE
  8
0
 62
     0
 10
40.7197
 20
78.9838
 30
0.0
 11
40.7197
 21
92.9831
 31
0.0
  0
LINE
  8
0
 62
     0
 10
59.7697
 20
92.9831
 30
0.0
 11
73.769
 21
92.9831
 31
0.0
  0
LINE
  8
0
 62
     0
 10
73.769
 20
92.9831
 30
0.0
 11
73.769
 21
78.9838
 31
0.0
  0
LINE
  8
0
 62
     0
 10
73.769
 20
78.9838
 30
0.0
 11
59.7697
 21
78.9838
 31
0.0
  0
LINE
  8
0
 62
     0
 10
59.7697
 20
78.9838
 30
0.0
 11
59.7697
 21
92.9831
 31
0.0
  0
ENDSEC
  0
EOF
