  0
SECTION
  2
HEADER
  9
$ACADVER
  1
AC1009
  9
$FILLMODE
 70
 0
  9
$SPLFRAME
 70
 1
  9
$EXTMIN
 10
0
 20
0
 30
0.0
  9
$EXTMAX
 10
1058.33
 20
1058.33
 30
0.0
  0
ENDSEC
  0
SECTION
  2
TABLES
  0
TABLE
  2
LAYER
 70
1
  0
LAYER
  2
0
 70
     0
 62
     7
  6
CONTINUOUS
  0
ENDTAB
  0
ENDSEC
  0
SECTION
  2
ENTITIES
  0
LINE
  8
0
 62
     0
 10
0.0950846
 20
76.4575
 30
0.0
 11
190.595
 21
76.4575
 31
0.0
  0
LINE
  8
0
 62
     0
 10
190.595
 20
76.4575
 30
0.0
 11
190.595
 21
0.257693
 31
0.0
  0
LINE
  8
0
 62
     0
 10
190.595
 20
0.257693
 30
0.0
 11
0.0950846
 21
0.257693
 31
0.0
  0
LINE
  8
0
 62
     0
 10
0.0950846
 20
0.257693
 30
0.0
 11
0.0950846
 21
76.4575
 31
0.0
  0
LINE
  8
0
 62
     0
 10
88.3447
 20
16.7831
 30
0.0
 11
88.3447
 21
12.0826
 31
0.0
  0
LINE
  8
0
 62
     0
 10
88.3447
 20
12.0826
 30
0.0
 11
41.5699
 21
12.0826
 31
0.0
  0
LINE
  8
0
 62
     0
 10
41.5699
 20
12.0826
 30
0.0
 11
41.5699
 21
15.3128
 31
0.0
  0
LINE
  8
0
 62
     0
 10
41.5699
 20
15.3128
 30
0.0
 11
34.8189
 21
15.3128
 31
0.0
  0
LINE
  8
0
 62
     0
 10
34.8189
 20
15.3128
 30
0.0
 11
34.8189
 21
12.0826
 31
0.0
  0
LINE
  8
0
 62
     0
 10
34.8189
 20
12.0826
 30
0.0
 11
33.9948
 21
12.0826
 31
0.0
  0
LINE
  8
0
 62
     0
 10
33.9948
 20
12.0826
 30
0.0
 11
33.9948
 21
9.28384
 31
0.0
  0
LINE
  8
0
 62
     0
 10
33.9948
 20
9.28384
 30
0.0
 11
34.8189
 21
9.28384
 31
0.0
  0
LINE
  8
0
 62
     0
 10
34.8189
 20
9.28384
 30
0.0
 11
34.8189
 21
3.01377
 31
0.0
  0
LINE
  8
0
 62
     0
 10
34.8189
 20
3.01377
 30
0.0
 11
36.5442
 21
3.01377
 31
0.0
  0
LINE
  8
0
 62
     0
 10
36.5442
 20
3.01377
 30
0.0
 11
36.5442
 21
1.8135
 31
0.0
  0
LINE
  8
0
 62
     0
 10
36.5442
 20
1.8135
 30
0.0
 11
39.8445
 21
1.8135
 31
0.0
  0
LINE
  8
0
 62
     0
 10
39.8445
 20
1.8135
 30
0.0
 11
39.8445
 21
3.01377
 31
0.0
  0
LINE
  8
0
 62
     0
 10
39.8445
 20
3.01377
 30
0.0
 11
41.5699
 21
3.01377
 31
0.0
  0
LINE
  8
0
 62
     0
 10
41.5699
 20
3.01377
 30
0.0
 11
41.5699
 21
7.48273
 31
0.0
  0
LINE
  8
0
 62
     0
 10
41.5699
 20
7.48273
 30
0.0
 11
88.3447
 21
7.48273
 31
0.0
  0
LINE
  8
0
 62
     0
 10
88.3447
 20
7.48273
 30
0.0
 11
88.3447
 21
2.78364
 31
0.0
  0
LINE
  8
0
 62
     0
 10
88.3447
 20
2.78364
 30
0.0
 11
102.344
 21
2.78364
 31
0.0
  0
LINE
  8
0
 62
     0
 10
102.344
 20
2.78364
 30
0.0
 11
102.344
 21
7.48273
 31
0.0
  0
LINE
  8
0
 62
     0
 10
102.344
 20
7.48273
 30
0.0
 11
149.119
 21
7.48273
 31
0.0
  0
LINE
  8
0
 62
     0
 10
149.119
 20
7.48273
 30
0.0
 11
149.119
 21
3.01377
 31
0.0
  0
LINE
  8
0
 62
     0
 10
149.119
 20
3.01377
 30
0.0
 11
150.844
 21
3.01377
 31
0.0
  0
LINE
  8
0
 62
     0
 10
150.844
 20
3.01377
 30
0.0
 11
150.844
 21
1.8135
 31
0.0
  0
LINE
  8
0
 62
     0
 10
150.844
 20
1.8135
 30
0.0
 11
154.144
 21
1.8135
 31
0.0
  0
LINE
  8
0
 62
     0
 10
154.144
 20
1.8135
 30
0.0
 11
154.144
 21
3.01377
 31
0.0
  0
LINE
  8
0
 62
     0
 10
154.144
 20
3.01377
 30
0.0
 11
155.87
 21
3.01377
 31
0.0
  0
LINE
  8
0
 62
     0
 10
155.87
 20
3.01377
 30
0.0
 11
155.87
 21
9.28384
 31
0.0
  0
LINE
  8
0
 62
     0
 10
155.87
 20
9.28384
 30
0.0
 11
156.694
 21
9.28384
 31
0.0
  0
LINE
  8
0
 62
     0
 10
156.694
 20
9.28384
 30
0.0
 11
156.694
 21
12.0826
 31
0.0
  0
LINE
  8
0
 62
     0
 10
156.694
 20
12.0826
 30
0.0
 11
155.87
 21
12.0826
 31
0.0
  0
LINE
  8
0
 62
     0
 10
155.87
 20
12.0826
 30
0.0
 11
155.87
 21
15.3128
 31
0.0
  0
LINE
  8
0
 62
     0
 10
155.87
 20
15.3128
 30
0.0
 11
149.119
 21
15.3128
 31
0.0
  0
LINE
  8
0
 62
     0
 10
149.119
 20
15.3128
 30
0.0
 11
149.119
 21
12.0826
 31
0.0
  0
LINE
  8
0
 62
     0
 10
149.119
 20
12.0826
 30
0.0
 11
102.344
 21
12.0826
 31
0.0
  0
LINE
  8
0
 62
     0
 10
102.344
 20
12.0826
 30
0.0
 11
102.344
 21
16.7831
 31
0.0
  0
LINE
  8
0
 62
     0
 10
102.344
 20
16.7831
 30
0.0
 11
88.3447
 21
16.7831
 31
0.0
  0
LINE
  8
0
 62
     0
 10
7.38216
 20
16.7831
 30
0.0
 11
21.3817
 21
16.7831
 31
0.0
  0
LINE
  8
0
 62
     0
 10
21.3817
 20
16.7831
 30
0.0
 11
21.3817
 21
2.78364
 31
0.0
  0
LINE
  8
0
 62
     0
 10
21.3817
 20
2.78364
 30
0.0
 11
7.38216
 21
2.78364
 31
0.0
  0
LINE
  8
0
 62
     0
 10
7.38216
 20
2.78364
 30
0.0
 11
7.38216
 21
16.7831
 31
0.0
  0
LINE
  8
0
 62
     0
 10
169.307
 20
16.7831
 30
0.0
 11
183.307
 21
16.7831
 31
0.0
  0
LINE
  8
0
 62
     0
 10
183.307
 20
16.7831
 30
0.0
 11
183.307
 21
2.78364
 31
0.0
  0
LINE
  8
0
 62
     0
 10
183.307
 20
2.78364
 30
0.0
 11
169.307
 21
2.78364
 31
0.0
  0
LINE
  8
0
 62
     0
 10
169.307
 20
2.78364
 30
0.0
 11
169.307
 21
16.7831
 31
0.0
  0
LINE
  8
0
 62
     0
 10
2.61965
 20
35.833
 30
0.0
 11
16.6192
 21
35.833
 31
0.0
  0
LINE
  8
0
 62
     0
 10
16.6192
 20
35.833
 30
0.0
 11
16.6192
 21
21.8336
 31
0.0
  0
LINE
  8
0
 62
     0
 10
16.6192
 20
21.8336
 30
0.0
 11
2.61965
 21
21.8336
 31
0.0
  0
LINE
  8
0
 62
     0
 10
2.61965
 20
21.8336
 30
0.0
 11
2.61965
 21
35.833
 31
0.0
  0
LINE
  8
0
 62
     0
 10
21.6697
 20
35.833
 30
0.0
 11
35.669
 21
35.833
 31
0.0
  0
LINE
  8
0
 62
     0
 10
35.669
 20
35.833
 30
0.0
 11
35.669
 21
21.8336
 31
0.0
  0
LINE
  8
0
 62
     0
 10
35.669
 20
21.8336
 30
0.0
 11
21.6697
 21
21.8336
 31
0.0
  0
LINE
  8
0
 62
     0
 10
21.6697
 20
21.8336
 30
0.0
 11
21.6697
 21
35.833
 31
0.0
  0
LINE
  8
0
 62
     0
 10
40.7197
 20
35.833
 30
0.0
 11
54.719
 21
35.833
 31
0.0
  0
LINE
  8
0
 62
     0
 10
54.719
 20
35.833
 30
0.0
 11
54.719
 21
21.8336
 31
0.0
  0
LINE
  8
0
 62
     0
 10
54.719
 20
21.8336
 30
0.0
 11
40.7197
 21
21.8336
 31
0.0
  0
LINE
  8
0
 62
     0
 10
40.7197
 20
21.8336
 30
0.0
 11
40.7197
 21
35.833
 31
0.0
  0
LINE
  8
0
 62
     0
 10
59.7697
 20
35.833
 30
0.0
 11
73.769
 21
35.833
 31
0.0
  0
LINE
  8
0
 62
     0
 10
73.769
 20
35.833
 30
0.0
 11
73.769
 21
21.8336
 31
0.0
  0
LINE
  8
0
 62
     0
 10
73.769
 20
21.8336
 30
0.0
 11
59.7697
 21
21.8336
 31
0.0
  0
LINE
  8
0
 62
     0
 10
59.7697
 20
21.8336
 30
0.0
 11
59.7697
 21
35.833
 31
0.0
  0
LINE
  8
0
 62
     0
 10
78.8197
 20
35.833
 30
0.0
 11
92.819
 21
35.833
 31
0.0
  0
LINE
  8
0
 62
     0
 10
92.819
 20
35.833
 30
0.0
 11
92.819
 21
21.8336
 31
0.0
  0
LINE
  8
0
 62
     0
 10
92.819
 20
21.8336
 30
0.0
 11
78.8197
 21
21.8336
 31
0.0
  0
LINE
  8
0
 62
     0
 10
78.8197
 20
21.8336
 30
0.0
 11
78.8197
 21
35.833
 31
0.0
  0
LINE
  8
0
 62
     0
 10
97.8683
 20
35.833
 30
0.0
 11
111.869
 21
35.833
 31
0.0
  0
LINE
  8
0
 62
     0
 10
111.869
 20
35.833
 30
0.0
 11
111.869
 21
21.8336
 31
0.0
  0
LINE
  8
0
 62
     0
 10
111.869
 20
21.8336
 30
0.0
 11
97.8683
 21
21.8336
 31
0.0
  0
LINE
  8
0
 62
     0
 10
97.8683
 20
21.8336
 30
0.0
 11
97.8683
 21
35.833
 31
0.0
  0
LINE
  8
0
 62
     0
 10
116.918
 20
35.833
 30
0.0
 11
130.919
 21
35.833
 31
0.0
  0
LINE
  8
0
 62
     0
 10
130.919
 20
35.833
 30
0.0
 11
130.919
 21
21.8336
 31
0.0
  0
LINE
  8
0
 62
     0
 10
130.919
 20
21.8336
 30
0.0
 11
116.918
 21
21.8336
 31
0.0
  0
LINE
  8
0
 62
     0
 10
116.918
 20
21.8336
 30
0.0
 11
116.918
 21
35.833
 31
0.0
  0
LINE
  8
0
 62
     0
 10
135.97
 20
35.833
 30
0.0
 11
149.969
 21
35.833
 31
0.0
  0
LINE
  8
0
 62
     0
 10
149.969
 20
35.833
 30
0.0
 11
149.969
 21
21.8336
 31
0.0
  0
LINE
  8
0
 62
     0
 10
149.969
 20
21.8336
 30
0.0
 11
135.97
 21
21.8336
 31
0.0
  0
LINE
  8
0
 62
     0
 10
135.97
 20
21.8336
 30
0.0
 11
135.97
 21
35.833
 31
0.0
  0
LINE
  8
0
 62
     0
 10
155.02
 20
35.833
 30
0.0
 11
169.019
 21
35.833
 31
0.0
  0
LINE
  8
0
 62
     0
 10
169.019
 20
35.833
 30
0.0
 11
169.019
 21
21.8336
 31
0.0
  0
LINE
  8
0
 62
     0
 10
169.019
 20
21.8336
 30
0.0
 11
155.02
 21
21.8336
 31
0.0
  0
LINE
  8
0
 62
     0
 10
155.02
 20
21.8336
 30
0.0
 11
155.02
 21
35.833
 31
0.0
  0
LINE
  8
0
 62
     0
 10
174.07
 20
35.833
 30
0.0
 11
188.069
 21
35.833
 31
0.0
  0
LINE
  8
0
 62
     0
 10
188.069
 20
35.833
 30
0.0
 11
188.069
 21
21.8336
 31
0.0
  0
LINE
  8
0
 62
     0
 10
188.069
 20
21.8336
 30
0.0
 11
174.07
 21
21.8336
 31
0.0
  0
LINE
  8
0
 62
     0
 10
174.07
 20
21.8336
 30
0.0
 11
174.07
 21
35.833
 31
0.0
  0
LINE
  8
0
 62
     0
 10
2.61965
 20
54.8831
 30
0.0
 11
16.6192
 21
54.8831
 31
0.0
  0
LINE
  8
0
 62
     0
 10
16.6192
 20
54.8831
 30
0.0
 11
16.6192
 21
40.8838
 31
0.0
  0
LINE
  8
0
 62
     0
 10
16.6192
 20
40.8838
 30
0.0
 11
2.61965
 21
40.8838
 31
0.0
  0
LINE
  8
0
 62
     0
 10
2.61965
 20
40.8838
 30
0.0
 11
2.61965
 21
54.8831
 31
0.0
  0
LINE
  8
0
 62
     0
 10
21.6697
 20
54.8831
 30
0.0
 11
35.669
 21
54.8831
 31
0.0
  0
LINE
  8
0
 62
     0
 10
35.669
 20
54.8831
 30
0.0
 11
35.669
 21
40.8838
 31
0.0
  0
LINE
  8
0
 62
     0
 10
35.669
 20
40.8838
 30
0.0
 11
21.6697
 21
40.8838
 31
0.0
  0
LINE
  8
0
 62
     0
 10
21.6697
 20
40.8838
 30
0.0
 11
21.6697
 21
54.8831
 31
0.0
  0
LINE
  8
0
 62
     0
 10
40.7197
 20
54.8831
 30
0.0
 11
54.719
 21
54.8831
 31
0.0
  0
LINE
  8
0
 62
     0
 10
54.719
 20
54.8831
 30
0.0
 11
54.719
 21
40.8838
 31
0.0
  0
LINE
  8
0
 62
     0
 10
54.719
 20
40.8838
 30
0.0
 11
40.7197
 21
40.8838
 31
0.0
  0
LINE
  8
0
 62
     0
 10
40.7197
 20
40.8838
 30
0.0
 11
40.7197
 21
54.8831
 31
0.0
  0
LINE
  8
0
 62
     0
 10
59.7697
 20
54.8831
 30
0.0
 11
73.769
 21
54.8831
 31
0.0
  0
LINE
  8
0
 62
     0
 10
73.769
 20
54.8831
 30
0.0
 11
73.769
 21
40.8838
 31
0.0
  0
LINE
  8
0
 62
     0
 10
73.769
 20
40.8838
 30
0.0
 11
59.7697
 21
40.8838
 31
0.0
  0
LINE
  8
0
 62
     0
 10
59.7697
 20
40.8838
 30
0.0
 11
59.7697
 21
54.8831
 31
0.0
  0
LINE
  8
0
 62
     0
 10
78.8197
 20
54.8831
 30
0.0
 11
92.819
 21
54.8831
 31
0.0
  0
LINE
  8
0
 62
     0
 10
92.819
 20
54.8831
 30
0.0
 11
92.819
 21
40.8838
 31
0.0
  0
LINE
  8
0
 62
     0
 10
92.819
 20
40.8838
 30
0.0
 11
78.8197
 21
40.8838
 31
0.0
  0
LINE
  8
0
 62
     0
 10
78.8197
 20
40.8838
 30
0.0
 11
78.8197
 21
54.8831
 31
0.0
  0
LINE
  8
0
 62
     0
 10
97.8683
 20
54.8831
 30
0.0
 11
111.869
 21
54.8831
 31
0.0
  0
LINE
  8
0
 62
     0
 10
111.869
 20
54.8831
 30
0.0
 11
111.869
 21
40.8838
 31
0.0
  0
LINE
  8
0
 62
     0
 10
111.869
 20
40.8838
 30
0.0
 11
97.8683
 21
40.8838
 31
0.0
  0
LINE
  8
0
 62
     0
 10
97.8683
 20
40.8838
 30
0.0
 11
97.8683
 21
54.8831
 31
0.0
  0
LINE
  8
0
 62
     0
 10
116.918
 20
54.8831
 30
0.0
 11
130.919
 21
54.8831
 31
0.0
  0
LINE
  8
0
 62
     0
 10
130.919
 20
54.8831
 30
0.0
 11
130.919
 21
40.8838
 31
0.0
  0
LINE
  8
0
 62
     0
 10
130.919
 20
40.8838
 30
0.0
 11
116.918
 21
40.8838
 31
0.0
  0
LINE
  8
0
 62
     0
 10
116.918
 20
40.8838
 30
0.0
 11
116.918
 21
54.8831
 31
0.0
  0
LINE
  8
0
 62
     0
 10
135.97
 20
54.8831
 30
0.0
 11
149.969
 21
54.8831
 31
0.0
  0
LINE
  8
0
 62
     0
 10
149.969
 20
54.8831
 30
0.0
 11
149.969
 21
40.8838
 31
0.0
  0
LINE
  8
0
 62
     0
 10
149.969
 20
40.8838
 30
0.0
 11
135.97
 21
40.8838
 31
0.0
  0
LINE
  8
0
 62
     0
 10
135.97
 20
40.8838
 30
0.0
 11
135.97
 21
54.8831
 31
0.0
  0
LINE
  8
0
 62
     0
 10
155.02
 20
54.8831
 30
0.0
 11
169.019
 21
54.8831
 31
0.0
  0
LINE
  8
0
 62
     0
 10
169.019
 20
54.8831
 30
0.0
 11
169.019
 21
40.8838
 31
0.0
  0
LINE
  8
0
 62
     0
 10
169.019
 20
40.8838
 30
0.0
 11
155.02
 21
40.8838
 31
0.0
  0
LINE
  8
0
 62
     0
 10
155.02
 20
40.8838
 30
0.0
 11
155.02
 21
54.8831
 31
0.0
  0
LINE
  8
0
 62
     0
 10
174.07
 20
54.8831
 30
0.0
 11
188.069
 21
54.8831
 31
0.0
  0
LINE
  8
0
 62
     0
 10
188.069
 20
54.8831
 30
0.0
 11
188.069
 21
40.8838
 31
0.0
  0
LINE
  8
0
 62
     0
 10
188.069
 20
40.8838
 30
0.0
 11
174.07
 21
40.8838
 31
0.0
  0
LINE
  8
0
 62
     0
 10
174.07
 20
40.8838
 30
0.0
 11
174.07
 21
54.8831
 31
0.0
  0
LINE
  8
0
 62
     0
 10
2.61965
 20
73.9331
 30
0.0
 11
16.6192
 21
73.9331
 31
0.0
  0
LINE
  8
0
 62
     0
 10
16.6192
 20
73.9331
 30
0.0
 11
16.6192
 21
59.9338
 31
0.0
  0
LINE
  8
0
 62
     0
 10
16.6192
 20
59.9338
 30
0.0
 11
2.61965
 21
59.9338
 31
0.0
  0
LINE
  8
0
 62
     0
 10
2.61965
 20
59.9338
 30
0.0
 11
2.61965
 21
73.9331
 31
0.0
  0
LINE
  8
0
 62
     0
 10
21.6697
 20
73.9331
 30
0.0
 11
35.669
 21
73.9331
 31
0.0
  0
LINE
  8
0
 62
     0
 10
35.669
 20
73.9331
 30
0.0
 11
35.669
 21
59.9338
 31
0.0
  0
LINE
  8
0
 62
     0
 10
35.669
 20
59.9338
 30
0.0
 11
21.6697
 21
59.9338
 31
0.0
  0
LINE
  8
0
 62
     0
 10
21.6697
 20
59.9338
 30
0.0
 11
21.6697
 21
73.9331
 31
0.0
  0
LINE
  8
0
 62
     0
 10
40.7197
 20
73.9331
 30
0.0
 11
54.719
 21
73.9331
 31
0.0
  0
LINE
  8
0
 62
     0
 10
54.719
 20
73.9331
 30
0.0
 11
54.719
 21
59.9338
 31
0.0
  0
LINE
  8
0
 62
     0
 10
54.719
 20
59.9338
 30
0.0
 11
40.7197
 21
59.9338
 31
0.0
  0
LINE
  8
0
 62
     0
 10
40.7197
 20
59.9338
 30
0.0
 11
40.7197
 21
73.9331
 31
0.0
  0
LINE
  8
0
 62
     0
 10
59.7697
 20
73.9331
 30
0.0
 11
73.769
 21
73.9331
 31
0.0
  0
LINE
  8
0
 62
     0
 10
73.769
 20
73.9331
 30
0.0
 11
73.769
 21
59.9338
 31
0.0
  0
LINE
  8
0
 62
     0
 10
73.769
 20
59.9338
 30
0.0
 11
59.7697
 21
59.9338
 31
0.0
  0
LINE
  8
0
 62
     0
 10
59.7697
 20
59.9338
 30
0.0
 11
59.7697
 21
73.9331
 31
0.0
  0
LINE
  8
0
 62
     0
 10
78.8197
 20
73.9331
 30
0.0
 11
92.819
 21
73.9331
 31
0.0
  0
LINE
  8
0
 62
     0
 10
92.819
 20
73.9331
 30
0.0
 11
92.819
 21
59.9338
 31
0.0
  0
LINE
  8
0
 62
     0
 10
92.819
 20
59.9338
 30
0.0
 11
78.8197
 21
59.9338
 31
0.0
  0
LINE
  8
0
 62
     0
 10
78.8197
 20
59.9338
 30
0.0
 11
78.8197
 21
73.9331
 31
0.0
  0
LINE
  8
0
 62
     0
 10
97.8683
 20
73.9331
 30
0.0
 11
111.869
 21
73.9331
 31
0.0
  0
LINE
  8
0
 62
     0
 10
111.869
 20
73.9331
 30
0.0
 11
111.869
 21
59.9338
 31
0.0
  0
LINE
  8
0
 62
     0
 10
111.869
 20
59.9338
 30
0.0
 11
97.8683
 21
59.9338
 31
0.0
  0
LINE
  8
0
 62
     0
 10
97.8683
 20
59.9338
 30
0.0
 11
97.8683
 21
73.9331
 31
0.0
  0
LINE
  8
0
 62
     0
 10
116.918
 20
73.9331
 30
0.0
 11
130.919
 21
73.9331
 31
0.0
  0
LINE
  8
0
 62
     0
 10
130.919
 20
73.9331
 30
0.0
 11
130.919
 21
59.9338
 31
0.0
  0
LINE
  8
0
 62
     0
 10
130.919
 20
59.9338
 30
0.0
 11
116.918
 21
59.9338
 31
0.0
  0
LINE
  8
0
 62
     0
 10
116.918
 20
59.9338
 30
0.0
 11
116.918
 21
73.9331
 31
0.0
  0
LINE
  8
0
 62
     0
 10
135.97
 20
73.9331
 30
0.0
 11
149.969
 21
73.9331
 31
0.0
  0
LINE
  8
0
 62
     0
 10
149.969
 20
73.9331
 30
0.0
 11
149.969
 21
59.9338
 31
0.0
  0
LINE
  8
0
 62
     0
 10
149.969
 20
59.9338
 30
0.0
 11
135.97
 21
59.9338
 31
0.0
  0
LINE
  8
0
 62
     0
 10
135.97
 20
59.9338
 30
0.0
 11
135.97
 21
73.9331
 31
0.0
  0
LINE
  8
0
 62
     0
 10
155.02
 20
73.9331
 30
0.0
 11
169.019
 21
73.9331
 31
0.0
  0
LINE
  8
0
 62
     0
 10
169.019
 20
73.9331
 30
0.0
 11
169.019
 21
59.9338
 31
0.0
  0
LINE
  8
0
 62
     0
 10
169.019
 20
59.9338
 30
0.0
 11
155.02
 21
59.9338
 31
0.0
  0
LINE
  8
0
 62
     0
 10
155.02
 20
59.9338
 30
0.0
 11
155.02
 21
73.9331
 31
0.0
  0
LINE
  8
0
 62
     0
 10
174.07
 20
73.9331
 30
0.0
 11
188.069
 21
73.9331
 31
0.0
  0
LINE
  8
0
 62
     0
 10
188.069
 20
73.9331
 30
0.0
 11
188.069
 21
59.9338
 31
0.0
  0
LINE
  8
0
 62
     0
 10
188.069
 20
59.9338
 30
0.0
 11
174.07
 21
59.9338
 31
0.0
  0
LINE
  8
0
 62
     0
 10
174.07
 20
59.9338
 30
0.0
 11
174.07
 21
73.9331
 31
0.0
  0
ENDSEC
  0
EOF
