ISO-10303-21;
HEADER;

/* File generated by Shapr3D Version 26.121.0.11316 */

FILE_DESCRIPTION(('HOOPS Exchange Step'),'2;1');

FILE_NAME('/Users/jscotto/Library/Containers/com.shapr3d.shapr/Data/tmp/export/temp_export',
'2026-08-06T21:36:22+20:00',
('jscotto'),
('Shapr3D Limited'),
'HOOPS Exchange 2026.3',
'Shapr3D',
'Authorized');

FILE_SCHEMA( ('AP242_MANAGED_MODEL_BASED_3D_ENGINEERING_MIM_LF {1 0 10303 442 1 1 4}') );

ENDSEC;

DATA;
#3=(NAMED_UNIT(*)PLANE_ANGLE_UNIT()SI_UNIT($,.RADIAN.));
#4=PLANE_ANGLE_MEASURE_WITH_UNIT(PLANE_ANGLE_MEASURE(0.0174532925),#3);
#5=(CONVERSION_BASED_UNIT('DEGREE',#4)NAMED_UNIT(#6)PLANE_ANGLE_UNIT());
#6=DIMENSIONAL_EXPONENTS(0.,0.,0.,0.,0.,0.,0.);
#7=(NAMED_UNIT(*)SI_UNIT($,.STERADIAN.)SOLID_ANGLE_UNIT());
#8=(LENGTH_UNIT()NAMED_UNIT(*)SI_UNIT(.MILLI.,.METRE.));
#9=UNCERTAINTY_MEASURE_WITH_UNIT(LENGTH_MEASURE(1.000000E-05),#8,'DISTANCE_ACCURACY_VALUE','Maximum Tolerance applied to model');
#10=(GEOMETRIC_REPRESENTATION_CONTEXT(3)GLOBAL_UNCERTAINTY_ASSIGNED_CONTEXT((#9))GLOBAL_UNIT_ASSIGNED_CONTEXT((#8,#5,#7))REPRESENTATION_CONTEXT('','Bottom'));
#12=CARTESIAN_POINT('',(0.,0.,0.));
#13=DIRECTION('',(0.,0.,1.));
#14=DIRECTION('',(1.,0.,0.));
#15=AXIS2_PLACEMENT_3D('TS3D_PRODUCT_CSYS',#12,#13,#14);
#27=CARTESIAN_POINT('',(-64.3,-68.6202,-2.5));
#28=DIRECTION('',(0.,0.,-1.));
#29=DIRECTION('',(0.,-1.,0.));
#30=AXIS2_PLACEMENT_3D('',#27,#28,#29);
#31=PLANE('',#30);
#32=CARTESIAN_POINT('',(20.097749695,-39.7702,-2.5));
#33=VERTEX_POINT('',#32);
#34=CARTESIAN_POINT('',(-20.097749695,-39.7702,-2.5));
#35=VERTEX_POINT('',#34);
#36=CARTESIAN_POINT('',(20.097749695,-39.7702,-2.5));
#37=DIRECTION('',(-1.,-0.,0.));
#38=VECTOR('',#37,40.19549939);
#39=LINE('',#36,#38);
#40=EDGE_CURVE('',#33,#35,#39,.T.);
#41=ORIENTED_EDGE('',*,*,#40,.T.);
#42=CARTESIAN_POINT('',(-17.5365,-41.3702,-2.5));
#43=VERTEX_POINT('',#42);
#44=CARTESIAN_POINT('',(-17.5365,-38.5202,-2.5));
#45=DIRECTION('',(-0.,-0.,1.));
#46=DIRECTION('',(-1.,0.,0.));
#47=AXIS2_PLACEMENT_3D('',#44,#45,#46);
#48=CIRCLE('',#47,2.85);
#49=EDGE_CURVE('',#35,#43,#48,.T.);
#50=ORIENTED_EDGE('',*,*,#49,.T.);
#51=CARTESIAN_POINT('',(17.5365,-41.3702,-2.5));
#52=VERTEX_POINT('',#51);
#53=CARTESIAN_POINT('',(17.5365,-41.3702,-2.5));
#54=DIRECTION('',(-1.,-0.,0.));
#55=VECTOR('',#54,35.073);
#56=LINE('',#53,#55);
#57=EDGE_CURVE('',#52,#43,#56,.T.);
#58=ORIENTED_EDGE('',*,*,#57,.F.);
#59=CARTESIAN_POINT('',(17.5365,-38.5202,-2.5));
#60=DIRECTION('',(-0.,-0.,1.));
#61=DIRECTION('',(-1.,0.,0.));
#62=AXIS2_PLACEMENT_3D('',#59,#60,#61);
#63=CIRCLE('',#62,2.85);
#64=EDGE_CURVE('',#52,#33,#63,.T.);
#65=ORIENTED_EDGE('',*,*,#64,.T.);
#66=EDGE_LOOP('',(#41,#50,#58,#65));
#67=FACE_BOUND('',#66,.T.);
#68=ADVANCED_FACE('',(#67),#31,.F.);
#69=CARTESIAN_POINT('',(-4.6,-21.2702,-6.1));
#70=DIRECTION('',(0.,-1.,0.));
#71=DIRECTION('',(0.,0.,1.));
#72=AXIS2_PLACEMENT_3D('',#69,#70,#71);
#73=PLANE('',#72);
#74=CARTESIAN_POINT('',(-20.3865,-21.2702,-6.3));
#75=VERTEX_POINT('',#74);
#76=CARTESIAN_POINT('',(-6.25,-21.2702,-6.3));
#77=VERTEX_POINT('',#76);
#78=CARTESIAN_POINT('',(-20.3865,-21.2702,-6.3));
#79=DIRECTION('',(1.,0.,0.));
#80=VECTOR('',#79,14.1365);
#81=LINE('',#78,#80);
#82=EDGE_CURVE('',#75,#77,#81,.T.);
#83=ORIENTED_EDGE('',*,*,#82,.T.);
#84=CARTESIAN_POINT('',(-6.25,-21.2702,-2.5));
#85=VERTEX_POINT('',#84);
#86=CARTESIAN_POINT('',(-6.25,-21.2702,-6.3));
#87=DIRECTION('',(0.,0.,1.));
#88=VECTOR('',#87,3.8);
#89=LINE('',#86,#88);
#90=EDGE_CURVE('',#77,#85,#89,.T.);
#91=ORIENTED_EDGE('',*,*,#90,.T.);
#92=CARTESIAN_POINT('',(-20.3865,-21.2702,-2.5));
#93=VERTEX_POINT('',#92);
#94=CARTESIAN_POINT('',(-20.3865,-21.2702,-2.5));
#95=DIRECTION('',(1.,0.,0.));
#96=VECTOR('',#95,14.1365);
#97=LINE('',#94,#96);
#98=EDGE_CURVE('',#93,#85,#97,.T.);
#99=ORIENTED_EDGE('',*,*,#98,.F.);
#100=CARTESIAN_POINT('',(-20.3865,-21.2702,-6.3));
#101=DIRECTION('',(0.,0.,1.));
#102=VECTOR('',#101,3.8);
#103=LINE('',#100,#102);
#104=EDGE_CURVE('',#75,#93,#103,.T.);
#105=ORIENTED_EDGE('',*,*,#104,.F.);
#106=EDGE_LOOP('',(#83,#91,#99,#105));
#107=FACE_BOUND('',#106,.T.);
#108=ADVANCED_FACE('',(#107),#73,.T.);
#109=COLOUR_RGB('',0.494117647,0.494117647,0.525490224);
#110=FILL_AREA_STYLE_COLOUR('',#109);
#111=FILL_AREA_STYLE('',(#110));
#112=SURFACE_STYLE_FILL_AREA(#111);
#113=SURFACE_SIDE_STYLE('',(#112));
#114=SURFACE_STYLE_USAGE(.BOTH.,#113);
#115=PRESENTATION_STYLE_ASSIGNMENT((#114));
#116=OVER_RIDING_STYLED_ITEM('',(#115),#108,#26);
#117=CARTESIAN_POINT('',(-64.3,-68.6202,-2.5));
#118=DIRECTION('',(0.,0.,-1.));
#119=DIRECTION('',(0.,-1.,0.));
#120=AXIS2_PLACEMENT_3D('',#117,#118,#119);
#121=PLANE('',#120);
#122=CARTESIAN_POINT('',(-19.369365134,-16.017420927,-2.5));
#123=VERTEX_POINT('',#122);
#124=CARTESIAN_POINT('',(-14.95367971,-16.017420927,-2.5));
#125=VERTEX_POINT('',#124);
#126=CARTESIAN_POINT('',(-17.161522422,-16.017420927,-2.5));
#127=DIRECTION('',(0.,0.,-1.));
#128=DIRECTION('',(-1.,0.,0.));
#129=AXIS2_PLACEMENT_3D('',#126,#127,#128);
#130=CIRCLE('',#129,2.207842712);
#131=EDGE_CURVE('',#123,#125,#130,.T.);
#132=ORIENTED_EDGE('',*,*,#131,.T.);
#133=CARTESIAN_POINT('',(-17.161522422,-16.017420927,-2.5));
#134=DIRECTION('',(0.,0.,-1.));
#135=DIRECTION('',(-1.,0.,0.));
#136=AXIS2_PLACEMENT_3D('',#133,#134,#135);
#137=CIRCLE('',#136,2.207842712);
#138=EDGE_CURVE('',#125,#123,#137,.T.);
#139=ORIENTED_EDGE('',*,*,#138,.T.);
#140=EDGE_LOOP('',(#132,#139));
#141=FACE_BOUND('',#140,.T.);
#142=CARTESIAN_POINT('',(14.95367971,16.017420927,-2.5));
#143=VERTEX_POINT('',#142);
#144=CARTESIAN_POINT('',(19.369365134,16.017420927,-2.5));
#145=VERTEX_POINT('',#144);
#146=CARTESIAN_POINT('',(17.161522422,16.017420927,-2.5));
#147=DIRECTION('',(0.,0.,-1.));
#148=DIRECTION('',(-1.,0.,0.));
#149=AXIS2_PLACEMENT_3D('',#146,#147,#148);
#150=CIRCLE('',#149,2.207842712);
#151=EDGE_CURVE('',#143,#145,#150,.T.);
#152=ORIENTED_EDGE('',*,*,#151,.T.);
#153=CARTESIAN_POINT('',(17.161522422,16.017420927,-2.5));
#154=DIRECTION('',(0.,0.,-1.));
#155=DIRECTION('',(-1.,0.,0.));
#156=AXIS2_PLACEMENT_3D('',#153,#154,#155);
#157=CIRCLE('',#156,2.207842712);
#158=EDGE_CURVE('',#145,#143,#157,.T.);
#159=ORIENTED_EDGE('',*,*,#158,.T.);
#160=EDGE_LOOP('',(#152,#159));
#161=FACE_BOUND('',#160,.T.);
#162=CARTESIAN_POINT('',(14.95367971,-16.017420927,-2.5));
#163=VERTEX_POINT('',#162);
#164=CARTESIAN_POINT('',(19.369365134,-16.017420927,-2.5));
#165=VERTEX_POINT('',#164);
#166=CARTESIAN_POINT('',(17.161522422,-16.017420927,-2.5));
#167=DIRECTION('',(0.,0.,-1.));
#168=DIRECTION('',(-1.,0.,0.));
#169=AXIS2_PLACEMENT_3D('',#166,#167,#168);
#170=CIRCLE('',#169,2.207842712);
#171=EDGE_CURVE('',#163,#165,#170,.T.);
#172=ORIENTED_EDGE('',*,*,#171,.T.);
#173=CARTESIAN_POINT('',(17.161522422,-16.017420927,-2.5));
#174=DIRECTION('',(0.,0.,-1.));
#175=DIRECTION('',(-1.,0.,0.));
#176=AXIS2_PLACEMENT_3D('',#173,#174,#175);
#177=CIRCLE('',#176,2.207842712);
#178=EDGE_CURVE('',#165,#163,#177,.T.);
#179=ORIENTED_EDGE('',*,*,#178,.T.);
#180=EDGE_LOOP('',(#172,#179));
#181=FACE_BOUND('',#180,.T.);
#182=CARTESIAN_POINT('',(-19.369365134,16.017420927,-2.5));
#183=VERTEX_POINT('',#182);
#184=CARTESIAN_POINT('',(-14.95367971,16.017420927,-2.5));
#185=VERTEX_POINT('',#184);
#186=CARTESIAN_POINT('',(-17.161522422,16.017420927,-2.5));
#187=DIRECTION('',(0.,0.,-1.));
#188=DIRECTION('',(-1.,0.,0.));
#189=AXIS2_PLACEMENT_3D('',#186,#187,#188);
#190=CIRCLE('',#189,2.207842712);
#191=EDGE_CURVE('',#183,#185,#190,.T.);
#192=ORIENTED_EDGE('',*,*,#191,.T.);
#193=CARTESIAN_POINT('',(-17.161522422,16.017420927,-2.5));
#194=DIRECTION('',(0.,0.,-1.));
#195=DIRECTION('',(-1.,0.,0.));
#196=AXIS2_PLACEMENT_3D('',#193,#194,#195);
#197=CIRCLE('',#196,2.207842712);
#198=EDGE_CURVE('',#185,#183,#197,.T.);
#199=ORIENTED_EDGE('',*,*,#198,.T.);
#200=EDGE_LOOP('',(#192,#199));
#201=FACE_BOUND('',#200,.T.);
#202=CARTESIAN_POINT('',(-20.386522433,-19.6702,-2.5));
#203=VERTEX_POINT('',#202);
#204=CARTESIAN_POINT('',(-20.3865,-21.2702,-2.5));
#205=DIRECTION('',(-0.,1.,0.));
#206=VECTOR('',#205,1.6);
#207=LINE('',#204,#206);
#208=EDGE_CURVE('',#93,#203,#207,.T.);
#209=ORIENTED_EDGE('',*,*,#208,.F.);
#210=ORIENTED_EDGE('',*,*,#98,.T.);
#211=CARTESIAN_POINT('',(-5.,-20.0202,-2.5));
#212=VERTEX_POINT('',#211);
#213=CARTESIAN_POINT('',(-6.25,-20.0202,-2.5));
#214=DIRECTION('',(-0.,-0.,1.));
#215=DIRECTION('',(-1.,0.,0.));
#216=AXIS2_PLACEMENT_3D('',#213,#214,#215);
#217=CIRCLE('',#216,1.25);
#218=EDGE_CURVE('',#85,#212,#217,.T.);
#219=ORIENTED_EDGE('',*,*,#218,.T.);
#220=CARTESIAN_POINT('',(-5.,-19.623009453,-2.5));
#221=VERTEX_POINT('',#220);
#222=CARTESIAN_POINT('',(-5.,-19.623009453,-2.5));
#223=DIRECTION('',(0.,-1.,0.));
#224=VECTOR('',#223,0.397190547);
#225=LINE('',#222,#224);
#226=EDGE_CURVE('',#221,#212,#225,.T.);
#227=ORIENTED_EDGE('',*,*,#226,.F.);
#228=CARTESIAN_POINT('',(20.25,0.,-2.5));
#229=VERTEX_POINT('',#228);
#230=CARTESIAN_POINT('',(0.,0.,-2.5));
#231=DIRECTION('',(-0.,-0.,1.));
#232=DIRECTION('',(-1.,0.,0.));
#233=AXIS2_PLACEMENT_3D('',#230,#231,#232);
#234=CIRCLE('',#233,20.25);
#235=EDGE_CURVE('',#229,#221,#234,.T.);
#236=ORIENTED_EDGE('',*,*,#235,.F.);
#237=CARTESIAN_POINT('',(5.,-19.623009453,-2.5));
#238=VERTEX_POINT('',#237);
#239=CARTESIAN_POINT('',(0.,0.,-2.5));
#240=DIRECTION('',(-0.,-0.,1.));
#241=DIRECTION('',(-1.,0.,0.));
#242=AXIS2_PLACEMENT_3D('',#239,#240,#241);
#243=CIRCLE('',#242,20.25);
#244=EDGE_CURVE('',#238,#229,#243,.T.);
#245=ORIENTED_EDGE('',*,*,#244,.F.);
#246=CARTESIAN_POINT('',(5.,-20.0202,-2.5));
#247=VERTEX_POINT('',#246);
#248=CARTESIAN_POINT('',(5.,-20.0202,-2.5));
#249=DIRECTION('',(0.,1.,0.));
#250=VECTOR('',#249,0.397190547);
#251=LINE('',#248,#250);
#252=EDGE_CURVE('',#247,#238,#251,.T.);
#253=ORIENTED_EDGE('',*,*,#252,.F.);
#254=CARTESIAN_POINT('',(6.25,-21.2702,-2.5));
#255=VERTEX_POINT('',#254);
#256=CARTESIAN_POINT('',(6.25,-20.0202,-2.5));
#257=DIRECTION('',(-0.,-0.,1.));
#258=DIRECTION('',(-1.,0.,0.));
#259=AXIS2_PLACEMENT_3D('',#256,#257,#258);
#260=CIRCLE('',#259,1.25);
#261=EDGE_CURVE('',#247,#255,#260,.T.);
#262=ORIENTED_EDGE('',*,*,#261,.T.);
#263=CARTESIAN_POINT('',(20.3865,-21.2702,-2.5));
#264=VERTEX_POINT('',#263);
#265=CARTESIAN_POINT('',(6.25,-21.2702,-2.5));
#266=DIRECTION('',(1.,0.,0.));
#267=VECTOR('',#266,14.1365);
#268=LINE('',#265,#267);
#269=EDGE_CURVE('',#255,#264,#268,.T.);
#270=ORIENTED_EDGE('',*,*,#269,.T.);
#271=CARTESIAN_POINT('',(20.3865,-16.017387449,-2.5));
#272=VERTEX_POINT('',#271);
#273=CARTESIAN_POINT('',(20.3865,-16.017387449,-2.5));
#274=DIRECTION('',(0.,-1.,0.));
#275=VECTOR('',#274,5.252812551);
#276=LINE('',#273,#275);
#277=EDGE_CURVE('',#272,#264,#276,.T.);
#278=ORIENTED_EDGE('',*,*,#277,.F.);
#279=CARTESIAN_POINT('',(19.90747175,-14.326152953,-2.5));
#280=VERTEX_POINT('',#279);
#281=CARTESIAN_POINT('',(17.161499989,-16.017384504,-2.5));
#282=DIRECTION('',(0.,0.,-1.));
#283=DIRECTION('',(-1.,0.,0.));
#284=AXIS2_PLACEMENT_3D('',#281,#282,#283);
#285=CIRCLE('',#284,3.225000011);
#286=EDGE_CURVE('',#280,#272,#285,.T.);
#287=ORIENTED_EDGE('',*,*,#286,.F.);
#288=CARTESIAN_POINT('',(19.164787949,-11.704081484,-2.5));
#289=VERTEX_POINT('',#288);
#290=CARTESIAN_POINT('',(24.164787949,-11.704081484,-2.5));
#291=DIRECTION('',(0.,0.,-1.));
#292=DIRECTION('',(-1.,0.,0.));
#293=AXIS2_PLACEMENT_3D('',#290,#291,#292);
#294=CIRCLE('',#293,5.);
#295=EDGE_CURVE('',#280,#289,#294,.T.);
#296=ORIENTED_EDGE('',*,*,#295,.T.);
#297=CARTESIAN_POINT('',(19.664827437,-9.524550482,-2.5));
#298=VERTEX_POINT('',#297);
#299=CARTESIAN_POINT('',(24.164787949,-11.704081484,-2.5));
#300=DIRECTION('',(0.,0.,-1.));
#301=DIRECTION('',(-1.,0.,0.));
#302=AXIS2_PLACEMENT_3D('',#299,#300,#301);
#303=CIRCLE('',#302,5.);
#304=EDGE_CURVE('',#289,#298,#303,.T.);
#305=ORIENTED_EDGE('',*,*,#304,.T.);
#306=CARTESIAN_POINT('',(21.85,0.,-2.5));
#307=VERTEX_POINT('',#306);
#308=CARTESIAN_POINT('',(0.,0.,-2.5));
#309=DIRECTION('',(-0.,-0.,1.));
#310=DIRECTION('',(-1.,0.,0.));
#311=AXIS2_PLACEMENT_3D('',#308,#309,#310);
#312=CIRCLE('',#311,21.85);
#313=EDGE_CURVE('',#298,#307,#312,.T.);
#314=ORIENTED_EDGE('',*,*,#313,.T.);
#315=CARTESIAN_POINT('',(19.664827437,9.524550482,-2.5));
#316=VERTEX_POINT('',#315);
#317=CARTESIAN_POINT('',(0.,0.,-2.5));
#318=DIRECTION('',(-0.,-0.,1.));
#319=DIRECTION('',(-1.,0.,0.));
#320=AXIS2_PLACEMENT_3D('',#317,#318,#319);
#321=CIRCLE('',#320,21.85);
#322=EDGE_CURVE('',#307,#316,#321,.T.);
#323=ORIENTED_EDGE('',*,*,#322,.T.);
#324=CARTESIAN_POINT('',(19.907483683,14.326172328,-2.5));
#325=VERTEX_POINT('',#324);
#326=CARTESIAN_POINT('',(24.164787949,11.704081484,-2.5));
#327=DIRECTION('',(0.,0.,-1.));
#328=DIRECTION('',(-1.,0.,0.));
#329=AXIS2_PLACEMENT_3D('',#326,#327,#328);
#330=CIRCLE('',#329,5.);
#331=EDGE_CURVE('',#316,#325,#330,.T.);
#332=ORIENTED_EDGE('',*,*,#331,.T.);
#333=CARTESIAN_POINT('',(20.386522433,16.017420927,-2.5));
#334=VERTEX_POINT('',#333);
#335=CARTESIAN_POINT('',(17.161522422,16.017420927,-2.5));
#336=DIRECTION('',(-0.,-0.,1.));
#337=DIRECTION('',(-1.,0.,0.));
#338=AXIS2_PLACEMENT_3D('',#335,#336,#337);
#339=CIRCLE('',#338,3.225000011);
#340=EDGE_CURVE('',#325,#334,#339,.T.);
#341=ORIENTED_EDGE('',*,*,#340,.T.);
#342=CARTESIAN_POINT('',(15.663442766,18.873359025,-2.5));
#343=VERTEX_POINT('',#342);
#344=CARTESIAN_POINT('',(17.161522422,16.017420927,-2.5));
#345=DIRECTION('',(-0.,-0.,1.));
#346=DIRECTION('',(-1.,0.,0.));
#347=AXIS2_PLACEMENT_3D('',#344,#345,#346);
#348=CIRCLE('',#347,3.225000011);
#349=EDGE_CURVE('',#334,#343,#348,.T.);
#350=ORIENTED_EDGE('',*,*,#349,.T.);
#351=CARTESIAN_POINT('',(10.856511159,18.962032208,-2.5));
#352=VERTEX_POINT('',#351);
#353=CARTESIAN_POINT('',(13.340838656,23.301170013,-2.5));
#354=DIRECTION('',(0.,0.,-1.));
#355=DIRECTION('',(-1.,0.,0.));
#356=AXIS2_PLACEMENT_3D('',#353,#354,#355);
#357=CIRCLE('',#356,5.);
#358=EDGE_CURVE('',#343,#352,#357,.T.);
#359=ORIENTED_EDGE('',*,*,#358,.T.);
#360=CARTESIAN_POINT('',(-10.856511159,18.962032208,-2.5));
#361=VERTEX_POINT('',#360);
#362=CARTESIAN_POINT('',(0.,0.,-2.5));
#363=DIRECTION('',(-0.,-0.,1.));
#364=DIRECTION('',(-1.,0.,0.));
#365=AXIS2_PLACEMENT_3D('',#362,#363,#364);
#366=CIRCLE('',#365,21.85);
#367=EDGE_CURVE('',#352,#361,#366,.T.);
#368=ORIENTED_EDGE('',*,*,#367,.T.);
#369=CARTESIAN_POINT('',(-15.663442766,18.873359025,-2.5));
#370=VERTEX_POINT('',#369);
#371=CARTESIAN_POINT('',(-13.340838656,23.301170013,-2.5));
#372=DIRECTION('',(0.,0.,-1.));
#373=DIRECTION('',(-1.,0.,0.));
#374=AXIS2_PLACEMENT_3D('',#371,#372,#373);
#375=CIRCLE('',#374,5.);
#376=EDGE_CURVE('',#361,#370,#375,.T.);
#377=ORIENTED_EDGE('',*,*,#376,.T.);
#378=CARTESIAN_POINT('',(-20.386522433,16.017420927,-2.5));
#379=VERTEX_POINT('',#378);
#380=CARTESIAN_POINT('',(-17.161522422,16.017420927,-2.5));
#381=DIRECTION('',(0.,0.,-1.));
#382=DIRECTION('',(-1.,0.,0.));
#383=AXIS2_PLACEMENT_3D('',#380,#381,#382);
#384=CIRCLE('',#383,3.225000011);
#385=EDGE_CURVE('',#379,#370,#384,.T.);
#386=ORIENTED_EDGE('',*,*,#385,.F.);
#387=CARTESIAN_POINT('',(-19.907483683,14.326172328,-2.5));
#388=VERTEX_POINT('',#387);
#389=CARTESIAN_POINT('',(-17.161522422,16.017420927,-2.5));
#390=DIRECTION('',(0.,0.,-1.));
#391=DIRECTION('',(-1.,0.,0.));
#392=AXIS2_PLACEMENT_3D('',#389,#390,#391);
#393=CIRCLE('',#392,3.225000011);
#394=EDGE_CURVE('',#388,#379,#393,.T.);
#395=ORIENTED_EDGE('',*,*,#394,.F.);
#396=CARTESIAN_POINT('',(-19.664827437,9.524550482,-2.5));
#397=VERTEX_POINT('',#396);
#398=CARTESIAN_POINT('',(-24.164787949,11.704081484,-2.5));
#399=DIRECTION('',(0.,0.,-1.));
#400=DIRECTION('',(-1.,0.,0.));
#401=AXIS2_PLACEMENT_3D('',#398,#399,#400);
#402=CIRCLE('',#401,5.);
#403=EDGE_CURVE('',#388,#397,#402,.T.);
#404=ORIENTED_EDGE('',*,*,#403,.T.);
#405=CARTESIAN_POINT('',(-19.664827437,-9.524550482,-2.5));
#406=VERTEX_POINT('',#405);
#407=CARTESIAN_POINT('',(0.,0.,-2.5));
#408=DIRECTION('',(-0.,-0.,1.));
#409=DIRECTION('',(-1.,0.,0.));
#410=AXIS2_PLACEMENT_3D('',#407,#408,#409);
#411=CIRCLE('',#410,21.85);
#412=EDGE_CURVE('',#397,#406,#411,.T.);
#413=ORIENTED_EDGE('',*,*,#412,.T.);
#414=CARTESIAN_POINT('',(-19.164787949,-11.704081484,-2.5));
#415=VERTEX_POINT('',#414);
#416=CARTESIAN_POINT('',(-24.164787949,-11.704081484,-2.5));
#417=DIRECTION('',(0.,0.,-1.));
#418=DIRECTION('',(-1.,0.,0.));
#419=AXIS2_PLACEMENT_3D('',#416,#417,#418);
#420=CIRCLE('',#419,5.);
#421=EDGE_CURVE('',#406,#415,#420,.T.);
#422=ORIENTED_EDGE('',*,*,#421,.T.);
#423=CARTESIAN_POINT('',(-19.907483683,-14.326172328,-2.5));
#424=VERTEX_POINT('',#423);
#425=CARTESIAN_POINT('',(-24.164787949,-11.704081484,-2.5));
#426=DIRECTION('',(0.,0.,-1.));
#427=DIRECTION('',(-1.,0.,0.));
#428=AXIS2_PLACEMENT_3D('',#425,#426,#427);
#429=CIRCLE('',#428,5.);
#430=EDGE_CURVE('',#415,#424,#429,.T.);
#431=ORIENTED_EDGE('',*,*,#430,.T.);
#432=CARTESIAN_POINT('',(-20.386522433,-16.017420927,-2.5));
#433=VERTEX_POINT('',#432);
#434=CARTESIAN_POINT('',(-17.161522422,-16.017420927,-2.5));
#435=DIRECTION('',(-0.,-0.,1.));
#436=DIRECTION('',(-1.,0.,0.));
#437=AXIS2_PLACEMENT_3D('',#434,#435,#436);
#438=CIRCLE('',#437,3.225000011);
#439=EDGE_CURVE('',#424,#433,#438,.T.);
#440=ORIENTED_EDGE('',*,*,#439,.T.);
#441=CARTESIAN_POINT('',(-20.386522433,-16.017420927,-2.5));
#442=DIRECTION('',(0.,-1.,0.));
#443=VECTOR('',#442,3.652779073);
#444=LINE('',#441,#443);
#445=EDGE_CURVE('',#433,#203,#444,.T.);
#446=ORIENTED_EDGE('',*,*,#445,.T.);
#447=EDGE_LOOP('',(#209,#210,#219,#227,#236,#245,#253,#262,#270,#278,#287,#296,#305,#314,#323,#332,#341,#350,#359,#368,#377,#386,#395,#404,#413,#422,
#431,#440,#446));
#448=FACE_BOUND('',#447,.T.);
#449=ADVANCED_FACE('',(#141,#161,#181,#201,#448),#121,.F.);
#450=CARTESIAN_POINT('',(-64.3,-68.6202,-7.3));
#451=DIRECTION('',(0.,0.,-1.));
#452=DIRECTION('',(0.,-1.,0.));
#453=AXIS2_PLACEMENT_3D('',#450,#451,#452);
#454=PLANE('',#453);
#455=CARTESIAN_POINT('',(20.3865,-38.5202,-7.3));
#456=VERTEX_POINT('',#455);
#457=CARTESIAN_POINT('',(20.3865,-27.6452,-7.3));
#458=VERTEX_POINT('',#457);
#459=CARTESIAN_POINT('',(20.3865,-38.5202,-7.3));
#460=DIRECTION('',(-0.,1.,0.));
#461=VECTOR('',#460,10.875);
#462=LINE('',#459,#461);
#463=EDGE_CURVE('',#456,#458,#462,.T.);
#464=ORIENTED_EDGE('',*,*,#463,.F.);
#465=CARTESIAN_POINT('',(17.5365,-41.3702,-7.3));
#466=VERTEX_POINT('',#465);
#467=CARTESIAN_POINT('',(17.5365,-38.5202,-7.3));
#468=DIRECTION('',(0.,0.,-1.));
#469=DIRECTION('',(-1.,0.,0.));
#470=AXIS2_PLACEMENT_3D('',#467,#468,#469);
#471=CIRCLE('',#470,2.85);
#472=EDGE_CURVE('',#456,#466,#471,.T.);
#473=ORIENTED_EDGE('',*,*,#472,.T.);
#474=CARTESIAN_POINT('',(-17.5365,-41.3702,-7.3));
#475=VERTEX_POINT('',#474);
#476=CARTESIAN_POINT('',(17.5365,-41.3702,-7.3));
#477=DIRECTION('',(-1.,-0.,0.));
#478=VECTOR('',#477,35.073);
#479=LINE('',#476,#478);
#480=EDGE_CURVE('',#466,#475,#479,.T.);
#481=ORIENTED_EDGE('',*,*,#480,.T.);
#482=CARTESIAN_POINT('',(-20.3865,-38.5202,-7.3));
#483=VERTEX_POINT('',#482);
#484=CARTESIAN_POINT('',(-17.5365,-38.5202,-7.3));
#485=DIRECTION('',(0.,0.,-1.));
#486=DIRECTION('',(-1.,0.,0.));
#487=AXIS2_PLACEMENT_3D('',#484,#485,#486);
#488=CIRCLE('',#487,2.85);
#489=EDGE_CURVE('',#475,#483,#488,.T.);
#490=ORIENTED_EDGE('',*,*,#489,.T.);
#491=CARTESIAN_POINT('',(-20.386513722,-19.6702,-7.3));
#492=VERTEX_POINT('',#491);
#493=CARTESIAN_POINT('',(-20.3865,-38.5202,-7.3));
#494=DIRECTION('',(-0.,1.,0.));
#495=VECTOR('',#494,18.85);
#496=LINE('',#493,#495);
#497=EDGE_CURVE('',#483,#492,#496,.T.);
#498=ORIENTED_EDGE('',*,*,#497,.T.);
#499=CARTESIAN_POINT('',(-20.386522433,-16.017420927,-7.3));
#500=VERTEX_POINT('',#499);
#501=CARTESIAN_POINT('',(-20.386522433,-16.017420927,-7.3));
#502=DIRECTION('',(0.,-1.,0.));
#503=VECTOR('',#502,3.652779073);
#504=LINE('',#501,#503);
#505=EDGE_CURVE('',#500,#492,#504,.T.);
#506=ORIENTED_EDGE('',*,*,#505,.F.);
#507=CARTESIAN_POINT('',(-19.907483683,-14.326172328,-7.3));
#508=VERTEX_POINT('',#507);
#509=CARTESIAN_POINT('',(-17.161522422,-16.017420927,-7.3));
#510=DIRECTION('',(0.,0.,1.));
#511=DIRECTION('',(1.,0.,-0.));
#512=AXIS2_PLACEMENT_3D('',#509,#510,#511);
#513=CIRCLE('',#512,3.225000011);
#514=EDGE_CURVE('',#508,#500,#513,.T.);
#515=ORIENTED_EDGE('',*,*,#514,.F.);
#516=CARTESIAN_POINT('',(-19.164787949,-11.704081484,-7.3));
#517=VERTEX_POINT('',#516);
#518=CARTESIAN_POINT('',(-24.164787949,-11.704081484,-7.3));
#519=DIRECTION('',(-0.,-0.,-1.));
#520=DIRECTION('',(1.,0.,-0.));
#521=AXIS2_PLACEMENT_3D('',#518,#519,#520);
#522=CIRCLE('',#521,5.);
#523=EDGE_CURVE('',#517,#508,#522,.T.);
#524=ORIENTED_EDGE('',*,*,#523,.F.);
#525=CARTESIAN_POINT('',(-19.664827437,-9.524550482,-7.3));
#526=VERTEX_POINT('',#525);
#527=CARTESIAN_POINT('',(-24.164787949,-11.704081484,-7.3));
#528=DIRECTION('',(-0.,-0.,-1.));
#529=DIRECTION('',(1.,0.,-0.));
#530=AXIS2_PLACEMENT_3D('',#527,#528,#529);
#531=CIRCLE('',#530,5.);
#532=EDGE_CURVE('',#526,#517,#531,.T.);
#533=ORIENTED_EDGE('',*,*,#532,.F.);
#534=CARTESIAN_POINT('',(-19.664827437,9.524550482,-7.3));
#535=VERTEX_POINT('',#534);
#536=CARTESIAN_POINT('',(0.,-0.,-7.3));
#537=DIRECTION('',(0.,0.,1.));
#538=DIRECTION('',(1.,0.,-0.));
#539=AXIS2_PLACEMENT_3D('',#536,#537,#538);
#540=CIRCLE('',#539,21.85);
#541=EDGE_CURVE('',#535,#526,#540,.T.);
#542=ORIENTED_EDGE('',*,*,#541,.F.);
#543=CARTESIAN_POINT('',(-19.907483683,14.326172328,-7.3));
#544=VERTEX_POINT('',#543);
#545=CARTESIAN_POINT('',(-24.164787949,11.704081484,-7.3));
#546=DIRECTION('',(-0.,-0.,-1.));
#547=DIRECTION('',(1.,0.,-0.));
#548=AXIS2_PLACEMENT_3D('',#545,#546,#547);
#549=CIRCLE('',#548,5.);
#550=EDGE_CURVE('',#544,#535,#549,.T.);
#551=ORIENTED_EDGE('',*,*,#550,.F.);
#552=CARTESIAN_POINT('',(-20.386522433,16.017420927,-7.3));
#553=VERTEX_POINT('',#552);
#554=CARTESIAN_POINT('',(-17.161522422,16.017420927,-7.3));
#555=DIRECTION('',(-0.,-0.,-1.));
#556=DIRECTION('',(1.,0.,-0.));
#557=AXIS2_PLACEMENT_3D('',#554,#555,#556);
#558=CIRCLE('',#557,3.225000011);
#559=EDGE_CURVE('',#544,#553,#558,.T.);
#560=ORIENTED_EDGE('',*,*,#559,.T.);
#561=CARTESIAN_POINT('',(-15.663442766,18.873359025,-7.3));
#562=VERTEX_POINT('',#561);
#563=CARTESIAN_POINT('',(-17.161522422,16.017420927,-7.3));
#564=DIRECTION('',(-0.,-0.,-1.));
#565=DIRECTION('',(1.,0.,-0.));
#566=AXIS2_PLACEMENT_3D('',#563,#564,#565);
#567=CIRCLE('',#566,3.225000011);
#568=EDGE_CURVE('',#553,#562,#567,.T.);
#569=ORIENTED_EDGE('',*,*,#568,.T.);
#570=CARTESIAN_POINT('',(-10.856511159,18.962032208,-7.3));
#571=VERTEX_POINT('',#570);
#572=CARTESIAN_POINT('',(-13.340838656,23.301170013,-7.3));
#573=DIRECTION('',(-0.,-0.,-1.));
#574=DIRECTION('',(1.,0.,-0.));
#575=AXIS2_PLACEMENT_3D('',#572,#573,#574);
#576=CIRCLE('',#575,5.);
#577=EDGE_CURVE('',#571,#562,#576,.T.);
#578=ORIENTED_EDGE('',*,*,#577,.F.);
#579=CARTESIAN_POINT('',(10.856511159,18.962032208,-7.3));
#580=VERTEX_POINT('',#579);
#581=CARTESIAN_POINT('',(0.,-0.,-7.3));
#582=DIRECTION('',(0.,0.,1.));
#583=DIRECTION('',(1.,0.,-0.));
#584=AXIS2_PLACEMENT_3D('',#581,#582,#583);
#585=CIRCLE('',#584,21.85);
#586=EDGE_CURVE('',#580,#571,#585,.T.);
#587=ORIENTED_EDGE('',*,*,#586,.F.);
#588=CARTESIAN_POINT('',(15.663442766,18.873359025,-7.3));
#589=VERTEX_POINT('',#588);
#590=CARTESIAN_POINT('',(13.340838656,23.301170013,-7.3));
#591=DIRECTION('',(-0.,-0.,-1.));
#592=DIRECTION('',(1.,0.,-0.));
#593=AXIS2_PLACEMENT_3D('',#590,#591,#592);
#594=CIRCLE('',#593,5.);
#595=EDGE_CURVE('',#589,#580,#594,.T.);
#596=ORIENTED_EDGE('',*,*,#595,.F.);
#597=CARTESIAN_POINT('',(20.386522433,16.017420927,-7.3));
#598=VERTEX_POINT('',#597);
#599=CARTESIAN_POINT('',(17.161522422,16.017420927,-7.3));
#600=DIRECTION('',(0.,0.,1.));
#601=DIRECTION('',(1.,0.,-0.));
#602=AXIS2_PLACEMENT_3D('',#599,#600,#601);
#603=CIRCLE('',#602,3.225000011);
#604=EDGE_CURVE('',#598,#589,#603,.T.);
#605=ORIENTED_EDGE('',*,*,#604,.F.);
#606=CARTESIAN_POINT('',(19.907483683,14.326172328,-7.3));
#607=VERTEX_POINT('',#606);
#608=CARTESIAN_POINT('',(17.161522422,16.017420927,-7.3));
#609=DIRECTION('',(0.,0.,1.));
#610=DIRECTION('',(1.,0.,-0.));
#611=AXIS2_PLACEMENT_3D('',#608,#609,#610);
#612=CIRCLE('',#611,3.225000011);
#613=EDGE_CURVE('',#607,#598,#612,.T.);
#614=ORIENTED_EDGE('',*,*,#613,.F.);
#615=CARTESIAN_POINT('',(19.664827437,9.524550482,-7.3));
#616=VERTEX_POINT('',#615);
#617=CARTESIAN_POINT('',(24.164787949,11.704081484,-7.3));
#618=DIRECTION('',(-0.,-0.,-1.));
#619=DIRECTION('',(1.,0.,-0.));
#620=AXIS2_PLACEMENT_3D('',#617,#618,#619);
#621=CIRCLE('',#620,5.);
#622=EDGE_CURVE('',#616,#607,#621,.T.);
#623=ORIENTED_EDGE('',*,*,#622,.F.);
#624=CARTESIAN_POINT('',(21.85,-0.,-7.3));
#625=VERTEX_POINT('',#624);
#626=CARTESIAN_POINT('',(0.,-0.,-7.3));
#627=DIRECTION('',(0.,0.,1.));
#628=DIRECTION('',(1.,0.,-0.));
#629=AXIS2_PLACEMENT_3D('',#626,#627,#628);
#630=CIRCLE('',#629,21.85);
#631=EDGE_CURVE('',#625,#616,#630,.T.);
#632=ORIENTED_EDGE('',*,*,#631,.F.);
#633=CARTESIAN_POINT('',(19.664827437,-9.524550482,-7.3));
#634=VERTEX_POINT('',#633);
#635=CARTESIAN_POINT('',(0.,-0.,-7.3));
#636=DIRECTION('',(0.,0.,1.));
#637=DIRECTION('',(1.,0.,-0.));
#638=AXIS2_PLACEMENT_3D('',#635,#636,#637);
#639=CIRCLE('',#638,21.85);
#640=EDGE_CURVE('',#634,#625,#639,.T.);
#641=ORIENTED_EDGE('',*,*,#640,.F.);
#642=CARTESIAN_POINT('',(19.164787949,-11.704081484,-7.3));
#643=VERTEX_POINT('',#642);
#644=CARTESIAN_POINT('',(24.164787949,-11.704081484,-7.3));
#645=DIRECTION('',(-0.,-0.,-1.));
#646=DIRECTION('',(1.,0.,-0.));
#647=AXIS2_PLACEMENT_3D('',#644,#645,#646);
#648=CIRCLE('',#647,5.);
#649=EDGE_CURVE('',#643,#634,#648,.T.);
#650=ORIENTED_EDGE('',*,*,#649,.F.);
#651=CARTESIAN_POINT('',(19.907470046,-14.326150186,-7.3));
#652=VERTEX_POINT('',#651);
#653=CARTESIAN_POINT('',(24.164787949,-11.704081484,-7.3));
#654=DIRECTION('',(-0.,-0.,-1.));
#655=DIRECTION('',(1.,0.,-0.));
#656=AXIS2_PLACEMENT_3D('',#653,#654,#655);
#657=CIRCLE('',#656,5.);
#658=EDGE_CURVE('',#652,#643,#657,.T.);
#659=ORIENTED_EDGE('',*,*,#658,.F.);
#660=CARTESIAN_POINT('',(20.3865,-16.017384504,-7.3));
#661=VERTEX_POINT('',#660);
#662=CARTESIAN_POINT('',(17.161499989,-16.017384504,-7.3));
#663=DIRECTION('',(0.,0.,-1.));
#664=DIRECTION('',(-1.,0.,0.));
#665=AXIS2_PLACEMENT_3D('',#662,#663,#664);
#666=CIRCLE('',#665,3.225000011);
#667=EDGE_CURVE('',#652,#661,#666,.T.);
#668=ORIENTED_EDGE('',*,*,#667,.T.);
#669=CARTESIAN_POINT('',(20.3865,-16.017384504,-7.3));
#670=DIRECTION('',(0.,-1.,0.));
#671=VECTOR('',#670,11.627815496);
#672=LINE('',#669,#671);
#673=EDGE_CURVE('',#661,#458,#672,.T.);
#674=ORIENTED_EDGE('',*,*,#673,.T.);
#675=EDGE_LOOP('',(#464,#473,#481,#490,#498,#506,#515,#524,#533,#542,#551,#560,#569,#578,#587,#596,#605,#614,#623,#632,#641,#650,#659,#668,#674));
#676=FACE_BOUND('',#675,.T.);
#677=ADVANCED_FACE('',(#676),#454,.T.);
#678=CARTESIAN_POINT('',(20.3865,-28.693810464,-7.3));
#679=DIRECTION('',(-1.,-0.,0.));
#680=DIRECTION('',(0.,-1.,0.));
#681=AXIS2_PLACEMENT_3D('',#678,#679,#680);
#682=PLANE('',#681);
#683=ORIENTED_EDGE('',*,*,#277,.T.);
#684=CARTESIAN_POINT('',(20.3865,-21.2702,-6.3));
#685=VERTEX_POINT('',#684);
#686=CARTESIAN_POINT('',(20.3865,-21.2702,-2.5));
#687=DIRECTION('',(0.,0.,-1.));
#688=VECTOR('',#687,3.8);
#689=LINE('',#686,#688);
#690=EDGE_CURVE('',#264,#685,#689,.T.);
#691=ORIENTED_EDGE('',*,*,#690,.T.);
#692=CARTESIAN_POINT('',(20.3865,-38.5202,-6.3));
#693=VERTEX_POINT('',#692);
#694=CARTESIAN_POINT('',(20.3865,-38.5202,-6.3));
#695=DIRECTION('',(-0.,1.,0.));
#696=VECTOR('',#695,17.25);
#697=LINE('',#694,#696);
#698=EDGE_CURVE('',#693,#685,#697,.T.);
#699=ORIENTED_EDGE('',*,*,#698,.F.);
#700=CARTESIAN_POINT('',(20.3865,-38.5202,-7.3));
#701=DIRECTION('',(0.,0.,1.));
#702=VECTOR('',#701,1.);
#703=LINE('',#700,#702);
#704=EDGE_CURVE('',#456,#693,#703,.T.);
#705=ORIENTED_EDGE('',*,*,#704,.F.);
#706=ORIENTED_EDGE('',*,*,#463,.T.);
#707=ORIENTED_EDGE('',*,*,#673,.F.);
#708=CARTESIAN_POINT('',(20.3865,-16.017384504,-7.3));
#709=DIRECTION('',(-0.,-0.,1.));
#710=VECTOR('',#709,4.8);
#711=LINE('',#708,#710);
#712=EDGE_CURVE('',#661,#272,#711,.T.);
#713=ORIENTED_EDGE('',*,*,#712,.T.);
#714=EDGE_LOOP('',(#683,#691,#699,#705,#706,#707,#713));
#715=FACE_BOUND('',#714,.T.);
#716=ADVANCED_FACE('',(#715),#682,.F.);
#717=CARTESIAN_POINT('',(0.8,-41.3702,-116.5));
#718=DIRECTION('',(-0.,1.,0.));
#719=DIRECTION('',(0.,0.,1.));
#720=AXIS2_PLACEMENT_3D('',#717,#718,#719);
#721=PLANE('',#720);
#722=ORIENTED_EDGE('',*,*,#480,.F.);
#723=CARTESIAN_POINT('',(17.5365,-41.3702,-7.3));
#724=DIRECTION('',(0.,0.,1.));
#725=VECTOR('',#724,4.8);
#726=LINE('',#723,#725);
#727=EDGE_CURVE('',#466,#52,#726,.T.);
#728=ORIENTED_EDGE('',*,*,#727,.T.);
#729=ORIENTED_EDGE('',*,*,#57,.T.);
#730=CARTESIAN_POINT('',(-17.5365,-41.3702,-7.3));
#731=DIRECTION('',(0.,0.,1.));
#732=VECTOR('',#731,4.8);
#733=LINE('',#730,#732);
#734=EDGE_CURVE('',#475,#43,#733,.T.);
#735=ORIENTED_EDGE('',*,*,#734,.F.);
#736=EDGE_LOOP('',(#722,#728,#729,#735));
#737=FACE_BOUND('',#736,.T.);
#738=ADVANCED_FACE('',(#737),#721,.F.);
#739=OVER_RIDING_STYLED_ITEM('',(#115),#738,#26);
#740=CARTESIAN_POINT('',(17.161499989,-16.017384504,-3.7));
#741=DIRECTION('',(0.,0.,-1.));
#742=DIRECTION('',(-1.,0.,0.));
#743=AXIS2_PLACEMENT_3D('',#740,#741,#742);
#744=CYLINDRICAL_SURFACE('',#743,3.225000011);
#745=ORIENTED_EDGE('',*,*,#712,.F.);
#746=ORIENTED_EDGE('',*,*,#667,.F.);
#747=CARTESIAN_POINT('',(19.907470046,-14.326150186,-7.3));
#748=DIRECTION('',(-0.,-0.,1.));
#749=VECTOR('',#748,4.8);
#750=LINE('',#747,#749);
#751=EDGE_CURVE('',#652,#280,#750,.T.);
#752=ORIENTED_EDGE('',*,*,#751,.T.);
#753=ORIENTED_EDGE('',*,*,#286,.T.);
#754=EDGE_LOOP('',(#745,#746,#752,#753));
#755=FACE_BOUND('',#754,.T.);
#756=ADVANCED_FACE('',(#755),#744,.T.);
#757=CARTESIAN_POINT('',(-17.161522422,-16.017420927,-2.));
#758=DIRECTION('',(0.,0.,-1.));
#759=DIRECTION('',(-1.,0.,0.));
#760=AXIS2_PLACEMENT_3D('',#757,#758,#759);
#761=CYLINDRICAL_SURFACE('',#760,3.225000011);
#762=ORIENTED_EDGE('',*,*,#514,.T.);
#763=CARTESIAN_POINT('',(-20.386522433,-16.017420927,-7.3));
#764=DIRECTION('',(0.,0.,1.));
#765=VECTOR('',#764,4.8);
#766=LINE('',#763,#765);
#767=EDGE_CURVE('',#500,#433,#766,.T.);
#768=ORIENTED_EDGE('',*,*,#767,.T.);
#769=ORIENTED_EDGE('',*,*,#439,.F.);
#770=CARTESIAN_POINT('',(-19.907483683,-14.326172328,-2.5));
#771=DIRECTION('',(0.,0.,-1.));
#772=VECTOR('',#771,4.8);
#773=LINE('',#770,#772);
#774=EDGE_CURVE('',#424,#508,#773,.T.);
#775=ORIENTED_EDGE('',*,*,#774,.T.);
#776=EDGE_LOOP('',(#762,#768,#769,#775));
#777=FACE_BOUND('',#776,.T.);
#778=ADVANCED_FACE('',(#777),#761,.T.);
#779=CARTESIAN_POINT('',(0.,0.,-6.3));
#780=DIRECTION('',(0.,0.,-1.));
#781=DIRECTION('',(0.,1.,0.));
#782=AXIS2_PLACEMENT_3D('',#779,#780,#781);
#783=PLANE('',#782);
#784=CARTESIAN_POINT('',(6.25,-21.2702,-6.3));
#785=VERTEX_POINT('',#784);
#786=CARTESIAN_POINT('',(6.25,-21.2702,-6.3));
#787=DIRECTION('',(1.,0.,0.));
#788=VECTOR('',#787,14.1365);
#789=LINE('',#786,#788);
#790=EDGE_CURVE('',#785,#685,#789,.T.);
#791=ORIENTED_EDGE('',*,*,#790,.F.);
#792=CARTESIAN_POINT('',(5.,-20.0202,-6.3));
#793=VERTEX_POINT('',#792);
#794=CARTESIAN_POINT('',(6.25,-20.0202,-6.3));
#795=DIRECTION('',(0.,0.,-1.));
#796=DIRECTION('',(-1.,0.,0.));
#797=AXIS2_PLACEMENT_3D('',#794,#795,#796);
#798=CIRCLE('',#797,1.25);
#799=EDGE_CURVE('',#785,#793,#798,.T.);
#800=ORIENTED_EDGE('',*,*,#799,.T.);
#801=CARTESIAN_POINT('',(5.,-18.207141456,-6.3));
#802=VERTEX_POINT('',#801);
#803=CARTESIAN_POINT('',(5.,-20.0202,-6.3));
#804=DIRECTION('',(0.,1.,0.));
#805=VECTOR('',#804,1.813058544);
#806=LINE('',#803,#805);
#807=EDGE_CURVE('',#793,#802,#806,.T.);
#808=ORIENTED_EDGE('',*,*,#807,.T.);
#809=CARTESIAN_POINT('',(5.844155844,-17.024859543,-6.3));
#810=VERTEX_POINT('',#809);
#811=CARTESIAN_POINT('',(6.25,-18.207141456,-6.3));
#812=DIRECTION('',(0.,0.,-1.));
#813=DIRECTION('',(-1.,0.,0.));
#814=AXIS2_PLACEMENT_3D('',#811,#812,#813);
#815=CIRCLE('',#814,1.25);
#816=EDGE_CURVE('',#802,#810,#815,.T.);
#817=ORIENTED_EDGE('',*,*,#816,.T.);
#818=CARTESIAN_POINT('',(18.,0.,-6.3));
#819=VERTEX_POINT('',#818);
#820=CARTESIAN_POINT('',(0.,0.,-6.3));
#821=DIRECTION('',(0.,0.,-1.));
#822=DIRECTION('',(-1.,0.,0.));
#823=AXIS2_PLACEMENT_3D('',#820,#821,#822);
#824=CIRCLE('',#823,18.);
#825=EDGE_CURVE('',#819,#810,#824,.T.);
#826=ORIENTED_EDGE('',*,*,#825,.F.);
#827=CARTESIAN_POINT('',(-5.844155844,-17.024859543,-6.3));
#828=VERTEX_POINT('',#827);
#829=CARTESIAN_POINT('',(0.,0.,-6.3));
#830=DIRECTION('',(0.,0.,-1.));
#831=DIRECTION('',(-1.,0.,0.));
#832=AXIS2_PLACEMENT_3D('',#829,#830,#831);
#833=CIRCLE('',#832,18.);
#834=EDGE_CURVE('',#828,#819,#833,.T.);
#835=ORIENTED_EDGE('',*,*,#834,.F.);
#836=CARTESIAN_POINT('',(-5.,-18.207141456,-6.3));
#837=VERTEX_POINT('',#836);
#838=CARTESIAN_POINT('',(-6.25,-18.207141456,-6.3));
#839=DIRECTION('',(0.,0.,-1.));
#840=DIRECTION('',(-1.,0.,0.));
#841=AXIS2_PLACEMENT_3D('',#838,#839,#840);
#842=CIRCLE('',#841,1.25);
#843=EDGE_CURVE('',#828,#837,#842,.T.);
#844=ORIENTED_EDGE('',*,*,#843,.T.);
#845=CARTESIAN_POINT('',(-5.,-20.0202,-6.3));
#846=VERTEX_POINT('',#845);
#847=CARTESIAN_POINT('',(-5.,-18.207141456,-6.3));
#848=DIRECTION('',(0.,-1.,0.));
#849=VECTOR('',#848,1.813058544);
#850=LINE('',#847,#849);
#851=EDGE_CURVE('',#837,#846,#850,.T.);
#852=ORIENTED_EDGE('',*,*,#851,.T.);
#853=CARTESIAN_POINT('',(-6.25,-20.0202,-6.3));
#854=DIRECTION('',(0.,0.,-1.));
#855=DIRECTION('',(-1.,0.,0.));
#856=AXIS2_PLACEMENT_3D('',#853,#854,#855);
#857=CIRCLE('',#856,1.25);
#858=EDGE_CURVE('',#846,#77,#857,.T.);
#859=ORIENTED_EDGE('',*,*,#858,.T.);
#860=ORIENTED_EDGE('',*,*,#82,.F.);
#861=CARTESIAN_POINT('',(-20.3865,-38.5202,-6.3));
#862=VERTEX_POINT('',#861);
#863=CARTESIAN_POINT('',(-20.3865,-38.5202,-6.3));
#864=DIRECTION('',(-0.,1.,0.));
#865=VECTOR('',#864,17.25);
#866=LINE('',#863,#865);
#867=EDGE_CURVE('',#862,#75,#866,.T.);
#868=ORIENTED_EDGE('',*,*,#867,.F.);
#869=CARTESIAN_POINT('',(-20.097749695,-39.7702,-6.3));
#870=VERTEX_POINT('',#869);
#871=CARTESIAN_POINT('',(-17.5365,-38.5202,-6.3));
#872=DIRECTION('',(-0.,-0.,1.));
#873=DIRECTION('',(-1.,0.,0.));
#874=AXIS2_PLACEMENT_3D('',#871,#872,#873);
#875=CIRCLE('',#874,2.85);
#876=EDGE_CURVE('',#862,#870,#875,.T.);
#877=ORIENTED_EDGE('',*,*,#876,.T.);
#878=CARTESIAN_POINT('',(20.097749695,-39.7702,-6.3));
#879=VERTEX_POINT('',#878);
#880=CARTESIAN_POINT('',(20.097749695,-39.7702,-6.3));
#881=DIRECTION('',(-1.,-0.,0.));
#882=VECTOR('',#881,40.19549939);
#883=LINE('',#880,#882);
#884=EDGE_CURVE('',#879,#870,#883,.T.);
#885=ORIENTED_EDGE('',*,*,#884,.F.);
#886=CARTESIAN_POINT('',(17.5365,-38.5202,-6.3));
#887=DIRECTION('',(0.,0.,-1.));
#888=DIRECTION('',(-1.,0.,0.));
#889=AXIS2_PLACEMENT_3D('',#886,#887,#888);
#890=CIRCLE('',#889,2.85);
#891=EDGE_CURVE('',#693,#879,#890,.T.);
#892=ORIENTED_EDGE('',*,*,#891,.F.);
#893=ORIENTED_EDGE('',*,*,#698,.T.);
#894=EDGE_LOOP('',(#791,#800,#808,#817,#826,#835,#844,#852,#859,#860,#868,#877,#885,#892,#893));
#895=FACE_BOUND('',#894,.T.);
#896=ADVANCED_FACE('',(#895),#783,.F.);
#897=OVER_RIDING_STYLED_ITEM('',(#115),#896,#26);
#898=CARTESIAN_POINT('',(0.,0.,-3.7));
#899=DIRECTION('',(0.,0.,1.));
#900=DIRECTION('',(1.,0.,-0.));
#901=AXIS2_PLACEMENT_3D('',#898,#899,#900);
#902=CYLINDRICAL_SURFACE('',#901,21.85);
#903=CARTESIAN_POINT('',(10.856511159,18.962032208,-2.5));
#904=DIRECTION('',(-0.,-0.,-1.));
#905=VECTOR('',#904,4.8);
#906=LINE('',#903,#905);
#907=EDGE_CURVE('',#352,#580,#906,.T.);
#908=ORIENTED_EDGE('',*,*,#907,.T.);
#909=ORIENTED_EDGE('',*,*,#586,.T.);
#910=CARTESIAN_POINT('',(-10.856511159,18.962032208,-7.3));
#911=DIRECTION('',(0.,0.,1.));
#912=VECTOR('',#911,4.8);
#913=LINE('',#910,#912);
#914=EDGE_CURVE('',#571,#361,#913,.T.);
#915=ORIENTED_EDGE('',*,*,#914,.T.);
#916=ORIENTED_EDGE('',*,*,#367,.F.);
#917=EDGE_LOOP('',(#908,#909,#915,#916));
#918=FACE_BOUND('',#917,.T.);
#919=ADVANCED_FACE('',(#918),#902,.T.);
#920=CARTESIAN_POINT('',(0.,0.,-3.7));
#921=DIRECTION('',(0.,0.,1.));
#922=DIRECTION('',(1.,0.,-0.));
#923=AXIS2_PLACEMENT_3D('',#920,#921,#922);
#924=CYLINDRICAL_SURFACE('',#923,21.85);
#925=CARTESIAN_POINT('',(21.85,0.,-2.5));
#926=DIRECTION('',(-0.,-0.,-1.));
#927=VECTOR('',#926,4.8);
#928=LINE('',#925,#927);
#929=EDGE_CURVE('',#307,#625,#928,.T.);
#930=ORIENTED_EDGE('',*,*,#929,.T.);
#931=ORIENTED_EDGE('',*,*,#631,.T.);
#932=CARTESIAN_POINT('',(19.664827437,9.524550482,-7.3));
#933=DIRECTION('',(0.,0.,1.));
#934=VECTOR('',#933,4.8);
#935=LINE('',#932,#934);
#936=EDGE_CURVE('',#616,#316,#935,.T.);
#937=ORIENTED_EDGE('',*,*,#936,.T.);
#938=ORIENTED_EDGE('',*,*,#322,.F.);
#939=EDGE_LOOP('',(#930,#931,#937,#938));
#940=FACE_BOUND('',#939,.T.);
#941=ADVANCED_FACE('',(#940),#924,.T.);
#942=CARTESIAN_POINT('',(0.,0.,-3.7));
#943=DIRECTION('',(0.,0.,1.));
#944=DIRECTION('',(1.,0.,-0.));
#945=AXIS2_PLACEMENT_3D('',#942,#943,#944);
#946=CYLINDRICAL_SURFACE('',#945,21.85);
#947=CARTESIAN_POINT('',(-19.664827437,9.524550482,-2.5));
#948=DIRECTION('',(-0.,-0.,-1.));
#949=VECTOR('',#948,4.8);
#950=LINE('',#947,#949);
#951=EDGE_CURVE('',#397,#535,#950,.T.);
#952=ORIENTED_EDGE('',*,*,#951,.T.);
#953=ORIENTED_EDGE('',*,*,#541,.T.);
#954=CARTESIAN_POINT('',(-19.664827437,-9.524550482,-7.3));
#955=DIRECTION('',(0.,0.,1.));
#956=VECTOR('',#955,4.8);
#957=LINE('',#954,#956);
#958=EDGE_CURVE('',#526,#406,#957,.T.);
#959=ORIENTED_EDGE('',*,*,#958,.T.);
#960=ORIENTED_EDGE('',*,*,#412,.F.);
#961=EDGE_LOOP('',(#952,#953,#959,#960));
#962=FACE_BOUND('',#961,.T.);
#963=ADVANCED_FACE('',(#962),#946,.T.);
#964=CARTESIAN_POINT('',(-17.161522422,16.017420927,-2.));
#965=DIRECTION('',(0.,0.,-1.));
#966=DIRECTION('',(-1.,0.,0.));
#967=AXIS2_PLACEMENT_3D('',#964,#965,#966);
#968=CYLINDRICAL_SURFACE('',#967,3.225000011);
#969=CARTESIAN_POINT('',(-20.386522433,16.017420927,-7.3));
#970=DIRECTION('',(-0.,-0.,1.));
#971=VECTOR('',#970,4.8);
#972=LINE('',#969,#971);
#973=EDGE_CURVE('',#553,#379,#972,.T.);
#974=ORIENTED_EDGE('',*,*,#973,.T.);
#975=ORIENTED_EDGE('',*,*,#385,.T.);
#976=CARTESIAN_POINT('',(-15.663442766,18.873359025,-2.5));
#977=DIRECTION('',(0.,0.,-1.));
#978=VECTOR('',#977,4.8);
#979=LINE('',#976,#978);
#980=EDGE_CURVE('',#370,#562,#979,.T.);
#981=ORIENTED_EDGE('',*,*,#980,.T.);
#982=ORIENTED_EDGE('',*,*,#568,.F.);
#983=EDGE_LOOP('',(#974,#975,#981,#982));
#984=FACE_BOUND('',#983,.T.);
#985=ADVANCED_FACE('',(#984),#968,.T.);
#986=CARTESIAN_POINT('',(17.161522422,16.017420927,-2.));
#987=DIRECTION('',(0.,0.,-1.));
#988=DIRECTION('',(1.,0.,0.));
#989=AXIS2_PLACEMENT_3D('',#986,#987,#988);
#990=CYLINDRICAL_SURFACE('',#989,3.225000011);
#991=CARTESIAN_POINT('',(20.386522433,16.017420927,-7.3));
#992=DIRECTION('',(-0.,-0.,1.));
#993=VECTOR('',#992,4.8);
#994=LINE('',#991,#993);
#995=EDGE_CURVE('',#598,#334,#994,.T.);
#996=ORIENTED_EDGE('',*,*,#995,.T.);
#997=ORIENTED_EDGE('',*,*,#340,.F.);
#998=CARTESIAN_POINT('',(19.907483683,14.326172328,-2.5));
#999=DIRECTION('',(0.,0.,-1.));
#1000=VECTOR('',#999,4.8);
#1001=LINE('',#998,#1000);
#1002=EDGE_CURVE('',#325,#607,#1001,.T.);
#1003=ORIENTED_EDGE('',*,*,#1002,.T.);
#1004=ORIENTED_EDGE('',*,*,#613,.T.);
#1005=EDGE_LOOP('',(#996,#997,#1003,#1004));
#1006=FACE_BOUND('',#1005,.T.);
#1007=ADVANCED_FACE('',(#1006),#990,.T.);
#1008=CARTESIAN_POINT('',(0.,0.,-3.7));
#1009=DIRECTION('',(0.,0.,1.));
#1010=DIRECTION('',(1.,0.,-0.));
#1011=AXIS2_PLACEMENT_3D('',#1008,#1009,#1010);
#1012=CYLINDRICAL_SURFACE('',#1011,20.25);
#1013=CARTESIAN_POINT('',(20.25,-0.,-3.7));
#1014=VERTEX_POINT('',#1013);
#1015=CARTESIAN_POINT('',(20.25,0.,-2.5));
#1016=DIRECTION('',(-0.,-0.,-1.));
#1017=VECTOR('',#1016,1.2);
#1018=LINE('',#1015,#1017);
#1019=EDGE_CURVE('',#229,#1014,#1018,.T.);
#1020=ORIENTED_EDGE('',*,*,#1019,.F.);
#1021=ORIENTED_EDGE('',*,*,#235,.T.);
#1022=CARTESIAN_POINT('',(-5.,-19.623009453,-3.7));
#1023=VERTEX_POINT('',#1022);
#1024=CARTESIAN_POINT('',(-5.,-19.623009453,-3.7));
#1025=DIRECTION('',(0.,0.,1.));
#1026=VECTOR('',#1025,1.2);
#1027=LINE('',#1024,#1026);
#1028=EDGE_CURVE('',#1023,#221,#1027,.T.);
#1029=ORIENTED_EDGE('',*,*,#1028,.F.);
#1030=CARTESIAN_POINT('',(11.305749064,16.800075539,-3.7));
#1031=VERTEX_POINT('',#1030);
#1032=CARTESIAN_POINT('',(0.,0.,-3.7));
#1033=DIRECTION('',(0.,0.,1.));
#1034=DIRECTION('',(1.,-0.,0.));
#1035=AXIS2_PLACEMENT_3D('',#1032,#1033,#1034);
#1036=CIRCLE('',#1035,20.25);
#1037=EDGE_CURVE('',#1031,#1023,#1036,.T.);
#1038=ORIENTED_EDGE('',*,*,#1037,.F.);
#1039=CARTESIAN_POINT('',(11.305749064,16.800075539,-2.7));
#1040=VERTEX_POINT('',#1039);
#1041=CARTESIAN_POINT('',(11.305749064,16.800075539,-3.7));
#1042=DIRECTION('',(0.,0.,1.));
#1043=VECTOR('',#1042,1.);
#1044=LINE('',#1041,#1043);
#1045=EDGE_CURVE('',#1031,#1040,#1044,.T.);
#1046=ORIENTED_EDGE('',*,*,#1045,.T.);
#1047=CARTESIAN_POINT('',(11.920113097,16.369893211,-2.7));
#1048=VERTEX_POINT('',#1047);
#1049=CARTESIAN_POINT('',(0.,0.,-2.7));
#1050=DIRECTION('',(0.,0.,1.));
#1051=DIRECTION('',(1.,0.,-0.));
#1052=AXIS2_PLACEMENT_3D('',#1049,#1050,#1051);
#1053=CIRCLE('',#1052,20.25);
#1054=EDGE_CURVE('',#1048,#1040,#1053,.T.);
#1055=ORIENTED_EDGE('',*,*,#1054,.F.);
#1056=CARTESIAN_POINT('',(11.920113097,16.369893211,-3.7));
#1057=VERTEX_POINT('',#1056);
#1058=CARTESIAN_POINT('',(11.920113097,16.369893211,-2.7));
#1059=DIRECTION('',(-0.,-0.,-1.));
#1060=VECTOR('',#1059,1.);
#1061=LINE('',#1058,#1060);
#1062=EDGE_CURVE('',#1048,#1057,#1061,.T.);
#1063=ORIENTED_EDGE('',*,*,#1062,.T.);
#1064=CARTESIAN_POINT('',(17.346507136,10.448023266,-3.7));
#1065=VERTEX_POINT('',#1064);
#1066=CARTESIAN_POINT('',(0.,0.,-3.7));
#1067=DIRECTION('',(0.,0.,1.));
#1068=DIRECTION('',(1.,-0.,0.));
#1069=AXIS2_PLACEMENT_3D('',#1066,#1067,#1068);
#1070=CIRCLE('',#1069,20.25);
#1071=EDGE_CURVE('',#1065,#1057,#1070,.T.);
#1072=ORIENTED_EDGE('',*,*,#1071,.F.);
#1073=CARTESIAN_POINT('',(17.346507136,10.448023266,-2.7));
#1074=VERTEX_POINT('',#1073);
#1075=CARTESIAN_POINT('',(17.346507136,10.448023266,-2.7));
#1076=DIRECTION('',(-0.,-0.,-1.));
#1077=VECTOR('',#1076,1.);
#1078=LINE('',#1075,#1077);
#1079=EDGE_CURVE('',#1074,#1065,#1078,.T.);
#1080=ORIENTED_EDGE('',*,*,#1079,.F.);
#1081=CARTESIAN_POINT('',(17.721507136,9.798504214,-2.7));
#1082=VERTEX_POINT('',#1081);
#1083=CARTESIAN_POINT('',(0.,0.,-2.7));
#1084=DIRECTION('',(-0.,-0.,-1.));
#1085=DIRECTION('',(1.,0.,-0.));
#1086=AXIS2_PLACEMENT_3D('',#1083,#1084,#1085);
#1087=CIRCLE('',#1086,20.25);
#1088=EDGE_CURVE('',#1074,#1082,#1087,.T.);
#1089=ORIENTED_EDGE('',*,*,#1088,.T.);
#1090=CARTESIAN_POINT('',(17.721507136,9.798504214,-3.7));
#1091=VERTEX_POINT('',#1090);
#1092=CARTESIAN_POINT('',(17.721507136,9.798504214,-3.7));
#1093=DIRECTION('',(0.,0.,1.));
#1094=VECTOR('',#1093,1.);
#1095=LINE('',#1092,#1094);
#1096=EDGE_CURVE('',#1091,#1082,#1095,.T.);
#1097=ORIENTED_EDGE('',*,*,#1096,.F.);
#1098=CARTESIAN_POINT('',(0.,0.,-3.7));
#1099=DIRECTION('',(0.,0.,1.));
#1100=DIRECTION('',(1.,-0.,0.));
#1101=AXIS2_PLACEMENT_3D('',#1098,#1099,#1100);
#1102=CIRCLE('',#1101,20.25);
#1103=EDGE_CURVE('',#1014,#1091,#1102,.T.);
#1104=ORIENTED_EDGE('',*,*,#1103,.F.);
#1105=EDGE_LOOP('',(#1020,#1021,#1029,#1038,#1046,#1055,#1063,#1072,#1080,#1089,#1097,#1104));
#1106=FACE_BOUND('',#1105,.T.);
#1107=ADVANCED_FACE('',(#1106),#1012,.F.);
#1108=CARTESIAN_POINT('',(0.,0.,-4.9));
#1109=DIRECTION('',(0.,0.,1.));
#1110=DIRECTION('',(1.,0.,-0.));
#1111=AXIS2_PLACEMENT_3D('',#1108,#1109,#1110);
#1112=CYLINDRICAL_SURFACE('',#1111,18.);
#1113=CARTESIAN_POINT('',(18.,0.,-3.7));
#1114=VERTEX_POINT('',#1113);
#1115=CARTESIAN_POINT('',(18.,0.,-3.7));
#1116=DIRECTION('',(-0.,-0.,-1.));
#1117=VECTOR('',#1116,2.6);
#1118=LINE('',#1115,#1117);
#1119=EDGE_CURVE('',#1114,#819,#1118,.T.);
#1120=ORIENTED_EDGE('',*,*,#1119,.F.);
#1121=CARTESIAN_POINT('',(-5.844155844,-17.024859543,-3.7));
#1122=VERTEX_POINT('',#1121);
#1123=CARTESIAN_POINT('',(0.,0.,-3.7));
#1124=DIRECTION('',(0.,0.,-1.));
#1125=DIRECTION('',(-0.,1.,0.));
#1126=AXIS2_PLACEMENT_3D('',#1123,#1124,#1125);
#1127=CIRCLE('',#1126,18.);
#1128=EDGE_CURVE('',#1122,#1114,#1127,.T.);
#1129=ORIENTED_EDGE('',*,*,#1128,.F.);
#1130=CARTESIAN_POINT('',(-5.844155844,-17.024859543,-3.7));
#1131=DIRECTION('',(-0.,-0.,-1.));
#1132=VECTOR('',#1131,2.6);
#1133=LINE('',#1130,#1132);
#1134=EDGE_CURVE('',#1122,#828,#1133,.T.);
#1135=ORIENTED_EDGE('',*,*,#1134,.T.);
#1136=ORIENTED_EDGE('',*,*,#834,.T.);
#1137=EDGE_LOOP('',(#1120,#1129,#1135,#1136));
#1138=FACE_BOUND('',#1137,.T.);
#1139=ADVANCED_FACE('',(#1138),#1112,.F.);
#1140=CARTESIAN_POINT('',(-5.,0.,-3.7));
#1141=DIRECTION('',(1.,0.,0.));
#1142=DIRECTION('',(0.,0.,-1.));
#1143=AXIS2_PLACEMENT_3D('',#1140,#1141,#1142);
#1144=PLANE('',#1143);
#1145=ORIENTED_EDGE('',*,*,#226,.T.);
#1146=CARTESIAN_POINT('',(-5.,-20.0202,-2.5));
#1147=DIRECTION('',(-0.,-0.,-1.));
#1148=VECTOR('',#1147,3.8);
#1149=LINE('',#1146,#1148);
#1150=EDGE_CURVE('',#212,#846,#1149,.T.);
#1151=ORIENTED_EDGE('',*,*,#1150,.T.);
#1152=ORIENTED_EDGE('',*,*,#851,.F.);
#1153=CARTESIAN_POINT('',(-5.,-18.207141456,-3.7));
#1154=VERTEX_POINT('',#1153);
#1155=CARTESIAN_POINT('',(-5.,-18.207141456,-6.3));
#1156=DIRECTION('',(0.,0.,1.));
#1157=VECTOR('',#1156,2.6);
#1158=LINE('',#1155,#1157);
#1159=EDGE_CURVE('',#837,#1154,#1158,.T.);
#1160=ORIENTED_EDGE('',*,*,#1159,.T.);
#1161=CARTESIAN_POINT('',(-5.,-18.207141456,-3.7));
#1162=DIRECTION('',(0.,-1.,0.));
#1163=VECTOR('',#1162,1.415867997);
#1164=LINE('',#1161,#1163);
#1165=EDGE_CURVE('',#1154,#1023,#1164,.T.);
#1166=ORIENTED_EDGE('',*,*,#1165,.T.);
#1167=ORIENTED_EDGE('',*,*,#1028,.T.);
#1168=EDGE_LOOP('',(#1145,#1151,#1152,#1160,#1166,#1167));
#1169=FACE_BOUND('',#1168,.T.);
#1170=ADVANCED_FACE('',(#1169),#1144,.T.);
#1171=OVER_RIDING_STYLED_ITEM('',(#115),#1170,#26);
#1172=CARTESIAN_POINT('',(5.,0.,-3.7));
#1173=DIRECTION('',(-1.,0.,0.));
#1174=DIRECTION('',(0.,0.,1.));
#1175=AXIS2_PLACEMENT_3D('',#1172,#1173,#1174);
#1176=PLANE('',#1175);
#1177=ORIENTED_EDGE('',*,*,#807,.F.);
#1178=CARTESIAN_POINT('',(5.,-20.0202,-6.3));
#1179=DIRECTION('',(-0.,-0.,1.));
#1180=VECTOR('',#1179,3.8);
#1181=LINE('',#1178,#1180);
#1182=EDGE_CURVE('',#793,#247,#1181,.T.);
#1183=ORIENTED_EDGE('',*,*,#1182,.T.);
#1184=ORIENTED_EDGE('',*,*,#252,.T.);
#1185=CARTESIAN_POINT('',(5.,-19.623009453,-3.7));
#1186=VERTEX_POINT('',#1185);
#1187=CARTESIAN_POINT('',(5.,-19.623009453,-3.7));
#1188=DIRECTION('',(0.,0.,1.));
#1189=VECTOR('',#1188,1.2);
#1190=LINE('',#1187,#1189);
#1191=EDGE_CURVE('',#1186,#238,#1190,.T.);
#1192=ORIENTED_EDGE('',*,*,#1191,.F.);
#1193=CARTESIAN_POINT('',(5.,-18.207141456,-3.7));
#1194=VERTEX_POINT('',#1193);
#1195=CARTESIAN_POINT('',(5.,-19.623009453,-3.7));
#1196=DIRECTION('',(0.,1.,0.));
#1197=VECTOR('',#1196,1.415867997);
#1198=LINE('',#1195,#1197);
#1199=EDGE_CURVE('',#1186,#1194,#1198,.T.);
#1200=ORIENTED_EDGE('',*,*,#1199,.T.);
#1201=CARTESIAN_POINT('',(5.,-18.207141456,-3.7));
#1202=DIRECTION('',(-0.,-0.,-1.));
#1203=VECTOR('',#1202,2.6);
#1204=LINE('',#1201,#1203);
#1205=EDGE_CURVE('',#1194,#802,#1204,.T.);
#1206=ORIENTED_EDGE('',*,*,#1205,.T.);
#1207=EDGE_LOOP('',(#1177,#1183,#1184,#1192,#1200,#1206));
#1208=FACE_BOUND('',#1207,.T.);
#1209=ADVANCED_FACE('',(#1208),#1176,.T.);
#1210=OVER_RIDING_STYLED_ITEM('',(#115),#1209,#26);
#1211=CARTESIAN_POINT('',(0.,0.,-3.7));
#1212=DIRECTION('',(0.,0.,1.));
#1213=DIRECTION('',(1.,0.,0.));
#1214=AXIS2_PLACEMENT_3D('',#1211,#1212,#1213);
#1215=PLANE('',#1214);
#1216=ORIENTED_EDGE('',*,*,#1165,.F.);
#1217=CARTESIAN_POINT('',(-6.25,-18.207141456,-3.7));
#1218=DIRECTION('',(0.,0.,1.));
#1219=DIRECTION('',(1.,0.,-0.));
#1220=AXIS2_PLACEMENT_3D('',#1217,#1218,#1219);
#1221=CIRCLE('',#1220,1.25);
#1222=EDGE_CURVE('',#1154,#1122,#1221,.T.);
#1223=ORIENTED_EDGE('',*,*,#1222,.T.);
#1224=ORIENTED_EDGE('',*,*,#1128,.T.);
#1225=CARTESIAN_POINT('',(5.844155844,-17.024859543,-3.7));
#1226=VERTEX_POINT('',#1225);
#1227=CARTESIAN_POINT('',(0.,0.,-3.7));
#1228=DIRECTION('',(0.,0.,-1.));
#1229=DIRECTION('',(-0.,1.,0.));
#1230=AXIS2_PLACEMENT_3D('',#1227,#1228,#1229);
#1231=CIRCLE('',#1230,18.);
#1232=EDGE_CURVE('',#1114,#1226,#1231,.T.);
#1233=ORIENTED_EDGE('',*,*,#1232,.T.);
#1234=CARTESIAN_POINT('',(6.25,-18.207141456,-3.7));
#1235=DIRECTION('',(0.,0.,1.));
#1236=DIRECTION('',(1.,0.,-0.));
#1237=AXIS2_PLACEMENT_3D('',#1234,#1235,#1236);
#1238=CIRCLE('',#1237,1.25);
#1239=EDGE_CURVE('',#1226,#1194,#1238,.T.);
#1240=ORIENTED_EDGE('',*,*,#1239,.T.);
#1241=ORIENTED_EDGE('',*,*,#1199,.F.);
#1242=CARTESIAN_POINT('',(0.,0.,-3.7));
#1243=DIRECTION('',(0.,0.,1.));
#1244=DIRECTION('',(1.,-0.,0.));
#1245=AXIS2_PLACEMENT_3D('',#1242,#1243,#1244);
#1246=CIRCLE('',#1245,20.25);
#1247=EDGE_CURVE('',#1186,#1014,#1246,.T.);
#1248=ORIENTED_EDGE('',*,*,#1247,.T.);
#1249=ORIENTED_EDGE('',*,*,#1103,.T.);
#1250=CARTESIAN_POINT('',(17.333114047,9.574265359,-3.7));
#1251=VERTEX_POINT('',#1250);
#1252=CARTESIAN_POINT('',(17.333114047,9.574265359,-3.7));
#1253=DIRECTION('',(0.866025404,0.5,0.));
#1254=VECTOR('',#1253,0.448477709);
#1255=LINE('',#1252,#1254);
#1256=EDGE_CURVE('',#1251,#1091,#1255,.T.);
#1257=ORIENTED_EDGE('',*,*,#1256,.F.);
#1258=CARTESIAN_POINT('',(16.82085452,9.711524885,-3.7));
#1259=VERTEX_POINT('',#1258);
#1260=CARTESIAN_POINT('',(17.145614047,9.899024885,-3.7));
#1261=DIRECTION('',(0.,-0.,1.));
#1262=DIRECTION('',(0.866025404,0.5,0.));
#1263=AXIS2_PLACEMENT_3D('',#1260,#1261,#1262);
#1264=CIRCLE('',#1263,0.375);
#1265=EDGE_CURVE('',#1259,#1251,#1264,.T.);
#1266=ORIENTED_EDGE('',*,*,#1265,.F.);
#1267=CARTESIAN_POINT('',(16.958114047,10.223784412,-3.7));
#1268=VERTEX_POINT('',#1267);
#1269=CARTESIAN_POINT('',(17.145614047,9.899024885,-3.7));
#1270=DIRECTION('',(0.,-0.,1.));
#1271=DIRECTION('',(0.866025404,0.5,0.));
#1272=AXIS2_PLACEMENT_3D('',#1269,#1270,#1271);
#1273=CIRCLE('',#1272,0.375);
#1274=EDGE_CURVE('',#1268,#1259,#1273,.T.);
#1275=ORIENTED_EDGE('',*,*,#1274,.F.);
#1276=CARTESIAN_POINT('',(17.346507136,10.448023266,-3.7));
#1277=DIRECTION('',(-0.866025404,-0.5,0.));
#1278=VECTOR('',#1277,0.448477709);
#1279=LINE('',#1276,#1278);
#1280=EDGE_CURVE('',#1065,#1268,#1279,.T.);
#1281=ORIENTED_EDGE('',*,*,#1280,.F.);
#1282=ORIENTED_EDGE('',*,*,#1071,.T.);
#1283=CARTESIAN_POINT('',(11.662876851,16.002521779,-3.7));
#1284=VERTEX_POINT('',#1283);
#1285=CARTESIAN_POINT('',(11.662876851,16.002521779,-3.7));
#1286=DIRECTION('',(0.573576436,0.819152044,0.));
#1287=VECTOR('',#1286,0.448477709);
#1288=LINE('',#1285,#1287);
#1289=EDGE_CURVE('',#1284,#1057,#1288,.T.);
#1290=ORIENTED_EDGE('',*,*,#1289,.F.);
#1291=CARTESIAN_POINT('',(11.14060367,15.910430926,-3.7));
#1292=VERTEX_POINT('',#1291);
#1293=CARTESIAN_POINT('',(11.355694834,16.217612943,-3.7));
#1294=DIRECTION('',(0.,-0.,1.));
#1295=DIRECTION('',(0.573576436,0.819152044,0.));
#1296=AXIS2_PLACEMENT_3D('',#1293,#1294,#1295);
#1297=CIRCLE('',#1296,0.375);
#1298=EDGE_CURVE('',#1292,#1284,#1297,.T.);
#1299=ORIENTED_EDGE('',*,*,#1298,.F.);
#1300=CARTESIAN_POINT('',(11.048512818,16.432704106,-3.7));
#1301=VERTEX_POINT('',#1300);
#1302=CARTESIAN_POINT('',(11.355694834,16.217612943,-3.7));
#1303=DIRECTION('',(0.,-0.,1.));
#1304=DIRECTION('',(0.573576436,0.819152044,0.));
#1305=AXIS2_PLACEMENT_3D('',#1302,#1303,#1304);
#1306=CIRCLE('',#1305,0.375);
#1307=EDGE_CURVE('',#1301,#1292,#1306,.T.);
#1308=ORIENTED_EDGE('',*,*,#1307,.F.);
#1309=CARTESIAN_POINT('',(11.305749064,16.800075539,-3.7));
#1310=DIRECTION('',(-0.573576436,-0.819152044,0.));
#1311=VECTOR('',#1310,0.448477709);
#1312=LINE('',#1309,#1311);
#1313=EDGE_CURVE('',#1031,#1301,#1312,.T.);
#1314=ORIENTED_EDGE('',*,*,#1313,.F.);
#1315=ORIENTED_EDGE('',*,*,#1037,.T.);
#1316=EDGE_LOOP('',(#1216,#1223,#1224,#1233,#1240,#1241,#1248,#1249,#1257,#1266,#1275,#1281,#1282,#1290,#1299,#1308,#1314,#1315));
#1317=FACE_BOUND('',#1316,.T.);
#1318=ADVANCED_FACE('',(#1317),#1215,.T.);
#1319=CARTESIAN_POINT('',(-0.060621778,-0.035,-2.7));
#1320=DIRECTION('',(0.,0.,1.));
#1321=DIRECTION('',(0.866025404,0.5,0.));
#1322=AXIS2_PLACEMENT_3D('',#1319,#1320,#1321);
#1323=PLANE('',#1322);
#1324=ORIENTED_EDGE('',*,*,#1088,.F.);
#1325=CARTESIAN_POINT('',(16.958114047,10.223784412,-2.7));
#1326=VERTEX_POINT('',#1325);
#1327=CARTESIAN_POINT('',(17.346507136,10.448023266,-2.7));
#1328=DIRECTION('',(-0.866025404,-0.5,0.));
#1329=VECTOR('',#1328,0.448477709);
#1330=LINE('',#1327,#1329);
#1331=EDGE_CURVE('',#1074,#1326,#1330,.T.);
#1332=ORIENTED_EDGE('',*,*,#1331,.T.);
#1333=CARTESIAN_POINT('',(16.82085452,9.711524885,-2.7));
#1334=VERTEX_POINT('',#1333);
#1335=CARTESIAN_POINT('',(17.145614047,9.899024885,-2.7));
#1336=DIRECTION('',(0.,0.,1.));
#1337=DIRECTION('',(1.,0.,-0.));
#1338=AXIS2_PLACEMENT_3D('',#1335,#1336,#1337);
#1339=CIRCLE('',#1338,0.375);
#1340=EDGE_CURVE('',#1326,#1334,#1339,.T.);
#1341=ORIENTED_EDGE('',*,*,#1340,.T.);
#1342=CARTESIAN_POINT('',(17.333114047,9.574265359,-2.7));
#1343=VERTEX_POINT('',#1342);
#1344=CARTESIAN_POINT('',(17.145614047,9.899024885,-2.7));
#1345=DIRECTION('',(0.,0.,1.));
#1346=DIRECTION('',(1.,0.,-0.));
#1347=AXIS2_PLACEMENT_3D('',#1344,#1345,#1346);
#1348=CIRCLE('',#1347,0.375);
#1349=EDGE_CURVE('',#1334,#1343,#1348,.T.);
#1350=ORIENTED_EDGE('',*,*,#1349,.T.);
#1351=CARTESIAN_POINT('',(17.333114047,9.574265359,-2.7));
#1352=DIRECTION('',(0.866025404,0.5,0.));
#1353=VECTOR('',#1352,0.448477709);
#1354=LINE('',#1351,#1353);
#1355=EDGE_CURVE('',#1343,#1082,#1354,.T.);
#1356=ORIENTED_EDGE('',*,*,#1355,.T.);
#1357=EDGE_LOOP('',(#1324,#1332,#1341,#1350,#1356));
#1358=FACE_BOUND('',#1357,.T.);
#1359=ADVANCED_FACE('',(#1358),#1323,.T.);
#1360=CARTESIAN_POINT('',(17.660883111,9.763502916,-3.47));
#1361=DIRECTION('',(-0.5,0.866025404,0.));
#1362=DIRECTION('',(0.,0.,1.));
#1363=AXIS2_PLACEMENT_3D('',#1360,#1361,#1362);
#1364=PLANE('',#1363);
#1365=ORIENTED_EDGE('',*,*,#1256,.T.);
#1366=ORIENTED_EDGE('',*,*,#1096,.T.);
#1367=ORIENTED_EDGE('',*,*,#1355,.F.);
#1368=CARTESIAN_POINT('',(17.333114047,9.574265359,-2.7));
#1369=DIRECTION('',(0.,0.,-1.));
#1370=VECTOR('',#1369,1.);
#1371=LINE('',#1368,#1370);
#1372=EDGE_CURVE('',#1343,#1251,#1371,.T.);
#1373=ORIENTED_EDGE('',*,*,#1372,.T.);
#1374=EDGE_LOOP('',(#1365,#1366,#1367,#1373));
#1375=FACE_BOUND('',#1374,.T.);
#1376=ADVANCED_FACE('',(#1375),#1364,.F.);
#1377=CARTESIAN_POINT('',(17.285883111,10.413021969,-3.47));
#1378=DIRECTION('',(0.5,-0.866025404,0.));
#1379=DIRECTION('',(0.,0.,-1.));
#1380=AXIS2_PLACEMENT_3D('',#1377,#1378,#1379);
#1381=PLANE('',#1380);
#1382=ORIENTED_EDGE('',*,*,#1331,.F.);
#1383=ORIENTED_EDGE('',*,*,#1079,.T.);
#1384=ORIENTED_EDGE('',*,*,#1280,.T.);
#1385=CARTESIAN_POINT('',(16.958114047,10.223784412,-2.7));
#1386=DIRECTION('',(0.,0.,-1.));
#1387=VECTOR('',#1386,1.);
#1388=LINE('',#1385,#1387);
#1389=EDGE_CURVE('',#1326,#1268,#1388,.T.);
#1390=ORIENTED_EDGE('',*,*,#1389,.F.);
#1391=EDGE_LOOP('',(#1382,#1383,#1384,#1390));
#1392=FACE_BOUND('',#1391,.T.);
#1393=ADVANCED_FACE('',(#1392),#1381,.F.);
#1394=CARTESIAN_POINT('',(17.145614047,9.899024885,-3.47));
#1395=DIRECTION('',(-0.,0.,-1.));
#1396=DIRECTION('',(-0.866025404,-0.5,0.));
#1397=AXIS2_PLACEMENT_3D('',#1394,#1395,#1396);
#1398=CYLINDRICAL_SURFACE('',#1397,0.375);
#1399=CARTESIAN_POINT('',(16.82085452,9.711524885,-3.7));
#1400=DIRECTION('',(-0.,-0.,1.));
#1401=VECTOR('',#1400,1.);
#1402=LINE('',#1399,#1401);
#1403=EDGE_CURVE('',#1259,#1334,#1402,.T.);
#1404=ORIENTED_EDGE('',*,*,#1403,.T.);
#1405=ORIENTED_EDGE('',*,*,#1340,.F.);
#1406=ORIENTED_EDGE('',*,*,#1389,.T.);
#1407=ORIENTED_EDGE('',*,*,#1274,.T.);
#1408=EDGE_LOOP('',(#1404,#1405,#1406,#1407));
#1409=FACE_BOUND('',#1408,.T.);
#1410=ADVANCED_FACE('',(#1409),#1398,.T.);
#1411=CARTESIAN_POINT('',(11.879961258,16.312550443,-3.47));
#1412=DIRECTION('',(-0.819152044,0.573576436,0.));
#1413=DIRECTION('',(0.,0.,1.));
#1414=AXIS2_PLACEMENT_3D('',#1411,#1412,#1413);
#1415=PLANE('',#1414);
#1416=ORIENTED_EDGE('',*,*,#1062,.F.);
#1417=CARTESIAN_POINT('',(11.662876851,16.002521779,-2.7));
#1418=VERTEX_POINT('',#1417);
#1419=CARTESIAN_POINT('',(11.662876851,16.002521779,-2.7));
#1420=DIRECTION('',(0.573576436,0.819152044,0.));
#1421=VECTOR('',#1420,0.448477709);
#1422=LINE('',#1419,#1421);
#1423=EDGE_CURVE('',#1418,#1048,#1422,.T.);
#1424=ORIENTED_EDGE('',*,*,#1423,.F.);
#1425=CARTESIAN_POINT('',(11.662876851,16.002521779,-2.7));
#1426=DIRECTION('',(0.,0.,-1.));
#1427=VECTOR('',#1426,1.);
#1428=LINE('',#1425,#1427);
#1429=EDGE_CURVE('',#1418,#1284,#1428,.T.);
#1430=ORIENTED_EDGE('',*,*,#1429,.T.);
#1431=ORIENTED_EDGE('',*,*,#1289,.T.);
#1432=EDGE_LOOP('',(#1416,#1424,#1430,#1431));
#1433=FACE_BOUND('',#1432,.T.);
#1434=ADVANCED_FACE('',(#1433),#1415,.F.);
#1435=CARTESIAN_POINT('',(11.265597225,16.74273277,-3.47));
#1436=DIRECTION('',(0.819152044,-0.573576436,0.));
#1437=DIRECTION('',(0.,0.,-1.));
#1438=AXIS2_PLACEMENT_3D('',#1435,#1436,#1437);
#1439=PLANE('',#1438);
#1440=ORIENTED_EDGE('',*,*,#1045,.F.);
#1441=ORIENTED_EDGE('',*,*,#1313,.T.);
#1442=CARTESIAN_POINT('',(11.048512818,16.432704106,-2.7));
#1443=VERTEX_POINT('',#1442);
#1444=CARTESIAN_POINT('',(11.048512818,16.432704106,-2.7));
#1445=DIRECTION('',(0.,0.,-1.));
#1446=VECTOR('',#1445,1.);
#1447=LINE('',#1444,#1446);
#1448=EDGE_CURVE('',#1443,#1301,#1447,.T.);
#1449=ORIENTED_EDGE('',*,*,#1448,.F.);
#1450=CARTESIAN_POINT('',(11.305749064,16.800075539,-2.7));
#1451=DIRECTION('',(-0.573576436,-0.819152044,0.));
#1452=VECTOR('',#1451,0.448477709);
#1453=LINE('',#1450,#1452);
#1454=EDGE_CURVE('',#1040,#1443,#1453,.T.);
#1455=ORIENTED_EDGE('',*,*,#1454,.F.);
#1456=EDGE_LOOP('',(#1440,#1441,#1449,#1455));
#1457=FACE_BOUND('',#1456,.T.);
#1458=ADVANCED_FACE('',(#1457),#1439,.F.);
#1459=CARTESIAN_POINT('',(-0.040150351,-0.057340643,-2.7));
#1460=DIRECTION('',(0.,0.,1.));
#1461=DIRECTION('',(0.573576436,0.819152044,0.));
#1462=AXIS2_PLACEMENT_3D('',#1459,#1460,#1461);
#1463=PLANE('',#1462);
#1464=ORIENTED_EDGE('',*,*,#1423,.T.);
#1465=ORIENTED_EDGE('',*,*,#1054,.T.);
#1466=ORIENTED_EDGE('',*,*,#1454,.T.);
#1467=CARTESIAN_POINT('',(11.14060367,15.910430926,-2.7));
#1468=VERTEX_POINT('',#1467);
#1469=CARTESIAN_POINT('',(11.355694834,16.217612943,-2.7));
#1470=DIRECTION('',(0.,0.,1.));
#1471=DIRECTION('',(1.,0.,-0.));
#1472=AXIS2_PLACEMENT_3D('',#1469,#1470,#1471);
#1473=CIRCLE('',#1472,0.375);
#1474=EDGE_CURVE('',#1443,#1468,#1473,.T.);
#1475=ORIENTED_EDGE('',*,*,#1474,.T.);
#1476=CARTESIAN_POINT('',(11.355694834,16.217612943,-2.7));
#1477=DIRECTION('',(0.,0.,1.));
#1478=DIRECTION('',(1.,0.,-0.));
#1479=AXIS2_PLACEMENT_3D('',#1476,#1477,#1478);
#1480=CIRCLE('',#1479,0.375);
#1481=EDGE_CURVE('',#1468,#1418,#1480,.T.);
#1482=ORIENTED_EDGE('',*,*,#1481,.T.);
#1483=EDGE_LOOP('',(#1464,#1465,#1466,#1475,#1482));
#1484=FACE_BOUND('',#1483,.T.);
#1485=ADVANCED_FACE('',(#1484),#1463,.T.);
#1486=CARTESIAN_POINT('',(11.355694834,16.217612943,-3.47));
#1487=DIRECTION('',(-0.,0.,-1.));
#1488=DIRECTION('',(-0.573576436,-0.819152044,0.));
#1489=AXIS2_PLACEMENT_3D('',#1486,#1487,#1488);
#1490=CYLINDRICAL_SURFACE('',#1489,0.375);
#1491=CARTESIAN_POINT('',(11.14060367,15.910430926,-3.7));
#1492=DIRECTION('',(-0.,-0.,1.));
#1493=VECTOR('',#1492,1.);
#1494=LINE('',#1491,#1493);
#1495=EDGE_CURVE('',#1292,#1468,#1494,.T.);
#1496=ORIENTED_EDGE('',*,*,#1495,.T.);
#1497=ORIENTED_EDGE('',*,*,#1474,.F.);
#1498=ORIENTED_EDGE('',*,*,#1448,.T.);
#1499=ORIENTED_EDGE('',*,*,#1307,.T.);
#1500=EDGE_LOOP('',(#1496,#1497,#1498,#1499));
#1501=FACE_BOUND('',#1500,.T.);
#1502=ADVANCED_FACE('',(#1501),#1490,.T.);
#1503=CARTESIAN_POINT('',(6.25,-18.207141456,-4.9));
#1504=DIRECTION('',(0.,0.,1.));
#1505=DIRECTION('',(1.,0.,-0.));
#1506=AXIS2_PLACEMENT_3D('',#1503,#1504,#1505);
#1507=CYLINDRICAL_SURFACE('',#1506,1.25);
#1508=ORIENTED_EDGE('',*,*,#1239,.F.);
#1509=CARTESIAN_POINT('',(5.844155844,-17.024859543,-6.3));
#1510=DIRECTION('',(0.,0.,1.));
#1511=VECTOR('',#1510,2.6);
#1512=LINE('',#1509,#1511);
#1513=EDGE_CURVE('',#810,#1226,#1512,.T.);
#1514=ORIENTED_EDGE('',*,*,#1513,.F.);
#1515=ORIENTED_EDGE('',*,*,#816,.F.);
#1516=ORIENTED_EDGE('',*,*,#1205,.F.);
#1517=EDGE_LOOP('',(#1508,#1514,#1515,#1516));
#1518=FACE_BOUND('',#1517,.T.);
#1519=ADVANCED_FACE('',(#1518),#1507,.T.);
#1520=CARTESIAN_POINT('',(-6.25,-18.207141456,-4.9));
#1521=DIRECTION('',(0.,0.,1.));
#1522=DIRECTION('',(1.,0.,-0.));
#1523=AXIS2_PLACEMENT_3D('',#1520,#1521,#1522);
#1524=CYLINDRICAL_SURFACE('',#1523,1.25);
#1525=ORIENTED_EDGE('',*,*,#1222,.F.);
#1526=ORIENTED_EDGE('',*,*,#1159,.F.);
#1527=ORIENTED_EDGE('',*,*,#843,.F.);
#1528=ORIENTED_EDGE('',*,*,#1134,.F.);
#1529=EDGE_LOOP('',(#1525,#1526,#1527,#1528));
#1530=FACE_BOUND('',#1529,.T.);
#1531=ADVANCED_FACE('',(#1530),#1524,.T.);
#1532=CARTESIAN_POINT('',(-17.161522422,16.017420927,-2.));
#1533=DIRECTION('',(0.,0.,-1.));
#1534=DIRECTION('',(-1.,0.,0.));
#1535=AXIS2_PLACEMENT_3D('',#1532,#1533,#1534);
#1536=CYLINDRICAL_SURFACE('',#1535,1.625);
#1537=CARTESIAN_POINT('',(-18.786522422,16.017420927,-6.1));
#1538=VERTEX_POINT('',#1537);
#1539=CARTESIAN_POINT('',(-18.786522422,16.017420927,-3.082842712));
#1540=VERTEX_POINT('',#1539);
#1541=CARTESIAN_POINT('',(-18.786522422,16.017420927,-6.1));
#1542=DIRECTION('',(-0.,-0.,1.));
#1543=VECTOR('',#1542,3.017157288);
#1544=LINE('',#1541,#1543);
#1545=EDGE_CURVE('',#1538,#1540,#1544,.T.);
#1546=ORIENTED_EDGE('',*,*,#1545,.F.);
#1547=CARTESIAN_POINT('',(-17.161522422,16.017420927,-6.1));
#1548=DIRECTION('',(-0.,-0.,1.));
#1549=DIRECTION('',(-1.,0.,0.));
#1550=AXIS2_PLACEMENT_3D('',#1547,#1548,#1549);
#1551=CIRCLE('',#1550,1.625);
#1552=EDGE_CURVE('',#1538,#1538,#1551,.T.);
#1553=ORIENTED_EDGE('',*,*,#1552,.F.);
#1554=ORIENTED_EDGE('',*,*,#1545,.T.);
#1555=CARTESIAN_POINT('',(-15.536522422,16.017420927,-3.082842712));
#1556=VERTEX_POINT('',#1555);
#1557=CARTESIAN_POINT('',(-17.161522422,16.017420927,-3.082842712));
#1558=DIRECTION('',(0.,0.,1.));
#1559=DIRECTION('',(1.,0.,-0.));
#1560=AXIS2_PLACEMENT_3D('',#1557,#1558,#1559);
#1561=CIRCLE('',#1560,1.625);
#1562=EDGE_CURVE('',#1540,#1556,#1561,.T.);
#1563=ORIENTED_EDGE('',*,*,#1562,.T.);
#1564=CARTESIAN_POINT('',(-17.161522422,16.017420927,-3.082842712));
#1565=DIRECTION('',(0.,0.,1.));
#1566=DIRECTION('',(1.,0.,-0.));
#1567=AXIS2_PLACEMENT_3D('',#1564,#1565,#1566);
#1568=CIRCLE('',#1567,1.625);
#1569=EDGE_CURVE('',#1556,#1540,#1568,.T.);
#1570=ORIENTED_EDGE('',*,*,#1569,.T.);
#1571=EDGE_LOOP('',(#1546,#1553,#1554,#1563,#1570));
#1572=FACE_BOUND('',#1571,.T.);
#1573=ADVANCED_FACE('',(#1572),#1536,.F.);
#1574=CARTESIAN_POINT('',(0.,0.,-6.1));
#1575=DIRECTION('',(0.,0.,-1.));
#1576=DIRECTION('',(0.,-1.,0.));
#1577=AXIS2_PLACEMENT_3D('',#1574,#1575,#1576);
#1578=PLANE('',#1577);
#1579=ORIENTED_EDGE('',*,*,#1552,.T.);
#1580=EDGE_LOOP('',(#1579));
#1581=FACE_BOUND('',#1580,.T.);
#1582=ADVANCED_FACE('',(#1581),#1578,.F.);
#1583=CARTESIAN_POINT('',(17.161522422,-16.017420927,-2.));
#1584=DIRECTION('',(0.,0.,-1.));
#1585=DIRECTION('',(1.,0.,0.));
#1586=AXIS2_PLACEMENT_3D('',#1583,#1584,#1585);
#1587=CYLINDRICAL_SURFACE('',#1586,1.625);
#1588=CARTESIAN_POINT('',(18.786522422,-16.017420927,-6.1));
#1589=VERTEX_POINT('',#1588);
#1590=CARTESIAN_POINT('',(18.786522422,-16.017420927,-3.082842712));
#1591=VERTEX_POINT('',#1590);
#1592=CARTESIAN_POINT('',(18.786522422,-16.017420927,-6.1));
#1593=DIRECTION('',(-0.,-0.,1.));
#1594=VECTOR('',#1593,3.017157288);
#1595=LINE('',#1592,#1594);
#1596=EDGE_CURVE('',#1589,#1591,#1595,.T.);
#1597=ORIENTED_EDGE('',*,*,#1596,.F.);
#1598=CARTESIAN_POINT('',(15.536522422,-16.017420927,-6.1));
#1599=VERTEX_POINT('',#1598);
#1600=CARTESIAN_POINT('',(17.161522422,-16.017420927,-6.1));
#1601=DIRECTION('',(-0.,-0.,1.));
#1602=DIRECTION('',(-1.,0.,0.));
#1603=AXIS2_PLACEMENT_3D('',#1600,#1601,#1602);
#1604=CIRCLE('',#1603,1.625);
#1605=EDGE_CURVE('',#1599,#1589,#1604,.T.);
#1606=ORIENTED_EDGE('',*,*,#1605,.F.);
#1607=CARTESIAN_POINT('',(17.161522422,-16.017420927,-6.1));
#1608=DIRECTION('',(-0.,-0.,1.));
#1609=DIRECTION('',(-1.,0.,0.));
#1610=AXIS2_PLACEMENT_3D('',#1607,#1608,#1609);
#1611=CIRCLE('',#1610,1.625);
#1612=EDGE_CURVE('',#1589,#1599,#1611,.T.);
#1613=ORIENTED_EDGE('',*,*,#1612,.F.);
#1614=ORIENTED_EDGE('',*,*,#1596,.T.);
#1615=CARTESIAN_POINT('',(17.161522422,-16.017420927,-3.082842712));
#1616=DIRECTION('',(0.,0.,1.));
#1617=DIRECTION('',(1.,0.,-0.));
#1618=AXIS2_PLACEMENT_3D('',#1615,#1616,#1617);
#1619=CIRCLE('',#1618,1.625);
#1620=EDGE_CURVE('',#1591,#1591,#1619,.T.);
#1621=ORIENTED_EDGE('',*,*,#1620,.T.);
#1622=EDGE_LOOP('',(#1597,#1606,#1613,#1614,#1621));
#1623=FACE_BOUND('',#1622,.T.);
#1624=ADVANCED_FACE('',(#1623),#1587,.F.);
#1625=CARTESIAN_POINT('',(0.,0.,-6.1));
#1626=DIRECTION('',(0.,0.,-1.));
#1627=DIRECTION('',(0.,1.,0.));
#1628=AXIS2_PLACEMENT_3D('',#1625,#1626,#1627);
#1629=PLANE('',#1628);
#1630=ORIENTED_EDGE('',*,*,#1605,.T.);
#1631=ORIENTED_EDGE('',*,*,#1612,.T.);
#1632=EDGE_LOOP('',(#1630,#1631));
#1633=FACE_BOUND('',#1632,.T.);
#1634=ADVANCED_FACE('',(#1633),#1629,.F.);
#1635=CARTESIAN_POINT('',(-17.161522422,-16.017420927,-2.));
#1636=DIRECTION('',(0.,0.,-1.));
#1637=DIRECTION('',(-1.,0.,0.));
#1638=AXIS2_PLACEMENT_3D('',#1635,#1636,#1637);
#1639=CYLINDRICAL_SURFACE('',#1638,1.625);
#1640=CARTESIAN_POINT('',(-18.786522422,-16.017420927,-6.1));
#1641=VERTEX_POINT('',#1640);
#1642=CARTESIAN_POINT('',(-18.786522422,-16.017420927,-3.082842712));
#1643=VERTEX_POINT('',#1642);
#1644=CARTESIAN_POINT('',(-18.786522422,-16.017420927,-6.1));
#1645=DIRECTION('',(-0.,-0.,1.));
#1646=VECTOR('',#1645,3.017157288);
#1647=LINE('',#1644,#1646);
#1648=EDGE_CURVE('',#1641,#1643,#1647,.T.);
#1649=ORIENTED_EDGE('',*,*,#1648,.F.);
#1650=CARTESIAN_POINT('',(-17.161522422,-16.017420927,-6.1));
#1651=DIRECTION('',(0.,0.,-1.));
#1652=DIRECTION('',(-1.,0.,0.));
#1653=AXIS2_PLACEMENT_3D('',#1650,#1651,#1652);
#1654=CIRCLE('',#1653,1.625);
#1655=EDGE_CURVE('',#1641,#1641,#1654,.T.);
#1656=ORIENTED_EDGE('',*,*,#1655,.T.);
#1657=ORIENTED_EDGE('',*,*,#1648,.T.);
#1658=CARTESIAN_POINT('',(-15.536522422,-16.017420927,-3.082842712));
#1659=VERTEX_POINT('',#1658);
#1660=CARTESIAN_POINT('',(-17.161522422,-16.017420927,-3.082842712));
#1661=DIRECTION('',(0.,0.,1.));
#1662=DIRECTION('',(1.,0.,-0.));
#1663=AXIS2_PLACEMENT_3D('',#1660,#1661,#1662);
#1664=CIRCLE('',#1663,1.625);
#1665=EDGE_CURVE('',#1643,#1659,#1664,.T.);
#1666=ORIENTED_EDGE('',*,*,#1665,.T.);
#1667=CARTESIAN_POINT('',(-17.161522422,-16.017420927,-3.082842712));
#1668=DIRECTION('',(0.,0.,1.));
#1669=DIRECTION('',(1.,0.,-0.));
#1670=AXIS2_PLACEMENT_3D('',#1667,#1668,#1669);
#1671=CIRCLE('',#1670,1.625);
#1672=EDGE_CURVE('',#1659,#1643,#1671,.T.);
#1673=ORIENTED_EDGE('',*,*,#1672,.T.);
#1674=EDGE_LOOP('',(#1649,#1656,#1657,#1666,#1673));
#1675=FACE_BOUND('',#1674,.T.);
#1676=ADVANCED_FACE('',(#1675),#1639,.F.);
#1677=CARTESIAN_POINT('',(0.,0.,-6.1));
#1678=DIRECTION('',(0.,0.,-1.));
#1679=DIRECTION('',(0.,1.,0.));
#1680=AXIS2_PLACEMENT_3D('',#1677,#1678,#1679);
#1681=PLANE('',#1680);
#1682=ORIENTED_EDGE('',*,*,#1655,.F.);
#1683=EDGE_LOOP('',(#1682));
#1684=FACE_BOUND('',#1683,.T.);
#1685=ADVANCED_FACE('',(#1684),#1681,.F.);
#1686=CARTESIAN_POINT('',(17.161522422,16.017420927,-2.));
#1687=DIRECTION('',(0.,0.,-1.));
#1688=DIRECTION('',(1.,0.,0.));
#1689=AXIS2_PLACEMENT_3D('',#1686,#1687,#1688);
#1690=CYLINDRICAL_SURFACE('',#1689,1.625);
#1691=CARTESIAN_POINT('',(18.786522422,16.017420927,-6.1));
#1692=VERTEX_POINT('',#1691);
#1693=CARTESIAN_POINT('',(18.786522422,16.017420927,-3.082842712));
#1694=VERTEX_POINT('',#1693);
#1695=CARTESIAN_POINT('',(18.786522422,16.017420927,-6.1));
#1696=DIRECTION('',(-0.,-0.,1.));
#1697=VECTOR('',#1696,3.017157288);
#1698=LINE('',#1695,#1697);
#1699=EDGE_CURVE('',#1692,#1694,#1698,.T.);
#1700=ORIENTED_EDGE('',*,*,#1699,.F.);
#1701=CARTESIAN_POINT('',(15.536522422,16.017420927,-6.1));
#1702=VERTEX_POINT('',#1701);
#1703=CARTESIAN_POINT('',(17.161522422,16.017420927,-6.1));
#1704=DIRECTION('',(0.,0.,-1.));
#1705=DIRECTION('',(-1.,0.,0.));
#1706=AXIS2_PLACEMENT_3D('',#1703,#1704,#1705);
#1707=CIRCLE('',#1706,1.625);
#1708=EDGE_CURVE('',#1692,#1702,#1707,.T.);
#1709=ORIENTED_EDGE('',*,*,#1708,.T.);
#1710=CARTESIAN_POINT('',(17.161522422,16.017420927,-6.1));
#1711=DIRECTION('',(0.,0.,-1.));
#1712=DIRECTION('',(-1.,0.,0.));
#1713=AXIS2_PLACEMENT_3D('',#1710,#1711,#1712);
#1714=CIRCLE('',#1713,1.625);
#1715=EDGE_CURVE('',#1702,#1692,#1714,.T.);
#1716=ORIENTED_EDGE('',*,*,#1715,.T.);
#1717=ORIENTED_EDGE('',*,*,#1699,.T.);
#1718=CARTESIAN_POINT('',(17.161522422,16.017420927,-3.082842712));
#1719=DIRECTION('',(0.,0.,1.));
#1720=DIRECTION('',(1.,0.,-0.));
#1721=AXIS2_PLACEMENT_3D('',#1718,#1719,#1720);
#1722=CIRCLE('',#1721,1.625);
#1723=EDGE_CURVE('',#1694,#1694,#1722,.T.);
#1724=ORIENTED_EDGE('',*,*,#1723,.T.);
#1725=EDGE_LOOP('',(#1700,#1709,#1716,#1717,#1724));
#1726=FACE_BOUND('',#1725,.T.);
#1727=ADVANCED_FACE('',(#1726),#1690,.F.);
#1728=CARTESIAN_POINT('',(0.,0.,-6.1));
#1729=DIRECTION('',(0.,0.,-1.));
#1730=DIRECTION('',(0.,-1.,0.));
#1731=AXIS2_PLACEMENT_3D('',#1728,#1729,#1730);
#1732=PLANE('',#1731);
#1733=ORIENTED_EDGE('',*,*,#1708,.F.);
#1734=ORIENTED_EDGE('',*,*,#1715,.F.);
#1735=EDGE_LOOP('',(#1733,#1734));
#1736=FACE_BOUND('',#1735,.T.);
#1737=ADVANCED_FACE('',(#1736),#1732,.F.);
#1738=CARTESIAN_POINT('',(-17.161522422,-16.017420927,-2.941421356));
#1739=DIRECTION('',(0.,0.,1.));
#1740=DIRECTION('',(1.,0.,-0.));
#1741=AXIS2_PLACEMENT_3D('',#1738,#1739,#1740);
#1742=CONICAL_SURFACE('',#1741,1.766421356,45.);
#1743=CARTESIAN_POINT('',(-14.95367971,-16.017420927,-2.5));
#1744=DIRECTION('',(-0.707106781,-0.,-0.707106781));
#1745=VECTOR('',#1744,0.824264069);
#1746=LINE('',#1743,#1745);
#1747=EDGE_CURVE('',#125,#1659,#1746,.T.);
#1748=ORIENTED_EDGE('',*,*,#1747,.F.);
#1749=ORIENTED_EDGE('',*,*,#131,.F.);
#1750=ORIENTED_EDGE('',*,*,#138,.F.);
#1751=ORIENTED_EDGE('',*,*,#1747,.T.);
#1752=ORIENTED_EDGE('',*,*,#1665,.F.);
#1753=ORIENTED_EDGE('',*,*,#1672,.F.);
#1754=EDGE_LOOP('',(#1748,#1749,#1750,#1751,#1752,#1753));
#1755=FACE_BOUND('',#1754,.T.);
#1756=ADVANCED_FACE('',(#1755),#1742,.F.);
#1757=CARTESIAN_POINT('',(17.161522422,16.017420927,-2.941421356));
#1758=DIRECTION('',(0.,0.,1.));
#1759=DIRECTION('',(1.,0.,-0.));
#1760=AXIS2_PLACEMENT_3D('',#1757,#1758,#1759);
#1761=CONICAL_SURFACE('',#1760,1.766421356,45.);
#1762=CARTESIAN_POINT('',(19.369365134,16.017420927,-2.5));
#1763=DIRECTION('',(-0.707106781,-0.,-0.707106781));
#1764=VECTOR('',#1763,0.824264069);
#1765=LINE('',#1762,#1764);
#1766=EDGE_CURVE('',#145,#1694,#1765,.T.);
#1767=ORIENTED_EDGE('',*,*,#1766,.F.);
#1768=ORIENTED_EDGE('',*,*,#151,.F.);
#1769=ORIENTED_EDGE('',*,*,#158,.F.);
#1770=ORIENTED_EDGE('',*,*,#1766,.T.);
#1771=ORIENTED_EDGE('',*,*,#1723,.F.);
#1772=EDGE_LOOP('',(#1767,#1768,#1769,#1770,#1771));
#1773=FACE_BOUND('',#1772,.T.);
#1774=ADVANCED_FACE('',(#1773),#1761,.F.);
#1775=CARTESIAN_POINT('',(17.161522422,-16.017420927,-2.441421356));
#1776=DIRECTION('',(0.,0.,1.));
#1777=DIRECTION('',(1.,0.,-0.));
#1778=AXIS2_PLACEMENT_3D('',#1775,#1776,#1777);
#1779=CONICAL_SURFACE('',#1778,2.266421356,45.);
#1780=CARTESIAN_POINT('',(19.369365134,-16.017420927,-2.5));
#1781=DIRECTION('',(-0.707106781,-0.,-0.707106781));
#1782=VECTOR('',#1781,0.824264069);
#1783=LINE('',#1780,#1782);
#1784=EDGE_CURVE('',#165,#1591,#1783,.T.);
#1785=ORIENTED_EDGE('',*,*,#1784,.F.);
#1786=ORIENTED_EDGE('',*,*,#171,.F.);
#1787=ORIENTED_EDGE('',*,*,#178,.F.);
#1788=ORIENTED_EDGE('',*,*,#1784,.T.);
#1789=ORIENTED_EDGE('',*,*,#1620,.F.);
#1790=EDGE_LOOP('',(#1785,#1786,#1787,#1788,#1789));
#1791=FACE_BOUND('',#1790,.T.);
#1792=ADVANCED_FACE('',(#1791),#1779,.F.);
#1793=CARTESIAN_POINT('',(-17.161522422,16.017420927,-2.441421356));
#1794=DIRECTION('',(0.,0.,1.));
#1795=DIRECTION('',(1.,0.,-0.));
#1796=AXIS2_PLACEMENT_3D('',#1793,#1794,#1795);
#1797=CONICAL_SURFACE('',#1796,2.266421356,45.);
#1798=CARTESIAN_POINT('',(-14.95367971,16.017420927,-2.5));
#1799=DIRECTION('',(-0.707106781,-0.,-0.707106781));
#1800=VECTOR('',#1799,0.824264069);
#1801=LINE('',#1798,#1800);
#1802=EDGE_CURVE('',#185,#1556,#1801,.T.);
#1803=ORIENTED_EDGE('',*,*,#1802,.F.);
#1804=ORIENTED_EDGE('',*,*,#191,.F.);
#1805=ORIENTED_EDGE('',*,*,#198,.F.);
#1806=ORIENTED_EDGE('',*,*,#1802,.T.);
#1807=ORIENTED_EDGE('',*,*,#1562,.F.);
#1808=ORIENTED_EDGE('',*,*,#1569,.F.);
#1809=EDGE_LOOP('',(#1803,#1804,#1805,#1806,#1807,#1808));
#1810=FACE_BOUND('',#1809,.T.);
#1811=ADVANCED_FACE('',(#1810),#1797,.F.);
#1812=CARTESIAN_POINT('',(24.164787949,-11.704081484,-3.7));
#1813=DIRECTION('',(0.,0.,-1.));
#1814=DIRECTION('',(-1.,0.,0.));
#1815=AXIS2_PLACEMENT_3D('',#1812,#1813,#1814);
#1816=CYLINDRICAL_SURFACE('',#1815,5.);
#1817=CARTESIAN_POINT('',(19.164787949,-11.704081484,-7.3));
#1818=DIRECTION('',(-0.,-0.,1.));
#1819=VECTOR('',#1818,4.8);
#1820=LINE('',#1817,#1819);
#1821=EDGE_CURVE('',#643,#289,#1820,.T.);
#1822=ORIENTED_EDGE('',*,*,#1821,.F.);
#1823=ORIENTED_EDGE('',*,*,#649,.T.);
#1824=CARTESIAN_POINT('',(19.664827437,-9.524550482,-2.5));
#1825=DIRECTION('',(-0.,-0.,-1.));
#1826=VECTOR('',#1825,4.8);
#1827=LINE('',#1824,#1826);
#1828=EDGE_CURVE('',#298,#634,#1827,.T.);
#1829=ORIENTED_EDGE('',*,*,#1828,.F.);
#1830=ORIENTED_EDGE('',*,*,#304,.F.);
#1831=EDGE_LOOP('',(#1822,#1823,#1829,#1830));
#1832=FACE_BOUND('',#1831,.T.);
#1833=ADVANCED_FACE('',(#1832),#1816,.F.);
#1834=CARTESIAN_POINT('',(24.164787949,11.704081484,-3.7));
#1835=DIRECTION('',(0.,0.,1.));
#1836=DIRECTION('',(1.,0.,-0.));
#1837=AXIS2_PLACEMENT_3D('',#1834,#1835,#1836);
#1838=CYLINDRICAL_SURFACE('',#1837,5.);
#1839=ORIENTED_EDGE('',*,*,#331,.F.);
#1840=ORIENTED_EDGE('',*,*,#936,.F.);
#1841=ORIENTED_EDGE('',*,*,#622,.T.);
#1842=ORIENTED_EDGE('',*,*,#1002,.F.);
#1843=EDGE_LOOP('',(#1839,#1840,#1841,#1842));
#1844=FACE_BOUND('',#1843,.T.);
#1845=ADVANCED_FACE('',(#1844),#1838,.F.);
#1846=CARTESIAN_POINT('',(-24.164787949,-11.704081484,-3.7));
#1847=DIRECTION('',(0.,0.,1.));
#1848=DIRECTION('',(1.,0.,-0.));
#1849=AXIS2_PLACEMENT_3D('',#1846,#1847,#1848);
#1850=CYLINDRICAL_SURFACE('',#1849,5.);
#1851=CARTESIAN_POINT('',(-19.164787949,-11.704081484,-2.5));
#1852=DIRECTION('',(-0.,-0.,-1.));
#1853=VECTOR('',#1852,4.8);
#1854=LINE('',#1851,#1853);
#1855=EDGE_CURVE('',#415,#517,#1854,.T.);
#1856=ORIENTED_EDGE('',*,*,#1855,.F.);
#1857=ORIENTED_EDGE('',*,*,#421,.F.);
#1858=ORIENTED_EDGE('',*,*,#958,.F.);
#1859=ORIENTED_EDGE('',*,*,#532,.T.);
#1860=EDGE_LOOP('',(#1856,#1857,#1858,#1859));
#1861=FACE_BOUND('',#1860,.T.);
#1862=ADVANCED_FACE('',(#1861),#1850,.F.);
#1863=CARTESIAN_POINT('',(-24.164787949,11.704081484,-3.7));
#1864=DIRECTION('',(0.,0.,-1.));
#1865=DIRECTION('',(-1.,0.,0.));
#1866=AXIS2_PLACEMENT_3D('',#1863,#1864,#1865);
#1867=CYLINDRICAL_SURFACE('',#1866,5.);
#1868=CARTESIAN_POINT('',(-19.907483683,14.326172328,-7.3));
#1869=DIRECTION('',(-0.,-0.,1.));
#1870=VECTOR('',#1869,4.8);
#1871=LINE('',#1868,#1870);
#1872=EDGE_CURVE('',#544,#388,#1871,.T.);
#1873=ORIENTED_EDGE('',*,*,#1872,.F.);
#1874=ORIENTED_EDGE('',*,*,#550,.T.);
#1875=ORIENTED_EDGE('',*,*,#951,.F.);
#1876=ORIENTED_EDGE('',*,*,#403,.F.);
#1877=EDGE_LOOP('',(#1873,#1874,#1875,#1876));
#1878=FACE_BOUND('',#1877,.T.);
#1879=ADVANCED_FACE('',(#1878),#1867,.F.);
#1880=CARTESIAN_POINT('',(-13.340838656,23.301170013,-3.7));
#1881=DIRECTION('',(0.,0.,1.));
#1882=DIRECTION('',(1.,0.,-0.));
#1883=AXIS2_PLACEMENT_3D('',#1880,#1881,#1882);
#1884=CYLINDRICAL_SURFACE('',#1883,5.);
#1885=ORIENTED_EDGE('',*,*,#376,.F.);
#1886=ORIENTED_EDGE('',*,*,#914,.F.);
#1887=ORIENTED_EDGE('',*,*,#577,.T.);
#1888=ORIENTED_EDGE('',*,*,#980,.F.);
#1889=EDGE_LOOP('',(#1885,#1886,#1887,#1888));
#1890=FACE_BOUND('',#1889,.T.);
#1891=ADVANCED_FACE('',(#1890),#1884,.F.);
#1892=CARTESIAN_POINT('',(13.340838656,23.301170013,-3.7));
#1893=DIRECTION('',(0.,0.,-1.));
#1894=DIRECTION('',(-1.,0.,0.));
#1895=AXIS2_PLACEMENT_3D('',#1892,#1893,#1894);
#1896=CYLINDRICAL_SURFACE('',#1895,5.);
#1897=CARTESIAN_POINT('',(15.663442766,18.873359025,-7.3));
#1898=DIRECTION('',(-0.,-0.,1.));
#1899=VECTOR('',#1898,4.8);
#1900=LINE('',#1897,#1899);
#1901=EDGE_CURVE('',#589,#343,#1900,.T.);
#1902=ORIENTED_EDGE('',*,*,#1901,.F.);
#1903=ORIENTED_EDGE('',*,*,#595,.T.);
#1904=ORIENTED_EDGE('',*,*,#907,.F.);
#1905=ORIENTED_EDGE('',*,*,#358,.F.);
#1906=EDGE_LOOP('',(#1902,#1903,#1904,#1905));
#1907=FACE_BOUND('',#1906,.T.);
#1908=ADVANCED_FACE('',(#1907),#1896,.F.);
#1909=CARTESIAN_POINT('',(-4.6,-21.2702,-6.1));
#1910=DIRECTION('',(0.,-1.,0.));
#1911=DIRECTION('',(0.,0.,1.));
#1912=AXIS2_PLACEMENT_3D('',#1909,#1910,#1911);
#1913=PLANE('',#1912);
#1914=ORIENTED_EDGE('',*,*,#269,.F.);
#1915=CARTESIAN_POINT('',(6.25,-21.2702,-2.5));
#1916=DIRECTION('',(0.,0.,-1.));
#1917=VECTOR('',#1916,3.8);
#1918=LINE('',#1915,#1917);
#1919=EDGE_CURVE('',#255,#785,#1918,.T.);
#1920=ORIENTED_EDGE('',*,*,#1919,.T.);
#1921=ORIENTED_EDGE('',*,*,#790,.T.);
#1922=ORIENTED_EDGE('',*,*,#690,.F.);
#1923=EDGE_LOOP('',(#1914,#1920,#1921,#1922));
#1924=FACE_BOUND('',#1923,.T.);
#1925=ADVANCED_FACE('',(#1924),#1913,.T.);
#1926=OVER_RIDING_STYLED_ITEM('',(#115),#1925,#26);
#1927=CARTESIAN_POINT('',(-4.6,-39.7702,-6.1));
#1928=DIRECTION('',(-0.,1.,0.));
#1929=DIRECTION('',(0.,0.,-1.));
#1930=AXIS2_PLACEMENT_3D('',#1927,#1928,#1929);
#1931=PLANE('',#1930);
#1932=ORIENTED_EDGE('',*,*,#40,.F.);
#1933=CARTESIAN_POINT('',(20.097749695,-39.7702,-2.5));
#1934=DIRECTION('',(-0.,-0.,-1.));
#1935=VECTOR('',#1934,3.8);
#1936=LINE('',#1933,#1935);
#1937=EDGE_CURVE('',#33,#879,#1936,.T.);
#1938=ORIENTED_EDGE('',*,*,#1937,.T.);
#1939=ORIENTED_EDGE('',*,*,#884,.T.);
#1940=CARTESIAN_POINT('',(-20.097749695,-39.7702,-6.3));
#1941=DIRECTION('',(0.,0.,1.));
#1942=VECTOR('',#1941,3.8);
#1943=LINE('',#1940,#1942);
#1944=EDGE_CURVE('',#870,#35,#1943,.T.);
#1945=ORIENTED_EDGE('',*,*,#1944,.T.);
#1946=EDGE_LOOP('',(#1932,#1938,#1939,#1945));
#1947=FACE_BOUND('',#1946,.T.);
#1948=ADVANCED_FACE('',(#1947),#1931,.T.);
#1949=OVER_RIDING_STYLED_ITEM('',(#115),#1948,#26);
#1950=CARTESIAN_POINT('',(-20.3865,-30.5202,-116.5));
#1951=DIRECTION('',(1.,0.,0.));
#1952=DIRECTION('',(0.,0.,1.));
#1953=AXIS2_PLACEMENT_3D('',#1950,#1951,#1952);
#1954=PLANE('',#1953);
#1955=CARTESIAN_POINT('',(-20.3865,-38.5202,-7.3));
#1956=DIRECTION('',(0.,0.,1.));
#1957=VECTOR('',#1956,1.);
#1958=LINE('',#1955,#1957);
#1959=EDGE_CURVE('',#483,#862,#1958,.T.);
#1960=ORIENTED_EDGE('',*,*,#1959,.T.);
#1961=ORIENTED_EDGE('',*,*,#867,.T.);
#1962=ORIENTED_EDGE('',*,*,#104,.T.);
#1963=ORIENTED_EDGE('',*,*,#208,.T.);
#1964=CARTESIAN_POINT('',(-20.3865,-19.6702,-7.3));
#1965=DIRECTION('',(0.,0.,1.));
#1966=VECTOR('',#1965,4.8);
#1967=LINE('',#1964,#1966);
#1968=EDGE_CURVE('',#492,#203,#1967,.T.);
#1969=ORIENTED_EDGE('',*,*,#1968,.F.);
#1970=ORIENTED_EDGE('',*,*,#497,.F.);
#1971=EDGE_LOOP('',(#1960,#1961,#1962,#1963,#1969,#1970));
#1972=FACE_BOUND('',#1971,.T.);
#1973=ADVANCED_FACE('',(#1972),#1954,.F.);
#1974=OVER_RIDING_STYLED_ITEM('',(#115),#1973,#26);
#1975=CARTESIAN_POINT('',(-20.386522433,-28.693810464,-7.3));
#1976=DIRECTION('',(-1.,0.,0.));
#1977=DIRECTION('',(0.,0.,1.));
#1978=AXIS2_PLACEMENT_3D('',#1975,#1976,#1977);
#1979=PLANE('',#1978);
#1980=ORIENTED_EDGE('',*,*,#445,.F.);
#1981=ORIENTED_EDGE('',*,*,#767,.F.);
#1982=ORIENTED_EDGE('',*,*,#505,.T.);
#1983=ORIENTED_EDGE('',*,*,#1968,.T.);
#1984=EDGE_LOOP('',(#1980,#1981,#1982,#1983));
#1985=FACE_BOUND('',#1984,.T.);
#1986=ADVANCED_FACE('',(#1985),#1979,.T.);
#1987=CARTESIAN_POINT('',(-17.5365,-38.5202,-12.2));
#1988=DIRECTION('',(0.,0.,1.));
#1989=DIRECTION('',(1.,0.,-0.));
#1990=AXIS2_PLACEMENT_3D('',#1987,#1988,#1989);
#1991=CYLINDRICAL_SURFACE('',#1990,2.85);
#1992=ORIENTED_EDGE('',*,*,#876,.F.);
#1993=ORIENTED_EDGE('',*,*,#1959,.F.);
#1994=ORIENTED_EDGE('',*,*,#489,.F.);
#1995=ORIENTED_EDGE('',*,*,#734,.T.);
#1996=ORIENTED_EDGE('',*,*,#49,.F.);
#1997=ORIENTED_EDGE('',*,*,#1944,.F.);
#1998=EDGE_LOOP('',(#1992,#1993,#1994,#1995,#1996,#1997));
#1999=FACE_BOUND('',#1998,.T.);
#2000=ADVANCED_FACE('',(#1999),#1991,.T.);
#2001=CARTESIAN_POINT('',(17.5365,-38.5202,-9.2));
#2002=DIRECTION('',(0.,0.,1.));
#2003=DIRECTION('',(1.,0.,-0.));
#2004=AXIS2_PLACEMENT_3D('',#2001,#2002,#2003);
#2005=CYLINDRICAL_SURFACE('',#2004,2.85);
#2006=ORIENTED_EDGE('',*,*,#1937,.F.);
#2007=ORIENTED_EDGE('',*,*,#64,.F.);
#2008=ORIENTED_EDGE('',*,*,#727,.F.);
#2009=ORIENTED_EDGE('',*,*,#472,.F.);
#2010=ORIENTED_EDGE('',*,*,#704,.T.);
#2011=ORIENTED_EDGE('',*,*,#891,.T.);
#2012=EDGE_LOOP('',(#2006,#2007,#2008,#2009,#2010,#2011));
#2013=FACE_BOUND('',#2012,.T.);
#2014=ADVANCED_FACE('',(#2013),#2005,.T.);
#2015=CARTESIAN_POINT('',(6.25,-20.0202,-6.1));
#2016=DIRECTION('',(0.,0.,-1.));
#2017=DIRECTION('',(-1.,0.,0.));
#2018=AXIS2_PLACEMENT_3D('',#2015,#2016,#2017);
#2019=CYLINDRICAL_SURFACE('',#2018,1.25);
#2020=ORIENTED_EDGE('',*,*,#799,.F.);
#2021=ORIENTED_EDGE('',*,*,#1919,.F.);
#2022=ORIENTED_EDGE('',*,*,#261,.F.);
#2023=ORIENTED_EDGE('',*,*,#1182,.F.);
#2024=EDGE_LOOP('',(#2020,#2021,#2022,#2023));
#2025=FACE_BOUND('',#2024,.T.);
#2026=ADVANCED_FACE('',(#2025),#2019,.T.);
#2027=CARTESIAN_POINT('',(-6.25,-20.0202,-6.1));
#2028=DIRECTION('',(0.,0.,1.));
#2029=DIRECTION('',(1.,0.,-0.));
#2030=AXIS2_PLACEMENT_3D('',#2027,#2028,#2029);
#2031=CYLINDRICAL_SURFACE('',#2030,1.25);
#2032=ORIENTED_EDGE('',*,*,#858,.F.);
#2033=ORIENTED_EDGE('',*,*,#1150,.F.);
#2034=ORIENTED_EDGE('',*,*,#218,.F.);
#2035=ORIENTED_EDGE('',*,*,#90,.F.);
#2036=EDGE_LOOP('',(#2032,#2033,#2034,#2035));
#2037=FACE_BOUND('',#2036,.T.);
#2038=ADVANCED_FACE('',(#2037),#2031,.T.);
#2039=CARTESIAN_POINT('',(0.,0.,-3.7));
#2040=DIRECTION('',(0.,0.,1.));
#2041=DIRECTION('',(1.,0.,-0.));
#2042=AXIS2_PLACEMENT_3D('',#2039,#2040,#2041);
#2043=CYLINDRICAL_SURFACE('',#2042,21.85);
#2044=ORIENTED_EDGE('',*,*,#929,.F.);
#2045=ORIENTED_EDGE('',*,*,#313,.F.);
#2046=ORIENTED_EDGE('',*,*,#1828,.T.);
#2047=ORIENTED_EDGE('',*,*,#640,.T.);
#2048=EDGE_LOOP('',(#2044,#2045,#2046,#2047));
#2049=FACE_BOUND('',#2048,.T.);
#2050=ADVANCED_FACE('',(#2049),#2043,.T.);
#2051=CARTESIAN_POINT('',(-17.161522422,16.017420927,-2.));
#2052=DIRECTION('',(0.,0.,-1.));
#2053=DIRECTION('',(-1.,0.,0.));
#2054=AXIS2_PLACEMENT_3D('',#2051,#2052,#2053);
#2055=CYLINDRICAL_SURFACE('',#2054,3.225000011);
#2056=ORIENTED_EDGE('',*,*,#973,.F.);
#2057=ORIENTED_EDGE('',*,*,#559,.F.);
#2058=ORIENTED_EDGE('',*,*,#1872,.T.);
#2059=ORIENTED_EDGE('',*,*,#394,.T.);
#2060=EDGE_LOOP('',(#2056,#2057,#2058,#2059));
#2061=FACE_BOUND('',#2060,.T.);
#2062=ADVANCED_FACE('',(#2061),#2055,.T.);
#2063=CARTESIAN_POINT('',(17.161522422,16.017420927,-2.));
#2064=DIRECTION('',(0.,0.,-1.));
#2065=DIRECTION('',(1.,0.,0.));
#2066=AXIS2_PLACEMENT_3D('',#2063,#2064,#2065);
#2067=CYLINDRICAL_SURFACE('',#2066,3.225000011);
#2068=ORIENTED_EDGE('',*,*,#995,.F.);
#2069=ORIENTED_EDGE('',*,*,#604,.T.);
#2070=ORIENTED_EDGE('',*,*,#1901,.T.);
#2071=ORIENTED_EDGE('',*,*,#349,.F.);
#2072=EDGE_LOOP('',(#2068,#2069,#2070,#2071));
#2073=FACE_BOUND('',#2072,.T.);
#2074=ADVANCED_FACE('',(#2073),#2067,.T.);
#2075=CARTESIAN_POINT('',(0.,0.,-3.7));
#2076=DIRECTION('',(0.,0.,1.));
#2077=DIRECTION('',(1.,0.,-0.));
#2078=AXIS2_PLACEMENT_3D('',#2075,#2076,#2077);
#2079=CYLINDRICAL_SURFACE('',#2078,20.25);
#2080=ORIENTED_EDGE('',*,*,#1019,.T.);
#2081=ORIENTED_EDGE('',*,*,#1247,.F.);
#2082=ORIENTED_EDGE('',*,*,#1191,.T.);
#2083=ORIENTED_EDGE('',*,*,#244,.T.);
#2084=EDGE_LOOP('',(#2080,#2081,#2082,#2083));
#2085=FACE_BOUND('',#2084,.T.);
#2086=ADVANCED_FACE('',(#2085),#2079,.F.);
#2087=CARTESIAN_POINT('',(0.,0.,-4.9));
#2088=DIRECTION('',(0.,0.,1.));
#2089=DIRECTION('',(1.,0.,-0.));
#2090=AXIS2_PLACEMENT_3D('',#2087,#2088,#2089);
#2091=CYLINDRICAL_SURFACE('',#2090,18.);
#2092=ORIENTED_EDGE('',*,*,#1119,.T.);
#2093=ORIENTED_EDGE('',*,*,#825,.T.);
#2094=ORIENTED_EDGE('',*,*,#1513,.T.);
#2095=ORIENTED_EDGE('',*,*,#1232,.F.);
#2096=EDGE_LOOP('',(#2092,#2093,#2094,#2095));
#2097=FACE_BOUND('',#2096,.T.);
#2098=ADVANCED_FACE('',(#2097),#2091,.F.);
#2099=CARTESIAN_POINT('',(17.145614047,9.899024885,-3.47));
#2100=DIRECTION('',(-0.,0.,-1.));
#2101=DIRECTION('',(-0.866025404,-0.5,0.));
#2102=AXIS2_PLACEMENT_3D('',#2099,#2100,#2101);
#2103=CYLINDRICAL_SURFACE('',#2102,0.375);
#2104=ORIENTED_EDGE('',*,*,#1403,.F.);
#2105=ORIENTED_EDGE('',*,*,#1265,.T.);
#2106=ORIENTED_EDGE('',*,*,#1372,.F.);
#2107=ORIENTED_EDGE('',*,*,#1349,.F.);
#2108=EDGE_LOOP('',(#2104,#2105,#2106,#2107));
#2109=FACE_BOUND('',#2108,.T.);
#2110=ADVANCED_FACE('',(#2109),#2103,.T.);
#2111=CARTESIAN_POINT('',(11.355694834,16.217612943,-3.47));
#2112=DIRECTION('',(-0.,0.,-1.));
#2113=DIRECTION('',(-0.573576436,-0.819152044,0.));
#2114=AXIS2_PLACEMENT_3D('',#2111,#2112,#2113);
#2115=CYLINDRICAL_SURFACE('',#2114,0.375);
#2116=ORIENTED_EDGE('',*,*,#1495,.F.);
#2117=ORIENTED_EDGE('',*,*,#1298,.T.);
#2118=ORIENTED_EDGE('',*,*,#1429,.F.);
#2119=ORIENTED_EDGE('',*,*,#1481,.F.);
#2120=EDGE_LOOP('',(#2116,#2117,#2118,#2119));
#2121=FACE_BOUND('',#2120,.T.);
#2122=ADVANCED_FACE('',(#2121),#2115,.T.);
#2123=CARTESIAN_POINT('',(24.164787949,-11.704081484,-3.7));
#2124=DIRECTION('',(0.,0.,-1.));
#2125=DIRECTION('',(-1.,0.,0.));
#2126=AXIS2_PLACEMENT_3D('',#2123,#2124,#2125);
#2127=CYLINDRICAL_SURFACE('',#2126,5.);
#2128=ORIENTED_EDGE('',*,*,#1821,.T.);
#2129=ORIENTED_EDGE('',*,*,#295,.F.);
#2130=ORIENTED_EDGE('',*,*,#751,.F.);
#2131=ORIENTED_EDGE('',*,*,#658,.T.);
#2132=EDGE_LOOP('',(#2128,#2129,#2130,#2131));
#2133=FACE_BOUND('',#2132,.T.);
#2134=ADVANCED_FACE('',(#2133),#2127,.F.);
#2135=CARTESIAN_POINT('',(-24.164787949,-11.704081484,-3.7));
#2136=DIRECTION('',(0.,0.,1.));
#2137=DIRECTION('',(1.,0.,-0.));
#2138=AXIS2_PLACEMENT_3D('',#2135,#2136,#2137);
#2139=CYLINDRICAL_SURFACE('',#2138,5.);
#2140=ORIENTED_EDGE('',*,*,#1855,.T.);
#2141=ORIENTED_EDGE('',*,*,#523,.T.);
#2142=ORIENTED_EDGE('',*,*,#774,.F.);
#2143=ORIENTED_EDGE('',*,*,#430,.F.);
#2144=EDGE_LOOP('',(#2140,#2141,#2142,#2143));
#2145=FACE_BOUND('',#2144,.T.);
#2146=ADVANCED_FACE('',(#2145),#2139,.F.);
#2147=CLOSED_SHELL('',(#68,#108,#449,#677,#716,#738,#756,#778,#896,#919,#941,#963,#985,#1007,#1107,#1139,#1170,#1209,#1318,#1359,#1376,#1393,#1410,#1434,#1458,#1485,
#1502,#1519,#1531,#1573,#1582,#1624,#1634,#1676,#1685,#1727,#1737,#1756,#1774,#1792,#1811,#1833,#1845,#1862,#1879,#1891,#1908,#1925,#1948,#1973,#1986,
#2000,#2014,#2026,#2038,#2050,#2062,#2074,#2086,#2098,#2110,#2122,#2134,#2146));
#2148=MANIFOLD_SOLID_BREP('Bottom',#2147);
#2149=COLOUR_RGB('',0.627451003,0.627451003,0.643137276);
#2150=FILL_AREA_STYLE_COLOUR('',#2149);
#2151=FILL_AREA_STYLE('',(#2150));
#2152=SURFACE_STYLE_FILL_AREA(#2151);
#2153=SURFACE_SIDE_STYLE('',(#2152));
#2154=SURFACE_STYLE_USAGE(.BOTH.,#2153);
#2155=PRESENTATION_STYLE_ASSIGNMENT((#2154));
#26=STYLED_ITEM('',(#2155),#2148);
#16=SHAPE_REPRESENTATION('Bottom',(#15),#10);
#17=ADVANCED_BREP_SHAPE_REPRESENTATION('Bottom',(#2148),#10);
#2163=SHAPE_REPRESENTATION_RELATIONSHIP('','',#16,#17);
#2164=CARTESIAN_POINT('',(0.,0.,0.));
#2165=DIRECTION('',(0.,0.,1.));
#2166=DIRECTION('',(1.,0.,0.));
#2167=AXIS2_PLACEMENT_3D('',#2164,#2165,#2166);
#2169=MAPPED_ITEM('',#2168,#2167);
#2168=REPRESENTATION_MAP(#2167,#16);
#2170=APPLICATION_CONTEXT('Managed model based 3d engineering');
#2171=APPLICATION_PROTOCOL_DEFINITION('international standard','ap242_managed_model_based_3d_engineering',2014,#2170);
#2172=PRODUCT_CONTEXT('',#2170,'mechanical');
#2173=PRODUCT_DEFINITION_CONTEXT('part definition',#2170,'design');
#24=PRODUCT('Bottom','Bottom','',(#2172));
#2174=PRODUCT_RELATED_PRODUCT_CATEGORY('part','',(#24));
#2175=PRODUCT_DEFINITION_FORMATION_WITH_SPECIFIED_SOURCE('','',#24,.NOT_KNOWN.);
#25=PRODUCT_DEFINITION('design','',#2175,#2173);
#23=PRODUCT_DEFINITION_SHAPE('','',#25);
#2176=SHAPE_DEFINITION_REPRESENTATION(#23,#16);
#11=DRAUGHTING_MODEL('',(#2169),#10);
#2177=DESCRIPTIVE_REPRESENTATION_ITEM('KEY','/Users/jscotto/Library/Containers/com.shapr3d.shapr/Data/tmp/84BD366B-784E-4786-A974-EA6C747C548F.tmp');
#2178=PROPERTY_DEFINITION('KEY','',#25);
#2179=REPRESENTATION('',(#2177),#10);
#2180=PROPERTY_DEFINITION_REPRESENTATION(#2178,#2179);
#2181=GENERAL_PROPERTY('','KEY','');
#2182=GENERAL_PROPERTY_ASSOCIATION('','',#2181,#2178);
#1=MECHANICAL_DESIGN_GEOMETRIC_PRESENTATION_REPRESENTATION('',(#116,#739,#897,#1171,#1210,#1926,#1949,#1974,#26),#10);
ENDSEC;
END-ISO-10303-21;
