0
SECTION
2
HEADER
9
$INSUNITS
70
4
0
ENDSEC
0
SECTION
2
TABLES
0
TABLE
2
LTYPE
0
LTYPE
72
65
70
64
2
CONTINUOUS
3
______
73
0
40
0
0
ENDTAB
0
TABLE
2
LAYER
0
ENDTAB
0
ENDSEC
0
SECTION
2
ENTITIES
0
LINE
8
0
10
2
20
-1.5
11
16
21
-1.5
0
LINE
8
0
10
2
20
-15.5
11
16
21
-15.5
0
LINE
8
0
10
2
20
-1.5
11
2
21
-15.5
0
LINE
8
0
10
16
20
-1.5
11
16
21
-15.5
0
LINE
8
0
10
20
20
-1.5
11
34
21
-1.5
0
LINE
8
0
10
20
20
-15.5
11
34
21
-15.5
0
LINE
8
0
10
20
20
-1.5
11
20
21
-15.5
0
LINE
8
0
10
34
20
-1.5
11
34
21
-15.5
0
LINE
8
0
10
38
20
-1.5
11
52
21
-1.5
0
LINE
8
0
10
38
20
-15.5
11
52
21
-15.5
0
LINE
8
0
10
38
20
-1.5
11
38
21
-15.5
0
LINE
8
0
10
52
20
-1.5
11
52
21
-15.5
0
LINE
8
0
10
56
20
-1.5
11
70
21
-1.5
0
LINE
8
0
10
56
20
-15.5
11
70
21
-15.5
0
LINE
8
0
10
56
20
-1.5
11
56
21
-15.5
0
LINE
8
0
10
70
20
-1.5
11
70
21
-15.5
0
LINE
8
0
10
74
20
-1.5
11
88
21
-1.5
0
LINE
8
0
10
74
20
-15.5
11
88
21
-15.5
0
LINE
8
0
10
74
20
-1.5
11
74
21
-15.5
0
LINE
8
0
10
88
20
-1.5
11
88
21
-15.5
0
LINE
8
0
10
2
20
-18.5
11
16
21
-18.5
0
LINE
8
0
10
2
20
-32.5
11
16
21
-32.5
0
LINE
8
0
10
2
20
-18.5
11
2
21
-32.5
0
LINE
8
0
10
16
20
-18.5
11
16
21
-32.5
0
LINE
8
0
10
20
20
-18.5
11
34
21
-18.5
0
LINE
8
0
10
20
20
-32.5
11
34
21
-32.5
0
LINE
8
0
10
20
20
-18.5
11
20
21
-32.5
0
LINE
8
0
10
34
20
-18.5
11
34
21
-32.5
0
LINE
8
0
10
38
20
-18.5
11
52
21
-18.5
0
LINE
8
0
10
38
20
-32.5
11
52
21
-32.5
0
LINE
8
0
10
38
20
-18.5
11
38
21
-32.5
0
LINE
8
0
10
52
20
-18.5
11
52
21
-32.5
0
LINE
8
0
10
56
20
-18.5
11
70
21
-18.5
0
LINE
8
0
10
56
20
-32.5
11
70
21
-32.5
0
LINE
8
0
10
56
20
-18.5
11
56
21
-32.5
0
LINE
8
0
10
70
20
-18.5
11
70
21
-32.5
0
LINE
8
0
10
74
20
-18.5
11
88
21
-18.5
0
LINE
8
0
10
74
20
-32.5
11
88
21
-32.5
0
LINE
8
0
10
74
20
-18.5
11
74
21
-32.5
0
LINE
8
0
10
88
20
-18.5
11
88
21
-32.5
0
LINE
8
0
10
2
20
-35.5
11
16
21
-35.5
0
LINE
8
0
10
2
20
-49.5
11
16
21
-49.5
0
LINE
8
0
10
2
20
-35.5
11
2
21
-49.5
0
LINE
8
0
10
16
20
-35.5
11
16
21
-49.5
0
LINE
8
0
10
20
20
-35.5
11
34
21
-35.5
0
LINE
8
0
10
20
20
-49.5
11
34
21
-49.5
0
LINE
8
0
10
20
20
-35.5
11
20
21
-49.5
0
LINE
8
0
10
34
20
-35.5
11
34
21
-49.5
0
LINE
8
0
10
38
20
-35.5
11
52
21
-35.5
0
LINE
8
0
10
38
20
-49.5
11
52
21
-49.5
0
LINE
8
0
10
38
20
-35.5
11
38
21
-49.5
0
LINE
8
0
10
52
20
-35.5
11
52
21
-49.5
0
LINE
8
0
10
56
20
-35.5
11
70
21
-35.5
0
LINE
8
0
10
56
20
-49.5
11
70
21
-49.5
0
LINE
8
0
10
56
20
-35.5
11
56
21
-49.5
0
LINE
8
0
10
70
20
-35.5
11
70
21
-49.5
0
LINE
8
0
10
74
20
-35.5
11
88
21
-35.5
0
LINE
8
0
10
74
20
-49.5
11
88
21
-49.5
0
LINE
8
0
10
74
20
-35.5
11
74
21
-49.5
0
LINE
8
0
10
88
20
-35.5
11
88
21
-49.5
0
LINE
8
0
10
56
20
-52.5
11
70
21
-52.5
0
LINE
8
0
10
56
20
-66.5
11
70
21
-66.5
0
LINE
8
0
10
56
20
-52.5
11
56
21
-66.5
0
LINE
8
0
10
70
20
-52.5
11
70
21
-66.5
0
LINE
8
0
10
74
20
-52.5
11
88
21
-52.5
0
LINE
8
0
10
74
20
-66.5
11
88
21
-66.5
0
LINE
8
0
10
74
20
-52.5
11
74
21
-66.5
0
LINE
8
0
10
88
20
-52.5
11
88
21
-66.5
0
LINE
8
0
10
0
20
-68
11
90
21
-68
0
LINE
8
0
10
0
20
0
11
90
21
0
0
LINE
8
0
10
0
20
-68
11
0
21
0
0
LINE
8
0
10
90
20
-68
11
90
21
0
0
ENDSEC
0
EOF