  0
SECTION
  2
HEADER
  9
$ACADVER
  1
AC1009
  9
$FILLMODE
 70
 0
  9
$SPLFRAME
 70
 1
  9
$EXTMIN
 10
0
 20
0
 30
0.0
  9
$EXTMAX
 10
1058.33
 20
1058.33
 30
0.0
  0
ENDSEC
  0
SECTION
  2
TABLES
  0
TABLE
  2
LAYER
 70
1
  0
LAYER
  2
0
 70
     0
 62
     7
  6
CONTINUOUS
  0
ENDTAB
  0
ENDSEC
  0
SECTION
  2
ENTITIES
  0
LINE
  8
0
 62
     0
 10
0.0950846
 20
118.438
 30
0.0
 11
112.415
 21
118.438
 31
0.0
  0
LINE
  8
0
 62
     0
 10
112.415
 20
118.438
 30
0.0
 11
112.415
 21
0.285254
 31
0.0
  0
LINE
  8
0
 62
     0
 10
112.415
 20
0.285254
 30
0.0
 11
0.0950846
 21
0.285254
 31
0.0
  0
LINE
  8
0
 62
     0
 10
0.0950846
 20
0.285254
 30
0.0
 11
0.0950846
 21
118.438
 31
0.0
  0
LINE
  8
0
 62
     0
 10
76.2109
 20
13.757
 30
0.0
 11
86.1095
 21
3.85713
 31
0.0
  0
LINE
  8
0
 62
     0
 10
86.1095
 20
3.85713
 30
0.0
 11
96.0092
 21
13.757
 31
0.0
  0
LINE
  8
0
 62
     0
 10
96.0092
 20
13.757
 30
0.0
 11
86.1095
 21
23.6554
 31
0.0
  0
LINE
  8
0
 62
     0
 10
86.1095
 20
23.6554
 30
0.0
 11
76.2109
 21
13.757
 31
0.0
  0
LINE
  8
0
 62
     0
 10
59.1439
 20
24.5925
 30
0.0
 11
71.2682
 21
17.592
 31
0.0
  0
LINE
  8
0
 62
     0
 10
71.2682
 20
17.592
 30
0.0
 11
78.2669
 21
29.7174
 31
0.0
  0
LINE
  8
0
 62
     0
 10
78.2669
 20
29.7174
 30
0.0
 11
66.143
 21
36.7164
 31
0.0
  0
LINE
  8
0
 62
     0
 10
66.143
 20
36.7164
 30
0.0
 11
59.1439
 21
24.5925
 31
0.0
  0
LINE
  8
0
 62
     0
 10
39.8018
 20
30.5029
 30
0.0
 11
53.3245
 21
26.88
 31
0.0
  0
LINE
  8
0
 62
     0
 10
53.3245
 20
26.88
 30
0.0
 11
56.9489
 21
40.4026
 31
0.0
  0
LINE
  8
0
 62
     0
 10
56.9489
 20
40.4026
 30
0.0
 11
43.4262
 21
44.0256
 31
0.0
  0
LINE
  8
0
 62
     0
 10
43.4262
 20
44.0256
 30
0.0
 11
39.8018
 21
30.5029
 31
0.0
  0
LINE
  8
0
 62
     0
 10
78.201
 20
40.9113
 30
0.0
 11
91.3571
 21
36.1227
 31
0.0
  0
LINE
  8
0
 62
     0
 10
91.3571
 20
36.1227
 30
0.0
 11
96.1457
 21
49.2788
 31
0.0
  0
LINE
  8
0
 62
     0
 10
96.1457
 20
49.2788
 30
0.0
 11
82.991
 21
54.0674
 31
0.0
  0
LINE
  8
0
 62
     0
 10
82.991
 20
54.0674
 30
0.0
 11
78.201
 21
40.9113
 31
0.0
  0
LINE
  8
0
 62
     0
 10
61.9291
 20
51.9024
 30
0.0
 11
75.0852
 21
47.1138
 31
0.0
  0
LINE
  8
0
 62
     0
 10
75.0852
 20
47.1138
 30
0.0
 11
79.8738
 21
60.27
 31
0.0
  0
LINE
  8
0
 62
     0
 10
79.8738
 20
60.27
 30
0.0
 11
66.7177
 21
65.0572
 31
0.0
  0
LINE
  8
0
 62
     0
 10
66.7177
 20
65.0572
 30
0.0
 11
61.9291
 21
51.9024
 31
0.0
  0
LINE
  8
0
 62
     0
 10
84.7178
 20
58.8133
 30
0.0
 11
97.874
 21
54.0233
 31
0.0
  0
LINE
  8
0
 62
     0
 10
97.874
 20
54.0233
 30
0.0
 11
102.661
 21
67.1795
 31
0.0
  0
LINE
  8
0
 62
     0
 10
102.661
 20
67.1795
 30
0.0
 11
89.505
 21
71.9681
 31
0.0
  0
LINE
  8
0
 62
     0
 10
89.505
 20
71.9681
 30
0.0
 11
84.7178
 21
58.8133
 31
0.0
  0
LINE
  8
0
 62
     0
 10
45.6572
 20
62.8922
 30
0.0
 11
58.8133
 21
58.105
 31
0.0
  0
LINE
  8
0
 62
     0
 10
58.8133
 20
58.105
 30
0.0
 11
63.602
 21
71.2597
 31
0.0
  0
LINE
  8
0
 62
     0
 10
63.602
 20
71.2597
 30
0.0
 11
50.4458
 21
76.0483
 31
0.0
  0
LINE
  8
0
 62
     0
 10
50.4458
 20
76.0483
 30
0.0
 11
45.6572
 21
62.8922
 31
0.0
  0
LINE
  8
0
 62
     0
 10
26.1276
 20
64.9333
 30
0.0
 11
39.2836
 21
60.1444
 31
0.0
  0
LINE
  8
0
 62
     0
 10
39.2836
 20
60.1444
 30
0.0
 11
44.0711
 21
73.3005
 31
0.0
  0
LINE
  8
0
 62
     0
 10
44.0711
 20
73.3005
 30
0.0
 11
30.9149
 21
78.0891
 31
0.0
  0
LINE
  8
0
 62
     0
 10
30.9149
 20
78.0891
 30
0.0
 11
26.1276
 21
64.9333
 31
0.0
  0
LINE
  8
0
 62
     0
 10
6.59804
 20
66.9727
 30
0.0
 11
19.7528
 21
62.1852
 31
0.0
  0
LINE
  8
0
 62
     0
 10
19.7528
 20
62.1852
 30
0.0
 11
24.5415
 21
75.3413
 31
0.0
  0
LINE
  8
0
 62
     0
 10
24.5415
 20
75.3413
 30
0.0
 11
11.3853
 21
80.1289
 31
0.0
  0
LINE
  8
0
 62
     0
 10
11.3853
 20
80.1289
 30
0.0
 11
6.59804
 21
66.9727
 31
0.0
  0
LINE
  8
0
 62
     0
 10
68.4459
 20
69.8031
 30
0.0
 11
81.6007
 21
65.0145
 31
0.0
  0
LINE
  8
0
 62
     0
 10
81.6007
 20
65.0145
 30
0.0
 11
86.3893
 21
78.1706
 31
0.0
  0
LINE
  8
0
 62
     0
 10
86.3893
 20
78.1706
 30
0.0
 11
73.2331
 21
82.9592
 31
0.0
  0
LINE
  8
0
 62
     0
 10
73.2331
 20
82.9592
 30
0.0
 11
68.4459
 21
69.8031
 31
0.0
  0
LINE
  8
0
 62
     0
 10
91.2329
 20
76.714
 30
0.0
 11
104.389
 21
71.9254
 31
0.0
  0
LINE
  8
0
 62
     0
 10
104.389
 20
71.9254
 30
0.0
 11
109.177
 21
85.0815
 31
0.0
  0
LINE
  8
0
 62
     0
 10
109.177
 20
85.0815
 30
0.0
 11
96.0219
 21
89.8687
 31
0.0
  0
LINE
  8
0
 62
     0
 10
96.0219
 20
89.8687
 30
0.0
 11
91.2329
 21
76.714
 31
0.0
  0
LINE
  8
0
 62
     0
 10
52.1727
 20
80.7942
 30
0.0
 11
65.3288
 21
76.0056
 31
0.0
  0
LINE
  8
0
 62
     0
 10
65.3288
 20
76.0056
 30
0.0
 11
70.116
 21
89.1618
 31
0.0
  0
LINE
  8
0
 62
     0
 10
70.116
 20
89.1618
 30
0.0
 11
56.9613
 21
93.9504
 31
0.0
  0
LINE
  8
0
 62
     0
 10
56.9613
 20
93.9504
 30
0.0
 11
52.1727
 21
80.7942
 31
0.0
  0
LINE
  8
0
 62
     0
 10
32.643
 20
82.834
 30
0.0
 11
45.799
 21
78.045
 31
0.0
  0
LINE
  8
0
 62
     0
 10
45.799
 20
78.045
 30
0.0
 11
50.5866
 21
91.2012
 31
0.0
  0
LINE
  8
0
 62
     0
 10
50.5866
 20
91.2012
 30
0.0
 11
37.4315
 21
95.9901
 31
0.0
  0
LINE
  8
0
 62
     0
 10
37.4315
 20
95.9901
 30
0.0
 11
32.643
 21
82.834
 31
0.0
  0
LINE
  8
0
 62
     0
 10
13.112
 20
84.8748
 30
0.0
 11
26.2682
 21
80.0862
 31
0.0
  0
LINE
  8
0
 62
     0
 10
26.2682
 20
80.0862
 30
0.0
 11
31.0569
 21
93.2423
 31
0.0
  0
LINE
  8
0
 62
     0
 10
31.0569
 20
93.2423
 30
0.0
 11
17.9021
 21
98.0295
 31
0.0
  0
LINE
  8
0
 62
     0
 10
17.9021
 20
98.0295
 30
0.0
 11
13.112
 21
84.8748
 31
0.0
  0
LINE
  8
0
 62
     0
 10
74.961
 20
87.7051
 30
0.0
 11
88.1158
 21
82.9151
 31
0.0
  0
LINE
  8
0
 62
     0
 10
88.1158
 20
82.9151
 30
0.0
 11
92.9047
 21
96.0713
 31
0.0
  0
LINE
  8
0
 62
     0
 10
92.9047
 20
96.0713
 30
0.0
 11
79.7486
 21
100.86
 31
0.0
  0
LINE
  8
0
 62
     0
 10
79.7486
 20
100.86
 30
0.0
 11
74.961
 21
87.7051
 31
0.0
  0
LINE
  8
0
 62
     0
 10
58.6878
 20
98.6952
 30
0.0
 11
71.8439
 21
93.9063
 31
0.0
  0
LINE
  8
0
 62
     0
 10
71.8439
 20
93.9063
 30
0.0
 11
76.6329
 21
107.062
 31
0.0
  0
LINE
  8
0
 62
     0
 10
76.6329
 20
107.062
 30
0.0
 11
63.4767
 21
111.851
 31
0.0
  0
LINE
  8
0
 62
     0
 10
63.4767
 20
111.851
 30
0.0
 11
58.6878
 21
98.6952
 31
0.0
  0
LINE
  8
0
 62
     0
 10
39.1583
 20
100.736
 30
0.0
 11
52.3145
 21
95.9474
 31
0.0
  0
LINE
  8
0
 62
     0
 10
52.3145
 20
95.9474
 30
0.0
 11
57.1031
 21
109.104
 31
0.0
  0
LINE
  8
0
 62
     0
 10
57.1031
 20
109.104
 30
0.0
 11
43.9469
 21
113.891
 31
0.0
  0
LINE
  8
0
 62
     0
 10
43.9469
 20
113.891
 30
0.0
 11
39.1583
 21
100.736
 31
0.0
  0
LINE
  8
0
 62
     0
 10
19.6288
 20
102.775
 30
0.0
 11
32.7849
 21
97.9868
 31
0.0
  0
LINE
  8
0
 62
     0
 10
32.7849
 20
97.9868
 30
0.0
 11
37.5722
 21
111.143
 31
0.0
  0
LINE
  8
0
 62
     0
 10
37.5722
 20
111.143
 30
0.0
 11
24.4161
 21
115.93
 31
0.0
  0
LINE
  8
0
 62
     0
 10
24.4161
 20
115.93
 30
0.0
 11
19.6288
 21
102.775
 31
0.0
  0
ENDSEC
  0
EOF
