  0
SECTION
  2
HEADER
  9
$ACADVER
  1
AC1009
  9
$FILLMODE
 70
 0
  9
$SPLFRAME
 70
 1
  9
$EXTMIN
 10
0
 20
0
 30
0.0
  9
$EXTMAX
 10
1058.33
 20
1058.33
 30
0.0
  0
ENDSEC
  0
SECTION
  2
TABLES
  0
TABLE
  2
LAYER
 70
1
  0
LAYER
  2
0
 70
     0
 62
     7
  6
CONTINUOUS
  0
ENDTAB
  0
ENDSEC
  0
SECTION
  2
ENTITIES
  0
LINE
  8
0
 62
     0
 10
189.346
 20
95.5075
 30
0.0
 11
189.444
 21
95.5051
 31
0.0
  0
LINE
  8
0
 62
     0
 10
189.444
 20
95.5051
 30
0.0
 11
189.541
 21
95.4927
 31
0.0
  0
LINE
  8
0
 62
     0
 10
189.541
 20
95.4927
 30
0.0
 11
189.637
 21
95.4733
 31
0.0
  0
LINE
  8
0
 62
     0
 10
189.637
 20
95.4733
 30
0.0
 11
189.732
 21
95.4458
 31
0.0
  0
LINE
  8
0
 62
     0
 10
189.732
 20
95.4458
 30
0.0
 11
189.825
 21
95.4126
 31
0.0
  0
LINE
  8
0
 62
     0
 10
189.825
 20
95.4126
 30
0.0
 11
189.913
 21
95.3714
 31
0.0
  0
LINE
  8
0
 62
     0
 10
189.913
 20
95.3714
 30
0.0
 11
190
 21
95.323
 31
0.0
  0
LINE
  8
0
 62
     0
 10
190
 20
95.323
 30
0.0
 11
190.081
 21
95.2694
 31
0.0
  0
LINE
  8
0
 62
     0
 10
190.081
 20
95.2694
 30
0.0
 11
190.157
 21
95.2087
 31
0.0
  0
LINE
  8
0
 62
     0
 10
190.157
 20
95.2087
 30
0.0
 11
190.23
 21
95.141
 31
0.0
  0
LINE
  8
0
 62
     0
 10
190.23
 20
95.141
 30
0.0
 11
190.296
 21
95.0694
 31
0.0
  0
LINE
  8
0
 62
     0
 10
190.296
 20
95.0694
 30
0.0
 11
190.358
 21
94.9925
 31
0.0
  0
LINE
  8
0
 62
     0
 10
190.358
 20
94.9925
 30
0.0
 11
190.412
 21
94.911
 31
0.0
  0
LINE
  8
0
 62
     0
 10
190.412
 20
94.911
 30
0.0
 11
190.46
 21
94.8256
 31
0.0
  0
LINE
  8
0
 62
     0
 10
190.46
 20
94.8256
 30
0.0
 11
190.5
 21
94.736
 31
0.0
  0
LINE
  8
0
 62
     0
 10
190.5
 20
94.736
 30
0.0
 11
190.535
 21
94.6436
 31
0.0
  0
LINE
  8
0
 62
     0
 10
190.535
 20
94.6436
 30
0.0
 11
190.562
 21
94.5501
 31
0.0
  0
LINE
  8
0
 62
     0
 10
190.562
 20
94.5501
 30
0.0
 11
190.58
 21
94.4534
 31
0.0
  0
LINE
  8
0
 62
     0
 10
190.58
 20
94.4534
 30
0.0
 11
190.592
 21
94.3557
 31
0.0
  0
LINE
  8
0
 62
     0
 10
190.592
 20
94.3557
 30
0.0
 11
190.596
 21
94.258
 31
0.0
  0
LINE
  8
0
 62
     0
 10
190.596
 20
94.258
 30
0.0
 11
190.596
 21
1.50757
 31
0.0
  0
LINE
  8
0
 62
     0
 10
190.596
 20
1.50757
 30
0.0
 11
190.592
 21
1.40836
 31
0.0
  0
LINE
  8
0
 62
     0
 10
190.592
 20
1.40836
 30
0.0
 11
190.58
 21
1.31189
 31
0.0
  0
LINE
  8
0
 62
     0
 10
190.58
 20
1.31189
 30
0.0
 11
190.562
 21
1.21543
 31
0.0
  0
LINE
  8
0
 62
     0
 10
190.562
 20
1.21543
 30
0.0
 11
190.535
 21
1.12034
 31
0.0
  0
LINE
  8
0
 62
     0
 10
190.535
 20
1.12034
 30
0.0
 11
190.5
 21
1.02802
 31
0.0
  0
LINE
  8
0
 62
     0
 10
190.5
 20
1.02802
 30
0.0
 11
190.46
 21
0.939821
 31
0.0
  0
LINE
  8
0
 62
     0
 10
190.46
 20
0.939821
 30
0.0
 11
190.412
 21
0.853006
 31
0.0
  0
LINE
  8
0
 62
     0
 10
190.412
 20
0.853006
 30
0.0
 11
190.358
 21
0.771701
 31
0.0
  0
LINE
  8
0
 62
     0
 10
190.358
 20
0.771701
 30
0.0
 11
190.296
 21
0.695911
 31
0.0
  0
LINE
  8
0
 62
     0
 10
190.296
 20
0.695911
 30
0.0
 11
190.23
 21
0.622875
 31
0.0
  0
LINE
  8
0
 62
     0
 10
190.23
 20
0.622875
 30
0.0
 11
190.157
 21
0.556729
 31
0.0
  0
LINE
  8
0
 62
     0
 10
190.157
 20
0.556729
 30
0.0
 11
190.081
 21
0.494714
 31
0.0
  0
LINE
  8
0
 62
     0
 10
190.081
 20
0.494714
 30
0.0
 11
190
 21
0.440972
 31
0.0
  0
LINE
  8
0
 62
     0
 10
190
 20
0.440972
 30
0.0
 11
189.913
 21
0.39274
 31
0.0
  0
LINE
  8
0
 62
     0
 10
189.913
 20
0.39274
 30
0.0
 11
189.825
 21
0.352778
 31
0.0
  0
LINE
  8
0
 62
     0
 10
189.825
 20
0.352778
 30
0.0
 11
189.732
 21
0.318327
 31
0.0
  0
LINE
  8
0
 62
     0
 10
189.732
 20
0.318327
 30
0.0
 11
189.637
 21
0.290766
 31
0.0
  0
LINE
  8
0
 62
     0
 10
189.637
 20
0.290766
 30
0.0
 11
189.541
 21
0.272852
 31
0.0
  0
LINE
  8
0
 62
     0
 10
189.541
 20
0.272852
 30
0.0
 11
189.444
 21
0.260449
 31
0.0
  0
LINE
  8
0
 62
     0
 10
189.444
 20
0.260449
 30
0.0
 11
189.345
 21
0.257693
 31
0.0
  0
LINE
  8
0
 62
     0
 10
189.345
 20
0.257693
 30
0.0
 11
1.34497
 21
0.257693
 31
0.0
  0
LINE
  8
0
 62
     0
 10
1.34497
 20
0.257693
 30
0.0
 11
1.24713
 21
0.260449
 31
0.0
  0
LINE
  8
0
 62
     0
 10
1.24713
 20
0.260449
 30
0.0
 11
1.14928
 21
0.272852
 31
0.0
  0
LINE
  8
0
 62
     0
 10
1.14928
 20
0.272852
 30
0.0
 11
1.05282
 21
0.290766
 31
0.0
  0
LINE
  8
0
 62
     0
 10
1.05282
 20
0.290766
 30
0.0
 11
0.959115
 21
0.318327
 31
0.0
  0
LINE
  8
0
 62
     0
 10
0.959115
 20
0.318327
 30
0.0
 11
0.866786
 21
0.352778
 31
0.0
  0
LINE
  8
0
 62
     0
 10
0.866786
 20
0.352778
 30
0.0
 11
0.777215
 21
0.39274
 31
0.0
  0
LINE
  8
0
 62
     0
 10
0.777215
 20
0.39274
 30
0.0
 11
0.691776
 21
0.440972
 31
0.0
  0
LINE
  8
0
 62
     0
 10
0.691776
 20
0.440972
 30
0.0
 11
0.610471
 21
0.494714
 31
0.0
  0
LINE
  8
0
 62
     0
 10
0.610471
 20
0.494714
 30
0.0
 11
0.533301
 21
0.556729
 31
0.0
  0
LINE
  8
0
 62
     0
 10
0.533301
 20
0.556729
 30
0.0
 11
0.461641
 21
0.622875
 31
0.0
  0
LINE
  8
0
 62
     0
 10
0.461641
 20
0.622875
 30
0.0
 11
0.39412
 21
0.695911
 31
0.0
  0
LINE
  8
0
 62
     0
 10
0.39412
 20
0.695911
 30
0.0
 11
0.333485
 21
0.771701
 31
0.0
  0
LINE
  8
0
 62
     0
 10
0.333485
 20
0.771701
 30
0.0
 11
0.279742
 21
0.853006
 31
0.0
  0
LINE
  8
0
 62
     0
 10
0.279742
 20
0.853006
 30
0.0
 11
0.23151
 21
0.939821
 31
0.0
  0
LINE
  8
0
 62
     0
 10
0.23151
 20
0.939821
 30
0.0
 11
0.190169
 21
1.02802
 31
0.0
  0
LINE
  8
0
 62
     0
 10
0.190169
 20
1.02802
 30
0.0
 11
0.157097
 21
1.12034
 31
0.0
  0
LINE
  8
0
 62
     0
 10
0.157097
 20
1.12034
 30
0.0
 11
0.129536
 21
1.21543
 31
0.0
  0
LINE
  8
0
 62
     0
 10
0.129536
 20
1.21543
 30
0.0
 11
0.110243
 21
1.31189
 31
0.0
  0
LINE
  8
0
 62
     0
 10
0.110243
 20
1.31189
 30
0.0
 11
0.0978408
 21
1.40836
 31
0.0
  0
LINE
  8
0
 62
     0
 10
0.0978408
 20
1.40836
 30
0.0
 11
0.0950846
 21
1.5062
 31
0.0
  0
LINE
  8
0
 62
     0
 10
0.0950846
 20
1.5062
 30
0.0
 11
0.0950846
 21
94.258
 31
0.0
  0
LINE
  8
0
 62
     0
 10
0.0950846
 20
94.258
 30
0.0
 11
0.0978408
 21
94.3557
 31
0.0
  0
LINE
  8
0
 62
     0
 10
0.0978408
 20
94.3557
 30
0.0
 11
0.110243
 21
94.4534
 31
0.0
  0
LINE
  8
0
 62
     0
 10
0.110243
 20
94.4534
 30
0.0
 11
0.129536
 21
94.5501
 31
0.0
  0
LINE
  8
0
 62
     0
 10
0.129536
 20
94.5501
 30
0.0
 11
0.157097
 21
94.6436
 31
0.0
  0
LINE
  8
0
 62
     0
 10
0.157097
 20
94.6436
 30
0.0
 11
0.190169
 21
94.736
 31
0.0
  0
LINE
  8
0
 62
     0
 10
0.190169
 20
94.736
 30
0.0
 11
0.23151
 21
94.8256
 31
0.0
  0
LINE
  8
0
 62
     0
 10
0.23151
 20
94.8256
 30
0.0
 11
0.279742
 21
94.911
 31
0.0
  0
LINE
  8
0
 62
     0
 10
0.279742
 20
94.911
 30
0.0
 11
0.333485
 21
94.9925
 31
0.0
  0
LINE
  8
0
 62
     0
 10
0.333485
 20
94.9925
 30
0.0
 11
0.39412
 21
95.0694
 31
0.0
  0
LINE
  8
0
 62
     0
 10
0.39412
 20
95.0694
 30
0.0
 11
0.461641
 21
95.141
 31
0.0
  0
LINE
  8
0
 62
     0
 10
0.461641
 20
95.141
 30
0.0
 11
0.533301
 21
95.2087
 31
0.0
  0
LINE
  8
0
 62
     0
 10
0.533301
 20
95.2087
 30
0.0
 11
0.610471
 21
95.2694
 31
0.0
  0
LINE
  8
0
 62
     0
 10
0.610471
 20
95.2694
 30
0.0
 11
0.691776
 21
95.323
 31
0.0
  0
LINE
  8
0
 62
     0
 10
0.691776
 20
95.323
 30
0.0
 11
0.777215
 21
95.3714
 31
0.0
  0
LINE
  8
0
 62
     0
 10
0.777215
 20
95.3714
 30
0.0
 11
0.866786
 21
95.4126
 31
0.0
  0
LINE
  8
0
 62
     0
 10
0.866786
 20
95.4126
 30
0.0
 11
0.959115
 21
95.4458
 31
0.0
  0
LINE
  8
0
 62
     0
 10
0.959115
 20
95.4458
 30
0.0
 11
1.05282
 21
95.4733
 31
0.0
  0
LINE
  8
0
 62
     0
 10
1.05282
 20
95.4733
 30
0.0
 11
1.14928
 21
95.4927
 31
0.0
  0
LINE
  8
0
 62
     0
 10
1.14928
 20
95.4927
 30
0.0
 11
1.24713
 21
95.5051
 31
0.0
  0
LINE
  8
0
 62
     0
 10
1.24713
 20
95.5051
 30
0.0
 11
1.34497
 21
95.5075
 31
0.0
  0
LINE
  8
0
 62
     0
 10
1.34497
 20
95.5075
 30
0.0
 11
189.346
 21
95.5075
 31
0.0
  0
LINE
  8
0
 62
     0
 10
69.2961
 20
16.7817
 30
0.0
 11
69.2961
 21
12.0826
 31
0.0
  0
LINE
  8
0
 62
     0
 10
69.2961
 20
12.0826
 30
0.0
 11
67.7704
 21
12.0826
 31
0.0
  0
LINE
  8
0
 62
     0
 10
67.7704
 20
12.0826
 30
0.0
 11
67.7704
 21
15.3128
 31
0.0
  0
LINE
  8
0
 62
     0
 10
67.7704
 20
15.3128
 30
0.0
 11
61.021
 21
15.3128
 31
0.0
  0
LINE
  8
0
 62
     0
 10
61.021
 20
15.3128
 30
0.0
 11
61.021
 21
12.0826
 31
0.0
  0
LINE
  8
0
 62
     0
 10
61.021
 20
12.0826
 30
0.0
 11
60.1941
 21
12.0826
 31
0.0
  0
LINE
  8
0
 62
     0
 10
60.1941
 20
12.0826
 30
0.0
 11
60.1941
 21
9.28247
 31
0.0
  0
LINE
  8
0
 62
     0
 10
60.1941
 20
9.28247
 30
0.0
 11
61.021
 21
9.28247
 31
0.0
  0
LINE
  8
0
 62
     0
 10
61.021
 20
9.28247
 30
0.0
 11
61.021
 21
3.01377
 31
0.0
  0
LINE
  8
0
 62
     0
 10
61.021
 20
3.01377
 30
0.0
 11
62.7447
 21
3.01377
 31
0.0
  0
LINE
  8
0
 62
     0
 10
62.7447
 20
3.01377
 30
0.0
 11
62.7447
 21
1.81212
 31
0.0
  0
LINE
  8
0
 62
     0
 10
62.7447
 20
1.81212
 30
0.0
 11
66.0453
 21
1.81212
 31
0.0
  0
LINE
  8
0
 62
     0
 10
66.0453
 20
1.81212
 30
0.0
 11
66.0453
 21
3.01377
 31
0.0
  0
LINE
  8
0
 62
     0
 10
66.0453
 20
3.01377
 30
0.0
 11
67.7704
 21
3.01377
 31
0.0
  0
LINE
  8
0
 62
     0
 10
67.7704
 20
3.01377
 30
0.0
 11
67.7704
 21
7.48273
 31
0.0
  0
LINE
  8
0
 62
     0
 10
67.7704
 20
7.48273
 30
0.0
 11
69.2961
 21
7.48273
 31
0.0
  0
LINE
  8
0
 62
     0
 10
69.2961
 20
7.48273
 30
0.0
 11
69.2961
 21
2.78226
 31
0.0
  0
LINE
  8
0
 62
     0
 10
69.2961
 20
2.78226
 30
0.0
 11
83.2954
 21
2.78226
 31
0.0
  0
LINE
  8
0
 62
     0
 10
83.2954
 20
2.78226
 30
0.0
 11
83.2954
 21
7.48273
 31
0.0
  0
LINE
  8
0
 62
     0
 10
83.2954
 20
7.48273
 30
0.0
 11
84.8212
 21
7.48273
 31
0.0
  0
LINE
  8
0
 62
     0
 10
84.8212
 20
7.48273
 30
0.0
 11
84.8212
 21
3.01377
 31
0.0
  0
LINE
  8
0
 62
     0
 10
84.8212
 20
3.01377
 30
0.0
 11
86.5449
 21
3.01377
 31
0.0
  0
LINE
  8
0
 62
     0
 10
86.5449
 20
3.01377
 30
0.0
 11
86.5449
 21
1.81212
 31
0.0
  0
LINE
  8
0
 62
     0
 10
86.5449
 20
1.81212
 30
0.0
 11
89.8454
 21
1.81212
 31
0.0
  0
LINE
  8
0
 62
     0
 10
89.8454
 20
1.81212
 30
0.0
 11
89.8454
 21
3.01377
 31
0.0
  0
LINE
  8
0
 62
     0
 10
89.8454
 20
3.01377
 30
0.0
 11
91.5705
 21
3.01377
 31
0.0
  0
LINE
  8
0
 62
     0
 10
91.5705
 20
3.01377
 30
0.0
 11
91.5705
 21
9.28247
 31
0.0
  0
LINE
  8
0
 62
     0
 10
91.5705
 20
9.28247
 30
0.0
 11
92.396
 21
9.28247
 31
0.0
  0
LINE
  8
0
 62
     0
 10
92.396
 20
9.28247
 30
0.0
 11
92.396
 21
12.0826
 31
0.0
  0
LINE
  8
0
 62
     0
 10
92.396
 20
12.0826
 30
0.0
 11
91.5705
 21
12.0826
 31
0.0
  0
LINE
  8
0
 62
     0
 10
91.5705
 20
12.0826
 30
0.0
 11
91.5705
 21
15.3128
 31
0.0
  0
LINE
  8
0
 62
     0
 10
91.5705
 20
15.3128
 30
0.0
 11
84.8212
 21
15.3128
 31
0.0
  0
LINE
  8
0
 62
     0
 10
84.8212
 20
15.3128
 30
0.0
 11
84.8212
 21
12.0826
 31
0.0
  0
LINE
  8
0
 62
     0
 10
84.8212
 20
12.0826
 30
0.0
 11
83.2954
 21
12.0826
 31
0.0
  0
LINE
  8
0
 62
     0
 10
83.2954
 20
12.0826
 30
0.0
 11
83.2954
 21
16.7817
 31
0.0
  0
LINE
  8
0
 62
     0
 10
83.2954
 20
16.7817
 30
0.0
 11
69.2961
 21
16.7817
 31
0.0
  0
LINE
  8
0
 62
     0
 10
107.396
 20
16.7817
 30
0.0
 11
107.396
 21
12.0826
 31
0.0
  0
LINE
  8
0
 62
     0
 10
107.396
 20
12.0826
 30
0.0
 11
105.87
 21
12.0826
 31
0.0
  0
LINE
  8
0
 62
     0
 10
105.87
 20
12.0826
 30
0.0
 11
105.87
 21
15.3128
 31
0.0
  0
LINE
  8
0
 62
     0
 10
105.87
 20
15.3128
 30
0.0
 11
99.121
 21
15.3128
 31
0.0
  0
LINE
  8
0
 62
     0
 10
99.121
 20
15.3128
 30
0.0
 11
99.121
 21
12.0826
 31
0.0
  0
LINE
  8
0
 62
     0
 10
99.121
 20
12.0826
 30
0.0
 11
98.2955
 21
12.0826
 31
0.0
  0
LINE
  8
0
 62
     0
 10
98.2955
 20
12.0826
 30
0.0
 11
98.2955
 21
9.28247
 31
0.0
  0
LINE
  8
0
 62
     0
 10
98.2955
 20
9.28247
 30
0.0
 11
99.121
 21
9.28247
 31
0.0
  0
LINE
  8
0
 62
     0
 10
99.121
 20
9.28247
 30
0.0
 11
99.121
 21
3.01377
 31
0.0
  0
LINE
  8
0
 62
     0
 10
99.121
 20
3.01377
 30
0.0
 11
100.845
 21
3.01377
 31
0.0
  0
LINE
  8
0
 62
     0
 10
100.845
 20
3.01377
 30
0.0
 11
100.845
 21
1.81212
 31
0.0
  0
LINE
  8
0
 62
     0
 10
100.845
 20
1.81212
 30
0.0
 11
104.145
 21
1.81212
 31
0.0
  0
LINE
  8
0
 62
     0
 10
104.145
 20
1.81212
 30
0.0
 11
104.145
 21
3.01377
 31
0.0
  0
LINE
  8
0
 62
     0
 10
104.145
 20
3.01377
 30
0.0
 11
105.87
 21
3.01377
 31
0.0
  0
LINE
  8
0
 62
     0
 10
105.87
 20
3.01377
 30
0.0
 11
105.87
 21
7.48273
 31
0.0
  0
LINE
  8
0
 62
     0
 10
105.87
 20
7.48273
 30
0.0
 11
107.396
 21
7.48273
 31
0.0
  0
LINE
  8
0
 62
     0
 10
107.396
 20
7.48273
 30
0.0
 11
107.396
 21
2.78226
 31
0.0
  0
LINE
  8
0
 62
     0
 10
107.396
 20
2.78226
 30
0.0
 11
121.395
 21
2.78226
 31
0.0
  0
LINE
  8
0
 62
     0
 10
121.395
 20
2.78226
 30
0.0
 11
121.395
 21
7.48273
 31
0.0
  0
LINE
  8
0
 62
     0
 10
121.395
 20
7.48273
 30
0.0
 11
122.921
 21
7.48273
 31
0.0
  0
LINE
  8
0
 62
     0
 10
122.921
 20
7.48273
 30
0.0
 11
122.921
 21
3.01377
 31
0.0
  0
LINE
  8
0
 62
     0
 10
122.921
 20
3.01377
 30
0.0
 11
124.645
 21
3.01377
 31
0.0
  0
LINE
  8
0
 62
     0
 10
124.645
 20
3.01377
 30
0.0
 11
124.645
 21
1.81212
 31
0.0
  0
LINE
  8
0
 62
     0
 10
124.645
 20
1.81212
 30
0.0
 11
127.945
 21
1.81212
 31
0.0
  0
LINE
  8
0
 62
     0
 10
127.945
 20
1.81212
 30
0.0
 11
127.945
 21
3.01377
 31
0.0
  0
LINE
  8
0
 62
     0
 10
127.945
 20
3.01377
 30
0.0
 11
129.671
 21
3.01377
 31
0.0
  0
LINE
  8
0
 62
     0
 10
129.671
 20
3.01377
 30
0.0
 11
129.671
 21
9.28247
 31
0.0
  0
LINE
  8
0
 62
     0
 10
129.671
 20
9.28247
 30
0.0
 11
130.496
 21
9.28247
 31
0.0
  0
LINE
  8
0
 62
     0
 10
130.496
 20
9.28247
 30
0.0
 11
130.496
 21
12.0826
 31
0.0
  0
LINE
  8
0
 62
     0
 10
130.496
 20
12.0826
 30
0.0
 11
129.671
 21
12.0826
 31
0.0
  0
LINE
  8
0
 62
     0
 10
129.671
 20
12.0826
 30
0.0
 11
129.671
 21
15.3128
 31
0.0
  0
LINE
  8
0
 62
     0
 10
129.671
 20
15.3128
 30
0.0
 11
122.921
 21
15.3128
 31
0.0
  0
LINE
  8
0
 62
     0
 10
122.921
 20
15.3128
 30
0.0
 11
122.921
 21
12.0826
 31
0.0
  0
LINE
  8
0
 62
     0
 10
122.921
 20
12.0826
 30
0.0
 11
121.395
 21
12.0826
 31
0.0
  0
LINE
  8
0
 62
     0
 10
121.395
 20
12.0826
 30
0.0
 11
121.395
 21
16.7817
 31
0.0
  0
LINE
  8
0
 62
     0
 10
121.395
 20
16.7817
 30
0.0
 11
107.396
 21
16.7817
 31
0.0
  0
LINE
  8
0
 62
     0
 10
21.671
 20
16.7817
 30
0.0
 11
35.6704
 21
16.7817
 31
0.0
  0
LINE
  8
0
 62
     0
 10
35.6704
 20
16.7817
 30
0.0
 11
35.6704
 21
2.78226
 31
0.0
  0
LINE
  8
0
 62
     0
 10
35.6704
 20
2.78226
 30
0.0
 11
21.671
 21
2.78226
 31
0.0
  0
LINE
  8
0
 62
     0
 10
21.671
 20
2.78226
 30
0.0
 11
21.671
 21
16.7817
 31
0.0
  0
LINE
  8
0
 62
     0
 10
40.7211
 20
16.7817
 30
0.0
 11
54.7204
 21
16.7817
 31
0.0
  0
LINE
  8
0
 62
     0
 10
54.7204
 20
16.7817
 30
0.0
 11
54.7204
 21
2.78226
 31
0.0
  0
LINE
  8
0
 62
     0
 10
54.7204
 20
2.78226
 30
0.0
 11
40.7211
 21
2.78226
 31
0.0
  0
LINE
  8
0
 62
     0
 10
40.7211
 20
2.78226
 30
0.0
 11
40.7211
 21
16.7817
 31
0.0
  0
LINE
  8
0
 62
     0
 10
135.971
 20
16.7817
 30
0.0
 11
149.97
 21
16.7817
 31
0.0
  0
LINE
  8
0
 62
     0
 10
149.97
 20
16.7817
 30
0.0
 11
149.97
 21
2.78226
 31
0.0
  0
LINE
  8
0
 62
     0
 10
149.97
 20
2.78226
 30
0.0
 11
135.971
 21
2.78226
 31
0.0
  0
LINE
  8
0
 62
     0
 10
135.971
 20
2.78226
 30
0.0
 11
135.971
 21
16.7817
 31
0.0
  0
LINE
  8
0
 62
     0
 10
155.021
 20
16.7817
 30
0.0
 11
169.02
 21
16.7817
 31
0.0
  0
LINE
  8
0
 62
     0
 10
169.02
 20
16.7817
 30
0.0
 11
169.02
 21
2.78226
 31
0.0
  0
LINE
  8
0
 62
     0
 10
169.02
 20
2.78226
 30
0.0
 11
155.021
 21
2.78226
 31
0.0
  0
LINE
  8
0
 62
     0
 10
155.021
 20
2.78226
 30
0.0
 11
155.021
 21
16.7817
 31
0.0
  0
LINE
  8
0
 62
     0
 10
2.62103
 20
35.8316
 30
0.0
 11
16.6205
 21
35.8316
 31
0.0
  0
LINE
  8
0
 62
     0
 10
16.6205
 20
35.8316
 30
0.0
 11
16.6205
 21
21.8323
 31
0.0
  0
LINE
  8
0
 62
     0
 10
16.6205
 20
21.8323
 30
0.0
 11
2.62103
 21
21.8323
 31
0.0
  0
LINE
  8
0
 62
     0
 10
2.62103
 20
21.8323
 30
0.0
 11
2.62103
 21
35.8316
 31
0.0
  0
LINE
  8
0
 62
     0
 10
21.671
 20
35.8316
 30
0.0
 11
35.6704
 21
35.8316
 31
0.0
  0
LINE
  8
0
 62
     0
 10
35.6704
 20
35.8316
 30
0.0
 11
35.6704
 21
21.8323
 31
0.0
  0
LINE
  8
0
 62
     0
 10
35.6704
 20
21.8323
 30
0.0
 11
21.671
 21
21.8323
 31
0.0
  0
LINE
  8
0
 62
     0
 10
21.671
 20
21.8323
 30
0.0
 11
21.671
 21
35.8316
 31
0.0
  0
LINE
  8
0
 62
     0
 10
40.7211
 20
35.8316
 30
0.0
 11
54.7204
 21
35.8316
 31
0.0
  0
LINE
  8
0
 62
     0
 10
54.7204
 20
35.8316
 30
0.0
 11
54.7204
 21
21.8323
 31
0.0
  0
LINE
  8
0
 62
     0
 10
54.7204
 20
21.8323
 30
0.0
 11
40.7211
 21
21.8323
 31
0.0
  0
LINE
  8
0
 62
     0
 10
40.7211
 20
21.8323
 30
0.0
 11
40.7211
 21
35.8316
 31
0.0
  0
LINE
  8
0
 62
     0
 10
59.7711
 20
35.8316
 30
0.0
 11
73.7704
 21
35.8316
 31
0.0
  0
LINE
  8
0
 62
     0
 10
73.7704
 20
35.8316
 30
0.0
 11
73.7704
 21
21.8323
 31
0.0
  0
LINE
  8
0
 62
     0
 10
73.7704
 20
21.8323
 30
0.0
 11
59.7711
 21
21.8323
 31
0.0
  0
LINE
  8
0
 62
     0
 10
59.7711
 20
21.8323
 30
0.0
 11
59.7711
 21
35.8316
 31
0.0
  0
LINE
  8
0
 62
     0
 10
78.8211
 20
35.8316
 30
0.0
 11
92.8204
 21
35.8316
 31
0.0
  0
LINE
  8
0
 62
     0
 10
92.8204
 20
35.8316
 30
0.0
 11
92.8204
 21
21.8323
 31
0.0
  0
LINE
  8
0
 62
     0
 10
92.8204
 20
21.8323
 30
0.0
 11
78.8211
 21
21.8323
 31
0.0
  0
LINE
  8
0
 62
     0
 10
78.8211
 20
21.8323
 30
0.0
 11
78.8211
 21
35.8316
 31
0.0
  0
LINE
  8
0
 62
     0
 10
97.8697
 20
35.8316
 30
0.0
 11
111.869
 21
35.8316
 31
0.0
  0
LINE
  8
0
 62
     0
 10
111.869
 20
35.8316
 30
0.0
 11
111.869
 21
21.8323
 31
0.0
  0
LINE
  8
0
 62
     0
 10
111.869
 20
21.8323
 30
0.0
 11
97.8697
 21
21.8323
 31
0.0
  0
LINE
  8
0
 62
     0
 10
97.8697
 20
21.8323
 30
0.0
 11
97.8697
 21
35.8316
 31
0.0
  0
LINE
  8
0
 62
     0
 10
116.92
 20
35.8316
 30
0.0
 11
130.92
 21
35.8316
 31
0.0
  0
LINE
  8
0
 62
     0
 10
130.92
 20
35.8316
 30
0.0
 11
130.92
 21
21.8323
 31
0.0
  0
LINE
  8
0
 62
     0
 10
130.92
 20
21.8323
 30
0.0
 11
116.92
 21
21.8323
 31
0.0
  0
LINE
  8
0
 62
     0
 10
116.92
 20
21.8323
 30
0.0
 11
116.92
 21
35.8316
 31
0.0
  0
LINE
  8
0
 62
     0
 10
135.971
 20
35.8316
 30
0.0
 11
149.97
 21
35.8316
 31
0.0
  0
LINE
  8
0
 62
     0
 10
149.97
 20
35.8316
 30
0.0
 11
149.97
 21
21.8323
 31
0.0
  0
LINE
  8
0
 62
     0
 10
149.97
 20
21.8323
 30
0.0
 11
135.971
 21
21.8323
 31
0.0
  0
LINE
  8
0
 62
     0
 10
135.971
 20
21.8323
 30
0.0
 11
135.971
 21
35.8316
 31
0.0
  0
LINE
  8
0
 62
     0
 10
155.021
 20
35.8316
 30
0.0
 11
169.02
 21
35.8316
 31
0.0
  0
LINE
  8
0
 62
     0
 10
169.02
 20
35.8316
 30
0.0
 11
169.02
 21
21.8323
 31
0.0
  0
LINE
  8
0
 62
     0
 10
169.02
 20
21.8323
 30
0.0
 11
155.021
 21
21.8323
 31
0.0
  0
LINE
  8
0
 62
     0
 10
155.021
 20
21.8323
 30
0.0
 11
155.021
 21
35.8316
 31
0.0
  0
LINE
  8
0
 62
     0
 10
174.071
 20
35.8316
 30
0.0
 11
188.07
 21
35.8316
 31
0.0
  0
LINE
  8
0
 62
     0
 10
188.07
 20
35.8316
 30
0.0
 11
188.07
 21
21.8323
 31
0.0
  0
LINE
  8
0
 62
     0
 10
188.07
 20
21.8323
 30
0.0
 11
174.071
 21
21.8323
 31
0.0
  0
LINE
  8
0
 62
     0
 10
174.071
 20
21.8323
 30
0.0
 11
174.071
 21
35.8316
 31
0.0
  0
LINE
  8
0
 62
     0
 10
2.62103
 20
54.8816
 30
0.0
 11
16.6205
 21
54.8816
 31
0.0
  0
LINE
  8
0
 62
     0
 10
16.6205
 20
54.8816
 30
0.0
 11
16.6205
 21
40.8824
 31
0.0
  0
LINE
  8
0
 62
     0
 10
16.6205
 20
40.8824
 30
0.0
 11
2.62103
 21
40.8824
 31
0.0
  0
LINE
  8
0
 62
     0
 10
2.62103
 20
40.8824
 30
0.0
 11
2.62103
 21
54.8816
 31
0.0
  0
LINE
  8
0
 62
     0
 10
21.671
 20
54.8816
 30
0.0
 11
35.6704
 21
54.8816
 31
0.0
  0
LINE
  8
0
 62
     0
 10
35.6704
 20
54.8816
 30
0.0
 11
35.6704
 21
40.8824
 31
0.0
  0
LINE
  8
0
 62
     0
 10
35.6704
 20
40.8824
 30
0.0
 11
21.671
 21
40.8824
 31
0.0
  0
LINE
  8
0
 62
     0
 10
21.671
 20
40.8824
 30
0.0
 11
21.671
 21
54.8816
 31
0.0
  0
LINE
  8
0
 62
     0
 10
40.7211
 20
54.8816
 30
0.0
 11
54.7204
 21
54.8816
 31
0.0
  0
LINE
  8
0
 62
     0
 10
54.7204
 20
54.8816
 30
0.0
 11
54.7204
 21
40.8824
 31
0.0
  0
LINE
  8
0
 62
     0
 10
54.7204
 20
40.8824
 30
0.0
 11
40.7211
 21
40.8824
 31
0.0
  0
LINE
  8
0
 62
     0
 10
40.7211
 20
40.8824
 30
0.0
 11
40.7211
 21
54.8816
 31
0.0
  0
LINE
  8
0
 62
     0
 10
59.7711
 20
54.8816
 30
0.0
 11
73.7704
 21
54.8816
 31
0.0
  0
LINE
  8
0
 62
     0
 10
73.7704
 20
54.8816
 30
0.0
 11
73.7704
 21
40.8824
 31
0.0
  0
LINE
  8
0
 62
     0
 10
73.7704
 20
40.8824
 30
0.0
 11
59.7711
 21
40.8824
 31
0.0
  0
LINE
  8
0
 62
     0
 10
59.7711
 20
40.8824
 30
0.0
 11
59.7711
 21
54.8816
 31
0.0
  0
LINE
  8
0
 62
     0
 10
78.8211
 20
54.8816
 30
0.0
 11
92.8204
 21
54.8816
 31
0.0
  0
LINE
  8
0
 62
     0
 10
92.8204
 20
54.8816
 30
0.0
 11
92.8204
 21
40.8824
 31
0.0
  0
LINE
  8
0
 62
     0
 10
92.8204
 20
40.8824
 30
0.0
 11
78.8211
 21
40.8824
 31
0.0
  0
LINE
  8
0
 62
     0
 10
78.8211
 20
40.8824
 30
0.0
 11
78.8211
 21
54.8816
 31
0.0
  0
LINE
  8
0
 62
     0
 10
97.8697
 20
54.8816
 30
0.0
 11
111.869
 21
54.8816
 31
0.0
  0
LINE
  8
0
 62
     0
 10
111.869
 20
54.8816
 30
0.0
 11
111.869
 21
40.8824
 31
0.0
  0
LINE
  8
0
 62
     0
 10
111.869
 20
40.8824
 30
0.0
 11
97.8697
 21
40.8824
 31
0.0
  0
LINE
  8
0
 62
     0
 10
97.8697
 20
40.8824
 30
0.0
 11
97.8697
 21
54.8816
 31
0.0
  0
LINE
  8
0
 62
     0
 10
116.92
 20
54.8816
 30
0.0
 11
130.92
 21
54.8816
 31
0.0
  0
LINE
  8
0
 62
     0
 10
130.92
 20
54.8816
 30
0.0
 11
130.92
 21
40.8824
 31
0.0
  0
LINE
  8
0
 62
     0
 10
130.92
 20
40.8824
 30
0.0
 11
116.92
 21
40.8824
 31
0.0
  0
LINE
  8
0
 62
     0
 10
116.92
 20
40.8824
 30
0.0
 11
116.92
 21
54.8816
 31
0.0
  0
LINE
  8
0
 62
     0
 10
135.971
 20
54.8816
 30
0.0
 11
149.97
 21
54.8816
 31
0.0
  0
LINE
  8
0
 62
     0
 10
149.97
 20
54.8816
 30
0.0
 11
149.97
 21
40.8824
 31
0.0
  0
LINE
  8
0
 62
     0
 10
149.97
 20
40.8824
 30
0.0
 11
135.971
 21
40.8824
 31
0.0
  0
LINE
  8
0
 62
     0
 10
135.971
 20
40.8824
 30
0.0
 11
135.971
 21
54.8816
 31
0.0
  0
LINE
  8
0
 62
     0
 10
155.021
 20
54.8816
 30
0.0
 11
169.02
 21
54.8816
 31
0.0
  0
LINE
  8
0
 62
     0
 10
169.02
 20
54.8816
 30
0.0
 11
169.02
 21
40.8824
 31
0.0
  0
LINE
  8
0
 62
     0
 10
169.02
 20
40.8824
 30
0.0
 11
155.021
 21
40.8824
 31
0.0
  0
LINE
  8
0
 62
     0
 10
155.021
 20
40.8824
 30
0.0
 11
155.021
 21
54.8816
 31
0.0
  0
LINE
  8
0
 62
     0
 10
174.071
 20
54.8816
 30
0.0
 11
188.07
 21
54.8816
 31
0.0
  0
LINE
  8
0
 62
     0
 10
188.07
 20
54.8816
 30
0.0
 11
188.07
 21
40.8824
 31
0.0
  0
LINE
  8
0
 62
     0
 10
188.07
 20
40.8824
 30
0.0
 11
174.071
 21
40.8824
 31
0.0
  0
LINE
  8
0
 62
     0
 10
174.071
 20
40.8824
 30
0.0
 11
174.071
 21
54.8816
 31
0.0
  0
LINE
  8
0
 62
     0
 10
2.62103
 20
73.9316
 30
0.0
 11
16.6205
 21
73.9316
 31
0.0
  0
LINE
  8
0
 62
     0
 10
16.6205
 20
73.9316
 30
0.0
 11
16.6205
 21
59.9324
 31
0.0
  0
LINE
  8
0
 62
     0
 10
16.6205
 20
59.9324
 30
0.0
 11
2.62103
 21
59.9324
 31
0.0
  0
LINE
  8
0
 62
     0
 10
2.62103
 20
59.9324
 30
0.0
 11
2.62103
 21
73.9316
 31
0.0
  0
LINE
  8
0
 62
     0
 10
21.671
 20
73.9316
 30
0.0
 11
35.6704
 21
73.9316
 31
0.0
  0
LINE
  8
0
 62
     0
 10
35.6704
 20
73.9316
 30
0.0
 11
35.6704
 21
59.9324
 31
0.0
  0
LINE
  8
0
 62
     0
 10
35.6704
 20
59.9324
 30
0.0
 11
21.671
 21
59.9324
 31
0.0
  0
LINE
  8
0
 62
     0
 10
21.671
 20
59.9324
 30
0.0
 11
21.671
 21
73.9316
 31
0.0
  0
LINE
  8
0
 62
     0
 10
40.7211
 20
73.9316
 30
0.0
 11
54.7204
 21
73.9316
 31
0.0
  0
LINE
  8
0
 62
     0
 10
54.7204
 20
73.9316
 30
0.0
 11
54.7204
 21
59.9324
 31
0.0
  0
LINE
  8
0
 62
     0
 10
54.7204
 20
59.9324
 30
0.0
 11
40.7211
 21
59.9324
 31
0.0
  0
LINE
  8
0
 62
     0
 10
40.7211
 20
59.9324
 30
0.0
 11
40.7211
 21
73.9316
 31
0.0
  0
LINE
  8
0
 62
     0
 10
59.7711
 20
73.9316
 30
0.0
 11
73.7704
 21
73.9316
 31
0.0
  0
LINE
  8
0
 62
     0
 10
73.7704
 20
73.9316
 30
0.0
 11
73.7704
 21
59.9324
 31
0.0
  0
LINE
  8
0
 62
     0
 10
73.7704
 20
59.9324
 30
0.0
 11
59.7711
 21
59.9324
 31
0.0
  0
LINE
  8
0
 62
     0
 10
59.7711
 20
59.9324
 30
0.0
 11
59.7711
 21
73.9316
 31
0.0
  0
LINE
  8
0
 62
     0
 10
78.8211
 20
73.9316
 30
0.0
 11
92.8204
 21
73.9316
 31
0.0
  0
LINE
  8
0
 62
     0
 10
92.8204
 20
73.9316
 30
0.0
 11
92.8204
 21
59.9324
 31
0.0
  0
LINE
  8
0
 62
     0
 10
92.8204
 20
59.9324
 30
0.0
 11
78.8211
 21
59.9324
 31
0.0
  0
LINE
  8
0
 62
     0
 10
78.8211
 20
59.9324
 30
0.0
 11
78.8211
 21
73.9316
 31
0.0
  0
LINE
  8
0
 62
     0
 10
97.8697
 20
73.9316
 30
0.0
 11
111.869
 21
73.9316
 31
0.0
  0
LINE
  8
0
 62
     0
 10
111.869
 20
73.9316
 30
0.0
 11
111.869
 21
59.9324
 31
0.0
  0
LINE
  8
0
 62
     0
 10
111.869
 20
59.9324
 30
0.0
 11
97.8697
 21
59.9324
 31
0.0
  0
LINE
  8
0
 62
     0
 10
97.8697
 20
59.9324
 30
0.0
 11
97.8697
 21
73.9316
 31
0.0
  0
LINE
  8
0
 62
     0
 10
116.92
 20
73.9316
 30
0.0
 11
130.92
 21
73.9316
 31
0.0
  0
LINE
  8
0
 62
     0
 10
130.92
 20
73.9316
 30
0.0
 11
130.92
 21
59.9324
 31
0.0
  0
LINE
  8
0
 62
     0
 10
130.92
 20
59.9324
 30
0.0
 11
116.92
 21
59.9324
 31
0.0
  0
LINE
  8
0
 62
     0
 10
116.92
 20
59.9324
 30
0.0
 11
116.92
 21
73.9316
 31
0.0
  0
LINE
  8
0
 62
     0
 10
135.971
 20
73.9316
 30
0.0
 11
149.97
 21
73.9316
 31
0.0
  0
LINE
  8
0
 62
     0
 10
149.97
 20
73.9316
 30
0.0
 11
149.97
 21
59.9324
 31
0.0
  0
LINE
  8
0
 62
     0
 10
149.97
 20
59.9324
 30
0.0
 11
135.971
 21
59.9324
 31
0.0
  0
LINE
  8
0
 62
     0
 10
135.971
 20
59.9324
 30
0.0
 11
135.971
 21
73.9316
 31
0.0
  0
LINE
  8
0
 62
     0
 10
155.021
 20
73.9316
 30
0.0
 11
169.02
 21
73.9316
 31
0.0
  0
LINE
  8
0
 62
     0
 10
169.02
 20
73.9316
 30
0.0
 11
169.02
 21
59.9324
 31
0.0
  0
LINE
  8
0
 62
     0
 10
169.02
 20
59.9324
 30
0.0
 11
155.021
 21
59.9324
 31
0.0
  0
LINE
  8
0
 62
     0
 10
155.021
 20
59.9324
 30
0.0
 11
155.021
 21
73.9316
 31
0.0
  0
LINE
  8
0
 62
     0
 10
174.071
 20
73.9316
 30
0.0
 11
188.07
 21
73.9316
 31
0.0
  0
LINE
  8
0
 62
     0
 10
188.07
 20
73.9316
 30
0.0
 11
188.07
 21
59.9324
 31
0.0
  0
LINE
  8
0
 62
     0
 10
188.07
 20
59.9324
 30
0.0
 11
174.071
 21
59.9324
 31
0.0
  0
LINE
  8
0
 62
     0
 10
174.071
 20
59.9324
 30
0.0
 11
174.071
 21
73.9316
 31
0.0
  0
LINE
  8
0
 62
     0
 10
2.62103
 20
92.9816
 30
0.0
 11
16.6205
 21
92.9816
 31
0.0
  0
LINE
  8
0
 62
     0
 10
16.6205
 20
92.9816
 30
0.0
 11
16.6205
 21
78.9824
 31
0.0
  0
LINE
  8
0
 62
     0
 10
16.6205
 20
78.9824
 30
0.0
 11
2.62103
 21
78.9824
 31
0.0
  0
LINE
  8
0
 62
     0
 10
2.62103
 20
78.9824
 30
0.0
 11
2.62103
 21
92.9816
 31
0.0
  0
LINE
  8
0
 62
     0
 10
21.671
 20
92.9816
 30
0.0
 11
35.6704
 21
92.9816
 31
0.0
  0
LINE
  8
0
 62
     0
 10
35.6704
 20
92.9816
 30
0.0
 11
35.6704
 21
78.9824
 31
0.0
  0
LINE
  8
0
 62
     0
 10
35.6704
 20
78.9824
 30
0.0
 11
21.671
 21
78.9824
 31
0.0
  0
LINE
  8
0
 62
     0
 10
21.671
 20
78.9824
 30
0.0
 11
21.671
 21
92.9816
 31
0.0
  0
LINE
  8
0
 62
     0
 10
40.7211
 20
92.9816
 30
0.0
 11
54.7204
 21
92.9816
 31
0.0
  0
LINE
  8
0
 62
     0
 10
54.7204
 20
92.9816
 30
0.0
 11
54.7204
 21
78.9824
 31
0.0
  0
LINE
  8
0
 62
     0
 10
54.7204
 20
78.9824
 30
0.0
 11
40.7211
 21
78.9824
 31
0.0
  0
LINE
  8
0
 62
     0
 10
40.7211
 20
78.9824
 30
0.0
 11
40.7211
 21
92.9816
 31
0.0
  0
LINE
  8
0
 62
     0
 10
59.7711
 20
92.9816
 30
0.0
 11
73.7704
 21
92.9816
 31
0.0
  0
LINE
  8
0
 62
     0
 10
73.7704
 20
92.9816
 30
0.0
 11
73.7704
 21
78.9824
 31
0.0
  0
LINE
  8
0
 62
     0
 10
73.7704
 20
78.9824
 30
0.0
 11
59.7711
 21
78.9824
 31
0.0
  0
LINE
  8
0
 62
     0
 10
59.7711
 20
78.9824
 30
0.0
 11
59.7711
 21
92.9816
 31
0.0
  0
LINE
  8
0
 62
     0
 10
78.8211
 20
92.9816
 30
0.0
 11
92.8204
 21
92.9816
 31
0.0
  0
LINE
  8
0
 62
     0
 10
92.8204
 20
92.9816
 30
0.0
 11
92.8204
 21
78.9824
 31
0.0
  0
LINE
  8
0
 62
     0
 10
92.8204
 20
78.9824
 30
0.0
 11
78.8211
 21
78.9824
 31
0.0
  0
LINE
  8
0
 62
     0
 10
78.8211
 20
78.9824
 30
0.0
 11
78.8211
 21
92.9816
 31
0.0
  0
ENDSEC
  0
EOF
