  0
SECTION
  2
HEADER
  9
$ACADVER
  1
AC1009
  9
$FILLMODE
 70
 0
  9
$SPLFRAME
 70
 1
  9
$EXTMIN
 10
0
 20
0
 30
0.0
  9
$EXTMAX
 10
1058.33
 20
1058.33
 30
0.0
  0
ENDSEC
  0
SECTION
  2
TABLES
  0
TABLE
  2
LAYER
 70
1
  0
LAYER
  2
0
 70
     0
 62
     7
  6
CONTINUOUS
  0
ENDTAB
  0
ENDSEC
  0
SECTION
  2
ENTITIES
  0
LINE
  8
0
 62
     0
 10
0.0950846
 20
76.4575
 30
0.0
 11
190.595
 21
76.4575
 31
0.0
  0
LINE
  8
0
 62
     0
 10
190.595
 20
76.4575
 30
0.0
 11
190.595
 21
0.257693
 31
0.0
  0
LINE
  8
0
 62
     0
 10
190.595
 20
0.257693
 30
0.0
 11
0.0950846
 21
0.257693
 31
0.0
  0
LINE
  8
0
 62
     0
 10
0.0950846
 20
0.257693
 30
0.0
 11
0.0950846
 21
76.4575
 31
0.0
  0
LINE
  8
0
 62
     0
 10
88.3447
 20
16.7831
 30
0.0
 11
88.3447
 21
16.1837
 31
0.0
  0
LINE
  8
0
 62
     0
 10
88.3447
 20
16.1837
 30
0.0
 11
87.5439
 21
16.1837
 31
0.0
  0
LINE
  8
0
 62
     0
 10
87.5439
 20
16.1837
 30
0.0
 11
87.5439
 21
12.0826
 31
0.0
  0
LINE
  8
0
 62
     0
 10
87.5439
 20
12.0826
 30
0.0
 11
79.6699
 21
12.0826
 31
0.0
  0
LINE
  8
0
 62
     0
 10
79.6699
 20
12.0826
 30
0.0
 11
79.6699
 21
15.3128
 31
0.0
  0
LINE
  8
0
 62
     0
 10
79.6699
 20
15.3128
 30
0.0
 11
72.9188
 21
15.3128
 31
0.0
  0
LINE
  8
0
 62
     0
 10
72.9188
 20
15.3128
 30
0.0
 11
72.9188
 21
12.0826
 31
0.0
  0
LINE
  8
0
 62
     0
 10
72.9188
 20
12.0826
 30
0.0
 11
72.0947
 21
12.0826
 31
0.0
  0
LINE
  8
0
 62
     0
 10
72.0947
 20
12.0826
 30
0.0
 11
72.0947
 21
9.28384
 31
0.0
  0
LINE
  8
0
 62
     0
 10
72.0947
 20
9.28384
 30
0.0
 11
72.9188
 21
9.28384
 31
0.0
  0
LINE
  8
0
 62
     0
 10
72.9188
 20
9.28384
 30
0.0
 11
72.9188
 21
3.01377
 31
0.0
  0
LINE
  8
0
 62
     0
 10
72.9188
 20
3.01377
 30
0.0
 11
74.6442
 21
3.01377
 31
0.0
  0
LINE
  8
0
 62
     0
 10
74.6442
 20
3.01377
 30
0.0
 11
74.6442
 21
1.8135
 31
0.0
  0
LINE
  8
0
 62
     0
 10
74.6442
 20
1.8135
 30
0.0
 11
77.9445
 21
1.8135
 31
0.0
  0
LINE
  8
0
 62
     0
 10
77.9445
 20
1.8135
 30
0.0
 11
77.9445
 21
3.01377
 31
0.0
  0
LINE
  8
0
 62
     0
 10
77.9445
 20
3.01377
 30
0.0
 11
79.6699
 21
3.01377
 31
0.0
  0
LINE
  8
0
 62
     0
 10
79.6699
 20
3.01377
 30
0.0
 11
79.6699
 21
7.48273
 31
0.0
  0
LINE
  8
0
 62
     0
 10
79.6699
 20
7.48273
 30
0.0
 11
87.5439
 21
7.48273
 31
0.0
  0
LINE
  8
0
 62
     0
 10
87.5439
 20
7.48273
 30
0.0
 11
87.5439
 21
3.38308
 31
0.0
  0
LINE
  8
0
 62
     0
 10
87.5439
 20
3.38308
 30
0.0
 11
88.3447
 21
3.38308
 31
0.0
  0
LINE
  8
0
 62
     0
 10
88.3447
 20
3.38308
 30
0.0
 11
88.3447
 21
2.78364
 31
0.0
  0
LINE
  8
0
 62
     0
 10
88.3447
 20
2.78364
 30
0.0
 11
102.344
 21
2.78364
 31
0.0
  0
LINE
  8
0
 62
     0
 10
102.344
 20
2.78364
 30
0.0
 11
102.344
 21
3.38308
 31
0.0
  0
LINE
  8
0
 62
     0
 10
102.344
 20
3.38308
 30
0.0
 11
103.145
 21
3.38308
 31
0.0
  0
LINE
  8
0
 62
     0
 10
103.145
 20
3.38308
 30
0.0
 11
103.145
 21
7.48273
 31
0.0
  0
LINE
  8
0
 62
     0
 10
103.145
 20
7.48273
 30
0.0
 11
111.019
 21
7.48273
 31
0.0
  0
LINE
  8
0
 62
     0
 10
111.019
 20
7.48273
 30
0.0
 11
111.019
 21
3.01377
 31
0.0
  0
LINE
  8
0
 62
     0
 10
111.019
 20
3.01377
 30
0.0
 11
112.744
 21
3.01377
 31
0.0
  0
LINE
  8
0
 62
     0
 10
112.744
 20
3.01377
 30
0.0
 11
112.744
 21
1.8135
 31
0.0
  0
LINE
  8
0
 62
     0
 10
112.744
 20
1.8135
 30
0.0
 11
116.044
 21
1.8135
 31
0.0
  0
LINE
  8
0
 62
     0
 10
116.044
 20
1.8135
 30
0.0
 11
116.044
 21
3.01377
 31
0.0
  0
LINE
  8
0
 62
     0
 10
116.044
 20
3.01377
 30
0.0
 11
117.77
 21
3.01377
 31
0.0
  0
LINE
  8
0
 62
     0
 10
117.77
 20
3.01377
 30
0.0
 11
117.77
 21
9.28384
 31
0.0
  0
LINE
  8
0
 62
     0
 10
117.77
 20
9.28384
 30
0.0
 11
118.594
 21
9.28384
 31
0.0
  0
LINE
  8
0
 62
     0
 10
118.594
 20
9.28384
 30
0.0
 11
118.594
 21
12.0826
 31
0.0
  0
LINE
  8
0
 62
     0
 10
118.594
 20
12.0826
 30
0.0
 11
117.77
 21
12.0826
 31
0.0
  0
LINE
  8
0
 62
     0
 10
117.77
 20
12.0826
 30
0.0
 11
117.77
 21
15.3128
 31
0.0
  0
LINE
  8
0
 62
     0
 10
117.77
 20
15.3128
 30
0.0
 11
111.019
 21
15.3128
 31
0.0
  0
LINE
  8
0
 62
     0
 10
111.019
 20
15.3128
 30
0.0
 11
111.019
 21
12.0826
 31
0.0
  0
LINE
  8
0
 62
     0
 10
111.019
 20
12.0826
 30
0.0
 11
103.145
 21
12.0826
 31
0.0
  0
LINE
  8
0
 62
     0
 10
103.145
 20
12.0826
 30
0.0
 11
103.145
 21
16.1837
 31
0.0
  0
LINE
  8
0
 62
     0
 10
103.145
 20
16.1837
 30
0.0
 11
102.344
 21
16.1837
 31
0.0
  0
LINE
  8
0
 62
     0
 10
102.344
 20
16.1837
 30
0.0
 11
102.344
 21
16.7831
 31
0.0
  0
LINE
  8
0
 62
     0
 10
102.344
 20
16.7831
 30
0.0
 11
88.3447
 21
16.7831
 31
0.0
  0
LINE
  8
0
 62
     0
 10
31.1947
 20
16.7831
 30
0.0
 11
31.1947
 21
16.1837
 31
0.0
  0
LINE
  8
0
 62
     0
 10
31.1947
 20
16.1837
 30
0.0
 11
30.394
 21
16.1837
 31
0.0
  0
LINE
  8
0
 62
     0
 10
30.394
 20
16.1837
 30
0.0
 11
30.394
 21
3.38308
 31
0.0
  0
LINE
  8
0
 62
     0
 10
30.394
 20
3.38308
 30
0.0
 11
31.1947
 21
3.38308
 31
0.0
  0
LINE
  8
0
 62
     0
 10
31.1947
 20
3.38308
 30
0.0
 11
31.1947
 21
2.78364
 31
0.0
  0
LINE
  8
0
 62
     0
 10
31.1947
 20
2.78364
 30
0.0
 11
45.194
 21
2.78364
 31
0.0
  0
LINE
  8
0
 62
     0
 10
45.194
 20
2.78364
 30
0.0
 11
45.194
 21
3.38308
 31
0.0
  0
LINE
  8
0
 62
     0
 10
45.194
 20
3.38308
 30
0.0
 11
45.9948
 21
3.38308
 31
0.0
  0
LINE
  8
0
 62
     0
 10
45.9948
 20
3.38308
 30
0.0
 11
45.9948
 21
16.1837
 31
0.0
  0
LINE
  8
0
 62
     0
 10
45.9948
 20
16.1837
 30
0.0
 11
45.194
 21
16.1837
 31
0.0
  0
LINE
  8
0
 62
     0
 10
45.194
 20
16.1837
 30
0.0
 11
45.194
 21
16.7831
 31
0.0
  0
LINE
  8
0
 62
     0
 10
45.194
 20
16.7831
 30
0.0
 11
31.1947
 21
16.7831
 31
0.0
  0
LINE
  8
0
 62
     0
 10
50.2447
 20
16.7831
 30
0.0
 11
50.2447
 21
16.1837
 31
0.0
  0
LINE
  8
0
 62
     0
 10
50.2447
 20
16.1837
 30
0.0
 11
49.4439
 21
16.1837
 31
0.0
  0
LINE
  8
0
 62
     0
 10
49.4439
 20
16.1837
 30
0.0
 11
49.4439
 21
3.38308
 31
0.0
  0
LINE
  8
0
 62
     0
 10
49.4439
 20
3.38308
 30
0.0
 11
50.2447
 21
3.38308
 31
0.0
  0
LINE
  8
0
 62
     0
 10
50.2447
 20
3.38308
 30
0.0
 11
50.2447
 21
2.78364
 31
0.0
  0
LINE
  8
0
 62
     0
 10
50.2447
 20
2.78364
 30
0.0
 11
64.244
 21
2.78364
 31
0.0
  0
LINE
  8
0
 62
     0
 10
64.244
 20
2.78364
 30
0.0
 11
64.244
 21
3.38308
 31
0.0
  0
LINE
  8
0
 62
     0
 10
64.244
 20
3.38308
 30
0.0
 11
65.0448
 21
3.38308
 31
0.0
  0
LINE
  8
0
 62
     0
 10
65.0448
 20
3.38308
 30
0.0
 11
65.0448
 21
16.1837
 31
0.0
  0
LINE
  8
0
 62
     0
 10
65.0448
 20
16.1837
 30
0.0
 11
64.244
 21
16.1837
 31
0.0
  0
LINE
  8
0
 62
     0
 10
64.244
 20
16.1837
 30
0.0
 11
64.244
 21
16.7831
 31
0.0
  0
LINE
  8
0
 62
     0
 10
64.244
 20
16.7831
 30
0.0
 11
50.2447
 21
16.7831
 31
0.0
  0
LINE
  8
0
 62
     0
 10
126.445
 20
16.7831
 30
0.0
 11
126.445
 21
16.1837
 31
0.0
  0
LINE
  8
0
 62
     0
 10
126.445
 20
16.1837
 30
0.0
 11
125.644
 21
16.1837
 31
0.0
  0
LINE
  8
0
 62
     0
 10
125.644
 20
16.1837
 30
0.0
 11
125.644
 21
3.38308
 31
0.0
  0
LINE
  8
0
 62
     0
 10
125.644
 20
3.38308
 30
0.0
 11
126.445
 21
3.38308
 31
0.0
  0
LINE
  8
0
 62
     0
 10
126.445
 20
3.38308
 30
0.0
 11
126.445
 21
2.78364
 31
0.0
  0
LINE
  8
0
 62
     0
 10
126.445
 20
2.78364
 30
0.0
 11
140.444
 21
2.78364
 31
0.0
  0
LINE
  8
0
 62
     0
 10
140.444
 20
2.78364
 30
0.0
 11
140.444
 21
3.38308
 31
0.0
  0
LINE
  8
0
 62
     0
 10
140.444
 20
3.38308
 30
0.0
 11
141.245
 21
3.38308
 31
0.0
  0
LINE
  8
0
 62
     0
 10
141.245
 20
3.38308
 30
0.0
 11
141.245
 21
16.1837
 31
0.0
  0
LINE
  8
0
 62
     0
 10
141.245
 20
16.1837
 30
0.0
 11
140.444
 21
16.1837
 31
0.0
  0
LINE
  8
0
 62
     0
 10
140.444
 20
16.1837
 30
0.0
 11
140.444
 21
16.7831
 31
0.0
  0
LINE
  8
0
 62
     0
 10
140.444
 20
16.7831
 30
0.0
 11
126.445
 21
16.7831
 31
0.0
  0
LINE
  8
0
 62
     0
 10
145.495
 20
16.7831
 30
0.0
 11
145.495
 21
16.1837
 31
0.0
  0
LINE
  8
0
 62
     0
 10
145.495
 20
16.1837
 30
0.0
 11
144.694
 21
16.1837
 31
0.0
  0
LINE
  8
0
 62
     0
 10
144.694
 20
16.1837
 30
0.0
 11
144.694
 21
3.38308
 31
0.0
  0
LINE
  8
0
 62
     0
 10
144.694
 20
3.38308
 30
0.0
 11
145.495
 21
3.38308
 31
0.0
  0
LINE
  8
0
 62
     0
 10
145.495
 20
3.38308
 30
0.0
 11
145.495
 21
2.78364
 31
0.0
  0
LINE
  8
0
 62
     0
 10
145.495
 20
2.78364
 30
0.0
 11
159.494
 21
2.78364
 31
0.0
  0
LINE
  8
0
 62
     0
 10
159.494
 20
2.78364
 30
0.0
 11
159.494
 21
3.38308
 31
0.0
  0
LINE
  8
0
 62
     0
 10
159.494
 20
3.38308
 30
0.0
 11
160.295
 21
3.38308
 31
0.0
  0
LINE
  8
0
 62
     0
 10
160.295
 20
3.38308
 30
0.0
 11
160.295
 21
16.1837
 31
0.0
  0
LINE
  8
0
 62
     0
 10
160.295
 20
16.1837
 30
0.0
 11
159.494
 21
16.1837
 31
0.0
  0
LINE
  8
0
 62
     0
 10
159.494
 20
16.1837
 30
0.0
 11
159.494
 21
16.7831
 31
0.0
  0
LINE
  8
0
 62
     0
 10
159.494
 20
16.7831
 30
0.0
 11
145.495
 21
16.7831
 31
0.0
  0
LINE
  8
0
 62
     0
 10
2.61965
 20
35.833
 30
0.0
 11
2.61965
 21
35.2337
 31
0.0
  0
LINE
  8
0
 62
     0
 10
2.61965
 20
35.2337
 30
0.0
 11
1.81901
 21
35.2337
 31
0.0
  0
LINE
  8
0
 62
     0
 10
1.81901
 20
35.2337
 30
0.0
 11
1.81901
 21
22.4331
 31
0.0
  0
LINE
  8
0
 62
     0
 10
1.81901
 20
22.4331
 30
0.0
 11
2.61965
 21
22.4331
 31
0.0
  0
LINE
  8
0
 62
     0
 10
2.61965
 20
22.4331
 30
0.0
 11
2.61965
 21
21.8336
 31
0.0
  0
LINE
  8
0
 62
     0
 10
2.61965
 20
21.8336
 30
0.0
 11
16.6192
 21
21.8336
 31
0.0
  0
LINE
  8
0
 62
     0
 10
16.6192
 20
21.8336
 30
0.0
 11
16.6192
 21
22.4331
 31
0.0
  0
LINE
  8
0
 62
     0
 10
16.6192
 20
22.4331
 30
0.0
 11
17.4198
 21
22.4331
 31
0.0
  0
LINE
  8
0
 62
     0
 10
17.4198
 20
22.4331
 30
0.0
 11
17.4198
 21
35.2337
 31
0.0
  0
LINE
  8
0
 62
     0
 10
17.4198
 20
35.2337
 30
0.0
 11
16.6192
 21
35.2337
 31
0.0
  0
LINE
  8
0
 62
     0
 10
16.6192
 20
35.2337
 30
0.0
 11
16.6192
 21
35.833
 31
0.0
  0
LINE
  8
0
 62
     0
 10
16.6192
 20
35.833
 30
0.0
 11
2.61965
 21
35.833
 31
0.0
  0
LINE
  8
0
 62
     0
 10
21.6697
 20
35.833
 30
0.0
 11
21.6697
 21
35.2337
 31
0.0
  0
LINE
  8
0
 62
     0
 10
21.6697
 20
35.2337
 30
0.0
 11
20.869
 21
35.2337
 31
0.0
  0
LINE
  8
0
 62
     0
 10
20.869
 20
35.2337
 30
0.0
 11
20.869
 21
22.4331
 31
0.0
  0
LINE
  8
0
 62
     0
 10
20.869
 20
22.4331
 30
0.0
 11
21.6697
 21
22.4331
 31
0.0
  0
LINE
  8
0
 62
     0
 10
21.6697
 20
22.4331
 30
0.0
 11
21.6697
 21
21.8336
 31
0.0
  0
LINE
  8
0
 62
     0
 10
21.6697
 20
21.8336
 30
0.0
 11
35.669
 21
21.8336
 31
0.0
  0
LINE
  8
0
 62
     0
 10
35.669
 20
21.8336
 30
0.0
 11
35.669
 21
22.4331
 31
0.0
  0
LINE
  8
0
 62
     0
 10
35.669
 20
22.4331
 30
0.0
 11
36.4698
 21
22.4331
 31
0.0
  0
LINE
  8
0
 62
     0
 10
36.4698
 20
22.4331
 30
0.0
 11
36.4698
 21
35.2337
 31
0.0
  0
LINE
  8
0
 62
     0
 10
36.4698
 20
35.2337
 30
0.0
 11
35.669
 21
35.2337
 31
0.0
  0
LINE
  8
0
 62
     0
 10
35.669
 20
35.2337
 30
0.0
 11
35.669
 21
35.833
 31
0.0
  0
LINE
  8
0
 62
     0
 10
35.669
 20
35.833
 30
0.0
 11
21.6697
 21
35.833
 31
0.0
  0
LINE
  8
0
 62
     0
 10
40.7197
 20
35.833
 30
0.0
 11
40.7197
 21
35.2337
 31
0.0
  0
LINE
  8
0
 62
     0
 10
40.7197
 20
35.2337
 30
0.0
 11
39.9189
 21
35.2337
 31
0.0
  0
LINE
  8
0
 62
     0
 10
39.9189
 20
35.2337
 30
0.0
 11
39.9189
 21
22.4331
 31
0.0
  0
LINE
  8
0
 62
     0
 10
39.9189
 20
22.4331
 30
0.0
 11
40.7197
 21
22.4331
 31
0.0
  0
LINE
  8
0
 62
     0
 10
40.7197
 20
22.4331
 30
0.0
 11
40.7197
 21
21.8336
 31
0.0
  0
LINE
  8
0
 62
     0
 10
40.7197
 20
21.8336
 30
0.0
 11
54.719
 21
21.8336
 31
0.0
  0
LINE
  8
0
 62
     0
 10
54.719
 20
21.8336
 30
0.0
 11
54.719
 21
22.4331
 31
0.0
  0
LINE
  8
0
 62
     0
 10
54.719
 20
22.4331
 30
0.0
 11
55.5198
 21
22.4331
 31
0.0
  0
LINE
  8
0
 62
     0
 10
55.5198
 20
22.4331
 30
0.0
 11
55.5198
 21
35.2337
 31
0.0
  0
LINE
  8
0
 62
     0
 10
55.5198
 20
35.2337
 30
0.0
 11
54.719
 21
35.2337
 31
0.0
  0
LINE
  8
0
 62
     0
 10
54.719
 20
35.2337
 30
0.0
 11
54.719
 21
35.833
 31
0.0
  0
LINE
  8
0
 62
     0
 10
54.719
 20
35.833
 30
0.0
 11
40.7197
 21
35.833
 31
0.0
  0
LINE
  8
0
 62
     0
 10
59.7697
 20
35.833
 30
0.0
 11
59.7697
 21
35.2337
 31
0.0
  0
LINE
  8
0
 62
     0
 10
59.7697
 20
35.2337
 30
0.0
 11
58.9689
 21
35.2337
 31
0.0
  0
LINE
  8
0
 62
     0
 10
58.9689
 20
35.2337
 30
0.0
 11
58.9689
 21
22.4331
 31
0.0
  0
LINE
  8
0
 62
     0
 10
58.9689
 20
22.4331
 30
0.0
 11
59.7697
 21
22.4331
 31
0.0
  0
LINE
  8
0
 62
     0
 10
59.7697
 20
22.4331
 30
0.0
 11
59.7697
 21
21.8336
 31
0.0
  0
LINE
  8
0
 62
     0
 10
59.7697
 20
21.8336
 30
0.0
 11
73.769
 21
21.8336
 31
0.0
  0
LINE
  8
0
 62
     0
 10
73.769
 20
21.8336
 30
0.0
 11
73.769
 21
22.4331
 31
0.0
  0
LINE
  8
0
 62
     0
 10
73.769
 20
22.4331
 30
0.0
 11
74.5698
 21
22.4331
 31
0.0
  0
LINE
  8
0
 62
     0
 10
74.5698
 20
22.4331
 30
0.0
 11
74.5698
 21
35.2337
 31
0.0
  0
LINE
  8
0
 62
     0
 10
74.5698
 20
35.2337
 30
0.0
 11
73.769
 21
35.2337
 31
0.0
  0
LINE
  8
0
 62
     0
 10
73.769
 20
35.2337
 30
0.0
 11
73.769
 21
35.833
 31
0.0
  0
LINE
  8
0
 62
     0
 10
73.769
 20
35.833
 30
0.0
 11
59.7697
 21
35.833
 31
0.0
  0
LINE
  8
0
 62
     0
 10
78.8197
 20
35.833
 30
0.0
 11
78.8197
 21
35.2337
 31
0.0
  0
LINE
  8
0
 62
     0
 10
78.8197
 20
35.2337
 30
0.0
 11
78.0189
 21
35.2337
 31
0.0
  0
LINE
  8
0
 62
     0
 10
78.0189
 20
35.2337
 30
0.0
 11
78.0189
 21
22.4331
 31
0.0
  0
LINE
  8
0
 62
     0
 10
78.0189
 20
22.4331
 30
0.0
 11
78.8197
 21
22.4331
 31
0.0
  0
LINE
  8
0
 62
     0
 10
78.8197
 20
22.4331
 30
0.0
 11
78.8197
 21
21.8336
 31
0.0
  0
LINE
  8
0
 62
     0
 10
78.8197
 20
21.8336
 30
0.0
 11
92.819
 21
21.8336
 31
0.0
  0
LINE
  8
0
 62
     0
 10
92.819
 20
21.8336
 30
0.0
 11
92.819
 21
22.4331
 31
0.0
  0
LINE
  8
0
 62
     0
 10
92.819
 20
22.4331
 30
0.0
 11
93.6184
 21
22.4331
 31
0.0
  0
LINE
  8
0
 62
     0
 10
93.6184
 20
22.4331
 30
0.0
 11
93.6184
 21
35.2337
 31
0.0
  0
LINE
  8
0
 62
     0
 10
93.6184
 20
35.2337
 30
0.0
 11
92.819
 21
35.2337
 31
0.0
  0
LINE
  8
0
 62
     0
 10
92.819
 20
35.2337
 30
0.0
 11
92.819
 21
35.833
 31
0.0
  0
LINE
  8
0
 62
     0
 10
92.819
 20
35.833
 30
0.0
 11
78.8197
 21
35.833
 31
0.0
  0
LINE
  8
0
 62
     0
 10
97.8683
 20
35.833
 30
0.0
 11
97.8683
 21
35.2337
 31
0.0
  0
LINE
  8
0
 62
     0
 10
97.8683
 20
35.2337
 30
0.0
 11
97.0689
 21
35.2337
 31
0.0
  0
LINE
  8
0
 62
     0
 10
97.0689
 20
35.2337
 30
0.0
 11
97.0689
 21
22.4331
 31
0.0
  0
LINE
  8
0
 62
     0
 10
97.0689
 20
22.4331
 30
0.0
 11
97.8683
 21
22.4331
 31
0.0
  0
LINE
  8
0
 62
     0
 10
97.8683
 20
22.4331
 30
0.0
 11
97.8683
 21
21.8336
 31
0.0
  0
LINE
  8
0
 62
     0
 10
97.8683
 20
21.8336
 30
0.0
 11
111.869
 21
21.8336
 31
0.0
  0
LINE
  8
0
 62
     0
 10
111.869
 20
21.8336
 30
0.0
 11
111.869
 21
22.4331
 31
0.0
  0
LINE
  8
0
 62
     0
 10
111.869
 20
22.4331
 30
0.0
 11
112.668
 21
22.4331
 31
0.0
  0
LINE
  8
0
 62
     0
 10
112.668
 20
22.4331
 30
0.0
 11
112.668
 21
35.2337
 31
0.0
  0
LINE
  8
0
 62
     0
 10
112.668
 20
35.2337
 30
0.0
 11
111.869
 21
35.2337
 31
0.0
  0
LINE
  8
0
 62
     0
 10
111.869
 20
35.2337
 30
0.0
 11
111.869
 21
35.833
 31
0.0
  0
LINE
  8
0
 62
     0
 10
111.869
 20
35.833
 30
0.0
 11
97.8683
 21
35.833
 31
0.0
  0
LINE
  8
0
 62
     0
 10
116.918
 20
35.833
 30
0.0
 11
116.918
 21
35.2337
 31
0.0
  0
LINE
  8
0
 62
     0
 10
116.918
 20
35.2337
 30
0.0
 11
116.119
 21
35.2337
 31
0.0
  0
LINE
  8
0
 62
     0
 10
116.119
 20
35.2337
 30
0.0
 11
116.119
 21
22.4331
 31
0.0
  0
LINE
  8
0
 62
     0
 10
116.119
 20
22.4331
 30
0.0
 11
116.918
 21
22.4331
 31
0.0
  0
LINE
  8
0
 62
     0
 10
116.918
 20
22.4331
 30
0.0
 11
116.918
 21
21.8336
 31
0.0
  0
LINE
  8
0
 62
     0
 10
116.918
 20
21.8336
 30
0.0
 11
130.919
 21
21.8336
 31
0.0
  0
LINE
  8
0
 62
     0
 10
130.919
 20
21.8336
 30
0.0
 11
130.919
 21
22.4331
 31
0.0
  0
LINE
  8
0
 62
     0
 10
130.919
 20
22.4331
 30
0.0
 11
131.72
 21
22.4331
 31
0.0
  0
LINE
  8
0
 62
     0
 10
131.72
 20
22.4331
 30
0.0
 11
131.72
 21
35.2337
 31
0.0
  0
LINE
  8
0
 62
     0
 10
131.72
 20
35.2337
 30
0.0
 11
130.919
 21
35.2337
 31
0.0
  0
LINE
  8
0
 62
     0
 10
130.919
 20
35.2337
 30
0.0
 11
130.919
 21
35.833
 31
0.0
  0
LINE
  8
0
 62
     0
 10
130.919
 20
35.833
 30
0.0
 11
116.918
 21
35.833
 31
0.0
  0
LINE
  8
0
 62
     0
 10
135.97
 20
35.833
 30
0.0
 11
135.97
 21
35.2337
 31
0.0
  0
LINE
  8
0
 62
     0
 10
135.97
 20
35.2337
 30
0.0
 11
135.169
 21
35.2337
 31
0.0
  0
LINE
  8
0
 62
     0
 10
135.169
 20
35.2337
 30
0.0
 11
135.169
 21
22.4331
 31
0.0
  0
LINE
  8
0
 62
     0
 10
135.169
 20
22.4331
 30
0.0
 11
135.97
 21
22.4331
 31
0.0
  0
LINE
  8
0
 62
     0
 10
135.97
 20
22.4331
 30
0.0
 11
135.97
 21
21.8336
 31
0.0
  0
LINE
  8
0
 62
     0
 10
135.97
 20
21.8336
 30
0.0
 11
149.969
 21
21.8336
 31
0.0
  0
LINE
  8
0
 62
     0
 10
149.969
 20
21.8336
 30
0.0
 11
149.969
 21
22.4331
 31
0.0
  0
LINE
  8
0
 62
     0
 10
149.969
 20
22.4331
 30
0.0
 11
150.77
 21
22.4331
 31
0.0
  0
LINE
  8
0
 62
     0
 10
150.77
 20
22.4331
 30
0.0
 11
150.77
 21
35.2337
 31
0.0
  0
LINE
  8
0
 62
     0
 10
150.77
 20
35.2337
 30
0.0
 11
149.969
 21
35.2337
 31
0.0
  0
LINE
  8
0
 62
     0
 10
149.969
 20
35.2337
 30
0.0
 11
149.969
 21
35.833
 31
0.0
  0
LINE
  8
0
 62
     0
 10
149.969
 20
35.833
 30
0.0
 11
135.97
 21
35.833
 31
0.0
  0
LINE
  8
0
 62
     0
 10
155.02
 20
35.833
 30
0.0
 11
155.02
 21
35.2337
 31
0.0
  0
LINE
  8
0
 62
     0
 10
155.02
 20
35.2337
 30
0.0
 11
154.219
 21
35.2337
 31
0.0
  0
LINE
  8
0
 62
     0
 10
154.219
 20
35.2337
 30
0.0
 11
154.219
 21
22.4331
 31
0.0
  0
LINE
  8
0
 62
     0
 10
154.219
 20
22.4331
 30
0.0
 11
155.02
 21
22.4331
 31
0.0
  0
LINE
  8
0
 62
     0
 10
155.02
 20
22.4331
 30
0.0
 11
155.02
 21
21.8336
 31
0.0
  0
LINE
  8
0
 62
     0
 10
155.02
 20
21.8336
 30
0.0
 11
169.019
 21
21.8336
 31
0.0
  0
LINE
  8
0
 62
     0
 10
169.019
 20
21.8336
 30
0.0
 11
169.019
 21
22.4331
 31
0.0
  0
LINE
  8
0
 62
     0
 10
169.019
 20
22.4331
 30
0.0
 11
169.82
 21
22.4331
 31
0.0
  0
LINE
  8
0
 62
     0
 10
169.82
 20
22.4331
 30
0.0
 11
169.82
 21
35.2337
 31
0.0
  0
LINE
  8
0
 62
     0
 10
169.82
 20
35.2337
 30
0.0
 11
169.019
 21
35.2337
 31
0.0
  0
LINE
  8
0
 62
     0
 10
169.019
 20
35.2337
 30
0.0
 11
169.019
 21
35.833
 31
0.0
  0
LINE
  8
0
 62
     0
 10
169.019
 20
35.833
 30
0.0
 11
155.02
 21
35.833
 31
0.0
  0
LINE
  8
0
 62
     0
 10
174.07
 20
35.833
 30
0.0
 11
174.07
 21
35.2337
 31
0.0
  0
LINE
  8
0
 62
     0
 10
174.07
 20
35.2337
 30
0.0
 11
173.269
 21
35.2337
 31
0.0
  0
LINE
  8
0
 62
     0
 10
173.269
 20
35.2337
 30
0.0
 11
173.269
 21
22.4331
 31
0.0
  0
LINE
  8
0
 62
     0
 10
173.269
 20
22.4331
 30
0.0
 11
174.07
 21
22.4331
 31
0.0
  0
LINE
  8
0
 62
     0
 10
174.07
 20
22.4331
 30
0.0
 11
174.07
 21
21.8336
 31
0.0
  0
LINE
  8
0
 62
     0
 10
174.07
 20
21.8336
 30
0.0
 11
188.069
 21
21.8336
 31
0.0
  0
LINE
  8
0
 62
     0
 10
188.069
 20
21.8336
 30
0.0
 11
188.069
 21
22.4331
 31
0.0
  0
LINE
  8
0
 62
     0
 10
188.069
 20
22.4331
 30
0.0
 11
188.87
 21
22.4331
 31
0.0
  0
LINE
  8
0
 62
     0
 10
188.87
 20
22.4331
 30
0.0
 11
188.87
 21
35.2337
 31
0.0
  0
LINE
  8
0
 62
     0
 10
188.87
 20
35.2337
 30
0.0
 11
188.069
 21
35.2337
 31
0.0
  0
LINE
  8
0
 62
     0
 10
188.069
 20
35.2337
 30
0.0
 11
188.069
 21
35.833
 31
0.0
  0
LINE
  8
0
 62
     0
 10
188.069
 20
35.833
 30
0.0
 11
174.07
 21
35.833
 31
0.0
  0
LINE
  8
0
 62
     0
 10
2.61965
 20
54.8831
 30
0.0
 11
2.61965
 21
54.2837
 31
0.0
  0
LINE
  8
0
 62
     0
 10
2.61965
 20
54.2837
 30
0.0
 11
1.81901
 21
54.2837
 31
0.0
  0
LINE
  8
0
 62
     0
 10
1.81901
 20
54.2837
 30
0.0
 11
1.81901
 21
41.4831
 31
0.0
  0
LINE
  8
0
 62
     0
 10
1.81901
 20
41.4831
 30
0.0
 11
2.61965
 21
41.4831
 31
0.0
  0
LINE
  8
0
 62
     0
 10
2.61965
 20
41.4831
 30
0.0
 11
2.61965
 21
40.8838
 31
0.0
  0
LINE
  8
0
 62
     0
 10
2.61965
 20
40.8838
 30
0.0
 11
16.6192
 21
40.8838
 31
0.0
  0
LINE
  8
0
 62
     0
 10
16.6192
 20
40.8838
 30
0.0
 11
16.6192
 21
41.4831
 31
0.0
  0
LINE
  8
0
 62
     0
 10
16.6192
 20
41.4831
 30
0.0
 11
17.4198
 21
41.4831
 31
0.0
  0
LINE
  8
0
 62
     0
 10
17.4198
 20
41.4831
 30
0.0
 11
17.4198
 21
54.2837
 31
0.0
  0
LINE
  8
0
 62
     0
 10
17.4198
 20
54.2837
 30
0.0
 11
16.6192
 21
54.2837
 31
0.0
  0
LINE
  8
0
 62
     0
 10
16.6192
 20
54.2837
 30
0.0
 11
16.6192
 21
54.8831
 31
0.0
  0
LINE
  8
0
 62
     0
 10
16.6192
 20
54.8831
 30
0.0
 11
2.61965
 21
54.8831
 31
0.0
  0
LINE
  8
0
 62
     0
 10
21.6697
 20
54.8831
 30
0.0
 11
21.6697
 21
54.2837
 31
0.0
  0
LINE
  8
0
 62
     0
 10
21.6697
 20
54.2837
 30
0.0
 11
20.869
 21
54.2837
 31
0.0
  0
LINE
  8
0
 62
     0
 10
20.869
 20
54.2837
 30
0.0
 11
20.869
 21
41.4831
 31
0.0
  0
LINE
  8
0
 62
     0
 10
20.869
 20
41.4831
 30
0.0
 11
21.6697
 21
41.4831
 31
0.0
  0
LINE
  8
0
 62
     0
 10
21.6697
 20
41.4831
 30
0.0
 11
21.6697
 21
40.8838
 31
0.0
  0
LINE
  8
0
 62
     0
 10
21.6697
 20
40.8838
 30
0.0
 11
35.669
 21
40.8838
 31
0.0
  0
LINE
  8
0
 62
     0
 10
35.669
 20
40.8838
 30
0.0
 11
35.669
 21
41.4831
 31
0.0
  0
LINE
  8
0
 62
     0
 10
35.669
 20
41.4831
 30
0.0
 11
36.4698
 21
41.4831
 31
0.0
  0
LINE
  8
0
 62
     0
 10
36.4698
 20
41.4831
 30
0.0
 11
36.4698
 21
54.2837
 31
0.0
  0
LINE
  8
0
 62
     0
 10
36.4698
 20
54.2837
 30
0.0
 11
35.669
 21
54.2837
 31
0.0
  0
LINE
  8
0
 62
     0
 10
35.669
 20
54.2837
 30
0.0
 11
35.669
 21
54.8831
 31
0.0
  0
LINE
  8
0
 62
     0
 10
35.669
 20
54.8831
 30
0.0
 11
21.6697
 21
54.8831
 31
0.0
  0
LINE
  8
0
 62
     0
 10
40.7197
 20
54.8831
 30
0.0
 11
40.7197
 21
54.2837
 31
0.0
  0
LINE
  8
0
 62
     0
 10
40.7197
 20
54.2837
 30
0.0
 11
39.9189
 21
54.2837
 31
0.0
  0
LINE
  8
0
 62
     0
 10
39.9189
 20
54.2837
 30
0.0
 11
39.9189
 21
41.4831
 31
0.0
  0
LINE
  8
0
 62
     0
 10
39.9189
 20
41.4831
 30
0.0
 11
40.7197
 21
41.4831
 31
0.0
  0
LINE
  8
0
 62
     0
 10
40.7197
 20
41.4831
 30
0.0
 11
40.7197
 21
40.8838
 31
0.0
  0
LINE
  8
0
 62
     0
 10
40.7197
 20
40.8838
 30
0.0
 11
54.719
 21
40.8838
 31
0.0
  0
LINE
  8
0
 62
     0
 10
54.719
 20
40.8838
 30
0.0
 11
54.719
 21
41.4831
 31
0.0
  0
LINE
  8
0
 62
     0
 10
54.719
 20
41.4831
 30
0.0
 11
55.5198
 21
41.4831
 31
0.0
  0
LINE
  8
0
 62
     0
 10
55.5198
 20
41.4831
 30
0.0
 11
55.5198
 21
54.2837
 31
0.0
  0
LINE
  8
0
 62
     0
 10
55.5198
 20
54.2837
 30
0.0
 11
54.719
 21
54.2837
 31
0.0
  0
LINE
  8
0
 62
     0
 10
54.719
 20
54.2837
 30
0.0
 11
54.719
 21
54.8831
 31
0.0
  0
LINE
  8
0
 62
     0
 10
54.719
 20
54.8831
 30
0.0
 11
40.7197
 21
54.8831
 31
0.0
  0
LINE
  8
0
 62
     0
 10
59.7697
 20
54.8831
 30
0.0
 11
59.7697
 21
54.2837
 31
0.0
  0
LINE
  8
0
 62
     0
 10
59.7697
 20
54.2837
 30
0.0
 11
58.9689
 21
54.2837
 31
0.0
  0
LINE
  8
0
 62
     0
 10
58.9689
 20
54.2837
 30
0.0
 11
58.9689
 21
41.4831
 31
0.0
  0
LINE
  8
0
 62
     0
 10
58.9689
 20
41.4831
 30
0.0
 11
59.7697
 21
41.4831
 31
0.0
  0
LINE
  8
0
 62
     0
 10
59.7697
 20
41.4831
 30
0.0
 11
59.7697
 21
40.8838
 31
0.0
  0
LINE
  8
0
 62
     0
 10
59.7697
 20
40.8838
 30
0.0
 11
73.769
 21
40.8838
 31
0.0
  0
LINE
  8
0
 62
     0
 10
73.769
 20
40.8838
 30
0.0
 11
73.769
 21
41.4831
 31
0.0
  0
LINE
  8
0
 62
     0
 10
73.769
 20
41.4831
 30
0.0
 11
74.5698
 21
41.4831
 31
0.0
  0
LINE
  8
0
 62
     0
 10
74.5698
 20
41.4831
 30
0.0
 11
74.5698
 21
54.2837
 31
0.0
  0
LINE
  8
0
 62
     0
 10
74.5698
 20
54.2837
 30
0.0
 11
73.769
 21
54.2837
 31
0.0
  0
LINE
  8
0
 62
     0
 10
73.769
 20
54.2837
 30
0.0
 11
73.769
 21
54.8831
 31
0.0
  0
LINE
  8
0
 62
     0
 10
73.769
 20
54.8831
 30
0.0
 11
59.7697
 21
54.8831
 31
0.0
  0
LINE
  8
0
 62
     0
 10
78.8197
 20
54.8831
 30
0.0
 11
78.8197
 21
54.2837
 31
0.0
  0
LINE
  8
0
 62
     0
 10
78.8197
 20
54.2837
 30
0.0
 11
78.0189
 21
54.2837
 31
0.0
  0
LINE
  8
0
 62
     0
 10
78.0189
 20
54.2837
 30
0.0
 11
78.0189
 21
41.4831
 31
0.0
  0
LINE
  8
0
 62
     0
 10
78.0189
 20
41.4831
 30
0.0
 11
78.8197
 21
41.4831
 31
0.0
  0
LINE
  8
0
 62
     0
 10
78.8197
 20
41.4831
 30
0.0
 11
78.8197
 21
40.8838
 31
0.0
  0
LINE
  8
0
 62
     0
 10
78.8197
 20
40.8838
 30
0.0
 11
92.819
 21
40.8838
 31
0.0
  0
LINE
  8
0
 62
     0
 10
92.819
 20
40.8838
 30
0.0
 11
92.819
 21
41.4831
 31
0.0
  0
LINE
  8
0
 62
     0
 10
92.819
 20
41.4831
 30
0.0
 11
93.6184
 21
41.4831
 31
0.0
  0
LINE
  8
0
 62
     0
 10
93.6184
 20
41.4831
 30
0.0
 11
93.6184
 21
54.2837
 31
0.0
  0
LINE
  8
0
 62
     0
 10
93.6184
 20
54.2837
 30
0.0
 11
92.819
 21
54.2837
 31
0.0
  0
LINE
  8
0
 62
     0
 10
92.819
 20
54.2837
 30
0.0
 11
92.819
 21
54.8831
 31
0.0
  0
LINE
  8
0
 62
     0
 10
92.819
 20
54.8831
 30
0.0
 11
78.8197
 21
54.8831
 31
0.0
  0
LINE
  8
0
 62
     0
 10
97.8683
 20
54.8831
 30
0.0
 11
97.8683
 21
54.2837
 31
0.0
  0
LINE
  8
0
 62
     0
 10
97.8683
 20
54.2837
 30
0.0
 11
97.0689
 21
54.2837
 31
0.0
  0
LINE
  8
0
 62
     0
 10
97.0689
 20
54.2837
 30
0.0
 11
97.0689
 21
41.4831
 31
0.0
  0
LINE
  8
0
 62
     0
 10
97.0689
 20
41.4831
 30
0.0
 11
97.8683
 21
41.4831
 31
0.0
  0
LINE
  8
0
 62
     0
 10
97.8683
 20
41.4831
 30
0.0
 11
97.8683
 21
40.8838
 31
0.0
  0
LINE
  8
0
 62
     0
 10
97.8683
 20
40.8838
 30
0.0
 11
111.869
 21
40.8838
 31
0.0
  0
LINE
  8
0
 62
     0
 10
111.869
 20
40.8838
 30
0.0
 11
111.869
 21
41.4831
 31
0.0
  0
LINE
  8
0
 62
     0
 10
111.869
 20
41.4831
 30
0.0
 11
112.668
 21
41.4831
 31
0.0
  0
LINE
  8
0
 62
     0
 10
112.668
 20
41.4831
 30
0.0
 11
112.668
 21
54.2837
 31
0.0
  0
LINE
  8
0
 62
     0
 10
112.668
 20
54.2837
 30
0.0
 11
111.869
 21
54.2837
 31
0.0
  0
LINE
  8
0
 62
     0
 10
111.869
 20
54.2837
 30
0.0
 11
111.869
 21
54.8831
 31
0.0
  0
LINE
  8
0
 62
     0
 10
111.869
 20
54.8831
 30
0.0
 11
97.8683
 21
54.8831
 31
0.0
  0
LINE
  8
0
 62
     0
 10
116.918
 20
54.8831
 30
0.0
 11
116.918
 21
54.2837
 31
0.0
  0
LINE
  8
0
 62
     0
 10
116.918
 20
54.2837
 30
0.0
 11
116.119
 21
54.2837
 31
0.0
  0
LINE
  8
0
 62
     0
 10
116.119
 20
54.2837
 30
0.0
 11
116.119
 21
41.4831
 31
0.0
  0
LINE
  8
0
 62
     0
 10
116.119
 20
41.4831
 30
0.0
 11
116.918
 21
41.4831
 31
0.0
  0
LINE
  8
0
 62
     0
 10
116.918
 20
41.4831
 30
0.0
 11
116.918
 21
40.8838
 31
0.0
  0
LINE
  8
0
 62
     0
 10
116.918
 20
40.8838
 30
0.0
 11
130.919
 21
40.8838
 31
0.0
  0
LINE
  8
0
 62
     0
 10
130.919
 20
40.8838
 30
0.0
 11
130.919
 21
41.4831
 31
0.0
  0
LINE
  8
0
 62
     0
 10
130.919
 20
41.4831
 30
0.0
 11
131.72
 21
41.4831
 31
0.0
  0
LINE
  8
0
 62
     0
 10
131.72
 20
41.4831
 30
0.0
 11
131.72
 21
54.2837
 31
0.0
  0
LINE
  8
0
 62
     0
 10
131.72
 20
54.2837
 30
0.0
 11
130.919
 21
54.2837
 31
0.0
  0
LINE
  8
0
 62
     0
 10
130.919
 20
54.2837
 30
0.0
 11
130.919
 21
54.8831
 31
0.0
  0
LINE
  8
0
 62
     0
 10
130.919
 20
54.8831
 30
0.0
 11
116.918
 21
54.8831
 31
0.0
  0
LINE
  8
0
 62
     0
 10
135.97
 20
54.8831
 30
0.0
 11
135.97
 21
54.2837
 31
0.0
  0
LINE
  8
0
 62
     0
 10
135.97
 20
54.2837
 30
0.0
 11
135.169
 21
54.2837
 31
0.0
  0
LINE
  8
0
 62
     0
 10
135.169
 20
54.2837
 30
0.0
 11
135.169
 21
41.4831
 31
0.0
  0
LINE
  8
0
 62
     0
 10
135.169
 20
41.4831
 30
0.0
 11
135.97
 21
41.4831
 31
0.0
  0
LINE
  8
0
 62
     0
 10
135.97
 20
41.4831
 30
0.0
 11
135.97
 21
40.8838
 31
0.0
  0
LINE
  8
0
 62
     0
 10
135.97
 20
40.8838
 30
0.0
 11
149.969
 21
40.8838
 31
0.0
  0
LINE
  8
0
 62
     0
 10
149.969
 20
40.8838
 30
0.0
 11
149.969
 21
41.4831
 31
0.0
  0
LINE
  8
0
 62
     0
 10
149.969
 20
41.4831
 30
0.0
 11
150.77
 21
41.4831
 31
0.0
  0
LINE
  8
0
 62
     0
 10
150.77
 20
41.4831
 30
0.0
 11
150.77
 21
54.2837
 31
0.0
  0
LINE
  8
0
 62
     0
 10
150.77
 20
54.2837
 30
0.0
 11
149.969
 21
54.2837
 31
0.0
  0
LINE
  8
0
 62
     0
 10
149.969
 20
54.2837
 30
0.0
 11
149.969
 21
54.8831
 31
0.0
  0
LINE
  8
0
 62
     0
 10
149.969
 20
54.8831
 30
0.0
 11
135.97
 21
54.8831
 31
0.0
  0
LINE
  8
0
 62
     0
 10
155.02
 20
54.8831
 30
0.0
 11
155.02
 21
54.2837
 31
0.0
  0
LINE
  8
0
 62
     0
 10
155.02
 20
54.2837
 30
0.0
 11
154.219
 21
54.2837
 31
0.0
  0
LINE
  8
0
 62
     0
 10
154.219
 20
54.2837
 30
0.0
 11
154.219
 21
41.4831
 31
0.0
  0
LINE
  8
0
 62
     0
 10
154.219
 20
41.4831
 30
0.0
 11
155.02
 21
41.4831
 31
0.0
  0
LINE
  8
0
 62
     0
 10
155.02
 20
41.4831
 30
0.0
 11
155.02
 21
40.8838
 31
0.0
  0
LINE
  8
0
 62
     0
 10
155.02
 20
40.8838
 30
0.0
 11
169.019
 21
40.8838
 31
0.0
  0
LINE
  8
0
 62
     0
 10
169.019
 20
40.8838
 30
0.0
 11
169.019
 21
41.4831
 31
0.0
  0
LINE
  8
0
 62
     0
 10
169.019
 20
41.4831
 30
0.0
 11
169.82
 21
41.4831
 31
0.0
  0
LINE
  8
0
 62
     0
 10
169.82
 20
41.4831
 30
0.0
 11
169.82
 21
54.2837
 31
0.0
  0
LINE
  8
0
 62
     0
 10
169.82
 20
54.2837
 30
0.0
 11
169.019
 21
54.2837
 31
0.0
  0
LINE
  8
0
 62
     0
 10
169.019
 20
54.2837
 30
0.0
 11
169.019
 21
54.8831
 31
0.0
  0
LINE
  8
0
 62
     0
 10
169.019
 20
54.8831
 30
0.0
 11
155.02
 21
54.8831
 31
0.0
  0
LINE
  8
0
 62
     0
 10
174.07
 20
54.8831
 30
0.0
 11
174.07
 21
54.2837
 31
0.0
  0
LINE
  8
0
 62
     0
 10
174.07
 20
54.2837
 30
0.0
 11
173.269
 21
54.2837
 31
0.0
  0
LINE
  8
0
 62
     0
 10
173.269
 20
54.2837
 30
0.0
 11
173.269
 21
41.4831
 31
0.0
  0
LINE
  8
0
 62
     0
 10
173.269
 20
41.4831
 30
0.0
 11
174.07
 21
41.4831
 31
0.0
  0
LINE
  8
0
 62
     0
 10
174.07
 20
41.4831
 30
0.0
 11
174.07
 21
40.8838
 31
0.0
  0
LINE
  8
0
 62
     0
 10
174.07
 20
40.8838
 30
0.0
 11
188.069
 21
40.8838
 31
0.0
  0
LINE
  8
0
 62
     0
 10
188.069
 20
40.8838
 30
0.0
 11
188.069
 21
41.4831
 31
0.0
  0
LINE
  8
0
 62
     0
 10
188.069
 20
41.4831
 30
0.0
 11
188.87
 21
41.4831
 31
0.0
  0
LINE
  8
0
 62
     0
 10
188.87
 20
41.4831
 30
0.0
 11
188.87
 21
54.2837
 31
0.0
  0
LINE
  8
0
 62
     0
 10
188.87
 20
54.2837
 30
0.0
 11
188.069
 21
54.2837
 31
0.0
  0
LINE
  8
0
 62
     0
 10
188.069
 20
54.2837
 30
0.0
 11
188.069
 21
54.8831
 31
0.0
  0
LINE
  8
0
 62
     0
 10
188.069
 20
54.8831
 30
0.0
 11
174.07
 21
54.8831
 31
0.0
  0
LINE
  8
0
 62
     0
 10
2.61965
 20
73.9331
 30
0.0
 11
2.61965
 21
73.3337
 31
0.0
  0
LINE
  8
0
 62
     0
 10
2.61965
 20
73.3337
 30
0.0
 11
1.81901
 21
73.3337
 31
0.0
  0
LINE
  8
0
 62
     0
 10
1.81901
 20
73.3337
 30
0.0
 11
1.81901
 21
60.5331
 31
0.0
  0
LINE
  8
0
 62
     0
 10
1.81901
 20
60.5331
 30
0.0
 11
2.61965
 21
60.5331
 31
0.0
  0
LINE
  8
0
 62
     0
 10
2.61965
 20
60.5331
 30
0.0
 11
2.61965
 21
59.9338
 31
0.0
  0
LINE
  8
0
 62
     0
 10
2.61965
 20
59.9338
 30
0.0
 11
16.6192
 21
59.9338
 31
0.0
  0
LINE
  8
0
 62
     0
 10
16.6192
 20
59.9338
 30
0.0
 11
16.6192
 21
60.5331
 31
0.0
  0
LINE
  8
0
 62
     0
 10
16.6192
 20
60.5331
 30
0.0
 11
17.4198
 21
60.5331
 31
0.0
  0
LINE
  8
0
 62
     0
 10
17.4198
 20
60.5331
 30
0.0
 11
17.4198
 21
73.3337
 31
0.0
  0
LINE
  8
0
 62
     0
 10
17.4198
 20
73.3337
 30
0.0
 11
16.6192
 21
73.3337
 31
0.0
  0
LINE
  8
0
 62
     0
 10
16.6192
 20
73.3337
 30
0.0
 11
16.6192
 21
73.9331
 31
0.0
  0
LINE
  8
0
 62
     0
 10
16.6192
 20
73.9331
 30
0.0
 11
2.61965
 21
73.9331
 31
0.0
  0
LINE
  8
0
 62
     0
 10
21.6697
 20
73.9331
 30
0.0
 11
21.6697
 21
73.3337
 31
0.0
  0
LINE
  8
0
 62
     0
 10
21.6697
 20
73.3337
 30
0.0
 11
20.869
 21
73.3337
 31
0.0
  0
LINE
  8
0
 62
     0
 10
20.869
 20
73.3337
 30
0.0
 11
20.869
 21
60.5331
 31
0.0
  0
LINE
  8
0
 62
     0
 10
20.869
 20
60.5331
 30
0.0
 11
21.6697
 21
60.5331
 31
0.0
  0
LINE
  8
0
 62
     0
 10
21.6697
 20
60.5331
 30
0.0
 11
21.6697
 21
59.9338
 31
0.0
  0
LINE
  8
0
 62
     0
 10
21.6697
 20
59.9338
 30
0.0
 11
35.669
 21
59.9338
 31
0.0
  0
LINE
  8
0
 62
     0
 10
35.669
 20
59.9338
 30
0.0
 11
35.669
 21
60.5331
 31
0.0
  0
LINE
  8
0
 62
     0
 10
35.669
 20
60.5331
 30
0.0
 11
36.4698
 21
60.5331
 31
0.0
  0
LINE
  8
0
 62
     0
 10
36.4698
 20
60.5331
 30
0.0
 11
36.4698
 21
73.3337
 31
0.0
  0
LINE
  8
0
 62
     0
 10
36.4698
 20
73.3337
 30
0.0
 11
35.669
 21
73.3337
 31
0.0
  0
LINE
  8
0
 62
     0
 10
35.669
 20
73.3337
 30
0.0
 11
35.669
 21
73.9331
 31
0.0
  0
LINE
  8
0
 62
     0
 10
35.669
 20
73.9331
 30
0.0
 11
21.6697
 21
73.9331
 31
0.0
  0
LINE
  8
0
 62
     0
 10
40.7197
 20
73.9331
 30
0.0
 11
40.7197
 21
73.3337
 31
0.0
  0
LINE
  8
0
 62
     0
 10
40.7197
 20
73.3337
 30
0.0
 11
39.9189
 21
73.3337
 31
0.0
  0
LINE
  8
0
 62
     0
 10
39.9189
 20
73.3337
 30
0.0
 11
39.9189
 21
60.5331
 31
0.0
  0
LINE
  8
0
 62
     0
 10
39.9189
 20
60.5331
 30
0.0
 11
40.7197
 21
60.5331
 31
0.0
  0
LINE
  8
0
 62
     0
 10
40.7197
 20
60.5331
 30
0.0
 11
40.7197
 21
59.9338
 31
0.0
  0
LINE
  8
0
 62
     0
 10
40.7197
 20
59.9338
 30
0.0
 11
54.719
 21
59.9338
 31
0.0
  0
LINE
  8
0
 62
     0
 10
54.719
 20
59.9338
 30
0.0
 11
54.719
 21
60.5331
 31
0.0
  0
LINE
  8
0
 62
     0
 10
54.719
 20
60.5331
 30
0.0
 11
55.5198
 21
60.5331
 31
0.0
  0
LINE
  8
0
 62
     0
 10
55.5198
 20
60.5331
 30
0.0
 11
55.5198
 21
73.3337
 31
0.0
  0
LINE
  8
0
 62
     0
 10
55.5198
 20
73.3337
 30
0.0
 11
54.719
 21
73.3337
 31
0.0
  0
LINE
  8
0
 62
     0
 10
54.719
 20
73.3337
 30
0.0
 11
54.719
 21
73.9331
 31
0.0
  0
LINE
  8
0
 62
     0
 10
54.719
 20
73.9331
 30
0.0
 11
40.7197
 21
73.9331
 31
0.0
  0
LINE
  8
0
 62
     0
 10
59.7697
 20
73.9331
 30
0.0
 11
59.7697
 21
73.3337
 31
0.0
  0
LINE
  8
0
 62
     0
 10
59.7697
 20
73.3337
 30
0.0
 11
58.9689
 21
73.3337
 31
0.0
  0
LINE
  8
0
 62
     0
 10
58.9689
 20
73.3337
 30
0.0
 11
58.9689
 21
60.5331
 31
0.0
  0
LINE
  8
0
 62
     0
 10
58.9689
 20
60.5331
 30
0.0
 11
59.7697
 21
60.5331
 31
0.0
  0
LINE
  8
0
 62
     0
 10
59.7697
 20
60.5331
 30
0.0
 11
59.7697
 21
59.9338
 31
0.0
  0
LINE
  8
0
 62
     0
 10
59.7697
 20
59.9338
 30
0.0
 11
73.769
 21
59.9338
 31
0.0
  0
LINE
  8
0
 62
     0
 10
73.769
 20
59.9338
 30
0.0
 11
73.769
 21
60.5331
 31
0.0
  0
LINE
  8
0
 62
     0
 10
73.769
 20
60.5331
 30
0.0
 11
74.5698
 21
60.5331
 31
0.0
  0
LINE
  8
0
 62
     0
 10
74.5698
 20
60.5331
 30
0.0
 11
74.5698
 21
73.3337
 31
0.0
  0
LINE
  8
0
 62
     0
 10
74.5698
 20
73.3337
 30
0.0
 11
73.769
 21
73.3337
 31
0.0
  0
LINE
  8
0
 62
     0
 10
73.769
 20
73.3337
 30
0.0
 11
73.769
 21
73.9331
 31
0.0
  0
LINE
  8
0
 62
     0
 10
73.769
 20
73.9331
 30
0.0
 11
59.7697
 21
73.9331
 31
0.0
  0
LINE
  8
0
 62
     0
 10
78.8197
 20
73.9331
 30
0.0
 11
78.8197
 21
73.3337
 31
0.0
  0
LINE
  8
0
 62
     0
 10
78.8197
 20
73.3337
 30
0.0
 11
78.0189
 21
73.3337
 31
0.0
  0
LINE
  8
0
 62
     0
 10
78.0189
 20
73.3337
 30
0.0
 11
78.0189
 21
60.5331
 31
0.0
  0
LINE
  8
0
 62
     0
 10
78.0189
 20
60.5331
 30
0.0
 11
78.8197
 21
60.5331
 31
0.0
  0
LINE
  8
0
 62
     0
 10
78.8197
 20
60.5331
 30
0.0
 11
78.8197
 21
59.9338
 31
0.0
  0
LINE
  8
0
 62
     0
 10
78.8197
 20
59.9338
 30
0.0
 11
92.819
 21
59.9338
 31
0.0
  0
LINE
  8
0
 62
     0
 10
92.819
 20
59.9338
 30
0.0
 11
92.819
 21
60.5331
 31
0.0
  0
LINE
  8
0
 62
     0
 10
92.819
 20
60.5331
 30
0.0
 11
93.6184
 21
60.5331
 31
0.0
  0
LINE
  8
0
 62
     0
 10
93.6184
 20
60.5331
 30
0.0
 11
93.6184
 21
73.3337
 31
0.0
  0
LINE
  8
0
 62
     0
 10
93.6184
 20
73.3337
 30
0.0
 11
92.819
 21
73.3337
 31
0.0
  0
LINE
  8
0
 62
     0
 10
92.819
 20
73.3337
 30
0.0
 11
92.819
 21
73.9331
 31
0.0
  0
LINE
  8
0
 62
     0
 10
92.819
 20
73.9331
 30
0.0
 11
78.8197
 21
73.9331
 31
0.0
  0
LINE
  8
0
 62
     0
 10
97.8683
 20
73.9331
 30
0.0
 11
97.8683
 21
73.3337
 31
0.0
  0
LINE
  8
0
 62
     0
 10
97.8683
 20
73.3337
 30
0.0
 11
97.0689
 21
73.3337
 31
0.0
  0
LINE
  8
0
 62
     0
 10
97.0689
 20
73.3337
 30
0.0
 11
97.0689
 21
60.5331
 31
0.0
  0
LINE
  8
0
 62
     0
 10
97.0689
 20
60.5331
 30
0.0
 11
97.8683
 21
60.5331
 31
0.0
  0
LINE
  8
0
 62
     0
 10
97.8683
 20
60.5331
 30
0.0
 11
97.8683
 21
59.9338
 31
0.0
  0
LINE
  8
0
 62
     0
 10
97.8683
 20
59.9338
 30
0.0
 11
111.869
 21
59.9338
 31
0.0
  0
LINE
  8
0
 62
     0
 10
111.869
 20
59.9338
 30
0.0
 11
111.869
 21
60.5331
 31
0.0
  0
LINE
  8
0
 62
     0
 10
111.869
 20
60.5331
 30
0.0
 11
112.668
 21
60.5331
 31
0.0
  0
LINE
  8
0
 62
     0
 10
112.668
 20
60.5331
 30
0.0
 11
112.668
 21
73.3337
 31
0.0
  0
LINE
  8
0
 62
     0
 10
112.668
 20
73.3337
 30
0.0
 11
111.869
 21
73.3337
 31
0.0
  0
LINE
  8
0
 62
     0
 10
111.869
 20
73.3337
 30
0.0
 11
111.869
 21
73.9331
 31
0.0
  0
LINE
  8
0
 62
     0
 10
111.869
 20
73.9331
 30
0.0
 11
97.8683
 21
73.9331
 31
0.0
  0
LINE
  8
0
 62
     0
 10
116.918
 20
73.9331
 30
0.0
 11
116.918
 21
73.3337
 31
0.0
  0
LINE
  8
0
 62
     0
 10
116.918
 20
73.3337
 30
0.0
 11
116.119
 21
73.3337
 31
0.0
  0
LINE
  8
0
 62
     0
 10
116.119
 20
73.3337
 30
0.0
 11
116.119
 21
60.5331
 31
0.0
  0
LINE
  8
0
 62
     0
 10
116.119
 20
60.5331
 30
0.0
 11
116.918
 21
60.5331
 31
0.0
  0
LINE
  8
0
 62
     0
 10
116.918
 20
60.5331
 30
0.0
 11
116.918
 21
59.9338
 31
0.0
  0
LINE
  8
0
 62
     0
 10
116.918
 20
59.9338
 30
0.0
 11
130.919
 21
59.9338
 31
0.0
  0
LINE
  8
0
 62
     0
 10
130.919
 20
59.9338
 30
0.0
 11
130.919
 21
60.5331
 31
0.0
  0
LINE
  8
0
 62
     0
 10
130.919
 20
60.5331
 30
0.0
 11
131.72
 21
60.5331
 31
0.0
  0
LINE
  8
0
 62
     0
 10
131.72
 20
60.5331
 30
0.0
 11
131.72
 21
73.3337
 31
0.0
  0
LINE
  8
0
 62
     0
 10
131.72
 20
73.3337
 30
0.0
 11
130.919
 21
73.3337
 31
0.0
  0
LINE
  8
0
 62
     0
 10
130.919
 20
73.3337
 30
0.0
 11
130.919
 21
73.9331
 31
0.0
  0
LINE
  8
0
 62
     0
 10
130.919
 20
73.9331
 30
0.0
 11
116.918
 21
73.9331
 31
0.0
  0
LINE
  8
0
 62
     0
 10
135.97
 20
73.9331
 30
0.0
 11
135.97
 21
73.3337
 31
0.0
  0
LINE
  8
0
 62
     0
 10
135.97
 20
73.3337
 30
0.0
 11
135.169
 21
73.3337
 31
0.0
  0
LINE
  8
0
 62
     0
 10
135.169
 20
73.3337
 30
0.0
 11
135.169
 21
60.5331
 31
0.0
  0
LINE
  8
0
 62
     0
 10
135.169
 20
60.5331
 30
0.0
 11
135.97
 21
60.5331
 31
0.0
  0
LINE
  8
0
 62
     0
 10
135.97
 20
60.5331
 30
0.0
 11
135.97
 21
59.9338
 31
0.0
  0
LINE
  8
0
 62
     0
 10
135.97
 20
59.9338
 30
0.0
 11
149.969
 21
59.9338
 31
0.0
  0
LINE
  8
0
 62
     0
 10
149.969
 20
59.9338
 30
0.0
 11
149.969
 21
60.5331
 31
0.0
  0
LINE
  8
0
 62
     0
 10
149.969
 20
60.5331
 30
0.0
 11
150.77
 21
60.5331
 31
0.0
  0
LINE
  8
0
 62
     0
 10
150.77
 20
60.5331
 30
0.0
 11
150.77
 21
73.3337
 31
0.0
  0
LINE
  8
0
 62
     0
 10
150.77
 20
73.3337
 30
0.0
 11
149.969
 21
73.3337
 31
0.0
  0
LINE
  8
0
 62
     0
 10
149.969
 20
73.3337
 30
0.0
 11
149.969
 21
73.9331
 31
0.0
  0
LINE
  8
0
 62
     0
 10
149.969
 20
73.9331
 30
0.0
 11
135.97
 21
73.9331
 31
0.0
  0
LINE
  8
0
 62
     0
 10
155.02
 20
73.9331
 30
0.0
 11
155.02
 21
73.3337
 31
0.0
  0
LINE
  8
0
 62
     0
 10
155.02
 20
73.3337
 30
0.0
 11
154.219
 21
73.3337
 31
0.0
  0
LINE
  8
0
 62
     0
 10
154.219
 20
73.3337
 30
0.0
 11
154.219
 21
60.5331
 31
0.0
  0
LINE
  8
0
 62
     0
 10
154.219
 20
60.5331
 30
0.0
 11
155.02
 21
60.5331
 31
0.0
  0
LINE
  8
0
 62
     0
 10
155.02
 20
60.5331
 30
0.0
 11
155.02
 21
59.9338
 31
0.0
  0
LINE
  8
0
 62
     0
 10
155.02
 20
59.9338
 30
0.0
 11
169.019
 21
59.9338
 31
0.0
  0
LINE
  8
0
 62
     0
 10
169.019
 20
59.9338
 30
0.0
 11
169.019
 21
60.5331
 31
0.0
  0
LINE
  8
0
 62
     0
 10
169.019
 20
60.5331
 30
0.0
 11
169.82
 21
60.5331
 31
0.0
  0
LINE
  8
0
 62
     0
 10
169.82
 20
60.5331
 30
0.0
 11
169.82
 21
73.3337
 31
0.0
  0
LINE
  8
0
 62
     0
 10
169.82
 20
73.3337
 30
0.0
 11
169.019
 21
73.3337
 31
0.0
  0
LINE
  8
0
 62
     0
 10
169.019
 20
73.3337
 30
0.0
 11
169.019
 21
73.9331
 31
0.0
  0
LINE
  8
0
 62
     0
 10
169.019
 20
73.9331
 30
0.0
 11
155.02
 21
73.9331
 31
0.0
  0
LINE
  8
0
 62
     0
 10
174.07
 20
73.9331
 30
0.0
 11
174.07
 21
73.3337
 31
0.0
  0
LINE
  8
0
 62
     0
 10
174.07
 20
73.3337
 30
0.0
 11
173.269
 21
73.3337
 31
0.0
  0
LINE
  8
0
 62
     0
 10
173.269
 20
73.3337
 30
0.0
 11
173.269
 21
60.5331
 31
0.0
  0
LINE
  8
0
 62
     0
 10
173.269
 20
60.5331
 30
0.0
 11
174.07
 21
60.5331
 31
0.0
  0
LINE
  8
0
 62
     0
 10
174.07
 20
60.5331
 30
0.0
 11
174.07
 21
59.9338
 31
0.0
  0
LINE
  8
0
 62
     0
 10
174.07
 20
59.9338
 30
0.0
 11
188.069
 21
59.9338
 31
0.0
  0
LINE
  8
0
 62
     0
 10
188.069
 20
59.9338
 30
0.0
 11
188.069
 21
60.5331
 31
0.0
  0
LINE
  8
0
 62
     0
 10
188.069
 20
60.5331
 30
0.0
 11
188.87
 21
60.5331
 31
0.0
  0
LINE
  8
0
 62
     0
 10
188.87
 20
60.5331
 30
0.0
 11
188.87
 21
73.3337
 31
0.0
  0
LINE
  8
0
 62
     0
 10
188.87
 20
73.3337
 30
0.0
 11
188.069
 21
73.3337
 31
0.0
  0
LINE
  8
0
 62
     0
 10
188.069
 20
73.3337
 30
0.0
 11
188.069
 21
73.9331
 31
0.0
  0
LINE
  8
0
 62
     0
 10
188.069
 20
73.9331
 30
0.0
 11
174.07
 21
73.9331
 31
0.0
  0
ENDSEC
  0
EOF
