  0
SECTION
  2
HEADER
  9
$ACADVER
  1
AC1009
  9
$FILLMODE
 70
 0
  9
$SPLFRAME
 70
 1
  9
$EXTMIN
 10
0
 20
0
 30
0.0
  9
$EXTMAX
 10
1058.33
 20
1058.33
 30
0.0
  0
ENDSEC
  0
SECTION
  2
TABLES
  0
TABLE
  2
LAYER
 70
1
  0
LAYER
  2
0
 70
     0
 62
     7
  6
CONTINUOUS
  0
ENDTAB
  0
ENDSEC
  0
SECTION
  2
ENTITIES
  0
LINE
  8
0
 62
     0
 10
0.0950846
 20
76.4575
 30
0.0
 11
190.595
 21
76.4575
 31
0.0
  0
LINE
  8
0
 62
     0
 10
190.595
 20
76.4575
 30
0.0
 11
190.595
 21
0.257693
 31
0.0
  0
LINE
  8
0
 62
     0
 10
190.595
 20
0.257693
 30
0.0
 11
0.0950846
 21
0.257693
 31
0.0
  0
LINE
  8
0
 62
     0
 10
0.0950846
 20
0.257693
 30
0.0
 11
0.0950846
 21
76.4575
 31
0.0
  0
LINE
  8
0
 62
     0
 10
88.3447
 20
16.7831
 30
0.0
 11
88.3447
 21
16.1837
 31
0.0
  0
LINE
  8
0
 62
     0
 10
88.3447
 20
16.1837
 30
0.0
 11
87.5439
 21
16.1837
 31
0.0
  0
LINE
  8
0
 62
     0
 10
87.5439
 20
16.1837
 30
0.0
 11
87.5439
 21
12.0826
 31
0.0
  0
LINE
  8
0
 62
     0
 10
87.5439
 20
12.0826
 30
0.0
 11
86.8193
 21
12.0826
 31
0.0
  0
LINE
  8
0
 62
     0
 10
86.8193
 20
12.0826
 30
0.0
 11
86.8193
 21
15.3128
 31
0.0
  0
LINE
  8
0
 62
     0
 10
86.8193
 20
15.3128
 30
0.0
 11
80.0696
 21
15.3128
 31
0.0
  0
LINE
  8
0
 62
     0
 10
80.0696
 20
15.3128
 30
0.0
 11
80.0696
 21
12.0826
 31
0.0
  0
LINE
  8
0
 62
     0
 10
80.0696
 20
12.0826
 30
0.0
 11
79.2441
 21
12.0826
 31
0.0
  0
LINE
  8
0
 62
     0
 10
79.2441
 20
12.0826
 30
0.0
 11
79.2441
 21
9.28384
 31
0.0
  0
LINE
  8
0
 62
     0
 10
79.2441
 20
9.28384
 30
0.0
 11
80.0696
 21
9.28384
 31
0.0
  0
LINE
  8
0
 62
     0
 10
80.0696
 20
9.28384
 30
0.0
 11
80.0696
 21
3.01377
 31
0.0
  0
LINE
  8
0
 62
     0
 10
80.0696
 20
3.01377
 30
0.0
 11
81.7947
 21
3.01377
 31
0.0
  0
LINE
  8
0
 62
     0
 10
81.7947
 20
3.01377
 30
0.0
 11
81.7947
 21
1.8135
 31
0.0
  0
LINE
  8
0
 62
     0
 10
81.7947
 20
1.8135
 30
0.0
 11
85.0939
 21
1.8135
 31
0.0
  0
LINE
  8
0
 62
     0
 10
85.0939
 20
1.8135
 30
0.0
 11
85.0939
 21
3.01377
 31
0.0
  0
LINE
  8
0
 62
     0
 10
85.0939
 20
3.01377
 30
0.0
 11
86.8193
 21
3.01377
 31
0.0
  0
LINE
  8
0
 62
     0
 10
86.8193
 20
3.01377
 30
0.0
 11
86.8193
 21
7.48273
 31
0.0
  0
LINE
  8
0
 62
     0
 10
86.8193
 20
7.48273
 30
0.0
 11
87.5439
 21
7.48273
 31
0.0
  0
LINE
  8
0
 62
     0
 10
87.5439
 20
7.48273
 30
0.0
 11
87.5439
 21
3.38308
 31
0.0
  0
LINE
  8
0
 62
     0
 10
87.5439
 20
3.38308
 30
0.0
 11
88.3447
 21
3.38308
 31
0.0
  0
LINE
  8
0
 62
     0
 10
88.3447
 20
3.38308
 30
0.0
 11
88.3447
 21
2.78364
 31
0.0
  0
LINE
  8
0
 62
     0
 10
88.3447
 20
2.78364
 30
0.0
 11
102.344
 21
2.78364
 31
0.0
  0
LINE
  8
0
 62
     0
 10
102.344
 20
2.78364
 30
0.0
 11
102.344
 21
3.38308
 31
0.0
  0
LINE
  8
0
 62
     0
 10
102.344
 20
3.38308
 30
0.0
 11
103.145
 21
3.38308
 31
0.0
  0
LINE
  8
0
 62
     0
 10
103.145
 20
3.38308
 30
0.0
 11
103.145
 21
7.48273
 31
0.0
  0
LINE
  8
0
 62
     0
 10
103.145
 20
7.48273
 30
0.0
 11
103.87
 21
7.48273
 31
0.0
  0
LINE
  8
0
 62
     0
 10
103.87
 20
7.48273
 30
0.0
 11
103.87
 21
3.01377
 31
0.0
  0
LINE
  8
0
 62
     0
 10
103.87
 20
3.01377
 30
0.0
 11
105.595
 21
3.01377
 31
0.0
  0
LINE
  8
0
 62
     0
 10
105.595
 20
3.01377
 30
0.0
 11
105.595
 21
1.8135
 31
0.0
  0
LINE
  8
0
 62
     0
 10
105.595
 20
1.8135
 30
0.0
 11
108.894
 21
1.8135
 31
0.0
  0
LINE
  8
0
 62
     0
 10
108.894
 20
1.8135
 30
0.0
 11
108.894
 21
3.01377
 31
0.0
  0
LINE
  8
0
 62
     0
 10
108.894
 20
3.01377
 30
0.0
 11
110.619
 21
3.01377
 31
0.0
  0
LINE
  8
0
 62
     0
 10
110.619
 20
3.01377
 30
0.0
 11
110.619
 21
9.28384
 31
0.0
  0
LINE
  8
0
 62
     0
 10
110.619
 20
9.28384
 30
0.0
 11
111.445
 21
9.28384
 31
0.0
  0
LINE
  8
0
 62
     0
 10
111.445
 20
9.28384
 30
0.0
 11
111.445
 21
12.0826
 31
0.0
  0
LINE
  8
0
 62
     0
 10
111.445
 20
12.0826
 30
0.0
 11
110.619
 21
12.0826
 31
0.0
  0
LINE
  8
0
 62
     0
 10
110.619
 20
12.0826
 30
0.0
 11
110.619
 21
15.3128
 31
0.0
  0
LINE
  8
0
 62
     0
 10
110.619
 20
15.3128
 30
0.0
 11
103.87
 21
15.3128
 31
0.0
  0
LINE
  8
0
 62
     0
 10
103.87
 20
15.3128
 30
0.0
 11
103.87
 21
12.0826
 31
0.0
  0
LINE
  8
0
 62
     0
 10
103.87
 20
12.0826
 30
0.0
 11
103.145
 21
12.0826
 31
0.0
  0
LINE
  8
0
 62
     0
 10
103.145
 20
12.0826
 30
0.0
 11
103.145
 21
16.1837
 31
0.0
  0
LINE
  8
0
 62
     0
 10
103.145
 20
16.1837
 30
0.0
 11
102.344
 21
16.1837
 31
0.0
  0
LINE
  8
0
 62
     0
 10
102.344
 20
16.1837
 30
0.0
 11
102.344
 21
16.7831
 31
0.0
  0
LINE
  8
0
 62
     0
 10
102.344
 20
16.7831
 30
0.0
 11
88.3447
 21
16.7831
 31
0.0
  0
LINE
  8
0
 62
     0
 10
33.5759
 20
16.7831
 30
0.0
 11
33.5759
 21
16.1837
 31
0.0
  0
LINE
  8
0
 62
     0
 10
33.5759
 20
16.1837
 30
0.0
 11
32.7753
 21
16.1837
 31
0.0
  0
LINE
  8
0
 62
     0
 10
32.7753
 20
16.1837
 30
0.0
 11
32.7753
 21
3.38308
 31
0.0
  0
LINE
  8
0
 62
     0
 10
32.7753
 20
3.38308
 30
0.0
 11
33.5759
 21
3.38308
 31
0.0
  0
LINE
  8
0
 62
     0
 10
33.5759
 20
3.38308
 30
0.0
 11
33.5759
 21
2.78364
 31
0.0
  0
LINE
  8
0
 62
     0
 10
33.5759
 20
2.78364
 30
0.0
 11
47.5753
 21
2.78364
 31
0.0
  0
LINE
  8
0
 62
     0
 10
47.5753
 20
2.78364
 30
0.0
 11
47.5753
 21
3.38308
 31
0.0
  0
LINE
  8
0
 62
     0
 10
47.5753
 20
3.38308
 30
0.0
 11
48.3761
 21
3.38308
 31
0.0
  0
LINE
  8
0
 62
     0
 10
48.3761
 20
3.38308
 30
0.0
 11
48.3761
 21
16.1837
 31
0.0
  0
LINE
  8
0
 62
     0
 10
48.3761
 20
16.1837
 30
0.0
 11
47.5753
 21
16.1837
 31
0.0
  0
LINE
  8
0
 62
     0
 10
47.5753
 20
16.1837
 30
0.0
 11
47.5753
 21
16.7831
 31
0.0
  0
LINE
  8
0
 62
     0
 10
47.5753
 20
16.7831
 30
0.0
 11
33.5759
 21
16.7831
 31
0.0
  0
LINE
  8
0
 62
     0
 10
52.626
 20
16.7831
 30
0.0
 11
52.626
 21
16.1837
 31
0.0
  0
LINE
  8
0
 62
     0
 10
52.626
 20
16.1837
 30
0.0
 11
51.8252
 21
16.1837
 31
0.0
  0
LINE
  8
0
 62
     0
 10
51.8252
 20
16.1837
 30
0.0
 11
51.8252
 21
3.38308
 31
0.0
  0
LINE
  8
0
 62
     0
 10
51.8252
 20
3.38308
 30
0.0
 11
52.626
 21
3.38308
 31
0.0
  0
LINE
  8
0
 62
     0
 10
52.626
 20
3.38308
 30
0.0
 11
52.626
 21
2.78364
 31
0.0
  0
LINE
  8
0
 62
     0
 10
52.626
 20
2.78364
 30
0.0
 11
66.6253
 21
2.78364
 31
0.0
  0
LINE
  8
0
 62
     0
 10
66.6253
 20
2.78364
 30
0.0
 11
66.6253
 21
3.38308
 31
0.0
  0
LINE
  8
0
 62
     0
 10
66.6253
 20
3.38308
 30
0.0
 11
67.4261
 21
3.38308
 31
0.0
  0
LINE
  8
0
 62
     0
 10
67.4261
 20
3.38308
 30
0.0
 11
67.4261
 21
16.1837
 31
0.0
  0
LINE
  8
0
 62
     0
 10
67.4261
 20
16.1837
 30
0.0
 11
66.6253
 21
16.1837
 31
0.0
  0
LINE
  8
0
 62
     0
 10
66.6253
 20
16.1837
 30
0.0
 11
66.6253
 21
16.7831
 31
0.0
  0
LINE
  8
0
 62
     0
 10
66.6253
 20
16.7831
 30
0.0
 11
52.626
 21
16.7831
 31
0.0
  0
LINE
  8
0
 62
     0
 10
124.062
 20
16.7831
 30
0.0
 11
124.062
 21
16.1837
 31
0.0
  0
LINE
  8
0
 62
     0
 10
124.062
 20
16.1837
 30
0.0
 11
123.263
 21
16.1837
 31
0.0
  0
LINE
  8
0
 62
     0
 10
123.263
 20
16.1837
 30
0.0
 11
123.263
 21
3.38308
 31
0.0
  0
LINE
  8
0
 62
     0
 10
123.263
 20
3.38308
 30
0.0
 11
124.062
 21
3.38308
 31
0.0
  0
LINE
  8
0
 62
     0
 10
124.062
 20
3.38308
 30
0.0
 11
124.062
 21
2.78364
 31
0.0
  0
LINE
  8
0
 62
     0
 10
124.062
 20
2.78364
 30
0.0
 11
138.063
 21
2.78364
 31
0.0
  0
LINE
  8
0
 62
     0
 10
138.063
 20
2.78364
 30
0.0
 11
138.063
 21
3.38308
 31
0.0
  0
LINE
  8
0
 62
     0
 10
138.063
 20
3.38308
 30
0.0
 11
138.862
 21
3.38308
 31
0.0
  0
LINE
  8
0
 62
     0
 10
138.862
 20
3.38308
 30
0.0
 11
138.862
 21
16.1837
 31
0.0
  0
LINE
  8
0
 62
     0
 10
138.862
 20
16.1837
 30
0.0
 11
138.063
 21
16.1837
 31
0.0
  0
LINE
  8
0
 62
     0
 10
138.063
 20
16.1837
 30
0.0
 11
138.063
 21
16.7831
 31
0.0
  0
LINE
  8
0
 62
     0
 10
138.063
 20
16.7831
 30
0.0
 11
124.062
 21
16.7831
 31
0.0
  0
LINE
  8
0
 62
     0
 10
143.112
 20
16.7831
 30
0.0
 11
143.112
 21
16.1837
 31
0.0
  0
LINE
  8
0
 62
     0
 10
143.112
 20
16.1837
 30
0.0
 11
142.313
 21
16.1837
 31
0.0
  0
LINE
  8
0
 62
     0
 10
142.313
 20
16.1837
 30
0.0
 11
142.313
 21
3.38308
 31
0.0
  0
LINE
  8
0
 62
     0
 10
142.313
 20
3.38308
 30
0.0
 11
143.112
 21
3.38308
 31
0.0
  0
LINE
  8
0
 62
     0
 10
143.112
 20
3.38308
 30
0.0
 11
143.112
 21
2.78364
 31
0.0
  0
LINE
  8
0
 62
     0
 10
143.112
 20
2.78364
 30
0.0
 11
157.113
 21
2.78364
 31
0.0
  0
LINE
  8
0
 62
     0
 10
157.113
 20
2.78364
 30
0.0
 11
157.113
 21
3.38308
 31
0.0
  0
LINE
  8
0
 62
     0
 10
157.113
 20
3.38308
 30
0.0
 11
157.912
 21
3.38308
 31
0.0
  0
LINE
  8
0
 62
     0
 10
157.912
 20
3.38308
 30
0.0
 11
157.912
 21
16.1837
 31
0.0
  0
LINE
  8
0
 62
     0
 10
157.912
 20
16.1837
 30
0.0
 11
157.113
 21
16.1837
 31
0.0
  0
LINE
  8
0
 62
     0
 10
157.113
 20
16.1837
 30
0.0
 11
157.113
 21
16.7831
 31
0.0
  0
LINE
  8
0
 62
     0
 10
157.113
 20
16.7831
 30
0.0
 11
143.112
 21
16.7831
 31
0.0
  0
LINE
  8
0
 62
     0
 10
2.61965
 20
35.833
 30
0.0
 11
2.61965
 21
35.2337
 31
0.0
  0
LINE
  8
0
 62
     0
 10
2.61965
 20
35.2337
 30
0.0
 11
1.81901
 21
35.2337
 31
0.0
  0
LINE
  8
0
 62
     0
 10
1.81901
 20
35.2337
 30
0.0
 11
1.81901
 21
22.4331
 31
0.0
  0
LINE
  8
0
 62
     0
 10
1.81901
 20
22.4331
 30
0.0
 11
2.61965
 21
22.4331
 31
0.0
  0
LINE
  8
0
 62
     0
 10
2.61965
 20
22.4331
 30
0.0
 11
2.61965
 21
21.8336
 31
0.0
  0
LINE
  8
0
 62
     0
 10
2.61965
 20
21.8336
 30
0.0
 11
16.6192
 21
21.8336
 31
0.0
  0
LINE
  8
0
 62
     0
 10
16.6192
 20
21.8336
 30
0.0
 11
16.6192
 21
22.4331
 31
0.0
  0
LINE
  8
0
 62
     0
 10
16.6192
 20
22.4331
 30
0.0
 11
17.4198
 21
22.4331
 31
0.0
  0
LINE
  8
0
 62
     0
 10
17.4198
 20
22.4331
 30
0.0
 11
17.4198
 21
35.2337
 31
0.0
  0
LINE
  8
0
 62
     0
 10
17.4198
 20
35.2337
 30
0.0
 11
16.6192
 21
35.2337
 31
0.0
  0
LINE
  8
0
 62
     0
 10
16.6192
 20
35.2337
 30
0.0
 11
16.6192
 21
35.833
 31
0.0
  0
LINE
  8
0
 62
     0
 10
16.6192
 20
35.833
 30
0.0
 11
2.61965
 21
35.833
 31
0.0
  0
LINE
  8
0
 62
     0
 10
21.6697
 20
35.833
 30
0.0
 11
21.6697
 21
35.2337
 31
0.0
  0
LINE
  8
0
 62
     0
 10
21.6697
 20
35.2337
 30
0.0
 11
20.869
 21
35.2337
 31
0.0
  0
LINE
  8
0
 62
     0
 10
20.869
 20
35.2337
 30
0.0
 11
20.869
 21
22.4331
 31
0.0
  0
LINE
  8
0
 62
     0
 10
20.869
 20
22.4331
 30
0.0
 11
21.6697
 21
22.4331
 31
0.0
  0
LINE
  8
0
 62
     0
 10
21.6697
 20
22.4331
 30
0.0
 11
21.6697
 21
21.8336
 31
0.0
  0
LINE
  8
0
 62
     0
 10
21.6697
 20
21.8336
 30
0.0
 11
35.669
 21
21.8336
 31
0.0
  0
LINE
  8
0
 62
     0
 10
35.669
 20
21.8336
 30
0.0
 11
35.669
 21
22.4331
 31
0.0
  0
LINE
  8
0
 62
     0
 10
35.669
 20
22.4331
 30
0.0
 11
36.4698
 21
22.4331
 31
0.0
  0
LINE
  8
0
 62
     0
 10
36.4698
 20
22.4331
 30
0.0
 11
36.4698
 21
35.2337
 31
0.0
  0
LINE
  8
0
 62
     0
 10
36.4698
 20
35.2337
 30
0.0
 11
35.669
 21
35.2337
 31
0.0
  0
LINE
  8
0
 62
     0
 10
35.669
 20
35.2337
 30
0.0
 11
35.669
 21
35.833
 31
0.0
  0
LINE
  8
0
 62
     0
 10
35.669
 20
35.833
 30
0.0
 11
21.6697
 21
35.833
 31
0.0
  0
LINE
  8
0
 62
     0
 10
40.7197
 20
35.833
 30
0.0
 11
40.7197
 21
35.2337
 31
0.0
  0
LINE
  8
0
 62
     0
 10
40.7197
 20
35.2337
 30
0.0
 11
39.9189
 21
35.2337
 31
0.0
  0
LINE
  8
0
 62
     0
 10
39.9189
 20
35.2337
 30
0.0
 11
39.9189
 21
22.4331
 31
0.0
  0
LINE
  8
0
 62
     0
 10
39.9189
 20
22.4331
 30
0.0
 11
40.7197
 21
22.4331
 31
0.0
  0
LINE
  8
0
 62
     0
 10
40.7197
 20
22.4331
 30
0.0
 11
40.7197
 21
21.8336
 31
0.0
  0
LINE
  8
0
 62
     0
 10
40.7197
 20
21.8336
 30
0.0
 11
54.719
 21
21.8336
 31
0.0
  0
LINE
  8
0
 62
     0
 10
54.719
 20
21.8336
 30
0.0
 11
54.719
 21
22.4331
 31
0.0
  0
LINE
  8
0
 62
     0
 10
54.719
 20
22.4331
 30
0.0
 11
55.5198
 21
22.4331
 31
0.0
  0
LINE
  8
0
 62
     0
 10
55.5198
 20
22.4331
 30
0.0
 11
55.5198
 21
35.2337
 31
0.0
  0
LINE
  8
0
 62
     0
 10
55.5198
 20
35.2337
 30
0.0
 11
54.719
 21
35.2337
 31
0.0
  0
LINE
  8
0
 62
     0
 10
54.719
 20
35.2337
 30
0.0
 11
54.719
 21
35.833
 31
0.0
  0
LINE
  8
0
 62
     0
 10
54.719
 20
35.833
 30
0.0
 11
40.7197
 21
35.833
 31
0.0
  0
LINE
  8
0
 62
     0
 10
59.7697
 20
35.833
 30
0.0
 11
59.7697
 21
35.2337
 31
0.0
  0
LINE
  8
0
 62
     0
 10
59.7697
 20
35.2337
 30
0.0
 11
58.9689
 21
35.2337
 31
0.0
  0
LINE
  8
0
 62
     0
 10
58.9689
 20
35.2337
 30
0.0
 11
58.9689
 21
22.4331
 31
0.0
  0
LINE
  8
0
 62
     0
 10
58.9689
 20
22.4331
 30
0.0
 11
59.7697
 21
22.4331
 31
0.0
  0
LINE
  8
0
 62
     0
 10
59.7697
 20
22.4331
 30
0.0
 11
59.7697
 21
21.8336
 31
0.0
  0
LINE
  8
0
 62
     0
 10
59.7697
 20
21.8336
 30
0.0
 11
73.769
 21
21.8336
 31
0.0
  0
LINE
  8
0
 62
     0
 10
73.769
 20
21.8336
 30
0.0
 11
73.769
 21
22.4331
 31
0.0
  0
LINE
  8
0
 62
     0
 10
73.769
 20
22.4331
 30
0.0
 11
74.5698
 21
22.4331
 31
0.0
  0
LINE
  8
0
 62
     0
 10
74.5698
 20
22.4331
 30
0.0
 11
74.5698
 21
35.2337
 31
0.0
  0
LINE
  8
0
 62
     0
 10
74.5698
 20
35.2337
 30
0.0
 11
73.769
 21
35.2337
 31
0.0
  0
LINE
  8
0
 62
     0
 10
73.769
 20
35.2337
 30
0.0
 11
73.769
 21
35.833
 31
0.0
  0
LINE
  8
0
 62
     0
 10
73.769
 20
35.833
 30
0.0
 11
59.7697
 21
35.833
 31
0.0
  0
LINE
  8
0
 62
     0
 10
78.8197
 20
35.833
 30
0.0
 11
78.8197
 21
35.2337
 31
0.0
  0
LINE
  8
0
 62
     0
 10
78.8197
 20
35.2337
 30
0.0
 11
78.0189
 21
35.2337
 31
0.0
  0
LINE
  8
0
 62
     0
 10
78.0189
 20
35.2337
 30
0.0
 11
78.0189
 21
22.4331
 31
0.0
  0
LINE
  8
0
 62
     0
 10
78.0189
 20
22.4331
 30
0.0
 11
78.8197
 21
22.4331
 31
0.0
  0
LINE
  8
0
 62
     0
 10
78.8197
 20
22.4331
 30
0.0
 11
78.8197
 21
21.8336
 31
0.0
  0
LINE
  8
0
 62
     0
 10
78.8197
 20
21.8336
 30
0.0
 11
92.819
 21
21.8336
 31
0.0
  0
LINE
  8
0
 62
     0
 10
92.819
 20
21.8336
 30
0.0
 11
92.819
 21
22.4331
 31
0.0
  0
LINE
  8
0
 62
     0
 10
92.819
 20
22.4331
 30
0.0
 11
93.6184
 21
22.4331
 31
0.0
  0
LINE
  8
0
 62
     0
 10
93.6184
 20
22.4331
 30
0.0
 11
93.6184
 21
35.2337
 31
0.0
  0
LINE
  8
0
 62
     0
 10
93.6184
 20
35.2337
 30
0.0
 11
92.819
 21
35.2337
 31
0.0
  0
LINE
  8
0
 62
     0
 10
92.819
 20
35.2337
 30
0.0
 11
92.819
 21
35.833
 31
0.0
  0
LINE
  8
0
 62
     0
 10
92.819
 20
35.833
 30
0.0
 11
78.8197
 21
35.833
 31
0.0
  0
LINE
  8
0
 62
     0
 10
97.8683
 20
35.833
 30
0.0
 11
97.8683
 21
35.2337
 31
0.0
  0
LINE
  8
0
 62
     0
 10
97.8683
 20
35.2337
 30
0.0
 11
97.0689
 21
35.2337
 31
0.0
  0
LINE
  8
0
 62
     0
 10
97.0689
 20
35.2337
 30
0.0
 11
97.0689
 21
22.4331
 31
0.0
  0
LINE
  8
0
 62
     0
 10
97.0689
 20
22.4331
 30
0.0
 11
97.8683
 21
22.4331
 31
0.0
  0
LINE
  8
0
 62
     0
 10
97.8683
 20
22.4331
 30
0.0
 11
97.8683
 21
21.8336
 31
0.0
  0
LINE
  8
0
 62
     0
 10
97.8683
 20
21.8336
 30
0.0
 11
111.869
 21
21.8336
 31
0.0
  0
LINE
  8
0
 62
     0
 10
111.869
 20
21.8336
 30
0.0
 11
111.869
 21
22.4331
 31
0.0
  0
LINE
  8
0
 62
     0
 10
111.869
 20
22.4331
 30
0.0
 11
112.668
 21
22.4331
 31
0.0
  0
LINE
  8
0
 62
     0
 10
112.668
 20
22.4331
 30
0.0
 11
112.668
 21
35.2337
 31
0.0
  0
LINE
  8
0
 62
     0
 10
112.668
 20
35.2337
 30
0.0
 11
111.869
 21
35.2337
 31
0.0
  0
LINE
  8
0
 62
     0
 10
111.869
 20
35.2337
 30
0.0
 11
111.869
 21
35.833
 31
0.0
  0
LINE
  8
0
 62
     0
 10
111.869
 20
35.833
 30
0.0
 11
97.8683
 21
35.833
 31
0.0
  0
LINE
  8
0
 62
     0
 10
116.918
 20
35.833
 30
0.0
 11
116.918
 21
35.2337
 31
0.0
  0
LINE
  8
0
 62
     0
 10
116.918
 20
35.2337
 30
0.0
 11
116.119
 21
35.2337
 31
0.0
  0
LINE
  8
0
 62
     0
 10
116.119
 20
35.2337
 30
0.0
 11
116.119
 21
22.4331
 31
0.0
  0
LINE
  8
0
 62
     0
 10
116.119
 20
22.4331
 30
0.0
 11
116.918
 21
22.4331
 31
0.0
  0
LINE
  8
0
 62
     0
 10
116.918
 20
22.4331
 30
0.0
 11
116.918
 21
21.8336
 31
0.0
  0
LINE
  8
0
 62
     0
 10
116.918
 20
21.8336
 30
0.0
 11
130.919
 21
21.8336
 31
0.0
  0
LINE
  8
0
 62
     0
 10
130.919
 20
21.8336
 30
0.0
 11
130.919
 21
22.4331
 31
0.0
  0
LINE
  8
0
 62
     0
 10
130.919
 20
22.4331
 30
0.0
 11
131.72
 21
22.4331
 31
0.0
  0
LINE
  8
0
 62
     0
 10
131.72
 20
22.4331
 30
0.0
 11
131.72
 21
35.2337
 31
0.0
  0
LINE
  8
0
 62
     0
 10
131.72
 20
35.2337
 30
0.0
 11
130.919
 21
35.2337
 31
0.0
  0
LINE
  8
0
 62
     0
 10
130.919
 20
35.2337
 30
0.0
 11
130.919
 21
35.833
 31
0.0
  0
LINE
  8
0
 62
     0
 10
130.919
 20
35.833
 30
0.0
 11
116.918
 21
35.833
 31
0.0
  0
LINE
  8
0
 62
     0
 10
135.97
 20
35.833
 30
0.0
 11
135.97
 21
35.2337
 31
0.0
  0
LINE
  8
0
 62
     0
 10
135.97
 20
35.2337
 30
0.0
 11
135.169
 21
35.2337
 31
0.0
  0
LINE
  8
0
 62
     0
 10
135.169
 20
35.2337
 30
0.0
 11
135.169
 21
22.4331
 31
0.0
  0
LINE
  8
0
 62
     0
 10
135.169
 20
22.4331
 30
0.0
 11
135.97
 21
22.4331
 31
0.0
  0
LINE
  8
0
 62
     0
 10
135.97
 20
22.4331
 30
0.0
 11
135.97
 21
21.8336
 31
0.0
  0
LINE
  8
0
 62
     0
 10
135.97
 20
21.8336
 30
0.0
 11
149.969
 21
21.8336
 31
0.0
  0
LINE
  8
0
 62
     0
 10
149.969
 20
21.8336
 30
0.0
 11
149.969
 21
22.4331
 31
0.0
  0
LINE
  8
0
 62
     0
 10
149.969
 20
22.4331
 30
0.0
 11
150.77
 21
22.4331
 31
0.0
  0
LINE
  8
0
 62
     0
 10
150.77
 20
22.4331
 30
0.0
 11
150.77
 21
35.2337
 31
0.0
  0
LINE
  8
0
 62
     0
 10
150.77
 20
35.2337
 30
0.0
 11
149.969
 21
35.2337
 31
0.0
  0
LINE
  8
0
 62
     0
 10
149.969
 20
35.2337
 30
0.0
 11
149.969
 21
35.833
 31
0.0
  0
LINE
  8
0
 62
     0
 10
149.969
 20
35.833
 30
0.0
 11
135.97
 21
35.833
 31
0.0
  0
LINE
  8
0
 62
     0
 10
155.02
 20
35.833
 30
0.0
 11
155.02
 21
35.2337
 31
0.0
  0
LINE
  8
0
 62
     0
 10
155.02
 20
35.2337
 30
0.0
 11
154.219
 21
35.2337
 31
0.0
  0
LINE
  8
0
 62
     0
 10
154.219
 20
35.2337
 30
0.0
 11
154.219
 21
22.4331
 31
0.0
  0
LINE
  8
0
 62
     0
 10
154.219
 20
22.4331
 30
0.0
 11
155.02
 21
22.4331
 31
0.0
  0
LINE
  8
0
 62
     0
 10
155.02
 20
22.4331
 30
0.0
 11
155.02
 21
21.8336
 31
0.0
  0
LINE
  8
0
 62
     0
 10
155.02
 20
21.8336
 30
0.0
 11
169.019
 21
21.8336
 31
0.0
  0
LINE
  8
0
 62
     0
 10
169.019
 20
21.8336
 30
0.0
 11
169.019
 21
22.4331
 31
0.0
  0
LINE
  8
0
 62
     0
 10
169.019
 20
22.4331
 30
0.0
 11
169.82
 21
22.4331
 31
0.0
  0
LINE
  8
0
 62
     0
 10
169.82
 20
22.4331
 30
0.0
 11
169.82
 21
35.2337
 31
0.0
  0
LINE
  8
0
 62
     0
 10
169.82
 20
35.2337
 30
0.0
 11
169.019
 21
35.2337
 31
0.0
  0
LINE
  8
0
 62
     0
 10
169.019
 20
35.2337
 30
0.0
 11
169.019
 21
35.833
 31
0.0
  0
LINE
  8
0
 62
     0
 10
169.019
 20
35.833
 30
0.0
 11
155.02
 21
35.833
 31
0.0
  0
LINE
  8
0
 62
     0
 10
174.07
 20
35.833
 30
0.0
 11
174.07
 21
35.2337
 31
0.0
  0
LINE
  8
0
 62
     0
 10
174.07
 20
35.2337
 30
0.0
 11
173.269
 21
35.2337
 31
0.0
  0
LINE
  8
0
 62
     0
 10
173.269
 20
35.2337
 30
0.0
 11
173.269
 21
22.4331
 31
0.0
  0
LINE
  8
0
 62
     0
 10
173.269
 20
22.4331
 30
0.0
 11
174.07
 21
22.4331
 31
0.0
  0
LINE
  8
0
 62
     0
 10
174.07
 20
22.4331
 30
0.0
 11
174.07
 21
21.8336
 31
0.0
  0
LINE
  8
0
 62
     0
 10
174.07
 20
21.8336
 30
0.0
 11
188.069
 21
21.8336
 31
0.0
  0
LINE
  8
0
 62
     0
 10
188.069
 20
21.8336
 30
0.0
 11
188.069
 21
22.4331
 31
0.0
  0
LINE
  8
0
 62
     0
 10
188.069
 20
22.4331
 30
0.0
 11
188.87
 21
22.4331
 31
0.0
  0
LINE
  8
0
 62
     0
 10
188.87
 20
22.4331
 30
0.0
 11
188.87
 21
35.2337
 31
0.0
  0
LINE
  8
0
 62
     0
 10
188.87
 20
35.2337
 30
0.0
 11
188.069
 21
35.2337
 31
0.0
  0
LINE
  8
0
 62
     0
 10
188.069
 20
35.2337
 30
0.0
 11
188.069
 21
35.833
 31
0.0
  0
LINE
  8
0
 62
     0
 10
188.069
 20
35.833
 30
0.0
 11
174.07
 21
35.833
 31
0.0
  0
LINE
  8
0
 62
     0
 10
2.61965
 20
54.8831
 30
0.0
 11
2.61965
 21
54.2837
 31
0.0
  0
LINE
  8
0
 62
     0
 10
2.61965
 20
54.2837
 30
0.0
 11
1.81901
 21
54.2837
 31
0.0
  0
LINE
  8
0
 62
     0
 10
1.81901
 20
54.2837
 30
0.0
 11
1.81901
 21
41.4831
 31
0.0
  0
LINE
  8
0
 62
     0
 10
1.81901
 20
41.4831
 30
0.0
 11
2.61965
 21
41.4831
 31
0.0
  0
LINE
  8
0
 62
     0
 10
2.61965
 20
41.4831
 30
0.0
 11
2.61965
 21
40.8838
 31
0.0
  0
LINE
  8
0
 62
     0
 10
2.61965
 20
40.8838
 30
0.0
 11
16.6192
 21
40.8838
 31
0.0
  0
LINE
  8
0
 62
     0
 10
16.6192
 20
40.8838
 30
0.0
 11
16.6192
 21
41.4831
 31
0.0
  0
LINE
  8
0
 62
     0
 10
16.6192
 20
41.4831
 30
0.0
 11
17.4198
 21
41.4831
 31
0.0
  0
LINE
  8
0
 62
     0
 10
17.4198
 20
41.4831
 30
0.0
 11
17.4198
 21
54.2837
 31
0.0
  0
LINE
  8
0
 62
     0
 10
17.4198
 20
54.2837
 30
0.0
 11
16.6192
 21
54.2837
 31
0.0
  0
LINE
  8
0
 62
     0
 10
16.6192
 20
54.2837
 30
0.0
 11
16.6192
 21
54.8831
 31
0.0
  0
LINE
  8
0
 62
     0
 10
16.6192
 20
54.8831
 30
0.0
 11
2.61965
 21
54.8831
 31
0.0
  0
LINE
  8
0
 62
     0
 10
21.6697
 20
54.8831
 30
0.0
 11
21.6697
 21
54.2837
 31
0.0
  0
LINE
  8
0
 62
     0
 10
21.6697
 20
54.2837
 30
0.0
 11
20.869
 21
54.2837
 31
0.0
  0
LINE
  8
0
 62
     0
 10
20.869
 20
54.2837
 30
0.0
 11
20.869
 21
41.4831
 31
0.0
  0
LINE
  8
0
 62
     0
 10
20.869
 20
41.4831
 30
0.0
 11
21.6697
 21
41.4831
 31
0.0
  0
LINE
  8
0
 62
     0
 10
21.6697
 20
41.4831
 30
0.0
 11
21.6697
 21
40.8838
 31
0.0
  0
LINE
  8
0
 62
     0
 10
21.6697
 20
40.8838
 30
0.0
 11
35.669
 21
40.8838
 31
0.0
  0
LINE
  8
0
 62
     0
 10
35.669
 20
40.8838
 30
0.0
 11
35.669
 21
41.4831
 31
0.0
  0
LINE
  8
0
 62
     0
 10
35.669
 20
41.4831
 30
0.0
 11
36.4698
 21
41.4831
 31
0.0
  0
LINE
  8
0
 62
     0
 10
36.4698
 20
41.4831
 30
0.0
 11
36.4698
 21
54.2837
 31
0.0
  0
LINE
  8
0
 62
     0
 10
36.4698
 20
54.2837
 30
0.0
 11
35.669
 21
54.2837
 31
0.0
  0
LINE
  8
0
 62
     0
 10
35.669
 20
54.2837
 30
0.0
 11
35.669
 21
54.8831
 31
0.0
  0
LINE
  8
0
 62
     0
 10
35.669
 20
54.8831
 30
0.0
 11
21.6697
 21
54.8831
 31
0.0
  0
LINE
  8
0
 62
     0
 10
40.7197
 20
54.8831
 30
0.0
 11
40.7197
 21
54.2837
 31
0.0
  0
LINE
  8
0
 62
     0
 10
40.7197
 20
54.2837
 30
0.0
 11
39.9189
 21
54.2837
 31
0.0
  0
LINE
  8
0
 62
     0
 10
39.9189
 20
54.2837
 30
0.0
 11
39.9189
 21
41.4831
 31
0.0
  0
LINE
  8
0
 62
     0
 10
39.9189
 20
41.4831
 30
0.0
 11
40.7197
 21
41.4831
 31
0.0
  0
LINE
  8
0
 62
     0
 10
40.7197
 20
41.4831
 30
0.0
 11
40.7197
 21
40.8838
 31
0.0
  0
LINE
  8
0
 62
     0
 10
40.7197
 20
40.8838
 30
0.0
 11
54.719
 21
40.8838
 31
0.0
  0
LINE
  8
0
 62
     0
 10
54.719
 20
40.8838
 30
0.0
 11
54.719
 21
41.4831
 31
0.0
  0
LINE
  8
0
 62
     0
 10
54.719
 20
41.4831
 30
0.0
 11
55.5198
 21
41.4831
 31
0.0
  0
LINE
  8
0
 62
     0
 10
55.5198
 20
41.4831
 30
0.0
 11
55.5198
 21
54.2837
 31
0.0
  0
LINE
  8
0
 62
     0
 10
55.5198
 20
54.2837
 30
0.0
 11
54.719
 21
54.2837
 31
0.0
  0
LINE
  8
0
 62
     0
 10
54.719
 20
54.2837
 30
0.0
 11
54.719
 21
54.8831
 31
0.0
  0
LINE
  8
0
 62
     0
 10
54.719
 20
54.8831
 30
0.0
 11
40.7197
 21
54.8831
 31
0.0
  0
LINE
  8
0
 62
     0
 10
59.7697
 20
54.8831
 30
0.0
 11
59.7697
 21
54.2837
 31
0.0
  0
LINE
  8
0
 62
     0
 10
59.7697
 20
54.2837
 30
0.0
 11
58.9689
 21
54.2837
 31
0.0
  0
LINE
  8
0
 62
     0
 10
58.9689
 20
54.2837
 30
0.0
 11
58.9689
 21
41.4831
 31
0.0
  0
LINE
  8
0
 62
     0
 10
58.9689
 20
41.4831
 30
0.0
 11
59.7697
 21
41.4831
 31
0.0
  0
LINE
  8
0
 62
     0
 10
59.7697
 20
41.4831
 30
0.0
 11
59.7697
 21
40.8838
 31
0.0
  0
LINE
  8
0
 62
     0
 10
59.7697
 20
40.8838
 30
0.0
 11
73.769
 21
40.8838
 31
0.0
  0
LINE
  8
0
 62
     0
 10
73.769
 20
40.8838
 30
0.0
 11
73.769
 21
41.4831
 31
0.0
  0
LINE
  8
0
 62
     0
 10
73.769
 20
41.4831
 30
0.0
 11
74.5698
 21
41.4831
 31
0.0
  0
LINE
  8
0
 62
     0
 10
74.5698
 20
41.4831
 30
0.0
 11
74.5698
 21
54.2837
 31
0.0
  0
LINE
  8
0
 62
     0
 10
74.5698
 20
54.2837
 30
0.0
 11
73.769
 21
54.2837
 31
0.0
  0
LINE
  8
0
 62
     0
 10
73.769
 20
54.2837
 30
0.0
 11
73.769
 21
54.8831
 31
0.0
  0
LINE
  8
0
 62
     0
 10
73.769
 20
54.8831
 30
0.0
 11
59.7697
 21
54.8831
 31
0.0
  0
LINE
  8
0
 62
     0
 10
78.8197
 20
54.8831
 30
0.0
 11
78.8197
 21
54.2837
 31
0.0
  0
LINE
  8
0
 62
     0
 10
78.8197
 20
54.2837
 30
0.0
 11
78.0189
 21
54.2837
 31
0.0
  0
LINE
  8
0
 62
     0
 10
78.0189
 20
54.2837
 30
0.0
 11
78.0189
 21
41.4831
 31
0.0
  0
LINE
  8
0
 62
     0
 10
78.0189
 20
41.4831
 30
0.0
 11
78.8197
 21
41.4831
 31
0.0
  0
LINE
  8
0
 62
     0
 10
78.8197
 20
41.4831
 30
0.0
 11
78.8197
 21
40.8838
 31
0.0
  0
LINE
  8
0
 62
     0
 10
78.8197
 20
40.8838
 30
0.0
 11
92.819
 21
40.8838
 31
0.0
  0
LINE
  8
0
 62
     0
 10
92.819
 20
40.8838
 30
0.0
 11
92.819
 21
41.4831
 31
0.0
  0
LINE
  8
0
 62
     0
 10
92.819
 20
41.4831
 30
0.0
 11
93.6184
 21
41.4831
 31
0.0
  0
LINE
  8
0
 62
     0
 10
93.6184
 20
41.4831
 30
0.0
 11
93.6184
 21
54.2837
 31
0.0
  0
LINE
  8
0
 62
     0
 10
93.6184
 20
54.2837
 30
0.0
 11
92.819
 21
54.2837
 31
0.0
  0
LINE
  8
0
 62
     0
 10
92.819
 20
54.2837
 30
0.0
 11
92.819
 21
54.8831
 31
0.0
  0
LINE
  8
0
 62
     0
 10
92.819
 20
54.8831
 30
0.0
 11
78.8197
 21
54.8831
 31
0.0
  0
LINE
  8
0
 62
     0
 10
97.8683
 20
54.8831
 30
0.0
 11
97.8683
 21
54.2837
 31
0.0
  0
LINE
  8
0
 62
     0
 10
97.8683
 20
54.2837
 30
0.0
 11
97.0689
 21
54.2837
 31
0.0
  0
LINE
  8
0
 62
     0
 10
97.0689
 20
54.2837
 30
0.0
 11
97.0689
 21
41.4831
 31
0.0
  0
LINE
  8
0
 62
     0
 10
97.0689
 20
41.4831
 30
0.0
 11
97.8683
 21
41.4831
 31
0.0
  0
LINE
  8
0
 62
     0
 10
97.8683
 20
41.4831
 30
0.0
 11
97.8683
 21
40.8838
 31
0.0
  0
LINE
  8
0
 62
     0
 10
97.8683
 20
40.8838
 30
0.0
 11
111.869
 21
40.8838
 31
0.0
  0
LINE
  8
0
 62
     0
 10
111.869
 20
40.8838
 30
0.0
 11
111.869
 21
41.4831
 31
0.0
  0
LINE
  8
0
 62
     0
 10
111.869
 20
41.4831
 30
0.0
 11
112.668
 21
41.4831
 31
0.0
  0
LINE
  8
0
 62
     0
 10
112.668
 20
41.4831
 30
0.0
 11
112.668
 21
54.2837
 31
0.0
  0
LINE
  8
0
 62
     0
 10
112.668
 20
54.2837
 30
0.0
 11
111.869
 21
54.2837
 31
0.0
  0
LINE
  8
0
 62
     0
 10
111.869
 20
54.2837
 30
0.0
 11
111.869
 21
54.8831
 31
0.0
  0
LINE
  8
0
 62
     0
 10
111.869
 20
54.8831
 30
0.0
 11
97.8683
 21
54.8831
 31
0.0
  0
LINE
  8
0
 62
     0
 10
116.918
 20
54.8831
 30
0.0
 11
116.918
 21
54.2837
 31
0.0
  0
LINE
  8
0
 62
     0
 10
116.918
 20
54.2837
 30
0.0
 11
116.119
 21
54.2837
 31
0.0
  0
LINE
  8
0
 62
     0
 10
116.119
 20
54.2837
 30
0.0
 11
116.119
 21
41.4831
 31
0.0
  0
LINE
  8
0
 62
     0
 10
116.119
 20
41.4831
 30
0.0
 11
116.918
 21
41.4831
 31
0.0
  0
LINE
  8
0
 62
     0
 10
116.918
 20
41.4831
 30
0.0
 11
116.918
 21
40.8838
 31
0.0
  0
LINE
  8
0
 62
     0
 10
116.918
 20
40.8838
 30
0.0
 11
130.919
 21
40.8838
 31
0.0
  0
LINE
  8
0
 62
     0
 10
130.919
 20
40.8838
 30
0.0
 11
130.919
 21
41.4831
 31
0.0
  0
LINE
  8
0
 62
     0
 10
130.919
 20
41.4831
 30
0.0
 11
131.72
 21
41.4831
 31
0.0
  0
LINE
  8
0
 62
     0
 10
131.72
 20
41.4831
 30
0.0
 11
131.72
 21
54.2837
 31
0.0
  0
LINE
  8
0
 62
     0
 10
131.72
 20
54.2837
 30
0.0
 11
130.919
 21
54.2837
 31
0.0
  0
LINE
  8
0
 62
     0
 10
130.919
 20
54.2837
 30
0.0
 11
130.919
 21
54.8831
 31
0.0
  0
LINE
  8
0
 62
     0
 10
130.919
 20
54.8831
 30
0.0
 11
116.918
 21
54.8831
 31
0.0
  0
LINE
  8
0
 62
     0
 10
135.97
 20
54.8831
 30
0.0
 11
135.97
 21
54.2837
 31
0.0
  0
LINE
  8
0
 62
     0
 10
135.97
 20
54.2837
 30
0.0
 11
135.169
 21
54.2837
 31
0.0
  0
LINE
  8
0
 62
     0
 10
135.169
 20
54.2837
 30
0.0
 11
135.169
 21
41.4831
 31
0.0
  0
LINE
  8
0
 62
     0
 10
135.169
 20
41.4831
 30
0.0
 11
135.97
 21
41.4831
 31
0.0
  0
LINE
  8
0
 62
     0
 10
135.97
 20
41.4831
 30
0.0
 11
135.97
 21
40.8838
 31
0.0
  0
LINE
  8
0
 62
     0
 10
135.97
 20
40.8838
 30
0.0
 11
149.969
 21
40.8838
 31
0.0
  0
LINE
  8
0
 62
     0
 10
149.969
 20
40.8838
 30
0.0
 11
149.969
 21
41.4831
 31
0.0
  0
LINE
  8
0
 62
     0
 10
149.969
 20
41.4831
 30
0.0
 11
150.77
 21
41.4831
 31
0.0
  0
LINE
  8
0
 62
     0
 10
150.77
 20
41.4831
 30
0.0
 11
150.77
 21
54.2837
 31
0.0
  0
LINE
  8
0
 62
     0
 10
150.77
 20
54.2837
 30
0.0
 11
149.969
 21
54.2837
 31
0.0
  0
LINE
  8
0
 62
     0
 10
149.969
 20
54.2837
 30
0.0
 11
149.969
 21
54.8831
 31
0.0
  0
LINE
  8
0
 62
     0
 10
149.969
 20
54.8831
 30
0.0
 11
135.97
 21
54.8831
 31
0.0
  0
LINE
  8
0
 62
     0
 10
155.02
 20
54.8831
 30
0.0
 11
155.02
 21
54.2837
 31
0.0
  0
LINE
  8
0
 62
     0
 10
155.02
 20
54.2837
 30
0.0
 11
154.219
 21
54.2837
 31
0.0
  0
LINE
  8
0
 62
     0
 10
154.219
 20
54.2837
 30
0.0
 11
154.219
 21
41.4831
 31
0.0
  0
LINE
  8
0
 62
     0
 10
154.219
 20
41.4831
 30
0.0
 11
155.02
 21
41.4831
 31
0.0
  0
LINE
  8
0
 62
     0
 10
155.02
 20
41.4831
 30
0.0
 11
155.02
 21
40.8838
 31
0.0
  0
LINE
  8
0
 62
     0
 10
155.02
 20
40.8838
 30
0.0
 11
169.019
 21
40.8838
 31
0.0
  0
LINE
  8
0
 62
     0
 10
169.019
 20
40.8838
 30
0.0
 11
169.019
 21
41.4831
 31
0.0
  0
LINE
  8
0
 62
     0
 10
169.019
 20
41.4831
 30
0.0
 11
169.82
 21
41.4831
 31
0.0
  0
LINE
  8
0
 62
     0
 10
169.82
 20
41.4831
 30
0.0
 11
169.82
 21
54.2837
 31
0.0
  0
LINE
  8
0
 62
     0
 10
169.82
 20
54.2837
 30
0.0
 11
169.019
 21
54.2837
 31
0.0
  0
LINE
  8
0
 62
     0
 10
169.019
 20
54.2837
 30
0.0
 11
169.019
 21
54.8831
 31
0.0
  0
LINE
  8
0
 62
     0
 10
169.019
 20
54.8831
 30
0.0
 11
155.02
 21
54.8831
 31
0.0
  0
LINE
  8
0
 62
     0
 10
174.07
 20
54.8831
 30
0.0
 11
174.07
 21
54.2837
 31
0.0
  0
LINE
  8
0
 62
     0
 10
174.07
 20
54.2837
 30
0.0
 11
173.269
 21
54.2837
 31
0.0
  0
LINE
  8
0
 62
     0
 10
173.269
 20
54.2837
 30
0.0
 11
173.269
 21
41.4831
 31
0.0
  0
LINE
  8
0
 62
     0
 10
173.269
 20
41.4831
 30
0.0
 11
174.07
 21
41.4831
 31
0.0
  0
LINE
  8
0
 62
     0
 10
174.07
 20
41.4831
 30
0.0
 11
174.07
 21
40.8838
 31
0.0
  0
LINE
  8
0
 62
     0
 10
174.07
 20
40.8838
 30
0.0
 11
188.069
 21
40.8838
 31
0.0
  0
LINE
  8
0
 62
     0
 10
188.069
 20
40.8838
 30
0.0
 11
188.069
 21
41.4831
 31
0.0
  0
LINE
  8
0
 62
     0
 10
188.069
 20
41.4831
 30
0.0
 11
188.87
 21
41.4831
 31
0.0
  0
LINE
  8
0
 62
     0
 10
188.87
 20
41.4831
 30
0.0
 11
188.87
 21
54.2837
 31
0.0
  0
LINE
  8
0
 62
     0
 10
188.87
 20
54.2837
 30
0.0
 11
188.069
 21
54.2837
 31
0.0
  0
LINE
  8
0
 62
     0
 10
188.069
 20
54.2837
 30
0.0
 11
188.069
 21
54.8831
 31
0.0
  0
LINE
  8
0
 62
     0
 10
188.069
 20
54.8831
 30
0.0
 11
174.07
 21
54.8831
 31
0.0
  0
LINE
  8
0
 62
     0
 10
2.61965
 20
73.9331
 30
0.0
 11
2.61965
 21
73.3337
 31
0.0
  0
LINE
  8
0
 62
     0
 10
2.61965
 20
73.3337
 30
0.0
 11
1.81901
 21
73.3337
 31
0.0
  0
LINE
  8
0
 62
     0
 10
1.81901
 20
73.3337
 30
0.0
 11
1.81901
 21
60.5331
 31
0.0
  0
LINE
  8
0
 62
     0
 10
1.81901
 20
60.5331
 30
0.0
 11
2.61965
 21
60.5331
 31
0.0
  0
LINE
  8
0
 62
     0
 10
2.61965
 20
60.5331
 30
0.0
 11
2.61965
 21
59.9338
 31
0.0
  0
LINE
  8
0
 62
     0
 10
2.61965
 20
59.9338
 30
0.0
 11
16.6192
 21
59.9338
 31
0.0
  0
LINE
  8
0
 62
     0
 10
16.6192
 20
59.9338
 30
0.0
 11
16.6192
 21
60.5331
 31
0.0
  0
LINE
  8
0
 62
     0
 10
16.6192
 20
60.5331
 30
0.0
 11
17.4198
 21
60.5331
 31
0.0
  0
LINE
  8
0
 62
     0
 10
17.4198
 20
60.5331
 30
0.0
 11
17.4198
 21
73.3337
 31
0.0
  0
LINE
  8
0
 62
     0
 10
17.4198
 20
73.3337
 30
0.0
 11
16.6192
 21
73.3337
 31
0.0
  0
LINE
  8
0
 62
     0
 10
16.6192
 20
73.3337
 30
0.0
 11
16.6192
 21
73.9331
 31
0.0
  0
LINE
  8
0
 62
     0
 10
16.6192
 20
73.9331
 30
0.0
 11
2.61965
 21
73.9331
 31
0.0
  0
LINE
  8
0
 62
     0
 10
21.6697
 20
73.9331
 30
0.0
 11
21.6697
 21
73.3337
 31
0.0
  0
LINE
  8
0
 62
     0
 10
21.6697
 20
73.3337
 30
0.0
 11
20.869
 21
73.3337
 31
0.0
  0
LINE
  8
0
 62
     0
 10
20.869
 20
73.3337
 30
0.0
 11
20.869
 21
60.5331
 31
0.0
  0
LINE
  8
0
 62
     0
 10
20.869
 20
60.5331
 30
0.0
 11
21.6697
 21
60.5331
 31
0.0
  0
LINE
  8
0
 62
     0
 10
21.6697
 20
60.5331
 30
0.0
 11
21.6697
 21
59.9338
 31
0.0
  0
LINE
  8
0
 62
     0
 10
21.6697
 20
59.9338
 30
0.0
 11
35.669
 21
59.9338
 31
0.0
  0
LINE
  8
0
 62
     0
 10
35.669
 20
59.9338
 30
0.0
 11
35.669
 21
60.5331
 31
0.0
  0
LINE
  8
0
 62
     0
 10
35.669
 20
60.5331
 30
0.0
 11
36.4698
 21
60.5331
 31
0.0
  0
LINE
  8
0
 62
     0
 10
36.4698
 20
60.5331
 30
0.0
 11
36.4698
 21
73.3337
 31
0.0
  0
LINE
  8
0
 62
     0
 10
36.4698
 20
73.3337
 30
0.0
 11
35.669
 21
73.3337
 31
0.0
  0
LINE
  8
0
 62
     0
 10
35.669
 20
73.3337
 30
0.0
 11
35.669
 21
73.9331
 31
0.0
  0
LINE
  8
0
 62
     0
 10
35.669
 20
73.9331
 30
0.0
 11
21.6697
 21
73.9331
 31
0.0
  0
LINE
  8
0
 62
     0
 10
40.7197
 20
73.9331
 30
0.0
 11
40.7197
 21
73.3337
 31
0.0
  0
LINE
  8
0
 62
     0
 10
40.7197
 20
73.3337
 30
0.0
 11
39.9189
 21
73.3337
 31
0.0
  0
LINE
  8
0
 62
     0
 10
39.9189
 20
73.3337
 30
0.0
 11
39.9189
 21
60.5331
 31
0.0
  0
LINE
  8
0
 62
     0
 10
39.9189
 20
60.5331
 30
0.0
 11
40.7197
 21
60.5331
 31
0.0
  0
LINE
  8
0
 62
     0
 10
40.7197
 20
60.5331
 30
0.0
 11
40.7197
 21
59.9338
 31
0.0
  0
LINE
  8
0
 62
     0
 10
40.7197
 20
59.9338
 30
0.0
 11
54.719
 21
59.9338
 31
0.0
  0
LINE
  8
0
 62
     0
 10
54.719
 20
59.9338
 30
0.0
 11
54.719
 21
60.5331
 31
0.0
  0
LINE
  8
0
 62
     0
 10
54.719
 20
60.5331
 30
0.0
 11
55.5198
 21
60.5331
 31
0.0
  0
LINE
  8
0
 62
     0
 10
55.5198
 20
60.5331
 30
0.0
 11
55.5198
 21
73.3337
 31
0.0
  0
LINE
  8
0
 62
     0
 10
55.5198
 20
73.3337
 30
0.0
 11
54.719
 21
73.3337
 31
0.0
  0
LINE
  8
0
 62
     0
 10
54.719
 20
73.3337
 30
0.0
 11
54.719
 21
73.9331
 31
0.0
  0
LINE
  8
0
 62
     0
 10
54.719
 20
73.9331
 30
0.0
 11
40.7197
 21
73.9331
 31
0.0
  0
LINE
  8
0
 62
     0
 10
59.7697
 20
73.9331
 30
0.0
 11
59.7697
 21
73.3337
 31
0.0
  0
LINE
  8
0
 62
     0
 10
59.7697
 20
73.3337
 30
0.0
 11
58.9689
 21
73.3337
 31
0.0
  0
LINE
  8
0
 62
     0
 10
58.9689
 20
73.3337
 30
0.0
 11
58.9689
 21
60.5331
 31
0.0
  0
LINE
  8
0
 62
     0
 10
58.9689
 20
60.5331
 30
0.0
 11
59.7697
 21
60.5331
 31
0.0
  0
LINE
  8
0
 62
     0
 10
59.7697
 20
60.5331
 30
0.0
 11
59.7697
 21
59.9338
 31
0.0
  0
LINE
  8
0
 62
     0
 10
59.7697
 20
59.9338
 30
0.0
 11
73.769
 21
59.9338
 31
0.0
  0
LINE
  8
0
 62
     0
 10
73.769
 20
59.9338
 30
0.0
 11
73.769
 21
60.5331
 31
0.0
  0
LINE
  8
0
 62
     0
 10
73.769
 20
60.5331
 30
0.0
 11
74.5698
 21
60.5331
 31
0.0
  0
LINE
  8
0
 62
     0
 10
74.5698
 20
60.5331
 30
0.0
 11
74.5698
 21
73.3337
 31
0.0
  0
LINE
  8
0
 62
     0
 10
74.5698
 20
73.3337
 30
0.0
 11
73.769
 21
73.3337
 31
0.0
  0
LINE
  8
0
 62
     0
 10
73.769
 20
73.3337
 30
0.0
 11
73.769
 21
73.9331
 31
0.0
  0
LINE
  8
0
 62
     0
 10
73.769
 20
73.9331
 30
0.0
 11
59.7697
 21
73.9331
 31
0.0
  0
LINE
  8
0
 62
     0
 10
78.8197
 20
73.9331
 30
0.0
 11
78.8197
 21
73.3337
 31
0.0
  0
LINE
  8
0
 62
     0
 10
78.8197
 20
73.3337
 30
0.0
 11
78.0189
 21
73.3337
 31
0.0
  0
LINE
  8
0
 62
     0
 10
78.0189
 20
73.3337
 30
0.0
 11
78.0189
 21
60.5331
 31
0.0
  0
LINE
  8
0
 62
     0
 10
78.0189
 20
60.5331
 30
0.0
 11
78.8197
 21
60.5331
 31
0.0
  0
LINE
  8
0
 62
     0
 10
78.8197
 20
60.5331
 30
0.0
 11
78.8197
 21
59.9338
 31
0.0
  0
LINE
  8
0
 62
     0
 10
78.8197
 20
59.9338
 30
0.0
 11
92.819
 21
59.9338
 31
0.0
  0
LINE
  8
0
 62
     0
 10
92.819
 20
59.9338
 30
0.0
 11
92.819
 21
60.5331
 31
0.0
  0
LINE
  8
0
 62
     0
 10
92.819
 20
60.5331
 30
0.0
 11
93.6184
 21
60.5331
 31
0.0
  0
LINE
  8
0
 62
     0
 10
93.6184
 20
60.5331
 30
0.0
 11
93.6184
 21
73.3337
 31
0.0
  0
LINE
  8
0
 62
     0
 10
93.6184
 20
73.3337
 30
0.0
 11
92.819
 21
73.3337
 31
0.0
  0
LINE
  8
0
 62
     0
 10
92.819
 20
73.3337
 30
0.0
 11
92.819
 21
73.9331
 31
0.0
  0
LINE
  8
0
 62
     0
 10
92.819
 20
73.9331
 30
0.0
 11
78.8197
 21
73.9331
 31
0.0
  0
LINE
  8
0
 62
     0
 10
97.8683
 20
73.9331
 30
0.0
 11
97.8683
 21
73.3337
 31
0.0
  0
LINE
  8
0
 62
     0
 10
97.8683
 20
73.3337
 30
0.0
 11
97.0689
 21
73.3337
 31
0.0
  0
LINE
  8
0
 62
     0
 10
97.0689
 20
73.3337
 30
0.0
 11
97.0689
 21
60.5331
 31
0.0
  0
LINE
  8
0
 62
     0
 10
97.0689
 20
60.5331
 30
0.0
 11
97.8683
 21
60.5331
 31
0.0
  0
LINE
  8
0
 62
     0
 10
97.8683
 20
60.5331
 30
0.0
 11
97.8683
 21
59.9338
 31
0.0
  0
LINE
  8
0
 62
     0
 10
97.8683
 20
59.9338
 30
0.0
 11
111.869
 21
59.9338
 31
0.0
  0
LINE
  8
0
 62
     0
 10
111.869
 20
59.9338
 30
0.0
 11
111.869
 21
60.5331
 31
0.0
  0
LINE
  8
0
 62
     0
 10
111.869
 20
60.5331
 30
0.0
 11
112.668
 21
60.5331
 31
0.0
  0
LINE
  8
0
 62
     0
 10
112.668
 20
60.5331
 30
0.0
 11
112.668
 21
73.3337
 31
0.0
  0
LINE
  8
0
 62
     0
 10
112.668
 20
73.3337
 30
0.0
 11
111.869
 21
73.3337
 31
0.0
  0
LINE
  8
0
 62
     0
 10
111.869
 20
73.3337
 30
0.0
 11
111.869
 21
73.9331
 31
0.0
  0
LINE
  8
0
 62
     0
 10
111.869
 20
73.9331
 30
0.0
 11
97.8683
 21
73.9331
 31
0.0
  0
LINE
  8
0
 62
     0
 10
116.918
 20
73.9331
 30
0.0
 11
116.918
 21
73.3337
 31
0.0
  0
LINE
  8
0
 62
     0
 10
116.918
 20
73.3337
 30
0.0
 11
116.119
 21
73.3337
 31
0.0
  0
LINE
  8
0
 62
     0
 10
116.119
 20
73.3337
 30
0.0
 11
116.119
 21
60.5331
 31
0.0
  0
LINE
  8
0
 62
     0
 10
116.119
 20
60.5331
 30
0.0
 11
116.918
 21
60.5331
 31
0.0
  0
LINE
  8
0
 62
     0
 10
116.918
 20
60.5331
 30
0.0
 11
116.918
 21
59.9338
 31
0.0
  0
LINE
  8
0
 62
     0
 10
116.918
 20
59.9338
 30
0.0
 11
130.919
 21
59.9338
 31
0.0
  0
LINE
  8
0
 62
     0
 10
130.919
 20
59.9338
 30
0.0
 11
130.919
 21
60.5331
 31
0.0
  0
LINE
  8
0
 62
     0
 10
130.919
 20
60.5331
 30
0.0
 11
131.72
 21
60.5331
 31
0.0
  0
LINE
  8
0
 62
     0
 10
131.72
 20
60.5331
 30
0.0
 11
131.72
 21
73.3337
 31
0.0
  0
LINE
  8
0
 62
     0
 10
131.72
 20
73.3337
 30
0.0
 11
130.919
 21
73.3337
 31
0.0
  0
LINE
  8
0
 62
     0
 10
130.919
 20
73.3337
 30
0.0
 11
130.919
 21
73.9331
 31
0.0
  0
LINE
  8
0
 62
     0
 10
130.919
 20
73.9331
 30
0.0
 11
116.918
 21
73.9331
 31
0.0
  0
LINE
  8
0
 62
     0
 10
135.97
 20
73.9331
 30
0.0
 11
135.97
 21
73.3337
 31
0.0
  0
LINE
  8
0
 62
     0
 10
135.97
 20
73.3337
 30
0.0
 11
135.169
 21
73.3337
 31
0.0
  0
LINE
  8
0
 62
     0
 10
135.169
 20
73.3337
 30
0.0
 11
135.169
 21
60.5331
 31
0.0
  0
LINE
  8
0
 62
     0
 10
135.169
 20
60.5331
 30
0.0
 11
135.97
 21
60.5331
 31
0.0
  0
LINE
  8
0
 62
     0
 10
135.97
 20
60.5331
 30
0.0
 11
135.97
 21
59.9338
 31
0.0
  0
LINE
  8
0
 62
     0
 10
135.97
 20
59.9338
 30
0.0
 11
149.969
 21
59.9338
 31
0.0
  0
LINE
  8
0
 62
     0
 10
149.969
 20
59.9338
 30
0.0
 11
149.969
 21
60.5331
 31
0.0
  0
LINE
  8
0
 62
     0
 10
149.969
 20
60.5331
 30
0.0
 11
150.77
 21
60.5331
 31
0.0
  0
LINE
  8
0
 62
     0
 10
150.77
 20
60.5331
 30
0.0
 11
150.77
 21
73.3337
 31
0.0
  0
LINE
  8
0
 62
     0
 10
150.77
 20
73.3337
 30
0.0
 11
149.969
 21
73.3337
 31
0.0
  0
LINE
  8
0
 62
     0
 10
149.969
 20
73.3337
 30
0.0
 11
149.969
 21
73.9331
 31
0.0
  0
LINE
  8
0
 62
     0
 10
149.969
 20
73.9331
 30
0.0
 11
135.97
 21
73.9331
 31
0.0
  0
LINE
  8
0
 62
     0
 10
155.02
 20
73.9331
 30
0.0
 11
155.02
 21
73.3337
 31
0.0
  0
LINE
  8
0
 62
     0
 10
155.02
 20
73.3337
 30
0.0
 11
154.219
 21
73.3337
 31
0.0
  0
LINE
  8
0
 62
     0
 10
154.219
 20
73.3337
 30
0.0
 11
154.219
 21
60.5331
 31
0.0
  0
LINE
  8
0
 62
     0
 10
154.219
 20
60.5331
 30
0.0
 11
155.02
 21
60.5331
 31
0.0
  0
LINE
  8
0
 62
     0
 10
155.02
 20
60.5331
 30
0.0
 11
155.02
 21
59.9338
 31
0.0
  0
LINE
  8
0
 62
     0
 10
155.02
 20
59.9338
 30
0.0
 11
169.019
 21
59.9338
 31
0.0
  0
LINE
  8
0
 62
     0
 10
169.019
 20
59.9338
 30
0.0
 11
169.019
 21
60.5331
 31
0.0
  0
LINE
  8
0
 62
     0
 10
169.019
 20
60.5331
 30
0.0
 11
169.82
 21
60.5331
 31
0.0
  0
LINE
  8
0
 62
     0
 10
169.82
 20
60.5331
 30
0.0
 11
169.82
 21
73.3337
 31
0.0
  0
LINE
  8
0
 62
     0
 10
169.82
 20
73.3337
 30
0.0
 11
169.019
 21
73.3337
 31
0.0
  0
LINE
  8
0
 62
     0
 10
169.019
 20
73.3337
 30
0.0
 11
169.019
 21
73.9331
 31
0.0
  0
LINE
  8
0
 62
     0
 10
169.019
 20
73.9331
 30
0.0
 11
155.02
 21
73.9331
 31
0.0
  0
LINE
  8
0
 62
     0
 10
174.07
 20
73.9331
 30
0.0
 11
174.07
 21
73.3337
 31
0.0
  0
LINE
  8
0
 62
     0
 10
174.07
 20
73.3337
 30
0.0
 11
173.269
 21
73.3337
 31
0.0
  0
LINE
  8
0
 62
     0
 10
173.269
 20
73.3337
 30
0.0
 11
173.269
 21
60.5331
 31
0.0
  0
LINE
  8
0
 62
     0
 10
173.269
 20
60.5331
 30
0.0
 11
174.07
 21
60.5331
 31
0.0
  0
LINE
  8
0
 62
     0
 10
174.07
 20
60.5331
 30
0.0
 11
174.07
 21
59.9338
 31
0.0
  0
LINE
  8
0
 62
     0
 10
174.07
 20
59.9338
 30
0.0
 11
188.069
 21
59.9338
 31
0.0
  0
LINE
  8
0
 62
     0
 10
188.069
 20
59.9338
 30
0.0
 11
188.069
 21
60.5331
 31
0.0
  0
LINE
  8
0
 62
     0
 10
188.069
 20
60.5331
 30
0.0
 11
188.87
 21
60.5331
 31
0.0
  0
LINE
  8
0
 62
     0
 10
188.87
 20
60.5331
 30
0.0
 11
188.87
 21
73.3337
 31
0.0
  0
LINE
  8
0
 62
     0
 10
188.87
 20
73.3337
 30
0.0
 11
188.069
 21
73.3337
 31
0.0
  0
LINE
  8
0
 62
     0
 10
188.069
 20
73.3337
 30
0.0
 11
188.069
 21
73.9331
 31
0.0
  0
LINE
  8
0
 62
     0
 10
188.069
 20
73.9331
 30
0.0
 11
174.07
 21
73.9331
 31
0.0
  0
ENDSEC
  0
EOF
