%TF.GenerationSoftware,KiCad,Pcbnew,8.0.1*%
%TF.CreationDate,2025-04-02T15:04:39-04:00*%
%TF.ProjectId,ScottoPad,53636f74-746f-4506-9164-2e6b69636164,rev?*%
%TF.SameCoordinates,Original*%
%TF.FileFunction,Copper,L2,Bot*%
%TF.FilePolarity,Positive*%
%FSLAX46Y46*%
G04 Gerber Fmt 4.6, Leading zero omitted, Abs format (unit mm)*
G04 Created by KiCad (PCBNEW 8.0.1) date 2025-04-02 15:04:39*
%MOMM*%
%LPD*%
G01*
G04 APERTURE LIST*
G04 Aperture macros list*
%AMRoundRect*
0 Rectangle with rounded corners*
0 $1 Rounding radius*
0 $2 $3 $4 $5 $6 $7 $8 $9 X,Y pos of 4 corners*
0 Add a 4 corners polygon primitive as box body*
4,1,4,$2,$3,$4,$5,$6,$7,$8,$9,$2,$3,0*
0 Add four circle primitives for the rounded corners*
1,1,$1+$1,$2,$3*
1,1,$1+$1,$4,$5*
1,1,$1+$1,$6,$7*
1,1,$1+$1,$8,$9*
0 Add four rect primitives between the rounded corners*
20,1,$1+$1,$2,$3,$4,$5,0*
20,1,$1+$1,$4,$5,$6,$7,0*
20,1,$1+$1,$6,$7,$8,$9,0*
20,1,$1+$1,$8,$9,$2,$3,0*%
G04 Aperture macros list end*
%TA.AperFunction,ComponentPad*%
%ADD10C,2.500000*%
%TD*%
%TA.AperFunction,ComponentPad*%
%ADD11C,1.700000*%
%TD*%
%TA.AperFunction,SMDPad,CuDef*%
%ADD12RoundRect,0.225000X-0.375000X0.225000X-0.375000X-0.225000X0.375000X-0.225000X0.375000X0.225000X0*%
%TD*%
%TA.AperFunction,Conductor*%
%ADD13C,0.300000*%
%TD*%
G04 APERTURE END LIST*
D10*
%TO.P,S5,1,1*%
%TO.N,Net-(C4-Pad1)*%
X248919968Y-45720000D03*
%TO.P,S5,2,2*%
%TO.N,Net-(D5-A)*%
X242569968Y-48260000D03*
%TD*%
%TO.P,S11,1,1*%
%TO.N,Net-(C4-Pad1)*%
X248919968Y-64770000D03*
%TO.P,S11,2,2*%
%TO.N,Net-(D11-A)*%
X242569968Y-67310000D03*
%TD*%
%TO.P,S16,1,1*%
%TO.N,Net-(C3-Pad1)*%
X229869968Y-83820000D03*
%TO.P,S16,2,2*%
%TO.N,Net-(D16-A)*%
X223519968Y-86360000D03*
%TD*%
D11*
%TO.P,R1,1,1*%
%TO.N,Net-(D10-K)*%
X178434968Y-34925000D03*
%TD*%
D10*
%TO.P,S2,1,1*%
%TO.N,Net-(C1-Pad1)*%
X191769968Y-45720000D03*
%TO.P,S2,2,2*%
%TO.N,Net-(D2-A)*%
X185419968Y-48260000D03*
%TD*%
D11*
%TO.P,C5,1,1*%
%TO.N,Net-(C5-Pad1)*%
X173354968Y-34925000D03*
%TD*%
D10*
%TO.P,S4,1,1*%
%TO.N,Net-(C3-Pad1)*%
X229869968Y-45720000D03*
%TO.P,S4,2,2*%
%TO.N,Net-(D4-A)*%
X223519968Y-48260000D03*
%TD*%
%TO.P,S12,1,1*%
%TO.N,Net-(C5-Pad1)*%
X267969968Y-64770000D03*
%TO.P,S12,2,2*%
%TO.N,Net-(D12-A)*%
X261619968Y-67310000D03*
%TD*%
D11*
%TO.P,R0,1,1*%
%TO.N,Net-(D1-K)*%
X175894968Y-34925000D03*
%TD*%
D10*
%TO.P,S13,1,1*%
%TO.N,Net-(C0-Pad1)*%
X172719968Y-83820000D03*
%TO.P,S13,2,2*%
%TO.N,Net-(D13-A)*%
X166369968Y-86360000D03*
%TD*%
%TO.P,S6,1,1*%
%TO.N,Net-(C5-Pad1)*%
X267969968Y-45720000D03*
%TO.P,S6,2,2*%
%TO.N,Net-(D6-A)*%
X261619968Y-48260000D03*
%TD*%
%TO.P,S3,1,1*%
%TO.N,Net-(C2-Pad1)*%
X210819968Y-45720000D03*
%TO.P,S3,2,2*%
%TO.N,Net-(D3-A)*%
X204469968Y-48260000D03*
%TD*%
%TO.P,S1,1,1*%
%TO.N,Net-(C0-Pad1)*%
X172719968Y-45720000D03*
%TO.P,S1,2,2*%
%TO.N,Net-(D1-A)*%
X166369968Y-48260000D03*
%TD*%
D11*
%TO.P,C0,1,1*%
%TO.N,Net-(C0-Pad1)*%
X160654968Y-34925000D03*
%TD*%
%TO.P,C2,1,1*%
%TO.N,Net-(C2-Pad1)*%
X165734968Y-34925000D03*
%TD*%
D10*
%TO.P,S7,1,1*%
%TO.N,Net-(C0-Pad1)*%
X172719968Y-64770000D03*
%TO.P,S7,2,2*%
%TO.N,Net-(D7-A)*%
X166369968Y-67310000D03*
%TD*%
D11*
%TO.P,C1,1,1*%
%TO.N,Net-(C1-Pad1)*%
X163194968Y-34925000D03*
%TD*%
D10*
%TO.P,S15,1,1*%
%TO.N,Net-(C2-Pad1)*%
X210819968Y-83820000D03*
%TO.P,S15,2,2*%
%TO.N,Net-(D15-A)*%
X204469968Y-86360000D03*
%TD*%
%TO.P,S18,1,1*%
%TO.N,Net-(C5-Pad1)*%
X267969968Y-83820000D03*
%TO.P,S18,2,2*%
%TO.N,Net-(D18-A)*%
X261619968Y-86360000D03*
%TD*%
%TO.P,S10,1,1*%
%TO.N,Net-(C3-Pad1)*%
X229869968Y-64770000D03*
%TO.P,S10,2,2*%
%TO.N,Net-(D10-A)*%
X223519968Y-67310000D03*
%TD*%
D11*
%TO.P,C4,1,1*%
%TO.N,Net-(C4-Pad1)*%
X170814969Y-34925000D03*
%TD*%
D10*
%TO.P,S14,1,1*%
%TO.N,Net-(C1-Pad1)*%
X191769968Y-83820000D03*
%TO.P,S14,2,2*%
%TO.N,Net-(D14-A)*%
X185419968Y-86360000D03*
%TD*%
D11*
%TO.P,R2,1,1*%
%TO.N,Net-(D13-K)*%
X180974967Y-34925000D03*
%TD*%
D10*
%TO.P,S9,1,1*%
%TO.N,Net-(C2-Pad1)*%
X210819968Y-64770000D03*
%TO.P,S9,2,2*%
%TO.N,Net-(D9-A)*%
X204469968Y-67310000D03*
%TD*%
D11*
%TO.P,C3,1,1*%
%TO.N,Net-(C3-Pad1)*%
X168274967Y-34925000D03*
%TD*%
D10*
%TO.P,S17,1,1*%
%TO.N,Net-(C4-Pad1)*%
X248919968Y-83820000D03*
%TO.P,S17,2,2*%
%TO.N,Net-(D17-A)*%
X242569968Y-86360000D03*
%TD*%
%TO.P,S8,1,1*%
%TO.N,Net-(C1-Pad1)*%
X191769968Y-64770000D03*
%TO.P,S8,2,2*%
%TO.N,Net-(D8-A)*%
X185419968Y-67310000D03*
%TD*%
D12*
%TO.P,D2,1,K*%
%TO.N,Net-(D1-K)*%
X184857468Y-41530000D03*
%TO.P,D2,2,A*%
%TO.N,Net-(D2-A)*%
X184857468Y-44830000D03*
%TD*%
%TO.P,D6,1,K*%
%TO.N,Net-(D1-K)*%
X261057468Y-41530000D03*
%TO.P,D6,2,A*%
%TO.N,Net-(D6-A)*%
X261057468Y-44830000D03*
%TD*%
%TO.P,D11,1,K*%
%TO.N,Net-(D10-K)*%
X242007468Y-60580000D03*
%TO.P,D11,2,A*%
%TO.N,Net-(D11-A)*%
X242007468Y-63880000D03*
%TD*%
%TO.P,D8,1,K*%
%TO.N,Net-(D10-K)*%
X184857468Y-60580000D03*
%TO.P,D8,2,A*%
%TO.N,Net-(D8-A)*%
X184857468Y-63880000D03*
%TD*%
%TO.P,D3,1,K*%
%TO.N,Net-(D1-K)*%
X203907468Y-41530000D03*
%TO.P,D3,2,A*%
%TO.N,Net-(D3-A)*%
X203907468Y-44830000D03*
%TD*%
%TO.P,D5,1,K*%
%TO.N,Net-(D1-K)*%
X242007468Y-41530000D03*
%TO.P,D5,2,A*%
%TO.N,Net-(D5-A)*%
X242007468Y-44830000D03*
%TD*%
%TO.P,D9,1,K*%
%TO.N,Net-(D10-K)*%
X203907468Y-60580000D03*
%TO.P,D9,2,A*%
%TO.N,Net-(D9-A)*%
X203907468Y-63880000D03*
%TD*%
%TO.P,D18,1,K*%
%TO.N,Net-(D13-K)*%
X261057468Y-79630000D03*
%TO.P,D18,2,A*%
%TO.N,Net-(D18-A)*%
X261057468Y-82930000D03*
%TD*%
%TO.P,D15,1,K*%
%TO.N,Net-(D13-K)*%
X203907468Y-79630000D03*
%TO.P,D15,2,A*%
%TO.N,Net-(D15-A)*%
X203907468Y-82930000D03*
%TD*%
%TO.P,D16,1,K*%
%TO.N,Net-(D13-K)*%
X222957468Y-79630000D03*
%TO.P,D16,2,A*%
%TO.N,Net-(D16-A)*%
X222957468Y-82930000D03*
%TD*%
%TO.P,D7,1,K*%
%TO.N,Net-(D10-K)*%
X165807468Y-60580000D03*
%TO.P,D7,2,A*%
%TO.N,Net-(D7-A)*%
X165807468Y-63880000D03*
%TD*%
%TO.P,D13,1,K*%
%TO.N,Net-(D13-K)*%
X165807468Y-79630000D03*
%TO.P,D13,2,A*%
%TO.N,Net-(D13-A)*%
X165807468Y-82930000D03*
%TD*%
%TO.P,D1,1,K*%
%TO.N,Net-(D1-K)*%
X165807468Y-41530000D03*
%TO.P,D1,2,A*%
%TO.N,Net-(D1-A)*%
X165807468Y-44830000D03*
%TD*%
%TO.P,D12,1,K*%
%TO.N,Net-(D10-K)*%
X261057468Y-60580000D03*
%TO.P,D12,2,A*%
%TO.N,Net-(D12-A)*%
X261057468Y-63880000D03*
%TD*%
%TO.P,D4,1,K*%
%TO.N,Net-(D1-K)*%
X222957468Y-41530000D03*
%TO.P,D4,2,A*%
%TO.N,Net-(D4-A)*%
X222957468Y-44830000D03*
%TD*%
%TO.P,D10,1,K*%
%TO.N,Net-(D10-K)*%
X222957468Y-60580000D03*
%TO.P,D10,2,A*%
%TO.N,Net-(D10-A)*%
X222957468Y-63880000D03*
%TD*%
%TO.P,D17,1,K*%
%TO.N,Net-(D13-K)*%
X242007468Y-79630000D03*
%TO.P,D17,2,A*%
%TO.N,Net-(D17-A)*%
X242007468Y-82930000D03*
%TD*%
%TO.P,D14,1,K*%
%TO.N,Net-(D13-K)*%
X184857468Y-79630000D03*
%TO.P,D14,2,A*%
%TO.N,Net-(D14-A)*%
X184857468Y-82930000D03*
%TD*%
D13*
%TO.N,Net-(D1-K)*%
X203907468Y-41530000D02*
X204657468Y-40780000D01*
X165807468Y-41530000D02*
X166809920Y-40527548D01*
X261057468Y-41530000D02*
X260055016Y-40527548D01*
X175894968Y-34925000D02*
X178349968Y-37380000D01*
X185607468Y-40780000D02*
X203157468Y-40780000D01*
X178349968Y-37380000D02*
X256907468Y-37380000D01*
X203157468Y-40780000D02*
X203907468Y-41530000D01*
X256907468Y-37380000D02*
X261057468Y-41530000D01*
X166809920Y-40527548D02*
X183855016Y-40527548D01*
X204657468Y-40780000D02*
X222207468Y-40780000D01*
X222207468Y-40780000D02*
X222957468Y-41530000D01*
X223707468Y-40780000D02*
X241257468Y-40780000D01*
X183855016Y-40527548D02*
X184857468Y-41530000D01*
X260055016Y-40527548D02*
X243009920Y-40527548D01*
X184857468Y-41530000D02*
X185607468Y-40780000D01*
X243009920Y-40527548D02*
X242007468Y-41530000D01*
X241257468Y-40780000D02*
X242007468Y-41530000D01*
X222957468Y-41530000D02*
X223707468Y-40780000D01*
%TO.N,Net-(D1-A)*%
X165807468Y-47697500D02*
X166369968Y-48260000D01*
X165807468Y-44830000D02*
X165807468Y-47697500D01*
%TO.N,Net-(D2-A)*%
X184857468Y-44830000D02*
X184857468Y-47697500D01*
X184857468Y-47697500D02*
X185419968Y-48260000D01*
%TO.N,Net-(D3-A)*%
X203907468Y-47697500D02*
X204469968Y-48260000D01*
X203907468Y-44830000D02*
X203907468Y-47697500D01*
%TO.N,Net-(D4-A)*%
X222957468Y-47697500D02*
X223519968Y-48260000D01*
X222957468Y-44830000D02*
X222957468Y-47697500D01*
%TO.N,Net-(D5-A)*%
X242007468Y-47697500D02*
X242569968Y-48260000D01*
X242007468Y-44830000D02*
X242007468Y-47697500D01*
%TO.N,Net-(D6-A)*%
X261057468Y-44830000D02*
X261057468Y-47697500D01*
X261057468Y-47697500D02*
X261619968Y-48260000D01*
%TO.N,Net-(D7-A)*%
X165807468Y-66747500D02*
X166369968Y-67310000D01*
X165807468Y-63880000D02*
X165807468Y-66747500D01*
%TO.N,Net-(D10-K)*%
X241257468Y-59830000D02*
X242007468Y-60580000D01*
X222207468Y-59830000D02*
X222957468Y-60580000D01*
X223707468Y-59830000D02*
X241257468Y-59830000D01*
X180289968Y-36780000D02*
X264643090Y-36780000D01*
X260307468Y-59830000D02*
X261057468Y-60580000D01*
X204657468Y-59830000D02*
X222207468Y-59830000D01*
X270514968Y-42651878D02*
X270514968Y-51122500D01*
X270514968Y-51122500D02*
X261057468Y-60580000D01*
X184857468Y-60580000D02*
X185607468Y-59830000D01*
X184107468Y-59830000D02*
X184857468Y-60580000D01*
X242007468Y-60580000D02*
X242757468Y-59830000D01*
X165807468Y-60580000D02*
X166557468Y-59830000D01*
X203157468Y-59830000D02*
X203907468Y-60580000D01*
X185607468Y-59830000D02*
X203157468Y-59830000D01*
X264643090Y-36780000D02*
X270514968Y-42651878D01*
X203907468Y-60580000D02*
X204657468Y-59830000D01*
X242757468Y-59830000D02*
X260307468Y-59830000D01*
X166557468Y-59830000D02*
X184107468Y-59830000D01*
X178434968Y-34925000D02*
X180289968Y-36780000D01*
X222957468Y-60580000D02*
X223707468Y-59830000D01*
%TO.N,Net-(D8-A)*%
X184857468Y-63880000D02*
X184857468Y-66747500D01*
X184857468Y-66747500D02*
X185419968Y-67310000D01*
%TO.N,Net-(D9-A)*%
X203907468Y-63880000D02*
X203907468Y-66747500D01*
X203907468Y-66747500D02*
X204469968Y-67310000D01*
%TO.N,Net-(D10-A)*%
X222957468Y-66747500D02*
X223519968Y-67310000D01*
X222957468Y-63880000D02*
X222957468Y-66747500D01*
%TO.N,Net-(D11-A)*%
X242007468Y-63880000D02*
X242007468Y-66747500D01*
X242007468Y-66747500D02*
X242569968Y-67310000D01*
%TO.N,Net-(D12-A)*%
X261057468Y-66747500D02*
X261619968Y-67310000D01*
X261057468Y-63880000D02*
X261057468Y-66747500D01*
%TO.N,Net-(D13-K)*%
X271114968Y-69572500D02*
X271114968Y-42403350D01*
X261057468Y-79630000D02*
X271114968Y-69572500D01*
X271114968Y-42403350D02*
X264891618Y-36180000D01*
X204657468Y-78880000D02*
X203907468Y-79630000D01*
X183855016Y-78627548D02*
X184857468Y-79630000D01*
X182229967Y-36180000D02*
X180974967Y-34925000D01*
X203157468Y-78880000D02*
X185607468Y-78880000D01*
X242007468Y-79630000D02*
X241257468Y-78880000D01*
X241257468Y-78880000D02*
X223707468Y-78880000D01*
X166809920Y-78627548D02*
X183855016Y-78627548D01*
X261057468Y-79630000D02*
X260055016Y-78627548D01*
X223707468Y-78880000D02*
X222957468Y-79630000D01*
X203907468Y-79630000D02*
X203157468Y-78880000D01*
X264891618Y-36180000D02*
X182229967Y-36180000D01*
X222957468Y-79630000D02*
X222207468Y-78880000D01*
X185607468Y-78880000D02*
X184857468Y-79630000D01*
X243009920Y-78627548D02*
X242007468Y-79630000D01*
X222207468Y-78880000D02*
X204657468Y-78880000D01*
X260055016Y-78627548D02*
X243009920Y-78627548D01*
X165807468Y-79630000D02*
X166809920Y-78627548D01*
%TO.N,Net-(D13-A)*%
X165807468Y-85797500D02*
X166369968Y-86360000D01*
X165807468Y-82930000D02*
X165807468Y-85797500D01*
%TO.N,Net-(D14-A)*%
X184857468Y-85797500D02*
X185419968Y-86360000D01*
X184857468Y-82930000D02*
X184857468Y-85797500D01*
%TO.N,Net-(D15-A)*%
X203907468Y-82930000D02*
X203907468Y-85797500D01*
X203907468Y-85797500D02*
X204469968Y-86360000D01*
%TO.N,Net-(D16-A)*%
X222957468Y-82930000D02*
X222957468Y-85797500D01*
X222957468Y-85797500D02*
X223519968Y-86360000D01*
%TO.N,Net-(D17-A)*%
X242007468Y-85797500D02*
X242569968Y-86360000D01*
X242007468Y-82930000D02*
X242007468Y-85797500D01*
%TO.N,Net-(D18-A)*%
X261057468Y-85797500D02*
X261619968Y-86360000D01*
X261057468Y-82930000D02*
X261057468Y-85797500D01*
%TD*%
M02*
