M48
; DRILL file {KiCad 8.0.1} date 2025-04-02T15:04:45-0400
; FORMAT={-:-/ absolute / metric / decimal}
; #@! TF.CreationDate,2025-04-02T15:04:45-04:00
; #@! TF.GenerationSoftware,Kicad,Pcbnew,8.0.1
; #@! TF.FileFunction,NonPlated,1,2,NPTH
FMAT,2
METRIC
; #@! TA.AperFunction,NonPlated,NPTH,ComponentDrill
T1C1.750
; #@! TA.AperFunction,NonPlated,NPTH,ComponentDrill
T2C4.000
%
G90
G05
T1
X163.83Y-43.18
X163.83Y-62.23
X163.83Y-81.28
X173.99Y-43.18
X173.99Y-62.23
X173.99Y-81.28
X182.88Y-43.18
X182.88Y-62.23
X182.88Y-81.28
X193.04Y-43.18
X193.04Y-62.23
X193.04Y-81.28
X201.93Y-43.18
X201.93Y-62.23
X201.93Y-81.28
X212.09Y-43.18
X212.09Y-62.23
X212.09Y-81.28
X220.98Y-43.18
X220.98Y-62.23
X220.98Y-81.28
X231.14Y-43.18
X231.14Y-62.23
X231.14Y-81.28
X240.03Y-43.18
X240.03Y-62.23
X240.03Y-81.28
X250.19Y-43.18
X250.19Y-62.23
X250.19Y-81.28
X259.08Y-43.18
X259.08Y-62.23
X259.08Y-81.28
X269.24Y-43.18
X269.24Y-62.23
X269.24Y-81.28
T2
X168.91Y-43.18
X168.91Y-62.23
X168.91Y-81.28
X187.96Y-43.18
X187.96Y-62.23
X187.96Y-81.28
X207.01Y-43.18
X207.01Y-62.23
X207.01Y-81.28
X226.06Y-43.18
X226.06Y-62.23
X226.06Y-81.28
X245.11Y-43.18
X245.11Y-62.23
X245.11Y-81.28
X264.16Y-43.18
X264.16Y-62.23
X264.16Y-81.28
M30
