M48
; DRILL file {KiCad 8.0.1} date 2025-04-02T15:04:45-0400
; FORMAT={-:-/ absolute / metric / decimal}
; #@! TF.CreationDate,2025-04-02T15:04:45-04:00
; #@! TF.GenerationSoftware,Kicad,Pcbnew,8.0.1
; #@! TF.FileFunction,Plated,1,2,PTH
FMAT,2
METRIC
; #@! TA.AperFunction,Plated,PTH,ComponentDrill
T1C1.000
; #@! TA.AperFunction,Plated,PTH,ComponentDrill
T2C1.500
%
G90
G05
T1
X160.655Y-34.925
X163.195Y-34.925
X165.735Y-34.925
X168.275Y-34.925
X170.815Y-34.925
X173.355Y-34.925
X175.895Y-34.925
X178.435Y-34.925
X180.975Y-34.925
T2
X166.37Y-48.26
X166.37Y-67.31
X166.37Y-86.36
X172.72Y-45.72
X172.72Y-64.77
X172.72Y-83.82
X185.42Y-48.26
X185.42Y-67.31
X185.42Y-86.36
X191.77Y-45.72
X191.77Y-64.77
X191.77Y-83.82
X204.47Y-48.26
X204.47Y-67.31
X204.47Y-86.36
X210.82Y-45.72
X210.82Y-64.77
X210.82Y-83.82
X223.52Y-48.26
X223.52Y-67.31
X223.52Y-86.36
X229.87Y-45.72
X229.87Y-64.77
X229.87Y-83.82
X242.57Y-48.26
X242.57Y-67.31
X242.57Y-86.36
X248.92Y-45.72
X248.92Y-64.77
X248.92Y-83.82
X261.62Y-48.26
X261.62Y-67.31
X261.62Y-86.36
X267.97Y-45.72
X267.97Y-64.77
X267.97Y-83.82
M30
