  0
SECTION
  2
HEADER
  9
$ACADVER
  1
AC1009
  9
$FILLMODE
 70
 0
  9
$SPLFRAME
 70
 1
  9
$EXTMIN
 10
0
 20
0
 30
0.0
  9
$EXTMAX
 10
1058.33
 20
1058.33
 30
0.0
  0
ENDSEC
  0
SECTION
  2
TABLES
  0
TABLE
  2
LAYER
 70
1
  0
LAYER
  2
0
 70
     0
 62
     7
  6
CONTINUOUS
  0
ENDTAB
  0
ENDSEC
  0
SECTION
  2
ENTITIES
  0
LINE
  8
0
 62
     0
 10
0.0950846
 20
85.9825
 30
0.0
 11
190.595
 21
85.9825
 31
0.0
  0
LINE
  8
0
 62
     0
 10
190.595
 20
85.9825
 30
0.0
 11
190.595
 21
0.257693
 31
0.0
  0
LINE
  8
0
 62
     0
 10
190.595
 20
0.257693
 30
0.0
 11
0.0950846
 21
0.257693
 31
0.0
  0
LINE
  8
0
 62
     0
 10
0.0950846
 20
0.257693
 30
0.0
 11
0.0950846
 21
85.9825
 31
0.0
  0
LINE
  8
0
 62
     0
 10
78.8197
 20
16.7831
 30
0.0
 11
92.819
 21
16.7831
 31
0.0
  0
LINE
  8
0
 62
     0
 10
92.819
 20
16.7831
 30
0.0
 11
92.819
 21
2.78364
 31
0.0
  0
LINE
  8
0
 62
     0
 10
92.819
 20
2.78364
 30
0.0
 11
78.8197
 21
2.78364
 31
0.0
  0
LINE
  8
0
 62
     0
 10
78.8197
 20
2.78364
 30
0.0
 11
78.8197
 21
16.7831
 31
0.0
  0
LINE
  8
0
 62
     0
 10
97.8697
 20
16.7831
 30
0.0
 11
111.869
 21
16.7831
 31
0.0
  0
LINE
  8
0
 62
     0
 10
111.869
 20
16.7831
 30
0.0
 11
111.869
 21
2.78364
 31
0.0
  0
LINE
  8
0
 62
     0
 10
111.869
 20
2.78364
 30
0.0
 11
97.8697
 21
2.78364
 31
0.0
  0
LINE
  8
0
 62
     0
 10
97.8697
 20
2.78364
 30
0.0
 11
97.8697
 21
16.7831
 31
0.0
  0
LINE
  8
0
 62
     0
 10
59.7697
 20
21.5456
 30
0.0
 11
73.769
 21
21.5456
 31
0.0
  0
LINE
  8
0
 62
     0
 10
73.769
 20
21.5456
 30
0.0
 11
73.769
 21
7.54613
 31
0.0
  0
LINE
  8
0
 62
     0
 10
73.769
 20
7.54613
 30
0.0
 11
59.7697
 21
7.54613
 31
0.0
  0
LINE
  8
0
 62
     0
 10
59.7697
 20
7.54613
 30
0.0
 11
59.7697
 21
21.5456
 31
0.0
  0
LINE
  8
0
 62
     0
 10
116.92
 20
21.5456
 30
0.0
 11
130.919
 21
21.5456
 31
0.0
  0
LINE
  8
0
 62
     0
 10
130.919
 20
21.5456
 30
0.0
 11
130.919
 21
7.54613
 31
0.0
  0
LINE
  8
0
 62
     0
 10
130.919
 20
7.54613
 30
0.0
 11
116.92
 21
7.54613
 31
0.0
  0
LINE
  8
0
 62
     0
 10
116.92
 20
7.54613
 30
0.0
 11
116.92
 21
21.5456
 31
0.0
  0
LINE
  8
0
 62
     0
 10
40.7197
 20
26.3081
 30
0.0
 11
54.719
 21
26.3081
 31
0.0
  0
LINE
  8
0
 62
     0
 10
54.719
 20
26.3081
 30
0.0
 11
54.719
 21
12.3086
 31
0.0
  0
LINE
  8
0
 62
     0
 10
54.719
 20
12.3086
 30
0.0
 11
40.7197
 21
12.3086
 31
0.0
  0
LINE
  8
0
 62
     0
 10
40.7197
 20
12.3086
 30
0.0
 11
40.7197
 21
26.3081
 31
0.0
  0
LINE
  8
0
 62
     0
 10
135.97
 20
26.3081
 30
0.0
 11
149.969
 21
26.3081
 31
0.0
  0
LINE
  8
0
 62
     0
 10
149.969
 20
26.3081
 30
0.0
 11
149.969
 21
12.3086
 31
0.0
  0
LINE
  8
0
 62
     0
 10
149.969
 20
12.3086
 30
0.0
 11
135.97
 21
12.3086
 31
0.0
  0
LINE
  8
0
 62
     0
 10
135.97
 20
12.3086
 30
0.0
 11
135.97
 21
26.3081
 31
0.0
  0
LINE
  8
0
 62
     0
 10
2.61965
 20
35.833
 30
0.0
 11
16.6192
 21
35.833
 31
0.0
  0
LINE
  8
0
 62
     0
 10
16.6192
 20
35.833
 30
0.0
 11
16.6192
 21
21.8336
 31
0.0
  0
LINE
  8
0
 62
     0
 10
16.6192
 20
21.8336
 30
0.0
 11
2.61965
 21
21.8336
 31
0.0
  0
LINE
  8
0
 62
     0
 10
2.61965
 20
21.8336
 30
0.0
 11
2.61965
 21
35.833
 31
0.0
  0
LINE
  8
0
 62
     0
 10
78.8197
 20
35.833
 30
0.0
 11
92.819
 21
35.833
 31
0.0
  0
LINE
  8
0
 62
     0
 10
92.819
 20
35.833
 30
0.0
 11
92.819
 21
21.8336
 31
0.0
  0
LINE
  8
0
 62
     0
 10
92.819
 20
21.8336
 30
0.0
 11
78.8197
 21
21.8336
 31
0.0
  0
LINE
  8
0
 62
     0
 10
78.8197
 20
21.8336
 30
0.0
 11
78.8197
 21
35.833
 31
0.0
  0
LINE
  8
0
 62
     0
 10
97.8697
 20
35.833
 30
0.0
 11
111.869
 21
35.833
 31
0.0
  0
LINE
  8
0
 62
     0
 10
111.869
 20
35.833
 30
0.0
 11
111.869
 21
21.8336
 31
0.0
  0
LINE
  8
0
 62
     0
 10
111.869
 20
21.8336
 30
0.0
 11
97.8697
 21
21.8336
 31
0.0
  0
LINE
  8
0
 62
     0
 10
97.8697
 20
21.8336
 30
0.0
 11
97.8697
 21
35.833
 31
0.0
  0
LINE
  8
0
 62
     0
 10
174.07
 20
35.833
 30
0.0
 11
188.069
 21
35.833
 31
0.0
  0
LINE
  8
0
 62
     0
 10
188.069
 20
35.833
 30
0.0
 11
188.069
 21
21.8336
 31
0.0
  0
LINE
  8
0
 62
     0
 10
188.069
 20
21.8336
 30
0.0
 11
174.07
 21
21.8336
 31
0.0
  0
LINE
  8
0
 62
     0
 10
174.07
 20
21.8336
 30
0.0
 11
174.07
 21
35.833
 31
0.0
  0
LINE
  8
0
 62
     0
 10
21.6697
 20
40.5955
 30
0.0
 11
35.669
 21
40.5955
 31
0.0
  0
LINE
  8
0
 62
     0
 10
35.669
 20
40.5955
 30
0.0
 11
35.669
 21
26.5961
 31
0.0
  0
LINE
  8
0
 62
     0
 10
35.669
 20
26.5961
 30
0.0
 11
21.6697
 21
26.5961
 31
0.0
  0
LINE
  8
0
 62
     0
 10
21.6697
 20
26.5961
 30
0.0
 11
21.6697
 21
40.5955
 31
0.0
  0
LINE
  8
0
 62
     0
 10
59.7697
 20
40.5955
 30
0.0
 11
73.769
 21
40.5955
 31
0.0
  0
LINE
  8
0
 62
     0
 10
73.769
 20
40.5955
 30
0.0
 11
73.769
 21
26.5961
 31
0.0
  0
LINE
  8
0
 62
     0
 10
73.769
 20
26.5961
 30
0.0
 11
59.7697
 21
26.5961
 31
0.0
  0
LINE
  8
0
 62
     0
 10
59.7697
 20
26.5961
 30
0.0
 11
59.7697
 21
40.5955
 31
0.0
  0
LINE
  8
0
 62
     0
 10
116.92
 20
40.5955
 30
0.0
 11
130.919
 21
40.5955
 31
0.0
  0
LINE
  8
0
 62
     0
 10
130.919
 20
40.5955
 30
0.0
 11
130.919
 21
26.5961
 31
0.0
  0
LINE
  8
0
 62
     0
 10
130.919
 20
26.5961
 30
0.0
 11
116.92
 21
26.5961
 31
0.0
  0
LINE
  8
0
 62
     0
 10
116.92
 20
26.5961
 30
0.0
 11
116.92
 21
40.5955
 31
0.0
  0
LINE
  8
0
 62
     0
 10
155.02
 20
40.5955
 30
0.0
 11
169.019
 21
40.5955
 31
0.0
  0
LINE
  8
0
 62
     0
 10
169.019
 20
40.5955
 30
0.0
 11
169.019
 21
26.5961
 31
0.0
  0
LINE
  8
0
 62
     0
 10
169.019
 20
26.5961
 30
0.0
 11
155.02
 21
26.5961
 31
0.0
  0
LINE
  8
0
 62
     0
 10
155.02
 20
26.5961
 30
0.0
 11
155.02
 21
40.5955
 31
0.0
  0
LINE
  8
0
 62
     0
 10
40.7197
 20
45.3581
 30
0.0
 11
54.719
 21
45.3581
 31
0.0
  0
LINE
  8
0
 62
     0
 10
54.719
 20
45.3581
 30
0.0
 11
54.719
 21
31.3586
 31
0.0
  0
LINE
  8
0
 62
     0
 10
54.719
 20
31.3586
 30
0.0
 11
40.7197
 21
31.3586
 31
0.0
  0
LINE
  8
0
 62
     0
 10
40.7197
 20
31.3586
 30
0.0
 11
40.7197
 21
45.3581
 31
0.0
  0
LINE
  8
0
 62
     0
 10
135.97
 20
45.3581
 30
0.0
 11
149.969
 21
45.3581
 31
0.0
  0
LINE
  8
0
 62
     0
 10
149.969
 20
45.3581
 30
0.0
 11
149.969
 21
31.3586
 31
0.0
  0
LINE
  8
0
 62
     0
 10
149.969
 20
31.3586
 30
0.0
 11
135.97
 21
31.3586
 31
0.0
  0
LINE
  8
0
 62
     0
 10
135.97
 20
31.3586
 30
0.0
 11
135.97
 21
45.3581
 31
0.0
  0
LINE
  8
0
 62
     0
 10
2.61965
 20
54.8831
 30
0.0
 11
16.6192
 21
54.8831
 31
0.0
  0
LINE
  8
0
 62
     0
 10
16.6192
 20
54.8831
 30
0.0
 11
16.6192
 21
40.8838
 31
0.0
  0
LINE
  8
0
 62
     0
 10
16.6192
 20
40.8838
 30
0.0
 11
2.61965
 21
40.8838
 31
0.0
  0
LINE
  8
0
 62
     0
 10
2.61965
 20
40.8838
 30
0.0
 11
2.61965
 21
54.8831
 31
0.0
  0
LINE
  8
0
 62
     0
 10
78.8197
 20
54.8831
 30
0.0
 11
92.819
 21
54.8831
 31
0.0
  0
LINE
  8
0
 62
     0
 10
92.819
 20
54.8831
 30
0.0
 11
92.819
 21
40.8838
 31
0.0
  0
LINE
  8
0
 62
     0
 10
92.819
 20
40.8838
 30
0.0
 11
78.8197
 21
40.8838
 31
0.0
  0
LINE
  8
0
 62
     0
 10
78.8197
 20
40.8838
 30
0.0
 11
78.8197
 21
54.8831
 31
0.0
  0
LINE
  8
0
 62
     0
 10
97.8697
 20
54.8831
 30
0.0
 11
111.869
 21
54.8831
 31
0.0
  0
LINE
  8
0
 62
     0
 10
111.869
 20
54.8831
 30
0.0
 11
111.869
 21
40.8838
 31
0.0
  0
LINE
  8
0
 62
     0
 10
111.869
 20
40.8838
 30
0.0
 11
97.8697
 21
40.8838
 31
0.0
  0
LINE
  8
0
 62
     0
 10
97.8697
 20
40.8838
 30
0.0
 11
97.8697
 21
54.8831
 31
0.0
  0
LINE
  8
0
 62
     0
 10
174.07
 20
54.8831
 30
0.0
 11
188.069
 21
54.8831
 31
0.0
  0
LINE
  8
0
 62
     0
 10
188.069
 20
54.8831
 30
0.0
 11
188.069
 21
40.8838
 31
0.0
  0
LINE
  8
0
 62
     0
 10
188.069
 20
40.8838
 30
0.0
 11
174.07
 21
40.8838
 31
0.0
  0
LINE
  8
0
 62
     0
 10
174.07
 20
40.8838
 30
0.0
 11
174.07
 21
54.8831
 31
0.0
  0
LINE
  8
0
 62
     0
 10
21.6697
 20
59.6456
 30
0.0
 11
35.669
 21
59.6456
 31
0.0
  0
LINE
  8
0
 62
     0
 10
35.669
 20
59.6456
 30
0.0
 11
35.669
 21
45.6463
 31
0.0
  0
LINE
  8
0
 62
     0
 10
35.669
 20
45.6463
 30
0.0
 11
21.6697
 21
45.6463
 31
0.0
  0
LINE
  8
0
 62
     0
 10
21.6697
 20
45.6463
 30
0.0
 11
21.6697
 21
59.6456
 31
0.0
  0
LINE
  8
0
 62
     0
 10
59.7697
 20
59.6456
 30
0.0
 11
73.769
 21
59.6456
 31
0.0
  0
LINE
  8
0
 62
     0
 10
73.769
 20
59.6456
 30
0.0
 11
73.769
 21
45.6463
 31
0.0
  0
LINE
  8
0
 62
     0
 10
73.769
 20
45.6463
 30
0.0
 11
59.7697
 21
45.6463
 31
0.0
  0
LINE
  8
0
 62
     0
 10
59.7697
 20
45.6463
 30
0.0
 11
59.7697
 21
59.6456
 31
0.0
  0
LINE
  8
0
 62
     0
 10
116.92
 20
59.6456
 30
0.0
 11
130.919
 21
59.6456
 31
0.0
  0
LINE
  8
0
 62
     0
 10
130.919
 20
59.6456
 30
0.0
 11
130.919
 21
45.6463
 31
0.0
  0
LINE
  8
0
 62
     0
 10
130.919
 20
45.6463
 30
0.0
 11
116.92
 21
45.6463
 31
0.0
  0
LINE
  8
0
 62
     0
 10
116.92
 20
45.6463
 30
0.0
 11
116.92
 21
59.6456
 31
0.0
  0
LINE
  8
0
 62
     0
 10
155.02
 20
59.6456
 30
0.0
 11
169.019
 21
59.6456
 31
0.0
  0
LINE
  8
0
 62
     0
 10
169.019
 20
59.6456
 30
0.0
 11
169.019
 21
45.6463
 31
0.0
  0
LINE
  8
0
 62
     0
 10
169.019
 20
45.6463
 30
0.0
 11
155.02
 21
45.6463
 31
0.0
  0
LINE
  8
0
 62
     0
 10
155.02
 20
45.6463
 30
0.0
 11
155.02
 21
59.6456
 31
0.0
  0
LINE
  8
0
 62
     0
 10
40.7197
 20
64.4081
 30
0.0
 11
54.719
 21
64.4081
 31
0.0
  0
LINE
  8
0
 62
     0
 10
54.719
 20
64.4081
 30
0.0
 11
54.719
 21
50.4088
 31
0.0
  0
LINE
  8
0
 62
     0
 10
54.719
 20
50.4088
 30
0.0
 11
40.7197
 21
50.4088
 31
0.0
  0
LINE
  8
0
 62
     0
 10
40.7197
 20
50.4088
 30
0.0
 11
40.7197
 21
64.4081
 31
0.0
  0
LINE
  8
0
 62
     0
 10
135.97
 20
64.4081
 30
0.0
 11
149.969
 21
64.4081
 31
0.0
  0
LINE
  8
0
 62
     0
 10
149.969
 20
64.4081
 30
0.0
 11
149.969
 21
50.4088
 31
0.0
  0
LINE
  8
0
 62
     0
 10
149.969
 20
50.4088
 30
0.0
 11
135.97
 21
50.4088
 31
0.0
  0
LINE
  8
0
 62
     0
 10
135.97
 20
50.4088
 30
0.0
 11
135.97
 21
64.4081
 31
0.0
  0
LINE
  8
0
 62
     0
 10
2.61965
 20
73.9331
 30
0.0
 11
16.6192
 21
73.9331
 31
0.0
  0
LINE
  8
0
 62
     0
 10
16.6192
 20
73.9331
 30
0.0
 11
16.6192
 21
59.9338
 31
0.0
  0
LINE
  8
0
 62
     0
 10
16.6192
 20
59.9338
 30
0.0
 11
2.61965
 21
59.9338
 31
0.0
  0
LINE
  8
0
 62
     0
 10
2.61965
 20
59.9338
 30
0.0
 11
2.61965
 21
73.9331
 31
0.0
  0
LINE
  8
0
 62
     0
 10
78.8197
 20
73.9331
 30
0.0
 11
92.819
 21
73.9331
 31
0.0
  0
LINE
  8
0
 62
     0
 10
92.819
 20
73.9331
 30
0.0
 11
92.819
 21
59.9338
 31
0.0
  0
LINE
  8
0
 62
     0
 10
92.819
 20
59.9338
 30
0.0
 11
78.8197
 21
59.9338
 31
0.0
  0
LINE
  8
0
 62
     0
 10
78.8197
 20
59.9338
 30
0.0
 11
78.8197
 21
73.9331
 31
0.0
  0
LINE
  8
0
 62
     0
 10
97.8697
 20
73.9331
 30
0.0
 11
111.869
 21
73.9331
 31
0.0
  0
LINE
  8
0
 62
     0
 10
111.869
 20
73.9331
 30
0.0
 11
111.869
 21
59.9338
 31
0.0
  0
LINE
  8
0
 62
     0
 10
111.869
 20
59.9338
 30
0.0
 11
97.8697
 21
59.9338
 31
0.0
  0
LINE
  8
0
 62
     0
 10
97.8697
 20
59.9338
 30
0.0
 11
97.8697
 21
73.9331
 31
0.0
  0
LINE
  8
0
 62
     0
 10
174.07
 20
73.9331
 30
0.0
 11
188.069
 21
73.9331
 31
0.0
  0
LINE
  8
0
 62
     0
 10
188.069
 20
73.9331
 30
0.0
 11
188.069
 21
59.9338
 31
0.0
  0
LINE
  8
0
 62
     0
 10
188.069
 20
59.9338
 30
0.0
 11
174.07
 21
59.9338
 31
0.0
  0
LINE
  8
0
 62
     0
 10
174.07
 20
59.9338
 30
0.0
 11
174.07
 21
73.9331
 31
0.0
  0
LINE
  8
0
 62
     0
 10
21.6697
 20
78.6956
 30
0.0
 11
35.669
 21
78.6956
 31
0.0
  0
LINE
  8
0
 62
     0
 10
35.669
 20
78.6956
 30
0.0
 11
35.669
 21
64.6963
 31
0.0
  0
LINE
  8
0
 62
     0
 10
35.669
 20
64.6963
 30
0.0
 11
21.6697
 21
64.6963
 31
0.0
  0
LINE
  8
0
 62
     0
 10
21.6697
 20
64.6963
 30
0.0
 11
21.6697
 21
78.6956
 31
0.0
  0
LINE
  8
0
 62
     0
 10
59.7697
 20
78.6956
 30
0.0
 11
73.769
 21
78.6956
 31
0.0
  0
LINE
  8
0
 62
     0
 10
73.769
 20
78.6956
 30
0.0
 11
73.769
 21
64.6963
 31
0.0
  0
LINE
  8
0
 62
     0
 10
73.769
 20
64.6963
 30
0.0
 11
59.7697
 21
64.6963
 31
0.0
  0
LINE
  8
0
 62
     0
 10
59.7697
 20
64.6963
 30
0.0
 11
59.7697
 21
78.6956
 31
0.0
  0
LINE
  8
0
 62
     0
 10
116.92
 20
78.6956
 30
0.0
 11
130.919
 21
78.6956
 31
0.0
  0
LINE
  8
0
 62
     0
 10
130.919
 20
78.6956
 30
0.0
 11
130.919
 21
64.6963
 31
0.0
  0
LINE
  8
0
 62
     0
 10
130.919
 20
64.6963
 30
0.0
 11
116.92
 21
64.6963
 31
0.0
  0
LINE
  8
0
 62
     0
 10
116.92
 20
64.6963
 30
0.0
 11
116.92
 21
78.6956
 31
0.0
  0
LINE
  8
0
 62
     0
 10
155.02
 20
78.6956
 30
0.0
 11
169.019
 21
78.6956
 31
0.0
  0
LINE
  8
0
 62
     0
 10
169.019
 20
78.6956
 30
0.0
 11
169.019
 21
64.6963
 31
0.0
  0
LINE
  8
0
 62
     0
 10
169.019
 20
64.6963
 30
0.0
 11
155.02
 21
64.6963
 31
0.0
  0
LINE
  8
0
 62
     0
 10
155.02
 20
64.6963
 30
0.0
 11
155.02
 21
78.6956
 31
0.0
  0
LINE
  8
0
 62
     0
 10
40.7197
 20
83.4581
 30
0.0
 11
54.719
 21
83.4581
 31
0.0
  0
LINE
  8
0
 62
     0
 10
54.719
 20
83.4581
 30
0.0
 11
54.719
 21
69.4588
 31
0.0
  0
LINE
  8
0
 62
     0
 10
54.719
 20
69.4588
 30
0.0
 11
40.7197
 21
69.4588
 31
0.0
  0
LINE
  8
0
 62
     0
 10
40.7197
 20
69.4588
 30
0.0
 11
40.7197
 21
83.4581
 31
0.0
  0
LINE
  8
0
 62
     0
 10
135.97
 20
83.4581
 30
0.0
 11
149.969
 21
83.4581
 31
0.0
  0
LINE
  8
0
 62
     0
 10
149.969
 20
83.4581
 30
0.0
 11
149.969
 21
69.4588
 31
0.0
  0
LINE
  8
0
 62
     0
 10
149.969
 20
69.4588
 30
0.0
 11
135.97
 21
69.4588
 31
0.0
  0
LINE
  8
0
 62
     0
 10
135.97
 20
69.4588
 30
0.0
 11
135.97
 21
83.4581
 31
0.0
  0
ENDSEC
  0
EOF
