  0
SECTION
  2
HEADER
  9
$ACADVER
  1
AC1009
  9
$FILLMODE
 70
 0
  9
$SPLFRAME
 70
 1
  9
$EXTMIN
 10
0
 20
0
 30
0.0
  9
$EXTMAX
 10
1058.33
 20
1058.33
 30
0.0
  0
ENDSEC
  0
SECTION
  2
TABLES
  0
TABLE
  2
LAYER
 70
1
  0
LAYER
  2
0
 70
     0
 62
     7
  6
CONTINUOUS
  0
ENDTAB
  0
ENDSEC
  0
SECTION
  2
ENTITIES
  0
LINE
  8
0
 62
     0
 10
0.0950846
 20
76.4575
 30
0.0
 11
133.445
 21
76.4575
 31
0.0
  0
LINE
  8
0
 62
     0
 10
133.445
 20
76.4575
 30
0.0
 11
133.445
 21
0.257693
 31
0.0
  0
LINE
  8
0
 62
     0
 10
133.445
 20
0.257693
 30
0.0
 11
0.0950846
 21
0.257693
 31
0.0
  0
LINE
  8
0
 62
     0
 10
0.0950846
 20
0.257693
 30
0.0
 11
0.0950846
 21
76.4575
 31
0.0
  0
LINE
  8
0
 62
     0
 10
59.7697
 20
16.7831
 30
0.0
 11
59.7697
 21
12.0826
 31
0.0
  0
LINE
  8
0
 62
     0
 10
59.7697
 20
12.0826
 30
0.0
 11
58.2443
 21
12.0826
 31
0.0
  0
LINE
  8
0
 62
     0
 10
58.2443
 20
12.0826
 30
0.0
 11
58.2443
 21
15.3128
 31
0.0
  0
LINE
  8
0
 62
     0
 10
58.2443
 20
15.3128
 30
0.0
 11
51.4946
 21
15.3128
 31
0.0
  0
LINE
  8
0
 62
     0
 10
51.4946
 20
15.3128
 30
0.0
 11
51.4946
 21
12.0826
 31
0.0
  0
LINE
  8
0
 62
     0
 10
51.4946
 20
12.0826
 30
0.0
 11
50.6691
 21
12.0826
 31
0.0
  0
LINE
  8
0
 62
     0
 10
50.6691
 20
12.0826
 30
0.0
 11
50.6691
 21
9.28384
 31
0.0
  0
LINE
  8
0
 62
     0
 10
50.6691
 20
9.28384
 30
0.0
 11
51.4946
 21
9.28384
 31
0.0
  0
LINE
  8
0
 62
     0
 10
51.4946
 20
9.28384
 30
0.0
 11
51.4946
 21
3.01377
 31
0.0
  0
LINE
  8
0
 62
     0
 10
51.4946
 20
3.01377
 30
0.0
 11
53.2197
 21
3.01377
 31
0.0
  0
LINE
  8
0
 62
     0
 10
53.2197
 20
3.01377
 30
0.0
 11
53.2197
 21
1.8135
 31
0.0
  0
LINE
  8
0
 62
     0
 10
53.2197
 20
1.8135
 30
0.0
 11
56.5189
 21
1.8135
 31
0.0
  0
LINE
  8
0
 62
     0
 10
56.5189
 20
1.8135
 30
0.0
 11
56.5189
 21
3.01377
 31
0.0
  0
LINE
  8
0
 62
     0
 10
56.5189
 20
3.01377
 30
0.0
 11
58.2443
 21
3.01377
 31
0.0
  0
LINE
  8
0
 62
     0
 10
58.2443
 20
3.01377
 30
0.0
 11
58.2443
 21
7.48273
 31
0.0
  0
LINE
  8
0
 62
     0
 10
58.2443
 20
7.48273
 30
0.0
 11
59.7697
 21
7.48273
 31
0.0
  0
LINE
  8
0
 62
     0
 10
59.7697
 20
7.48273
 30
0.0
 11
59.7697
 21
2.78364
 31
0.0
  0
LINE
  8
0
 62
     0
 10
59.7697
 20
2.78364
 30
0.0
 11
73.769
 21
2.78364
 31
0.0
  0
LINE
  8
0
 62
     0
 10
73.769
 20
2.78364
 30
0.0
 11
73.769
 21
7.48273
 31
0.0
  0
LINE
  8
0
 62
     0
 10
73.769
 20
7.48273
 30
0.0
 11
75.2948
 21
7.48273
 31
0.0
  0
LINE
  8
0
 62
     0
 10
75.2948
 20
7.48273
 30
0.0
 11
75.2948
 21
3.01377
 31
0.0
  0
LINE
  8
0
 62
     0
 10
75.2948
 20
3.01377
 30
0.0
 11
77.0199
 21
3.01377
 31
0.0
  0
LINE
  8
0
 62
     0
 10
77.0199
 20
3.01377
 30
0.0
 11
77.0199
 21
1.8135
 31
0.0
  0
LINE
  8
0
 62
     0
 10
77.0199
 20
1.8135
 30
0.0
 11
80.319
 21
1.8135
 31
0.0
  0
LINE
  8
0
 62
     0
 10
80.319
 20
1.8135
 30
0.0
 11
80.319
 21
3.01377
 31
0.0
  0
LINE
  8
0
 62
     0
 10
80.319
 20
3.01377
 30
0.0
 11
82.0441
 21
3.01377
 31
0.0
  0
LINE
  8
0
 62
     0
 10
82.0441
 20
3.01377
 30
0.0
 11
82.0441
 21
9.28384
 31
0.0
  0
LINE
  8
0
 62
     0
 10
82.0441
 20
9.28384
 30
0.0
 11
82.8696
 21
9.28384
 31
0.0
  0
LINE
  8
0
 62
     0
 10
82.8696
 20
9.28384
 30
0.0
 11
82.8696
 21
12.0826
 31
0.0
  0
LINE
  8
0
 62
     0
 10
82.8696
 20
12.0826
 30
0.0
 11
82.0441
 21
12.0826
 31
0.0
  0
LINE
  8
0
 62
     0
 10
82.0441
 20
12.0826
 30
0.0
 11
82.0441
 21
15.3128
 31
0.0
  0
LINE
  8
0
 62
     0
 10
82.0441
 20
15.3128
 30
0.0
 11
75.2948
 21
15.3128
 31
0.0
  0
LINE
  8
0
 62
     0
 10
75.2948
 20
15.3128
 30
0.0
 11
75.2948
 21
12.0826
 31
0.0
  0
LINE
  8
0
 62
     0
 10
75.2948
 20
12.0826
 30
0.0
 11
73.769
 21
12.0826
 31
0.0
  0
LINE
  8
0
 62
     0
 10
73.769
 20
12.0826
 30
0.0
 11
73.769
 21
16.7831
 31
0.0
  0
LINE
  8
0
 62
     0
 10
73.769
 20
16.7831
 30
0.0
 11
59.7697
 21
16.7831
 31
0.0
  0
LINE
  8
0
 62
     0
 10
26.4322
 20
16.7831
 30
0.0
 11
40.4315
 21
16.7831
 31
0.0
  0
LINE
  8
0
 62
     0
 10
40.4315
 20
16.7831
 30
0.0
 11
40.4315
 21
2.78364
 31
0.0
  0
LINE
  8
0
 62
     0
 10
40.4315
 20
2.78364
 30
0.0
 11
26.4322
 21
2.78364
 31
0.0
  0
LINE
  8
0
 62
     0
 10
26.4322
 20
2.78364
 30
0.0
 11
26.4322
 21
16.7831
 31
0.0
  0
LINE
  8
0
 62
     0
 10
93.1072
 20
16.7831
 30
0.0
 11
107.107
 21
16.7831
 31
0.0
  0
LINE
  8
0
 62
     0
 10
107.107
 20
16.7831
 30
0.0
 11
107.107
 21
2.78364
 31
0.0
  0
LINE
  8
0
 62
     0
 10
107.107
 20
2.78364
 30
0.0
 11
93.1072
 21
2.78364
 31
0.0
  0
LINE
  8
0
 62
     0
 10
93.1072
 20
2.78364
 30
0.0
 11
93.1072
 21
16.7831
 31
0.0
  0
LINE
  8
0
 62
     0
 10
9.11849
 20
35.4087
 30
0.0
 11
9.11849
 21
34.5833
 31
0.0
  0
LINE
  8
0
 62
     0
 10
9.11849
 20
34.5833
 30
0.0
 11
2.84978
 21
34.5833
 31
0.0
  0
LINE
  8
0
 62
     0
 10
2.84978
 20
34.5833
 30
0.0
 11
2.84978
 21
32.8593
 31
0.0
  0
LINE
  8
0
 62
     0
 10
2.84978
 20
32.8593
 30
0.0
 11
1.64951
 21
32.8593
 31
0.0
  0
LINE
  8
0
 62
     0
 10
1.64951
 20
32.8593
 30
0.0
 11
1.64951
 21
29.5589
 31
0.0
  0
LINE
  8
0
 62
     0
 10
1.64951
 20
29.5589
 30
0.0
 11
2.84978
 21
29.5589
 31
0.0
  0
LINE
  8
0
 62
     0
 10
2.84978
 20
29.5589
 30
0.0
 11
2.84978
 21
27.8336
 31
0.0
  0
LINE
  8
0
 62
     0
 10
2.84978
 20
27.8336
 30
0.0
 11
7.32014
 21
27.8336
 31
0.0
  0
LINE
  8
0
 62
     0
 10
7.32014
 20
27.8336
 30
0.0
 11
7.32014
 21
26.3081
 31
0.0
  0
LINE
  8
0
 62
     0
 10
7.32014
 20
26.3081
 30
0.0
 11
2.61965
 21
26.3081
 31
0.0
  0
LINE
  8
0
 62
     0
 10
2.61965
 20
26.3081
 30
0.0
 11
2.61965
 21
12.3086
 31
0.0
  0
LINE
  8
0
 62
     0
 10
2.61965
 20
12.3086
 30
0.0
 11
7.32014
 21
12.3086
 31
0.0
  0
LINE
  8
0
 62
     0
 10
7.32014
 20
12.3086
 30
0.0
 11
7.32014
 21
10.7831
 31
0.0
  0
LINE
  8
0
 62
     0
 10
7.32014
 20
10.7831
 30
0.0
 11
2.84978
 21
10.7831
 31
0.0
  0
LINE
  8
0
 62
     0
 10
2.84978
 20
10.7831
 30
0.0
 11
2.84978
 21
9.05785
 31
0.0
  0
LINE
  8
0
 62
     0
 10
2.84978
 20
9.05785
 30
0.0
 11
1.64951
 21
9.05785
 31
0.0
  0
LINE
  8
0
 62
     0
 10
1.64951
 20
9.05785
 30
0.0
 11
1.64951
 21
5.75881
 31
0.0
  0
LINE
  8
0
 62
     0
 10
1.64951
 20
5.75881
 30
0.0
 11
2.84978
 21
5.75881
 31
0.0
  0
LINE
  8
0
 62
     0
 10
2.84978
 20
5.75881
 30
0.0
 11
2.84978
 21
4.03352
 31
0.0
  0
LINE
  8
0
 62
     0
 10
2.84978
 20
4.03352
 30
0.0
 11
9.11987
 21
4.03352
 31
0.0
  0
LINE
  8
0
 62
     0
 10
9.11987
 20
4.03352
 30
0.0
 11
9.11987
 21
3.20807
 31
0.0
  0
LINE
  8
0
 62
     0
 10
9.11987
 20
3.20807
 30
0.0
 11
11.92
 21
3.20807
 31
0.0
  0
LINE
  8
0
 62
     0
 10
11.92
 20
3.20807
 30
0.0
 11
11.92
 21
4.03352
 31
0.0
  0
LINE
  8
0
 62
     0
 10
11.92
 20
4.03352
 30
0.0
 11
15.1501
 21
4.03352
 31
0.0
  0
LINE
  8
0
 62
     0
 10
15.1501
 20
4.03352
 30
0.0
 11
15.1501
 21
10.7831
 31
0.0
  0
LINE
  8
0
 62
     0
 10
15.1501
 20
10.7831
 30
0.0
 11
11.92
 21
10.7831
 31
0.0
  0
LINE
  8
0
 62
     0
 10
11.92
 20
10.7831
 30
0.0
 11
11.92
 21
12.3086
 31
0.0
  0
LINE
  8
0
 62
     0
 10
11.92
 20
12.3086
 30
0.0
 11
16.6192
 21
12.3086
 31
0.0
  0
LINE
  8
0
 62
     0
 10
16.6192
 20
12.3086
 30
0.0
 11
16.6192
 21
26.3081
 31
0.0
  0
LINE
  8
0
 62
     0
 10
16.6192
 20
26.3081
 30
0.0
 11
11.92
 21
26.3081
 31
0.0
  0
LINE
  8
0
 62
     0
 10
11.92
 20
26.3081
 30
0.0
 11
11.92
 21
27.8336
 31
0.0
  0
LINE
  8
0
 62
     0
 10
11.92
 20
27.8336
 30
0.0
 11
15.1501
 21
27.8336
 31
0.0
  0
LINE
  8
0
 62
     0
 10
15.1501
 20
27.8336
 30
0.0
 11
15.1501
 21
34.5833
 31
0.0
  0
LINE
  8
0
 62
     0
 10
15.1501
 20
34.5833
 30
0.0
 11
11.92
 21
34.5833
 31
0.0
  0
LINE
  8
0
 62
     0
 10
11.92
 20
34.5833
 30
0.0
 11
11.92
 21
35.4087
 31
0.0
  0
LINE
  8
0
 62
     0
 10
11.92
 20
35.4087
 30
0.0
 11
9.11849
 21
35.4087
 31
0.0
  0
LINE
  8
0
 62
     0
 10
123.419
 20
35.4087
 30
0.0
 11
123.419
 21
34.5833
 31
0.0
  0
LINE
  8
0
 62
     0
 10
123.419
 20
34.5833
 30
0.0
 11
117.148
 21
34.5833
 31
0.0
  0
LINE
  8
0
 62
     0
 10
117.148
 20
34.5833
 30
0.0
 11
117.148
 21
32.8593
 31
0.0
  0
LINE
  8
0
 62
     0
 10
117.148
 20
32.8593
 30
0.0
 11
115.948
 21
32.8593
 31
0.0
  0
LINE
  8
0
 62
     0
 10
115.948
 20
32.8593
 30
0.0
 11
115.948
 21
29.5589
 31
0.0
  0
LINE
  8
0
 62
     0
 10
115.948
 20
29.5589
 30
0.0
 11
117.148
 21
29.5589
 31
0.0
  0
LINE
  8
0
 62
     0
 10
117.148
 20
29.5589
 30
0.0
 11
117.148
 21
27.8336
 31
0.0
  0
LINE
  8
0
 62
     0
 10
117.148
 20
27.8336
 30
0.0
 11
121.619
 21
27.8336
 31
0.0
  0
LINE
  8
0
 62
     0
 10
121.619
 20
27.8336
 30
0.0
 11
121.619
 21
26.3081
 31
0.0
  0
LINE
  8
0
 62
     0
 10
121.619
 20
26.3081
 30
0.0
 11
116.918
 21
26.3081
 31
0.0
  0
LINE
  8
0
 62
     0
 10
116.918
 20
26.3081
 30
0.0
 11
116.918
 21
12.3086
 31
0.0
  0
LINE
  8
0
 62
     0
 10
116.918
 20
12.3086
 30
0.0
 11
121.619
 21
12.3086
 31
0.0
  0
LINE
  8
0
 62
     0
 10
121.619
 20
12.3086
 30
0.0
 11
121.619
 21
10.7831
 31
0.0
  0
LINE
  8
0
 62
     0
 10
121.619
 20
10.7831
 30
0.0
 11
117.148
 21
10.7831
 31
0.0
  0
LINE
  8
0
 62
     0
 10
117.148
 20
10.7831
 30
0.0
 11
117.148
 21
9.05785
 31
0.0
  0
LINE
  8
0
 62
     0
 10
117.148
 20
9.05785
 30
0.0
 11
115.948
 21
9.05785
 31
0.0
  0
LINE
  8
0
 62
     0
 10
115.948
 20
9.05785
 30
0.0
 11
115.948
 21
5.75881
 31
0.0
  0
LINE
  8
0
 62
     0
 10
115.948
 20
5.75881
 30
0.0
 11
117.148
 21
5.75881
 31
0.0
  0
LINE
  8
0
 62
     0
 10
117.148
 20
5.75881
 30
0.0
 11
117.148
 21
4.03352
 31
0.0
  0
LINE
  8
0
 62
     0
 10
117.148
 20
4.03352
 30
0.0
 11
123.419
 21
4.03352
 31
0.0
  0
LINE
  8
0
 62
     0
 10
123.419
 20
4.03352
 30
0.0
 11
123.419
 21
3.20807
 31
0.0
  0
LINE
  8
0
 62
     0
 10
123.419
 20
3.20807
 30
0.0
 11
126.22
 21
3.20807
 31
0.0
  0
LINE
  8
0
 62
     0
 10
126.22
 20
3.20807
 30
0.0
 11
126.22
 21
4.03352
 31
0.0
  0
LINE
  8
0
 62
     0
 10
126.22
 20
4.03352
 30
0.0
 11
129.45
 21
4.03352
 31
0.0
  0
LINE
  8
0
 62
     0
 10
129.45
 20
4.03352
 30
0.0
 11
129.45
 21
10.7831
 31
0.0
  0
LINE
  8
0
 62
     0
 10
129.45
 20
10.7831
 30
0.0
 11
126.22
 21
10.7831
 31
0.0
  0
LINE
  8
0
 62
     0
 10
126.22
 20
10.7831
 30
0.0
 11
126.22
 21
12.3086
 31
0.0
  0
LINE
  8
0
 62
     0
 10
126.22
 20
12.3086
 30
0.0
 11
130.919
 21
12.3086
 31
0.0
  0
LINE
  8
0
 62
     0
 10
130.919
 20
12.3086
 30
0.0
 11
130.919
 21
26.3081
 31
0.0
  0
LINE
  8
0
 62
     0
 10
130.919
 20
26.3081
 30
0.0
 11
126.22
 21
26.3081
 31
0.0
  0
LINE
  8
0
 62
     0
 10
126.22
 20
26.3081
 30
0.0
 11
126.22
 21
27.8336
 31
0.0
  0
LINE
  8
0
 62
     0
 10
126.22
 20
27.8336
 30
0.0
 11
129.45
 21
27.8336
 31
0.0
  0
LINE
  8
0
 62
     0
 10
129.45
 20
27.8336
 30
0.0
 11
129.45
 21
34.5833
 31
0.0
  0
LINE
  8
0
 62
     0
 10
129.45
 20
34.5833
 30
0.0
 11
126.22
 21
34.5833
 31
0.0
  0
LINE
  8
0
 62
     0
 10
126.22
 20
34.5833
 30
0.0
 11
126.22
 21
35.4087
 31
0.0
  0
LINE
  8
0
 62
     0
 10
126.22
 20
35.4087
 30
0.0
 11
123.419
 21
35.4087
 31
0.0
  0
LINE
  8
0
 62
     0
 10
21.6697
 20
35.833
 30
0.0
 11
35.669
 21
35.833
 31
0.0
  0
LINE
  8
0
 62
     0
 10
35.669
 20
35.833
 30
0.0
 11
35.669
 21
21.8336
 31
0.0
  0
LINE
  8
0
 62
     0
 10
35.669
 20
21.8336
 30
0.0
 11
21.6697
 21
21.8336
 31
0.0
  0
LINE
  8
0
 62
     0
 10
21.6697
 20
21.8336
 30
0.0
 11
21.6697
 21
35.833
 31
0.0
  0
LINE
  8
0
 62
     0
 10
40.7197
 20
35.833
 30
0.0
 11
54.719
 21
35.833
 31
0.0
  0
LINE
  8
0
 62
     0
 10
54.719
 20
35.833
 30
0.0
 11
54.719
 21
21.8336
 31
0.0
  0
LINE
  8
0
 62
     0
 10
54.719
 20
21.8336
 30
0.0
 11
40.7197
 21
21.8336
 31
0.0
  0
LINE
  8
0
 62
     0
 10
40.7197
 20
21.8336
 30
0.0
 11
40.7197
 21
35.833
 31
0.0
  0
LINE
  8
0
 62
     0
 10
59.7697
 20
35.833
 30
0.0
 11
73.769
 21
35.833
 31
0.0
  0
LINE
  8
0
 62
     0
 10
73.769
 20
35.833
 30
0.0
 11
73.769
 21
21.8336
 31
0.0
  0
LINE
  8
0
 62
     0
 10
73.769
 20
21.8336
 30
0.0
 11
59.7697
 21
21.8336
 31
0.0
  0
LINE
  8
0
 62
     0
 10
59.7697
 20
21.8336
 30
0.0
 11
59.7697
 21
35.833
 31
0.0
  0
LINE
  8
0
 62
     0
 10
78.8197
 20
35.833
 30
0.0
 11
92.819
 21
35.833
 31
0.0
  0
LINE
  8
0
 62
     0
 10
92.819
 20
35.833
 30
0.0
 11
92.819
 21
21.8336
 31
0.0
  0
LINE
  8
0
 62
     0
 10
92.819
 20
21.8336
 30
0.0
 11
78.8197
 21
21.8336
 31
0.0
  0
LINE
  8
0
 62
     0
 10
78.8197
 20
21.8336
 30
0.0
 11
78.8197
 21
35.833
 31
0.0
  0
LINE
  8
0
 62
     0
 10
97.8683
 20
35.833
 30
0.0
 11
111.869
 21
35.833
 31
0.0
  0
LINE
  8
0
 62
     0
 10
111.869
 20
35.833
 30
0.0
 11
111.869
 21
21.8336
 31
0.0
  0
LINE
  8
0
 62
     0
 10
111.869
 20
21.8336
 30
0.0
 11
97.8683
 21
21.8336
 31
0.0
  0
LINE
  8
0
 62
     0
 10
97.8683
 20
21.8336
 30
0.0
 11
97.8683
 21
35.833
 31
0.0
  0
LINE
  8
0
 62
     0
 10
21.6697
 20
54.8831
 30
0.0
 11
35.669
 21
54.8831
 31
0.0
  0
LINE
  8
0
 62
     0
 10
35.669
 20
54.8831
 30
0.0
 11
35.669
 21
40.8838
 31
0.0
  0
LINE
  8
0
 62
     0
 10
35.669
 20
40.8838
 30
0.0
 11
21.6697
 21
40.8838
 31
0.0
  0
LINE
  8
0
 62
     0
 10
21.6697
 20
40.8838
 30
0.0
 11
21.6697
 21
54.8831
 31
0.0
  0
LINE
  8
0
 62
     0
 10
40.7197
 20
54.8831
 30
0.0
 11
54.719
 21
54.8831
 31
0.0
  0
LINE
  8
0
 62
     0
 10
54.719
 20
54.8831
 30
0.0
 11
54.719
 21
40.8838
 31
0.0
  0
LINE
  8
0
 62
     0
 10
54.719
 20
40.8838
 30
0.0
 11
40.7197
 21
40.8838
 31
0.0
  0
LINE
  8
0
 62
     0
 10
40.7197
 20
40.8838
 30
0.0
 11
40.7197
 21
54.8831
 31
0.0
  0
LINE
  8
0
 62
     0
 10
59.7697
 20
54.8831
 30
0.0
 11
73.769
 21
54.8831
 31
0.0
  0
LINE
  8
0
 62
     0
 10
73.769
 20
54.8831
 30
0.0
 11
73.769
 21
40.8838
 31
0.0
  0
LINE
  8
0
 62
     0
 10
73.769
 20
40.8838
 30
0.0
 11
59.7697
 21
40.8838
 31
0.0
  0
LINE
  8
0
 62
     0
 10
59.7697
 20
40.8838
 30
0.0
 11
59.7697
 21
54.8831
 31
0.0
  0
LINE
  8
0
 62
     0
 10
78.8197
 20
54.8831
 30
0.0
 11
92.819
 21
54.8831
 31
0.0
  0
LINE
  8
0
 62
     0
 10
92.819
 20
54.8831
 30
0.0
 11
92.819
 21
40.8838
 31
0.0
  0
LINE
  8
0
 62
     0
 10
92.819
 20
40.8838
 30
0.0
 11
78.8197
 21
40.8838
 31
0.0
  0
LINE
  8
0
 62
     0
 10
78.8197
 20
40.8838
 30
0.0
 11
78.8197
 21
54.8831
 31
0.0
  0
LINE
  8
0
 62
     0
 10
97.8683
 20
54.8831
 30
0.0
 11
111.869
 21
54.8831
 31
0.0
  0
LINE
  8
0
 62
     0
 10
111.869
 20
54.8831
 30
0.0
 11
111.869
 21
40.8838
 31
0.0
  0
LINE
  8
0
 62
     0
 10
111.869
 20
40.8838
 30
0.0
 11
97.8683
 21
40.8838
 31
0.0
  0
LINE
  8
0
 62
     0
 10
97.8683
 20
40.8838
 30
0.0
 11
97.8683
 21
54.8831
 31
0.0
  0
LINE
  8
0
 62
     0
 10
21.6697
 20
73.9331
 30
0.0
 11
35.669
 21
73.9331
 31
0.0
  0
LINE
  8
0
 62
     0
 10
35.669
 20
73.9331
 30
0.0
 11
35.669
 21
59.9338
 31
0.0
  0
LINE
  8
0
 62
     0
 10
35.669
 20
59.9338
 30
0.0
 11
21.6697
 21
59.9338
 31
0.0
  0
LINE
  8
0
 62
     0
 10
21.6697
 20
59.9338
 30
0.0
 11
21.6697
 21
73.9331
 31
0.0
  0
LINE
  8
0
 62
     0
 10
40.7197
 20
73.9331
 30
0.0
 11
54.719
 21
73.9331
 31
0.0
  0
LINE
  8
0
 62
     0
 10
54.719
 20
73.9331
 30
0.0
 11
54.719
 21
59.9338
 31
0.0
  0
LINE
  8
0
 62
     0
 10
54.719
 20
59.9338
 30
0.0
 11
40.7197
 21
59.9338
 31
0.0
  0
LINE
  8
0
 62
     0
 10
40.7197
 20
59.9338
 30
0.0
 11
40.7197
 21
73.9331
 31
0.0
  0
LINE
  8
0
 62
     0
 10
59.7697
 20
73.9331
 30
0.0
 11
73.769
 21
73.9331
 31
0.0
  0
LINE
  8
0
 62
     0
 10
73.769
 20
73.9331
 30
0.0
 11
73.769
 21
59.9338
 31
0.0
  0
LINE
  8
0
 62
     0
 10
73.769
 20
59.9338
 30
0.0
 11
59.7697
 21
59.9338
 31
0.0
  0
LINE
  8
0
 62
     0
 10
59.7697
 20
59.9338
 30
0.0
 11
59.7697
 21
73.9331
 31
0.0
  0
LINE
  8
0
 62
     0
 10
78.8197
 20
73.9331
 30
0.0
 11
92.819
 21
73.9331
 31
0.0
  0
LINE
  8
0
 62
     0
 10
92.819
 20
73.9331
 30
0.0
 11
92.819
 21
59.9338
 31
0.0
  0
LINE
  8
0
 62
     0
 10
92.819
 20
59.9338
 30
0.0
 11
78.8197
 21
59.9338
 31
0.0
  0
LINE
  8
0
 62
     0
 10
78.8197
 20
59.9338
 30
0.0
 11
78.8197
 21
73.9331
 31
0.0
  0
LINE
  8
0
 62
     0
 10
97.8683
 20
73.9331
 30
0.0
 11
111.869
 21
73.9331
 31
0.0
  0
LINE
  8
0
 62
     0
 10
111.869
 20
73.9331
 30
0.0
 11
111.869
 21
59.9338
 31
0.0
  0
LINE
  8
0
 62
     0
 10
111.869
 20
59.9338
 30
0.0
 11
97.8683
 21
59.9338
 31
0.0
  0
LINE
  8
0
 62
     0
 10
97.8683
 20
59.9338
 30
0.0
 11
97.8683
 21
73.9331
 31
0.0
  0
ENDSEC
  0
EOF
